<svg width="309" height="531" viewBox="0 0 309 531" fill="none" xmlns="http://www.w3.org/2000/svg">
<path d="M154.998 378.846C163.58 378.848 171.818 375.461 177.937 369.417C184.055 363.372 187.561 355.154 187.701 346.536C188.099 321.558 188.305 290.783 188.305 287.266C188.31 278.71 187.084 270.198 184.664 261.994L184.675 261.991C183.246 257.873 181.52 253.866 179.511 250C185.679 258.256 190.587 267.388 194.075 277.097L194.064 277.1C196.484 285.304 197.71 293.816 197.705 302.372C197.705 305.889 197.499 336.664 197.101 361.642C196.962 370.26 193.455 378.478 187.337 384.523C181.219 390.567 172.98 393.954 164.398 393.952C157.322 393.951 150.437 391.645 144.776 387.382C139.115 383.118 134.983 377.125 133 370.303C139.013 375.81 146.86 378.858 154.998 378.846Z" fill="#3F3D56"/>
<path d="M175.769 503.494C181.912 500.807 187.348 496.723 191.65 491.564C195.952 486.405 199.001 480.313 200.557 473.768C202.113 467.223 202.134 460.404 200.617 453.849C199.099 447.295 196.086 441.185 191.815 436C196.767 439.631 200.894 444.279 203.921 449.635C206.948 454.991 208.806 460.932 209.372 467.064C209.938 473.196 209.199 479.379 207.204 485.202C205.209 491.025 202.004 496.356 197.801 500.84C193.598 505.324 188.494 508.859 182.827 511.21C177.16 513.562 171.059 514.675 164.931 514.478C158.803 514.28 152.786 512.776 147.281 510.064C141.776 507.352 136.908 503.496 133 498.75C139.095 503.224 146.251 506.017 153.755 506.849C161.259 507.682 168.849 506.525 175.769 503.494Z" fill="#3F3D56"/>
<path d="M158.24 506.859C134.359 506.859 115 487.415 115 463.43C115 439.444 134.359 420 158.24 420C182.121 420 201.48 439.444 201.48 463.43C201.48 487.415 182.121 506.859 158.24 506.859Z" fill="#FF0606"/>
<path d="M161.675 94.1754C151.949 94.642 142.482 97.4722 134.085 102.423C125.688 107.374 118.614 114.298 113.468 122.6C108.323 130.902 105.26 140.334 104.544 150.087C103.827 159.84 105.478 169.622 109.355 178.592C103.748 171.978 99.6263 164.228 97.2719 155.869C94.9175 147.511 94.3852 138.74 95.7114 130.156C97.0376 121.572 100.191 113.376 104.957 106.128C109.723 98.8786 115.989 92.747 123.328 88.1507C130.666 83.5545 138.906 80.6017 147.484 79.4936C156.062 78.3855 164.777 79.1483 173.036 81.7298C181.294 84.3113 188.9 88.651 195.337 94.4528C201.774 100.255 206.89 107.382 210.335 115.35C204.38 108.314 196.896 102.745 188.459 99.0741C180.022 95.4028 170.858 93.7268 161.675 94.1754Z" fill="#3F3D56"/>
<path d="M248.139 178.217C256.551 178.216 264.619 174.859 270.568 168.884C276.516 162.909 279.858 154.806 279.858 146.357C279.859 140.594 279.855 136.188 279.846 135.561C279.579 115.823 274.629 96.4329 265.409 79C280.558 99.8301 288.888 124.874 289.246 150.667C289.255 151.294 289.259 155.7 289.259 161.462C289.258 169.912 285.916 178.015 279.968 183.99C274.019 189.965 265.951 193.322 257.539 193.323C250.626 193.32 243.903 191.051 238.391 186.861C232.879 182.671 228.88 176.788 227 170.106C232.808 175.338 240.337 178.226 248.139 178.217Z" fill="#3F3D56"/>
<path d="M158.645 17.0033C226.2 17.4835 281.514 72.7271 282.474 140.703C282.483 141.33 282.487 145.743 282.486 151.515C282.486 159.977 279.145 168.093 273.199 174.077C267.252 180.062 259.187 183.424 250.778 183.425C246.609 183.424 242.481 182.596 238.63 180.99C234.779 179.383 231.281 177.028 228.335 174.06C225.388 171.092 223.052 167.569 221.46 163.692C219.867 159.816 219.049 155.661 219.053 151.466C219.056 147.54 219.058 144.822 219.058 144.655C219.06 134.15 216.345 123.825 211.178 114.696C206.012 105.567 198.574 97.9479 189.594 92.5893C180.614 87.2306 170.403 84.3165 159.965 84.1335C149.527 83.9506 139.221 86.5052 130.061 91.546C120.902 96.5867 113.204 103.94 107.725 112.883C102.246 121.825 99.1748 132.049 98.8134 142.548C98.452 153.047 100.813 163.46 105.664 172.763C110.515 182.066 117.689 189.937 126.48 195.604L126.469 195.617C126.469 195.617 171.6 224.854 185.36 264.963L185.348 264.966C187.767 273.182 188.993 281.708 188.988 290.277C188.988 293.8 188.782 324.623 188.384 349.64C188.245 358.271 184.739 366.502 178.623 372.556C172.507 378.61 164.271 382.002 155.692 382C151.382 382 147.113 381.142 143.133 379.476C139.153 377.809 135.54 375.367 132.501 372.291C129.463 369.214 127.059 365.563 125.428 361.547C123.796 357.532 122.97 353.232 122.997 348.894C123.135 325.983 123.21 299.305 123.21 297.369C123.21 272.741 99.6001 248.203 80.2064 232.201C57.874 213.774 41.8034 188.663 35.3486 160.337C33.9203 154.505 33.1327 148.533 33 142.528C33 125.967 36.2566 109.57 42.582 94.2811C48.9074 78.9923 58.1767 65.1142 69.8557 53.4462C81.5348 41.7783 95.3928 32.5513 110.631 26.2967C125.87 20.0421 142.188 16.8836 158.645 17.0033Z" fill="#FF0606"/>
</svg>
