<svg width="200" height="174" viewBox="0 0 200 174" fill="none" xmlns="http://www.w3.org/2000/svg">
<g clip-path="url(#clip0_174_315)">
<path d="M185.047 158.156C178.494 163.87 170.51 169.658 162.661 172.387C160.399 173.197 158.064 173.715 155.7 173.929C153.491 174.132 151.267 173.935 149.111 173.344C143.447 171.73 138.192 168.905 133.108 165.604C131.447 164.524 129.806 163.395 128.173 162.24C125.509 160.355 122.871 158.404 120.226 156.499C119.83 156.211 119.436 155.928 119.04 155.647H119.038C118.399 155.188 117.759 154.736 117.118 154.29C117.005 154.21 116.892 154.133 116.777 154.053C115.565 153.212 114.332 152.39 113.078 151.588C112.924 151.492 112.771 151.393 112.617 151.297C110.191 149.756 107.698 148.359 105.147 147.111C103.472 146.303 101.775 145.575 100.061 144.953H100.058C99.4032 144.717 98.7455 144.494 98.0854 144.291C96.1061 143.669 94.089 143.217 92.051 142.939C89.2426 142.55 86.4021 142.575 83.5995 143.016C83.4099 143.046 83.2226 143.076 83.033 143.112C75.448 144.503 68.5255 149.191 60.9068 150.296C60.6596 150.332 60.4148 150.365 60.1676 150.39C60.0619 150.401 59.9563 150.414 59.8507 150.423C57.6367 150.64 55.4086 150.577 53.2066 150.236C47.0546 149.307 41.0634 146.424 35.6699 142.79C23.061 134.295 12.8356 121.238 6.61881 106.117C5.55125 103.525 4.60342 100.871 3.77925 98.1657C1.47492 90.6635 0.205918 82.7958 0.0179336 74.8461C-0.565344 47.2638 13.1237 19.5908 34.6161 7.11605C56.111 -5.35865 84.3868 -1.2334 101.722 17.9308C112.238 29.5562 118.323 45.3097 126.236 59.3839C134.15 73.4554 145.398 86.8975 159.906 88.9478C167.296 89.9922 175.03 87.9721 182.113 90.5995C186.036 92.0562 189.382 94.843 192.077 98.3938C193.889 100.803 195.406 103.485 196.585 106.364C197.449 108.445 198.15 110.61 198.68 112.834C198.779 113.243 198.87 113.653 198.959 114.062C202.487 130.563 196.849 147.861 185.047 158.156Z" fill="#F2F2F2"/>
<path d="M67.0085 128.285H44.4455C41.0651 128.285 38.3247 131.423 38.3247 135.293V135.293C38.3247 139.164 41.0651 142.302 44.4455 142.302H67.0085C70.389 142.302 73.1294 139.164 73.1294 135.293C73.1294 131.423 70.389 128.285 67.0085 128.285Z" fill="#244F5D"/>
<path d="M60.1675 138.729V150.39C57.8498 150.646 55.5139 150.595 53.2065 150.236V138.729H60.1675Z" fill="#244F5D"/>
<path d="M83.5996 143.015C83.4099 143.046 83.2227 143.076 83.0331 143.112C75.4481 144.502 68.5255 149.191 60.9069 150.296C60.6597 150.331 60.4149 150.364 60.1676 150.389C60.062 150.4 59.9564 150.414 59.8508 150.422C57.9905 148.336 56.1303 146.115 54.3828 143.815C53.4347 142.57 52.5178 141.3 51.6561 140.014C49.419 136.694 47.5227 133.281 46.2698 129.928C46.397 128.32 45.5233 124.601 45.1056 121.754L45.1032 121.751C44.9256 120.556 44.8296 119.517 44.9184 118.849C45.4273 114.996 48.1756 115.439 49.0205 111.662C49.7827 110.938 50.5942 110.285 51.4472 109.708C51.5889 109.612 51.7329 109.516 51.8817 109.42L61.0509 102.164L64.5554 106.1L69.8889 112.091L75.6689 118.58L70.7626 124.255C70.7626 124.255 74.8624 129.667 79.6558 136.881C80.9424 138.819 82.2794 140.888 83.5996 143.015Z" fill="#042637"/>
<path d="M162.661 138.729V172.387C160.398 173.198 158.064 173.715 155.7 173.929V138.729H162.661Z" fill="#244F5D"/>
<path d="M171.662 135.98H149.099C145.719 135.98 142.979 139.118 142.979 142.989V142.989C142.979 146.859 145.719 149.997 149.099 149.997H171.662C175.043 149.997 177.783 146.859 177.783 142.989C177.783 139.118 175.043 135.98 171.662 135.98Z" fill="#244F5D"/>
<path d="M116.777 154.053C115.565 153.212 114.332 152.391 113.078 151.588C112.924 151.492 112.771 151.393 112.617 151.297L113.443 150.893L115.67 149.796L115.692 149.785L115.716 149.879L116.777 154.053Z" fill="#FFB6B6"/>
<path d="M120.226 156.499C119.83 156.211 119.436 155.928 119.04 155.648H119.038C118.399 155.189 117.759 154.736 117.117 154.29C117.005 154.21 116.892 154.133 116.777 154.053C115.564 153.212 114.331 152.391 113.078 151.588C112.924 151.492 112.77 151.393 112.617 151.297C110.191 149.756 107.698 148.359 105.147 147.111C103.472 146.303 101.775 145.575 100.061 144.954H100.058L98.7118 142.373L92.651 130.75L91.3188 128.197C91.3188 128.197 86.775 129.736 80.3445 131.212C78.0042 131.751 75.4167 132.278 72.7019 132.724C69.7999 133.196 66.7563 133.573 63.7319 133.754C62.2893 133.842 60.8515 133.886 59.4354 133.872C55.7749 133.845 52.2584 133.452 49.1788 132.517C48.1514 131.413 45.055 129.909 42.8371 128.532H42.8347C41.9034 127.955 41.1305 127.403 40.7249 126.911C38.3869 124.08 40.384 121.873 38.3053 118.784C38.2773 117.651 38.3279 116.517 38.4566 115.393C38.4782 115.206 38.4998 115.016 38.5262 114.824L39.1814 102.082L44.0493 101.346L51.4567 100.225L59.481 99.0098L60.3643 106.93C60.3643 106.93 66.6123 106.568 74.5286 106.689C87.2431 106.887 104.257 108.338 106.561 114.565C106.777 115.151 106.993 115.742 107.209 116.333C107.723 117.745 108.231 119.165 108.736 120.592C110.562 125.759 112.305 130.976 113.896 135.906C114.885 138.973 115.816 141.931 116.673 144.698C117.362 146.924 118.001 149.029 118.584 150.967C119.117 152.737 119.599 154.367 120.029 155.829C120.096 156.057 120.161 156.282 120.226 156.499Z" fill="#042637"/>
<path d="M75.4466 79.3017L60.0713 64.3504L70.0746 52.7588L77.0536 65.8472L102.923 71.7196C103.701 71.0493 104.632 70.6526 105.603 70.5779C106.575 70.5033 107.544 70.7538 108.393 71.299C109.242 71.8442 109.935 72.6605 110.385 73.6484C110.836 74.6363 111.027 75.753 110.933 76.8625C110.839 77.972 110.465 79.0263 109.857 79.8968C109.249 80.7673 108.433 81.4165 107.508 81.7651C106.584 82.1137 105.59 82.1467 104.65 81.8601C103.709 81.5735 102.861 80.9796 102.21 80.151L75.4466 79.3017Z" fill="#A0616A"/>
<path d="M46.483 44.7012C44.7061 51.3199 61.6289 67.1056 61.6289 67.1056C61.817 65.5167 71.4116 79.2185 72.0644 77.9776C73.9197 74.4509 75.961 65.7333 78.1028 64.6191C79.3277 63.9819 72.3011 55.1254 72.3011 55.1254C72.3011 55.1254 68.7168 49.6957 63.9843 42.8144C62.6779 40.8405 60.9566 39.2771 58.9805 38.2699C57.0045 37.2626 54.8379 36.8442 52.6827 37.0535C52.6827 37.0535 48.2599 38.0825 46.483 44.7012Z" fill="#244F5D"/>
<path d="M53.9653 30.0482C59.7086 30.0482 64.3645 24.7173 64.3645 18.1413C64.3645 11.5653 59.7086 6.23438 53.9653 6.23438C48.222 6.23438 43.5662 11.5653 43.5662 18.1413C43.5662 24.7173 48.222 30.0482 53.9653 30.0482Z" fill="#A0616A"/>
<path d="M59.1649 37.918C61.4052 39.443 62.7454 42.245 63.5147 45.0963C64.939 50.3751 65.7964 55.8329 66.0678 61.3491L66.8804 77.8637L76.9441 113.028C68.2222 121.478 35.438 114.948 35.438 114.948C35.438 114.948 34.4316 114.564 35.438 113.412C36.4443 112.26 37.4241 113.281 36.4177 112.128C35.4113 110.976 36.1051 112.26 36.4405 111.107C36.776 109.955 36.4405 110.723 36.1051 110.339C35.7696 109.955 38.702 106.498 38.702 106.498L36.0184 86.3137L32.6638 45.5998C36.6893 39.8384 44.7851 36.4421 44.7851 36.4421L46.8769 32.1309L57.3361 33.0889L59.1649 37.918Z" fill="#244F5D"/>
<path d="M62.5378 11.8158C63.346 12.506 63.9448 13.4691 64.2499 14.5695C64.3671 12.7713 64.3745 10.9659 64.2721 9.16644C64.1496 7.90198 63.3721 7.61755 62.4718 7.28799C61.6588 6.99023 60.7393 6.65389 60.4919 5.42638C57.223 1.78527 51.5325 1.96887 47.6381 3.23895C45.4952 3.93785 44.2621 4.8358 44.1518 5.36182L44.129 5.47011L44.0419 5.51993C42.3901 6.46558 42.0686 9.45178 42.0898 11.7903C42.1301 16.1963 43.4587 21.2003 44.2072 21.6069C44.2468 21.6284 44.2568 21.6199 44.274 21.6036C45.401 20.5723 46.776 21.6819 47.3803 22.2852C47.7367 19.5468 48.8843 17.0241 50.6397 15.1201C52.3952 13.2161 54.6573 12.0405 57.0647 11.7812C57.8509 11.6942 58.6308 11.5445 59.3988 11.3331C59.7883 11.2177 60.1888 11.1575 60.5912 11.1539C61.2838 11.1419 61.9631 11.3728 62.5378 11.8158Z" fill="#042637"/>
<path d="M49.4342 97.2411L46.2531 95.3757C46.0827 95.2366 45.9616 95.032 45.912 94.7992C45.8624 94.5664 45.8877 94.3209 45.9831 94.1077C46.0785 93.8944 46.2377 93.7275 46.4316 93.6375C46.6256 93.5475 46.8414 93.5404 47.0395 93.6175L50.2206 95.4829C50.3911 95.622 50.5121 95.8266 50.5617 96.0594C50.6113 96.2922 50.5861 96.5377 50.4907 96.7509C50.3953 96.9642 50.2361 97.1311 50.0421 97.2211C49.8481 97.3111 49.6324 97.3182 49.4342 97.2411Z" fill="#76B940"/>
<path d="M38.7283 92.2433L33.4954 69.9372L47.4793 66.9062L46.7273 82.217L65.101 103.879C66.0737 103.833 67.037 104.113 67.8734 104.683C68.7098 105.254 69.3831 106.091 69.8113 107.092C70.2395 108.093 70.4041 109.215 70.285 110.321C70.1658 111.427 69.7681 112.47 69.1404 113.322C68.5126 114.174 67.6819 114.799 66.7496 115.119C65.8172 115.44 64.8235 115.443 63.8896 115.129C62.9557 114.814 62.1219 114.195 61.4899 113.347C60.858 112.499 60.4551 111.459 60.3305 110.353L38.7283 92.2433Z" fill="#A0616A"/>
<path d="M32.0642 44.9276C27.3175 49.2182 33.4099 73.2177 33.4099 73.2177C34.3531 72.0324 35.4492 89.5497 36.6022 88.9532C39.8789 87.258 45.8848 81.4123 48.2002 81.8888C49.5243 82.1613 48.1371 70.302 48.1371 70.302C48.1371 70.302 47.8819 63.5021 47.4023 54.7607C47.3068 52.2865 46.6661 49.8801 45.5398 47.7657C44.4136 45.6513 42.8384 43.8975 40.9609 42.6676C40.9609 42.6676 36.8108 40.6371 32.0642 44.9276Z" fill="#244F5D"/>
<path d="M196.585 106.364L6.61887 106.117C5.5513 103.525 4.60347 100.871 3.7793 98.166L192.077 98.3941C193.889 100.804 195.406 103.485 196.585 106.364Z" fill="#244F5D"/>
<path d="M136.08 164.03C135.098 164.574 134.108 165.099 133.108 165.604C131.447 164.524 129.806 163.395 128.173 162.24L134.227 159.195L136.08 164.03Z" fill="#FFB6B6"/>
<path d="M180.217 126.157C179.233 127.669 178.218 129.15 177.171 130.601C176.206 131.94 175.216 133.252 174.2 134.539C173.78 135.073 173.355 135.603 172.92 136.128C172.121 137.109 171.304 138.074 170.469 139.022C168.967 139.563 165.923 140.517 162.661 141.408C160.287 142.053 157.798 142.666 155.7 143.057C154.526 143.298 153.338 143.443 152.145 143.491C150.729 143.505 149.291 143.461 147.849 143.373C146.221 143.274 144.592 143.12 142.981 142.922C138.792 142.419 134.736 141.636 131.236 140.83C129.955 140.539 128.75 140.242 127.641 139.954C125.54 139.412 123.783 138.907 122.511 138.522C121.078 138.093 120.262 137.815 120.262 137.815L116.674 144.697L114.811 148.267L113.443 150.892L113.078 151.587C112.924 151.491 112.771 151.392 112.617 151.296C110.191 149.755 107.698 148.358 105.147 147.11C103.472 146.302 101.775 145.574 100.061 144.953H100.059C99.4032 144.717 98.7455 144.494 98.0854 144.291C98.2919 143.656 98.5007 143.016 98.7119 142.372C99.1056 141.171 99.5072 139.959 99.9169 138.736C100.803 136.087 101.72 133.399 102.663 130.725C103.436 128.529 104.223 126.341 105.02 124.184C105.387 123.189 106.134 122.315 107.178 121.548C107.677 121.188 108.197 120.868 108.736 120.592C111.724 119.033 116.126 118.019 120.977 117.368C121.378 117.316 121.781 117.263 122.187 117.214C126.203 116.73 130.463 116.48 134.448 116.365C136.443 116.307 138.368 116.285 140.158 116.282C140.737 116.282 141.299 116.284 141.846 116.288H141.848C143.324 116.296 144.683 116.321 145.878 116.348C146.111 116.354 146.337 116.362 146.558 116.367H146.56C146.709 116.37 146.855 116.376 146.999 116.378C149.613 116.455 151.217 116.549 151.217 116.549L151.838 110.964L151.965 109.837L152.085 108.766V108.763L152.1 108.628L152.198 108.625L153.927 108.587L168.453 108.263L176.389 108.084L175.131 114.257L173.055 124.442C173.266 126.053 180.289 124.791 180.217 126.157Z" fill="#042637"/>
<path d="M137.871 163.012C137.278 163.359 136.68 163.699 136.08 164.029C135.098 164.573 134.108 165.098 133.108 165.604C131.447 164.524 129.806 163.394 128.173 162.24C125.509 160.355 122.871 158.403 120.226 156.499C119.83 156.21 119.436 155.927 119.04 155.647H119.038C117.948 153.794 116.837 151.865 115.716 149.878C115.699 149.851 115.685 149.823 115.67 149.796C115.382 149.29 115.096 148.781 114.811 148.268C113.018 145.052 111.215 141.699 109.465 138.275L113.896 135.905L122.134 131.503L123.555 130.744L127.641 139.954L131.284 148.169L132.096 149.996L137.871 163.012Z" fill="#042637"/>
<path d="M139.112 118.796L160.115 95.6049L165.937 76.7322L157.35 72.457C152.939 77.2945 148.172 92.3617 148.172 92.3617L133.719 113.415C133.606 113.459 133.494 113.506 133.383 113.562C132.732 113.891 132.166 114.406 131.74 115.059C131.314 115.711 131.042 116.478 130.95 117.286C130.859 118.094 130.951 118.915 131.217 119.67C131.484 120.425 131.916 121.089 132.472 121.597C133.028 122.105 133.69 122.44 134.392 122.57C135.094 122.7 135.814 122.621 136.482 122.339C137.149 122.058 137.742 121.584 138.203 120.963C138.664 120.342 138.977 119.596 139.112 118.796Z" fill="#FFB8B8"/>
<path d="M154.934 74.5647L165.825 78.5237L165.866 78.5159C169.92 77.7384 173.284 70.1575 175.392 63.9349C176.086 61.8824 176.073 59.6049 175.356 57.5629C174.639 55.521 173.272 53.8668 171.53 52.9348C170.242 52.2572 168.814 52.0059 167.407 52.2091C166 52.4123 164.671 53.062 163.57 54.0848L157.977 59.3175L154.934 74.5647Z" fill="#76B940"/>
<path d="M180.173 126.436L180.237 126.339C183.635 121.179 178.987 108.4 178.285 106.546L181.444 105.475L180.894 98.5862L180.628 95.5146L183.085 92.8433L183.093 92.7752L184.783 79.0081L186.994 69.8963C187.827 66.4516 187.845 62.8151 187.045 59.3601C186.245 55.9051 184.656 52.756 182.443 50.2361L177.923 45.0987L172.509 35.3953L163.431 35.127L160.167 41.7666C157.131 42.476 154.409 44.3823 152.475 47.1534C150.54 49.9245 149.516 53.3848 149.581 56.9316L149.888 74.6077L146.631 96.5084L146.539 100.487L143.342 104.349L143.933 108.255L141.542 109.345L140.372 114.895C139.925 115.535 136.974 119.806 136.947 120.997C136.943 121.175 137.054 121.352 137.297 121.551C139.207 123.115 149.884 126.506 154.689 124.468C159.807 122.298 179.867 126.373 180.069 126.414L180.173 126.436Z" fill="#76B940"/>
<path d="M167.177 32.1526C173.819 32.1526 179.204 25.9875 179.204 18.3825C179.204 10.7774 173.819 4.6123 167.177 4.6123C160.535 4.6123 155.151 10.7774 155.151 18.3825C155.151 25.9875 160.535 32.1526 167.177 32.1526Z" fill="#FFB8B8"/>
<path d="M165.71 32.3366C167.573 32.3699 169.434 32.2209 171.274 31.8914C173.099 31.4667 177.179 28.0429 178.317 25.9825C179.162 24.4517 179.702 22.0613 180.007 20.3256C180.417 18.0288 180.401 15.6589 179.961 13.3695C179.52 11.08 178.665 8.922 177.45 7.0352C176.983 6.246 176.338 5.616 175.584 5.21185C175.517 5.18193 175.448 5.15541 175.379 5.13274C174.28 4.80171 173.293 4.1022 172.543 3.12401C172.398 2.92616 172.241 2.74055 172.072 2.56861C171.226 1.75054 170.222 1.17349 169.143 0.884629C167.402 0.351064 164.882 0.880698 161.654 2.46034C160.032 3.25399 158.258 2.96677 156.893 2.62784C156.817 2.61091 156.738 2.61723 156.664 2.64616C156.59 2.67509 156.524 2.72563 156.473 2.79274C155.892 3.41681 155.127 3.76614 154.331 3.77051C153.843 3.79503 153.331 4.56829 152.713 5.57664C152.572 5.80554 152.409 6.07268 152.29 6.23516L152.275 5.923L151.999 6.27124C151.565 6.81857 151.259 7.48267 151.11 8.20167C150.961 8.92068 150.973 9.67122 151.146 10.3834C151.318 11.0956 151.645 11.7462 152.096 12.2748C152.547 12.8033 153.108 13.1925 153.726 13.4062C154.216 13.5557 154.719 13.6474 155.226 13.68C155.533 13.7116 155.85 13.7443 156.155 13.8048C157.132 14.0338 158.04 14.549 158.791 15.2999C159.542 16.0509 160.11 17.012 160.44 18.0895C160.518 18.3385 160.645 18.5637 160.811 18.7477C160.977 18.9316 161.178 19.0695 161.398 19.1505C161.618 19.2315 161.851 19.2535 162.08 19.2149C162.308 19.1763 162.526 19.0781 162.716 18.9278C163.033 18.6451 163.405 18.4544 163.801 18.372C164.196 18.2896 164.603 18.3178 164.987 18.4544C165.318 18.6655 165.576 19.0008 165.718 19.404C165.89 19.8531 166.174 20.2335 166.536 20.4966C167.772 21.2263 167.857 24.4589 167.413 27.1537C166.985 29.7512 166.139 31.6303 165.356 31.7232C164.753 31.7946 164.684 31.8436 164.64 31.9657L164.601 32.075L164.669 32.1773C165.002 32.3155 165.357 32.3699 165.71 32.3366Z" fill="#042637"/>
<path d="M157.92 70.4018L153.283 59.8164C146.552 60.3428 133.194 69.2535 133.194 69.2535L107.919 75.3893C107.17 75.0597 106.359 74.9618 105.566 75.1055C104.774 75.2491 104.029 75.6291 103.406 76.2074C102.782 76.7856 102.303 77.5417 102.016 78.3994C101.729 79.2571 101.645 80.1862 101.771 81.0932C101.898 82.0002 102.23 82.853 102.736 83.5659C103.242 84.2788 103.903 84.8266 104.652 85.1541C105.402 85.4816 106.213 85.5772 107.005 85.4314C107.797 85.2857 108.542 84.9036 109.164 84.3236L141.315 81.6849L157.92 70.4018Z" fill="#FFB8B8"/>
<path d="M156.05 72.1393L168.16 61.8345L170.294 53.0324C170.707 51.3026 170.69 49.475 170.243 47.756C169.797 46.037 168.94 44.4952 167.768 43.3048C166.171 41.7034 164.102 40.8563 161.98 40.9347C159.858 41.0131 157.841 42.0112 156.337 43.7271C151.78 48.9356 146.582 56.2018 147.698 61.2404L147.71 61.2915L156.05 72.1393Z" fill="#76B940"/>
<path d="M141.058 99.7021H108.654V104.649H141.058V99.7021Z" fill="white"/>
<path d="M58.2473 99.7021H25.843V104.649H58.2473V99.7021Z" fill="white"/>
<path d="M62.0312 75.9121V99.4664C62.0315 99.7666 62.1357 100.054 62.3211 100.267C62.5064 100.479 62.7578 100.598 63.02 100.598H93.5051C93.7673 100.598 94.0186 100.479 94.204 100.267C94.3894 100.054 94.4936 99.7666 94.4938 99.4664V75.9121C94.4932 75.6121 94.3888 75.3247 94.2035 75.1128C94.0182 74.9008 93.767 74.7816 93.5051 74.7812H63.02C62.758 74.7816 62.5069 74.9008 62.3216 75.1128C62.1363 75.3247 62.0319 75.6121 62.0312 75.9121Z" fill="#244F5D"/>
<path d="M62.7463 76.2049V99.1756C62.7466 99.336 62.8023 99.4897 62.9014 99.6031C63.0004 99.7165 63.1347 99.7804 63.2747 99.7806H93.2513C93.3913 99.7804 93.5256 99.7165 93.6246 99.6031C93.7237 99.4897 93.7794 99.336 93.7797 99.1756V76.2049C93.7797 76.0443 93.724 75.8903 93.625 75.7767C93.5259 75.663 93.3915 75.599 93.2513 75.5986H63.2747C63.1345 75.599 63.0001 75.663 62.9011 75.7767C62.802 75.8903 62.7464 76.0443 62.7463 76.2049Z" fill="#76B940"/>
<path d="M61.3936 104.06C61.4494 104.14 61.5204 104.205 61.6012 104.249C61.682 104.294 61.7705 104.316 61.8601 104.316H94.5025C94.5918 104.316 94.6799 104.293 94.7605 104.249C94.8411 104.205 94.912 104.141 94.9683 104.061C95.0245 103.982 95.0646 103.889 95.0856 103.79C95.1066 103.691 95.108 103.587 95.0897 103.487L94.583 100.731C94.562 100.619 94.5167 100.514 94.4514 100.427C94.3861 100.34 94.3027 100.273 94.209 100.232C94.1411 100.201 94.0687 100.185 93.9958 100.186H62.3648C62.2919 100.185 62.2195 100.201 62.1516 100.232C62.0579 100.273 61.9745 100.34 61.9092 100.427C61.8439 100.514 61.7986 100.619 61.7776 100.731L61.2709 103.487C61.2529 103.587 61.2546 103.69 61.2758 103.789C61.297 103.889 61.3372 103.981 61.3936 104.06Z" fill="#042637"/>
<path d="M92.8757 101.372H93.6467C93.7115 101.372 93.7639 101.312 93.7639 101.238V100.816C93.7639 100.741 93.7115 100.681 93.6467 100.681H92.8757C92.811 100.681 92.7585 100.741 92.7585 100.816V101.238C92.7585 101.312 92.811 101.372 92.8757 101.372Z" fill="#244F5D"/>
<path d="M90.865 101.372H91.636C91.7007 101.372 91.7532 101.312 91.7532 101.238V100.816C91.7532 100.741 91.7007 100.681 91.636 100.681H90.865C90.8003 100.681 90.7478 100.741 90.7478 100.816V101.238C90.7478 101.312 90.8003 101.372 90.865 101.372Z" fill="#244F5D"/>
<path d="M88.8543 101.372H89.6253C89.69 101.372 89.7424 101.312 89.7424 101.238V100.816C89.7424 100.741 89.69 100.681 89.6253 100.681H88.8543C88.7895 100.681 88.7371 100.741 88.7371 100.816V101.238C88.7371 101.312 88.7895 101.372 88.8543 101.372Z" fill="#244F5D"/>
<path d="M86.8435 101.372H87.6145C87.6792 101.372 87.7317 101.312 87.7317 101.238V100.816C87.7317 100.741 87.6792 100.681 87.6145 100.681H86.8435C86.7788 100.681 86.7263 100.741 86.7263 100.816V101.238C86.7263 101.312 86.7788 101.372 86.8435 101.372Z" fill="#244F5D"/>
<path d="M84.8328 101.372H85.6038C85.6685 101.372 85.7209 101.312 85.7209 101.238V100.816C85.7209 100.741 85.6685 100.681 85.6038 100.681H84.8328C84.768 100.681 84.7156 100.741 84.7156 100.816V101.238C84.7156 101.312 84.768 101.372 84.8328 101.372Z" fill="#244F5D"/>
<path d="M82.822 101.372H83.593C83.6577 101.372 83.7102 101.312 83.7102 101.238V100.816C83.7102 100.741 83.6577 100.681 83.593 100.681H82.822C82.7573 100.681 82.7048 100.741 82.7048 100.816V101.238C82.7048 101.312 82.7573 101.372 82.822 101.372Z" fill="#244F5D"/>
<path d="M80.8113 101.372H81.5823C81.647 101.372 81.6995 101.312 81.6995 101.238V100.816C81.6995 100.741 81.647 100.681 81.5823 100.681H80.8113C80.7466 100.681 80.6941 100.741 80.6941 100.816V101.238C80.6941 101.312 80.7466 101.372 80.8113 101.372Z" fill="#244F5D"/>
<path d="M78.8005 101.372H79.5715C79.6363 101.372 79.6887 101.312 79.6887 101.238V100.816C79.6887 100.741 79.6363 100.681 79.5715 100.681H78.8005C78.7358 100.681 78.6834 100.741 78.6834 100.816V101.238C78.6834 101.312 78.7358 101.372 78.8005 101.372Z" fill="#244F5D"/>
<path d="M76.7898 101.372H77.5608C77.6255 101.372 77.678 101.312 77.678 101.238V100.816C77.678 100.741 77.6255 100.681 77.5608 100.681H76.7898C76.7251 100.681 76.6726 100.741 76.6726 100.816V101.238C76.6726 101.312 76.7251 101.372 76.7898 101.372Z" fill="#244F5D"/>
<path d="M74.779 101.372H75.5501C75.6148 101.372 75.6672 101.312 75.6672 101.238V100.816C75.6672 100.741 75.6148 100.681 75.5501 100.681H74.779C74.7143 100.681 74.6619 100.741 74.6619 100.816V101.238C74.6619 101.312 74.7143 101.372 74.779 101.372Z" fill="#244F5D"/>
<path d="M72.7683 101.372H73.5393C73.604 101.372 73.6565 101.312 73.6565 101.238V100.816C73.6565 100.741 73.604 100.681 73.5393 100.681H72.7683C72.7036 100.681 72.6511 100.741 72.6511 100.816V101.238C72.6511 101.312 72.7036 101.372 72.7683 101.372Z" fill="#244F5D"/>
<path d="M70.7576 101.372H71.5286C71.5933 101.372 71.6458 101.312 71.6458 101.238V100.816C71.6458 100.741 71.5933 100.681 71.5286 100.681H70.7576C70.6928 100.681 70.6404 100.741 70.6404 100.816V101.238C70.6404 101.312 70.6928 101.372 70.7576 101.372Z" fill="#244F5D"/>
<path d="M68.7468 101.372H69.5178C69.5825 101.372 69.635 101.312 69.635 101.238V100.816C69.635 100.741 69.5825 100.681 69.5178 100.681H68.7468C68.6821 100.681 68.6296 100.741 68.6296 100.816V101.238C68.6296 101.312 68.6821 101.372 68.7468 101.372Z" fill="#244F5D"/>
<path d="M66.7361 101.372H67.5071C67.5718 101.372 67.6243 101.312 67.6243 101.238V100.816C67.6243 100.741 67.5718 100.681 67.5071 100.681H66.7361C66.6714 100.681 66.6189 100.741 66.6189 100.816V101.238C66.6189 101.312 66.6714 101.372 66.7361 101.372Z" fill="#244F5D"/>
<path d="M64.7253 101.372H65.4963C65.5611 101.372 65.6135 101.312 65.6135 101.238V100.816C65.6135 100.741 65.5611 100.681 65.4963 100.681H64.7253C64.6606 100.681 64.6082 100.741 64.6082 100.816V101.238C64.6082 101.312 64.6606 101.372 64.7253 101.372Z" fill="#244F5D"/>
<path d="M62.7146 101.372H63.4856C63.5503 101.372 63.6028 101.312 63.6028 101.238V100.816C63.6028 100.741 63.5503 100.681 63.4856 100.681H62.7146C62.6499 100.681 62.5974 100.741 62.5974 100.816V101.238C62.5974 101.312 62.6499 101.372 62.7146 101.372Z" fill="#244F5D"/>
<path d="M92.8996 102.523H93.6707C93.7354 102.523 93.7878 102.463 93.7878 102.389V101.967C93.7878 101.893 93.7354 101.833 93.6707 101.833H92.8996C92.8349 101.833 92.7825 101.893 92.7825 101.967V102.389C92.7825 102.463 92.8349 102.523 92.8996 102.523Z" fill="#244F5D"/>
<path d="M90.8887 102.523H91.6597C91.7244 102.523 91.7769 102.463 91.7769 102.389V101.967C91.7769 101.893 91.7244 101.833 91.6597 101.833H90.8887C90.8239 101.833 90.7715 101.893 90.7715 101.967V102.389C90.7715 102.463 90.8239 102.523 90.8887 102.523Z" fill="#244F5D"/>
<path d="M88.8782 102.523H89.6492C89.7139 102.523 89.7664 102.463 89.7664 102.389V101.967C89.7664 101.893 89.7139 101.833 89.6492 101.833H88.8782C88.8134 101.833 88.761 101.893 88.761 101.967V102.389C88.761 102.463 88.8134 102.523 88.8782 102.523Z" fill="#244F5D"/>
<path d="M86.8672 102.523H87.6382C87.7029 102.523 87.7554 102.463 87.7554 102.389V101.967C87.7554 101.893 87.7029 101.833 87.6382 101.833H86.8672C86.8025 101.833 86.75 101.893 86.75 101.967V102.389C86.75 102.463 86.8025 102.523 86.8672 102.523Z" fill="#244F5D"/>
<path d="M84.8567 102.523H85.6277C85.6924 102.523 85.7449 102.463 85.7449 102.389V101.967C85.7449 101.893 85.6924 101.833 85.6277 101.833H84.8567C84.792 101.833 84.7395 101.893 84.7395 101.967V102.389C84.7395 102.463 84.792 102.523 84.8567 102.523Z" fill="#244F5D"/>
<path d="M82.8457 102.523H83.6167C83.6814 102.523 83.7339 102.463 83.7339 102.389V101.967C83.7339 101.893 83.6814 101.833 83.6167 101.833H82.8457C82.781 101.833 82.7285 101.893 82.7285 101.967V102.389C82.7285 102.463 82.781 102.523 82.8457 102.523Z" fill="#244F5D"/>
<path d="M80.835 102.523H81.606C81.6707 102.523 81.7231 102.463 81.7231 102.389V101.967C81.7231 101.893 81.6707 101.833 81.606 101.833H80.835C80.7702 101.833 80.7178 101.893 80.7178 101.967V102.389C80.7178 102.463 80.7702 102.523 80.835 102.523Z" fill="#244F5D"/>
<path d="M78.8242 102.523H79.5952C79.6599 102.523 79.7124 102.463 79.7124 102.389V101.967C79.7124 101.893 79.6599 101.833 79.5952 101.833H78.8242C78.7595 101.833 78.707 101.893 78.707 101.967V102.389C78.707 102.463 78.7595 102.523 78.8242 102.523Z" fill="#244F5D"/>
<path d="M76.8135 102.523H77.5845C77.6492 102.523 77.7017 102.463 77.7017 102.389V101.967C77.7017 101.893 77.6492 101.833 77.5845 101.833H76.8135C76.7487 101.833 76.6963 101.893 76.6963 101.967V102.389C76.6963 102.463 76.7487 102.523 76.8135 102.523Z" fill="#244F5D"/>
<path d="M74.8027 102.523H75.5737C75.6385 102.523 75.6909 102.463 75.6909 102.389V101.967C75.6909 101.893 75.6385 101.833 75.5737 101.833H74.8027C74.738 101.833 74.6855 101.893 74.6855 101.967V102.389C74.6855 102.463 74.738 102.523 74.8027 102.523Z" fill="#244F5D"/>
<path d="M72.792 102.523H73.563C73.6277 102.523 73.6802 102.463 73.6802 102.389V101.967C73.6802 101.893 73.6277 101.833 73.563 101.833H72.792C72.7273 101.833 72.6748 101.893 72.6748 101.967V102.389C72.6748 102.463 72.7273 102.523 72.792 102.523Z" fill="#244F5D"/>
<path d="M70.7812 102.523H71.5523C71.617 102.523 71.6694 102.463 71.6694 102.389V101.967C71.6694 101.893 71.617 101.833 71.5523 101.833H70.7812C70.7165 101.833 70.6641 101.893 70.6641 101.967V102.389C70.6641 102.463 70.7165 102.523 70.7812 102.523Z" fill="#244F5D"/>
<path d="M68.7705 102.523H69.5415C69.6062 102.523 69.6587 102.463 69.6587 102.389V101.967C69.6587 101.893 69.6062 101.833 69.5415 101.833H68.7705C68.7058 101.833 68.6533 101.893 68.6533 101.967V102.389C68.6533 102.463 68.7058 102.523 68.7705 102.523Z" fill="#244F5D"/>
<path d="M66.7598 102.523H67.5308C67.5955 102.523 67.6479 102.463 67.6479 102.389V101.967C67.6479 101.893 67.5955 101.833 67.5308 101.833H66.7598C66.695 101.833 66.6426 101.893 66.6426 101.967V102.389C66.6426 102.463 66.695 102.523 66.7598 102.523Z" fill="#244F5D"/>
<path d="M64.749 102.523H65.52C65.5847 102.523 65.6372 102.463 65.6372 102.389V101.967C65.6372 101.893 65.5847 101.833 65.52 101.833H64.749C64.6843 101.833 64.6318 101.893 64.6318 101.967V102.389C64.6318 102.463 64.6843 102.523 64.749 102.523Z" fill="#244F5D"/>
<path d="M62.7383 102.523H63.5093C63.574 102.523 63.6265 102.463 63.6265 102.389V101.967C63.6265 101.893 63.574 101.833 63.5093 101.833H62.7383C62.6736 101.833 62.6211 101.893 62.6211 101.967V102.389C62.6211 102.463 62.6736 102.523 62.7383 102.523Z" fill="#244F5D"/>
<path d="M76.2104 103.904H84.019C84.0838 103.904 84.1362 103.844 84.1362 103.77V103.348C84.1362 103.274 84.0838 103.214 84.019 103.214H76.2104C76.1457 103.214 76.0933 103.274 76.0933 103.348V103.77C76.0933 103.844 76.1457 103.904 76.2104 103.904Z" fill="#244F5D"/>
</g>
<defs>
<clipPath id="clip0_174_315">
<rect width="200" height="174" fill="white"/>
</clipPath>
</defs>
</svg>
