<svg width="87" height="96" viewBox="0 0 87 96" fill="none" xmlns="http://www.w3.org/2000/svg">
<path d="M64.8889 73.4445H49.9167H34.9445" stroke="black" stroke-width="9.23429" stroke-linecap="round" stroke-linejoin="round"/>
<path d="M64.8889 56.3333H62.75H60.6111" stroke="black" stroke-width="9.23429" stroke-linecap="round" stroke-linejoin="round"/>
<path d="M64.8889 39.2222H58.4722H52.0556" stroke="black" stroke-width="9.23429" stroke-linecap="round" stroke-linejoin="round"/>
<path d="M64.8889 5H24.25L5.00003 24.25V77.7222" stroke="black" stroke-width="9.23429" stroke-linecap="round" stroke-linejoin="round"/>
<path d="M82 84.1389V24.25C82 20.7061 79.1272 17.8333 75.5833 17.8333H33.8686C33.188 17.8333 32.5352 18.1037 32.054 18.5851L18.5849 32.0538C18.1037 32.5351 17.8333 33.188 17.8333 33.8687V84.1389C17.8333 87.6826 20.7063 90.5555 24.25 90.5555H75.5833C79.1272 90.5555 82 87.6826 82 84.1389Z" stroke="black" stroke-width="9.23429" stroke-linecap="round" stroke-linejoin="round"/>
<path d="M34.9445 17.8333V32.3778C34.9445 33.7953 33.7955 34.9444 32.3779 34.9444H17.8334" stroke="black" stroke-width="9.23429" stroke-linecap="round" stroke-linejoin="round"/>
</svg>
