<svg width="70" height="100" viewBox="0 0 70 100" fill="none" xmlns="http://www.w3.org/2000/svg">
<path d="M32.765 0.530015C33.459 0.183223 34.2242 0.00268555 35 0.00268555C35.7758 0.00268555 36.541 0.183223 37.235 0.530015L65.475 14.65L63.59 15.2L63.42 15.255L35 24.73L6.6 15.26L4.635 14.595L32.765 0.530015ZM70 40V23.74L66.5 24.77L60 26.935V40C60 41.3261 60.5268 42.5979 61.4645 43.5355C62.4021 44.4732 63.6739 45 65 45C66.3261 45 67.5979 44.4732 68.5355 43.5355C69.4732 42.5979 70 41.3261 70 40ZM55 35C55 32.88 54.67 30.835 54.06 28.92L36.58 34.745C35.5544 35.0866 34.4456 35.0866 33.42 34.745L15.94 28.92C15.066 31.6692 14.7971 34.575 15.1517 37.438C15.5063 40.3009 16.4761 43.0532 17.9945 45.5061C19.5129 47.959 21.5439 50.0544 23.9483 51.6485C26.3526 53.2426 29.0734 54.2977 31.9239 54.7414C34.7744 55.1851 37.6871 55.0069 40.4623 54.219C43.2374 53.4311 45.8093 52.0522 48.0014 50.1769C50.1935 48.3016 51.9539 45.9742 53.162 43.3545C54.37 40.7349 54.997 37.8848 55 35Z" fill="black"/>
<path d="M23.5 56.3851C22.9262 55.821 22.2248 55.4038 21.4553 55.1688C20.6858 54.9337 19.871 54.8879 19.08 55.0351C8.1 57.1001 0 67.4451 0 78.2501V89.0001C0 95.1501 5.15501 99.7151 11 99.7151H59C64.84 99.7151 70 95.1451 70 89.0001V78.2501C70 67.5451 62.05 57.3001 51.24 55.1051C50.4469 54.9447 49.6267 54.9792 48.8499 55.2057C48.073 55.4321 47.3627 55.8437 46.78 56.4051L35.03 67.7051L23.5 56.3851Z" fill="black"/>
</svg>
