<svg width="562" height="690" viewBox="0 0 562 690" fill="none" xmlns="http://www.w3.org/2000/svg">
<mask id="mask0_189_1059" style="mask-type:luminance" maskUnits="userSpaceOnUse" x="-224" y="0" width="786" height="690">
<path d="M562 0H-224V690H562V0Z" fill="white"/>
</mask>
<g mask="url(#mask0_189_1059)">
<path d="M352.505 296.119C352.881 294.643 354.179 293.571 355.745 293.23C354.493 292.337 353.838 290.881 354.215 289.406C354.744 287.327 357.092 286.018 359.46 286.483C359.698 286.53 360.155 286.619 360.155 286.619L370.531 288.869C370.531 288.869 370.402 280.3 372.327 276.085C374.25 271.871 381.463 271.257 380.335 276.162C379.209 281.067 379.489 282.831 382.688 287.944C384.781 291.287 385.74 293.769 386.153 295.086C386.359 295.744 386.367 296.433 386.197 297.099L381.491 315.582C381.234 316.593 380.092 317.23 378.94 317.004L353.68 312.048C353.68 312.048 353.224 311.958 352.985 311.912C350.618 311.447 348.886 309.51 349.602 307.475C350.188 305.81 352.719 305.63 352.719 305.63C352.719 305.63 349.896 304.773 350.522 302.315C351.105 300.027 352.87 299.785 354.036 299.943C352.784 299.051 352.129 297.595 352.505 296.119Z" fill="#4A4A4A"/>
<path d="M392.412 296.9L401.527 298.688C403.02 298.982 403.959 300.281 403.626 301.592L398.3 322.512C397.966 323.822 396.486 324.647 394.992 324.354L385.878 322.566C384.385 322.273 383.445 320.973 383.779 319.662L389.105 298.743C389.439 297.432 390.919 296.607 392.412 296.9Z" fill="#50E3C2"/>
<path d="M334.653 536.529C338.992 521.849 353.579 510.955 369.448 504.959C385.317 498.964 402.694 496.97 419.614 493.906C436.534 490.842 453.777 486.39 466.9 476.527C472.641 472.212 477.602 466.649 478.903 460.114C480.206 453.579 476.97 446.066 470.088 443.325C459.197 438.988 447.806 447.774 439.543 455.365C419.322 473.941 396.096 489.993 370.78 502.887" fill="#4A4A4A"/>
<path d="M220.594 551.052C230.058 541.143 247.332 541.801 261.961 543.317C256.382 543.644 251.434 538.703 251.907 533.813C252.379 528.922 257.549 524.915 263.12 524.508C268.692 524.101 274.219 526.924 277.234 531.057C272.234 525.644 267.09 519.977 265.287 513.19C263.485 506.403 266.108 498.167 273.279 495.177C279.228 492.697 286.576 494.525 291.69 498.167C296.804 501.81 300.159 506.97 303.397 512.004C303.37 503.279 298.122 495.309 293.039 487.811C287.955 480.313 282.722 472.332 282.731 463.607C282.74 454.881 290.237 445.531 300.169 445.879C310.036 446.224 316.339 455.151 319.785 463.274C326.268 478.551 329.144 494.998 328.185 511.279C330.575 494.127 336.961 477.411 346.833 462.462C348.029 460.652 349.37 458.787 351.463 457.786C355.027 456.083 359.728 457.572 362.32 460.313C364.913 463.055 365.832 466.713 366.332 470.249C368.329 484.378 364.787 499.064 356.44 511.272C362.259 507.488 364.971 501.123 367.177 495.068C369.383 489.014 371.587 482.604 376.848 478.237C382.11 473.87 391.565 472.681 396.21 477.556C399.403 480.908 399.28 485.801 398.293 490.083C395.994 500.059 389.819 509.314 381.031 515.954C388.99 508.258 398.735 501.99 409.492 497.646C413.596 495.988 418.353 494.603 422.535 496.103C430.446 498.94 429.793 509.465 424.692 515.484C419.591 521.504 411.691 525.589 407.67 532.208C417.875 522.55 435.392 519.543 448.99 525.116C462.588 530.689 471.209 544.408 469.326 557.478L288.902 559.189C264.669 559.419 240.414 559.648 216.22 558.435" fill="#50E3C2"/>
<path d="M53.8998 600.493C49.2019 584.596 33.4041 572.797 16.219 566.305C-0.96611 559.812 -19.7837 557.653 -38.1077 554.335C-56.431 551.017 -75.1024 546.195 -89.3157 535.515C-95.5321 530.843 -100.904 524.817 -102.315 517.741C-103.725 510.664 -100.22 502.528 -92.7678 499.56C-80.973 494.862 -68.6376 504.378 -59.6897 512.598C-37.791 532.715 -12.639 550.097 14.7775 564.061" fill="#50E3C2"/>
<path d="M-48.883 592.011C-39.2875 581.962 -21.7723 582.629 -6.93887 584.168C-12.5957 584.499 -17.6135 579.49 -17.1341 574.53C-16.6554 569.571 -11.4136 565.51 -5.76379 565.096C-0.114029 564.684 5.49015 567.546 8.54612 571.738C3.47799 566.248 -1.73869 560.502 -3.56614 553.62C-5.39359 546.739 -2.73534 538.388 4.53595 535.357C10.5669 532.841 18.0182 534.696 23.2027 538.389C28.3879 542.083 31.7905 547.314 35.0736 552.418C35.0469 543.571 29.7249 535.49 24.5711 527.888C19.4165 520.286 14.1102 512.193 14.1196 503.346C14.1291 494.5 21.7313 485.02 31.8007 485.372C41.8049 485.722 48.1959 494.772 51.6912 503.01C58.263 518.499 61.1806 535.175 60.2067 551.683C62.63 534.292 69.1058 517.344 79.1163 502.186C80.3283 500.352 81.6873 498.46 83.8095 497.445C87.4236 495.718 92.1899 497.228 94.819 500.007C97.4482 502.787 98.3796 506.496 98.8858 510.082C100.911 524.407 97.3201 539.299 88.8564 551.676C94.7562 547.84 97.5056 541.385 99.7425 535.246C101.979 529.107 104.213 522.607 109.548 518.179C114.883 513.752 124.469 512.547 129.18 517.491C132.417 520.888 132.292 525.849 131.292 530.191C128.961 540.305 122.699 549.691 113.789 556.423C121.86 548.619 131.74 542.264 142.647 537.859C146.807 536.179 151.631 534.775 155.871 536.295C163.893 539.172 163.232 549.843 158.059 555.946C152.886 562.051 144.878 566.192 140.801 572.905C151.148 563.111 168.907 560.062 182.695 565.713C196.482 571.364 205.224 585.274 203.315 598.526C142.335 599.105 81.3564 599.682 20.377 600.26C-4.19416 600.493 -28.7865 600.726 -53.3184 599.497" fill="#4A4A4A"/>
<g opacity="0.6">
<path d="M399.127 592.576C401.186 603.939 329.148 623.442 238.225 636.137C147.303 648.831 71.9265 649.911 69.868 638.548C67.8095 627.185 139.848 607.683 230.77 594.989C321.692 582.294 397.069 581.213 399.127 592.576Z" fill="#4A4A4A"/>
</g>
<path d="M281.021 161.652L359.685 565.898C360.136 568.215 360.309 570.529 360.23 572.789C360.191 573.919 360.078 575.03 359.912 576.133C359.814 576.695 359.715 577.256 359.613 577.804C358.937 581.08 357.695 584.214 355.995 587.127C355.137 588.592 354.165 590 353.091 591.331C352.017 592.662 350.827 593.919 349.553 595.112C348.701 595.893 347.793 596.652 346.863 597.385L346.846 597.387C345.913 598.105 344.936 598.782 343.918 599.421L343.902 599.424C342.375 600.382 340.744 601.249 339.056 602.004L339.04 602.006C337.909 602.51 336.753 602.973 335.551 603.381C333.132 604.2 330.588 604.823 327.948 605.219L139.063 633.545C136.271 633.964 133.495 634.106 130.774 633.998C130.319 633.975 129.885 633.965 129.428 633.928C128.937 633.895 128.426 633.85 127.931 633.802C125.847 633.583 123.821 633.218 121.839 632.725C120.837 632.465 119.865 632.186 118.921 631.872C118.477 631.726 118.034 631.579 117.603 631.415C116.674 631.084 115.768 630.703 114.878 630.305C112.109 629.065 109.525 627.522 107.172 625.748C106.238 625.038 105.332 624.293 104.467 623.495C103.179 622.306 101.982 621.043 100.887 619.687C99.4121 617.887 98.1553 615.964 97.117 613.918L97.1139 613.903C95.8012 611.335 94.8353 608.593 94.2717 605.699L15.6078 201.455C12.0032 182.928 26.2079 165.302 47.345 162.132L236.231 133.806C257.367 130.636 277.416 143.126 281.021 161.652Z" fill="#292929"/>
<path d="M272.613 162.912L351.277 567.158C351.624 568.944 351.77 570.761 351.705 572.563C351.69 573.37 351.607 574.188 351.471 575.09L351.195 576.604C350.717 578.954 349.772 581.391 348.409 583.722C347.746 584.855 346.978 585.972 346.125 587.012C345.347 587.995 344.4 589.003 343.331 589.999C342.831 590.453 342.222 590.97 341.517 591.532L341.233 591.756C340.646 592.209 340.039 592.65 339.394 593.066L338.943 593.33C337.88 594.006 336.753 594.616 335.577 595.157L335.181 595.338C334.24 595.752 333.355 596.097 332.481 596.411C330.546 597.05 328.546 597.533 326.512 597.838L137.625 626.164C135.489 626.484 133.316 626.613 131.171 626.525C130.439 626.498 129.704 626.456 128.997 626.38C127.372 626.213 125.759 625.923 124.158 625.525C123.392 625.321 122.621 625.102 121.953 624.868C121.566 624.744 121.271 624.652 121.01 624.554L120.804 624.479C120.228 624.276 119.571 624.01 118.756 623.646C116.648 622.686 114.616 621.487 112.73 620.068C111.958 619.485 111.277 618.919 110.647 618.345C109.612 617.391 108.671 616.377 107.85 615.361C106.782 614.048 105.858 612.682 105.091 611.233L104.896 610.851C103.857 608.804 103.11 606.652 102.679 604.438L24.0142 200.193C21.205 185.756 32.3175 171.982 48.7803 169.513L237.667 141.187C250.229 139.303 262.343 144.551 268.612 153.561C270.555 156.339 271.949 159.502 272.613 162.912Z" fill="#ECF0FF"/>
<path d="M337.058 453.958C336.967 452.421 336.888 450.596 336.848 448.52L343.05 480.391C340.12 475.65 338.071 472.143 337.571 470.82C336.336 467.588 336.55 460.324 337.058 453.958Z" fill="#292929"/>
<path d="M300.945 264.016L291.656 216.288C295.895 215.652 299.918 218.153 300.642 221.874L307.307 256.13C308.031 259.85 305.184 263.381 300.945 264.016Z" fill="#292929"/>
<path d="M28.8779 280.256L34.7242 279.379L30.0805 255.514L24.2334 256.391C23.225 256.542 22.5459 257.383 22.7188 258.269L26.7376 278.925C26.9105 279.811 27.8687 280.407 28.8779 280.256Z" fill="#292929"/>
<path d="M34.479 309.041L40.3253 308.164L35.6816 284.3L29.8345 285.176C28.826 285.327 28.1469 286.168 28.3199 287.054L32.3395 307.71C32.5116 308.596 33.4697 309.192 34.479 309.041Z" fill="#292929"/>
<path d="M173.311 161.238L117.146 169.661C107.697 171.078 98.7292 165.503 97.1147 157.208L187.498 143.654C189.112 151.948 182.76 159.821 173.311 161.238Z" fill="#292929"/>
<path d="M260.867 300.911L86.1579 325.195L66.4685 216.038L241.179 191.754L260.867 300.911Z" fill="white"/>
<path d="M241.08 191.46L245.286 214.512L69.9718 239.171L65.7651 216.119L241.08 191.46Z" fill="#4A4A4A"/>
<path d="M85.3389 226.176C85.5503 227.269 84.7109 228.306 83.4651 228.491C82.2193 228.676 81.0395 227.941 80.828 226.847C80.6166 225.753 81.4553 224.717 82.7011 224.531C83.9469 224.346 85.1275 225.082 85.3389 226.176Z" fill="white"/>
<path d="M93.9087 224.9C94.1202 225.993 93.2815 227.03 92.0357 227.215C90.7907 227.401 89.6093 226.665 89.3979 225.571C89.1872 224.478 90.0259 223.441 91.2709 223.256C92.5167 223.071 93.6973 223.807 93.9087 224.9Z" fill="white"/>
<path d="M102.479 223.624C102.691 224.718 101.852 225.754 100.606 225.94C99.3612 226.126 98.1799 225.389 97.9684 224.296C97.7578 223.203 98.5964 222.166 99.8423 221.981C101.087 221.795 102.268 222.531 102.479 223.624Z" fill="white"/>
<path d="M158.19 253.792L132.821 244.609L137.294 269.405L158.19 253.792Z" fill="#50E3C2"/>
<path d="M266.149 327.667L286.473 433.217L115.792 458.547L95.4656 352.996L266.149 327.667Z" fill="white"/>
<path d="M169.527 421.952L123.996 428.708L117.342 394.159L162.872 387.402L169.527 421.952Z" fill="#50E3C2"/>
<path d="M266.149 327.667L270.597 350.764L99.9136 376.094L95.4648 352.996L266.149 327.667Z" fill="#4A4A4A"/>
<path d="M115.458 362.386C115.699 363.633 114.741 364.815 113.32 365.026C111.9 365.236 110.553 364.396 110.313 363.149C110.073 361.902 111.029 360.72 112.45 360.509C113.871 360.298 115.218 361.138 115.458 362.386Z" fill="white"/>
<path d="M125.233 360.935C125.474 362.182 124.516 363.364 123.095 363.574C121.674 363.785 120.328 362.945 120.088 361.698C119.848 360.451 120.805 359.269 122.225 359.058C123.645 358.847 124.993 359.687 125.233 360.935Z" fill="white"/>
<path d="M135.009 359.484C135.248 360.731 134.291 361.914 132.871 362.124C131.45 362.335 130.103 361.495 129.863 360.247C129.622 359.001 130.58 357.819 132 357.608C133.421 357.397 134.768 358.236 135.009 359.484Z" fill="white"/>
<path d="M173.219 388.499C173.219 388.499 213.172 382.561 237.428 378.958" stroke="#4A4A4A" stroke-width="6.56" stroke-miterlimit="10"/>
<path d="M289.278 460.45L293.727 483.467L123.647 508.808L119.197 485.793L289.278 460.45Z" fill="#4A4A4A"/>
<path d="M138.759 495.131C138.971 496.224 138.133 497.261 136.887 497.446C135.641 497.632 134.46 496.897 134.248 495.803C134.038 494.71 134.876 493.673 136.122 493.487C137.367 493.302 138.548 494.038 138.759 495.131Z" fill="white"/>
<path d="M147.33 493.854C147.542 494.947 146.703 495.984 145.457 496.17C144.212 496.355 143.031 495.62 142.82 494.526C142.608 493.432 143.446 492.396 144.691 492.21C145.937 492.025 147.118 492.76 147.33 493.854Z" fill="white"/>
<path d="M155.9 492.578C156.112 493.67 155.273 494.708 154.028 494.892C152.782 495.079 151.601 494.343 151.39 493.25C151.178 492.156 152.017 491.12 153.263 490.933C154.508 490.748 155.689 491.484 155.9 492.578Z" fill="white"/>
<path d="M187.11 538.474C189.162 549.085 181.026 559.148 168.938 560.949C156.85 562.75 145.388 555.608 143.336 544.996C141.285 534.385 149.42 524.323 161.508 522.522C173.596 520.721 185.058 527.863 187.11 538.474Z" fill="#50E3C2"/>
<path d="M165.547 539.629C165.642 539.532 165.694 539.404 165.667 539.268C165.62 539.025 165.358 538.862 165.081 538.903C164.804 538.944 164.618 539.175 164.665 539.418C164.692 539.562 164.8 539.671 164.938 539.734C164.681 539.884 164.534 540.157 164.589 540.441L164.704 541.037L166.297 540.799L166.182 540.204C166.125 539.907 165.864 539.686 165.547 539.629Z" fill="white"/>
</g>
</svg>
