<svg width="36" height="36" viewBox="0 0 36 36" fill="none" xmlns="http://www.w3.org/2000/svg">
<path d="M3 33.0008H5.2L28.8 9.45078L26.6 7.25078L3 30.8008V33.0008ZM0 36.0008V29.6008L28.75 0.900781C29.0167 0.634115 29.3333 0.425781 29.7 0.275781C30.0667 0.125781 30.45 0.0507812 30.85 0.0507812C31.2167 0.0507812 31.5833 0.125781 31.95 0.275781C32.3167 0.425781 32.65 0.634115 32.95 0.900781L35.15 3.10078C35.45 3.40078 35.6667 3.73411 35.8 4.10078C35.9333 4.46745 36 4.83411 36 5.20078C36 5.56745 35.925 5.94245 35.775 6.32578C35.625 6.70911 35.4167 7.03411 35.15 7.30078L6.4 36.0008H0ZM27.7 8.35078L26.6 7.25078L28.8 9.45078L27.7 8.35078Z" fill="#31848D"/>
</svg>
