<svg width="89" height="84" viewBox="0 0 89 84" fill="none" xmlns="http://www.w3.org/2000/svg">
<path d="M11.125 42C11.125 37.8634 11.9883 33.7672 13.6655 29.9455C15.3428 26.1237 17.8012 22.6512 20.9003 19.7261C23.9995 16.8011 27.6787 14.4808 31.7279 12.8978C35.7772 11.3148 40.1171 10.5 44.5 10.5C48.8829 10.5 53.2228 11.3148 57.2721 12.8978C61.3213 14.4808 65.0005 16.8011 68.0997 19.7261C71.1988 22.6512 73.6572 26.1237 75.3345 29.9455C77.0117 33.7672 77.875 37.8634 77.875 42C77.875 50.3543 74.3587 58.3665 68.0997 64.2739C61.8407 70.1813 53.3516 73.5 44.5 73.5C35.6484 73.5 27.1593 70.1813 20.9003 64.2739C14.6413 58.3665 11.125 50.3543 11.125 42Z" fill="url(#paint0_linear_583_200)"/>
<path d="M56.2925 32.3609L40.3281 47.4704L32.5628 40.1414C32.3043 39.8973 31.9973 39.7037 31.6594 39.5716C31.3215 39.4396 30.9594 39.3716 30.5937 39.3716C30.228 39.3716 29.8659 39.4396 29.528 39.5716C29.1902 39.7037 28.8832 39.8973 28.6246 40.1414C28.366 40.3855 28.1609 40.6752 28.0209 40.9941C27.881 41.313 27.809 41.6547 27.809 41.9999C27.809 42.345 27.881 42.6868 28.0209 43.0057C28.1609 43.3246 28.366 43.6143 28.6246 43.8584L38.359 53.0459C38.6173 53.2904 38.9242 53.4843 39.2621 53.6166C39.6 53.749 39.9623 53.8171 40.3281 53.8171C40.6939 53.8171 41.0562 53.749 41.3941 53.6166C41.732 53.4843 42.0389 53.2904 42.2972 53.0459L60.2307 36.0674C60.7367 35.5716 61.016 34.9082 61.0087 34.2199C61.0013 33.5316 60.7079 32.8736 60.1914 32.3876C59.675 31.9015 58.977 31.6264 58.2477 31.6214C57.5185 31.6164 56.8163 31.882 56.2925 32.3609Z" fill="url(#paint1_linear_583_200)"/>
<defs>
<linearGradient id="paint0_linear_583_200" x1="13.5113" y1="22.3125" x2="56.8183" y2="69.9871" gradientUnits="userSpaceOnUse">
<stop stop-color="#52D17C"/>
<stop offset="1" stop-color="#22918B"/>
</linearGradient>
<linearGradient id="paint1_linear_583_200" x1="34.0425" y1="33.8571" x2="38.7996" y2="58.9586" gradientUnits="userSpaceOnUse">
<stop stop-color="white"/>
<stop offset="1" stop-color="#E3FFD9"/>
</linearGradient>
</defs>
</svg>
