<svg width="200" height="200" viewBox="0 0 200 200" fill="none" xmlns="http://www.w3.org/2000/svg">
<path d="M100 0C155.228 0 200 44.7716 200 100C200 155.228 155.228 200 100 200C44.7716 200 0 155.228 0 100C0 44.7716 44.7716 0 100 0Z" fill="#AAAAAA"/>
<mask id="mask0_191_1155" style="mask-type:luminance" maskUnits="userSpaceOnUse" x="0" y="0" width="200" height="200">
<path d="M100 200C155.228 200 200 155.228 200 100C200 44.7715 155.228 0 100 0C44.7715 0 0 44.7715 0 100C0 155.228 44.7715 200 100 200Z" fill="white"/>
</mask>
<g mask="url(#mask0_191_1155)">
<path d="M105.893 80.752C115.437 80.752 123.174 73.0149 123.174 63.4707C123.174 53.9265 115.437 46.1895 105.893 46.1895C96.3489 46.1895 88.6118 53.9265 88.6118 63.4707C88.6118 73.0149 96.3489 80.752 105.893 80.752Z" fill="#FFB9B9"/>
<path d="M90.9676 67.3965C90.9676 67.3965 90.182 91.7471 86.2545 94.8893C82.327 98.0315 100.394 111.385 100.394 111.385L112.175 92.5327V75.2515L90.9676 67.3965Z" fill="#FFB9B9"/>
<path d="M98.8225 100.389L89.286 85.9883L83.8988 93.3192L76.0435 115.313L82.3282 200.933L119.248 201.719L123.961 103.531L112.18 89.3927L98.8225 100.389Z" fill="#F2F2F2"/>
<path d="M138.884 105.886L145.169 105.101C145.169 105.101 146.739 105.886 147.525 111.385C148.311 116.883 157.734 165.585 157.734 165.585L145.165 225.281L131.026 206.429L139.67 173.441L131.029 140.449L138.884 105.886Z" fill="#090814"/>
<path d="M58.7624 105.103H54.0492L42.2661 168.728L53.2627 218.215L64.2602 200.148L61.118 180.511L62.6845 163.23L68.1846 153.017L58.7624 105.103Z" fill="#090814"/>
<path d="M95.6815 63.4703L98.8237 62.6847C98.8237 62.6847 101.18 49.3275 106.679 50.9034C112.178 52.4793 126.317 54.0456 126.317 47.7612C126.317 41.4768 112.959 35.98 105.108 36.7637C97.2575 37.5475 83.9 39.9059 84.685 51.6875C85.47 63.469 90.539 74.9325 90.539 74.9325L90.9512 67.9462L95.6815 63.4703Z" fill="#090814"/>
<path d="M144.384 105.101L119.248 94.8896L113.357 90.569L95.6812 168.727L83.9 133.379L87.4347 88.2124L54.8375 105.101L65.835 158.516L67.4056 178.94L62.6919 195.435C62.6919 195.435 46.1962 207.216 51.695 219.786C57.1937 232.355 63.4762 233.143 63.4762 233.143C63.4762 233.143 90.1834 208.007 91.7575 201.723C93.3315 195.439 95.6847 184.442 95.6847 184.442C95.6847 184.442 109.042 234.715 124.747 233.929C140.452 233.143 140.458 216.647 140.458 216.647L136.531 199.366L130.247 181.299L133.389 151.451L144.384 105.101Z" fill="#090814"/>
</g>
</svg>
