<svg width="61" height="74" viewBox="0 0 61 74" fill="none" xmlns="http://www.w3.org/2000/svg">
<path d="M0.833496 62.6667V57.1667H8.25016V29.3C8.25016 24.1667 9.77985 19.5681 12.8392 15.5042C15.8986 11.4403 19.9314 8.88893 24.9377 7.85004V5.83337C24.9377 4.3056 25.4785 3.00699 26.5601 1.93754C27.6417 0.868096 28.955 0.333374 30.5002 0.333374C32.0453 0.333374 33.3587 0.868096 34.4403 1.93754C35.5219 3.00699 36.0627 4.3056 36.0627 5.83337V7.85004C41.0689 8.88893 45.1017 11.4403 48.1611 15.5042C51.2205 19.5681 52.7502 24.1667 52.7502 29.3V57.1667H60.1668V62.6667H0.833496ZM30.5002 73.6667C28.4606 73.6667 26.7146 72.9487 25.2621 71.5125C23.8097 70.0764 23.0835 68.35 23.0835 66.3334H37.9168C37.9168 68.35 37.1906 70.0764 35.7382 71.5125C34.2858 72.9487 32.5397 73.6667 30.5002 73.6667ZM13.8127 57.1667H47.1877V29.3C47.1877 24.7167 45.5653 20.8209 42.3205 17.6125C39.0757 14.4042 35.1356 12.8 30.5002 12.8C25.8647 12.8 21.9246 14.4042 18.6798 17.6125C15.4351 20.8209 13.8127 24.7167 13.8127 29.3V57.1667Z" fill="#9F9E98"/>
</svg>
