<svg width="661" height="532" viewBox="0 0 661 532" fill="none" xmlns="http://www.w3.org/2000/svg">
<g clip-path="url(#clip0_171_193)">
<path d="M21.466 281.623C17.8042 283.711 13.6467 284.159 9.73601 282.889C5.82532 281.619 2.41609 278.712 0.117155 274.688C-0.345478 273.872 0.683055 272.965 1.14651 273.783C3.28147 277.535 6.45743 280.242 10.1011 281.416C13.7448 282.59 17.6162 282.154 21.0166 280.185C21.756 279.758 22.2012 281.199 21.466 281.624V281.623Z" fill="white"/>
<path d="M9.1905 239.374C10.7463 238.923 12.185 238.013 13.3775 236.725C14.5699 235.437 15.4788 233.812 16.0226 231.996C16.2985 231.063 17.4576 231.703 17.1792 232.629C16.5713 234.634 15.566 236.428 14.251 237.855C12.9361 239.282 11.3515 240.299 9.63577 240.817C9.47747 240.881 9.30487 240.871 9.15267 240.788C9.00048 240.705 8.87999 240.555 8.81543 240.369C8.78589 240.274 8.77217 240.173 8.77503 240.072C8.77789 239.97 8.79729 239.87 8.83212 239.778C8.86695 239.685 8.91653 239.602 8.97802 239.533C9.03951 239.464 9.11172 239.41 9.1905 239.374Z" fill="white"/>
<path d="M473.278 477.706H175.274C169.86 477.714 164.67 480.313 160.842 484.933C157.014 489.553 154.861 495.816 154.855 502.35C154.852 505.492 155.352 508.605 156.327 511.518C157.843 516.087 160.458 520.004 163.835 522.763C167.212 525.523 171.196 526.999 175.274 527.002H473.278C476.843 527.001 480.345 525.873 483.437 523.731C486.528 521.59 489.102 518.508 490.901 514.794C491.413 513.744 491.858 512.649 492.232 511.517C493.207 508.604 493.707 505.491 493.705 502.349C493.697 495.815 491.542 489.551 487.713 484.931C483.884 480.311 478.693 477.712 473.279 477.705L473.278 477.706Z" fill="#D6D6E3"/>
<path d="M347.195 253.188H303.786V314.769H347.195V253.188Z" fill="#ED9DA0"/>
<path d="M318.983 213.441H323.521C325.727 213.442 327.843 214.5 329.403 216.383C330.962 218.266 331.839 220.82 331.839 223.483H310.663C310.663 220.82 311.54 218.266 313.1 216.382C314.66 214.499 316.777 213.441 318.983 213.441Z" fill="#D6D6E3"/>
<path d="M325.615 270.406C351.502 270.406 372.487 245.079 372.487 213.837C372.487 182.595 351.502 157.268 325.615 157.268C299.729 157.268 278.743 182.595 278.743 213.837C278.743 245.079 299.729 270.406 325.615 270.406Z" fill="#ED9DA0"/>
<path d="M273.328 159.416C273.682 152.919 277.242 146.272 288.551 142.798C288.551 142.798 307.96 112.845 334.334 128.553C334.334 128.553 347.12 125.897 356.602 141.913C356.602 141.913 366.002 135.222 369.968 147.082C369.968 147.082 380.992 171.273 376.934 195.949C372.875 220.625 370.797 223.704 370.797 223.704C370.797 223.704 375.97 172.663 346.172 176.202C316.373 179.742 292.383 167.094 285.634 194.785C280.03 217.778 280.737 229.72 280.737 229.72C280.737 229.72 261.998 206.782 268.37 188.72C271.629 179.478 272.781 169.434 273.328 159.416Z" fill="#090814"/>
<path d="M198.151 522.987H457.414C455.68 499.119 454.549 407.882 454.549 401.877C454.549 375.392 436.593 346.49 436.593 346.49L430.165 342.202L376.489 321.991L362.598 300.213C361.143 297.926 359.269 296.077 357.122 294.812C354.976 293.547 352.615 292.901 350.227 292.922L306.347 293.321C302.484 293.356 298.772 295.131 295.938 298.298L268.765 328.72L228.915 351.687L228.847 351.605L228.434 351.979L222.519 357.12L218.719 360.438C218.719 360.438 208.732 374.889 200.755 418.233C199.555 424.753 198.713 509.143 198.151 522.987Z" fill="#FF0606"/>
<path d="M517.423 511.518C516.798 512.206 516.167 512.886 515.536 513.566C513.146 516.13 510.723 518.651 508.266 521.127C504.553 524.863 500.762 528.485 496.895 531.995H147.876C140.771 525.555 133.926 518.728 127.341 511.513L517.423 511.518Z" fill="#D6D6E3"/>
<path d="M389.489 516.434H261.186L263.901 500.868H386.771L389.489 516.434Z" fill="#090814"/>
<path d="M505.564 449.257H472.178C471.425 449.254 470.68 449.451 469.996 449.833C469.312 450.215 468.706 450.774 468.22 451.469C467.755 451.361 467.282 451.306 466.808 451.306C464.708 451.306 462.694 452.313 461.209 454.105C459.724 455.897 458.89 458.328 458.89 460.862C458.89 463.397 459.724 465.828 461.209 467.62C462.694 469.412 464.708 470.419 466.808 470.419C468.003 470.419 469.183 470.088 470.256 469.453L470.813 477.711L473.027 510.351C473.132 510.758 473.273 511.151 473.447 511.522C473.894 512.514 474.555 513.341 475.359 513.918C476.163 514.494 477.08 514.799 478.016 514.8H499.727C500.663 514.798 501.581 514.493 502.386 513.917C503.191 513.34 503.853 512.513 504.302 511.522C504.472 511.149 504.61 510.757 504.715 510.351L510.554 457.408C510.794 456.465 510.847 455.468 510.71 454.497C510.572 453.525 510.248 452.606 509.763 451.813C509.277 451.02 508.644 450.375 507.915 449.931C507.186 449.487 506.38 449.256 505.564 449.256V449.257ZM466.809 467.691C465.308 467.691 463.869 466.972 462.808 465.691C461.746 464.41 461.15 462.673 461.15 460.861C461.15 459.05 461.746 457.313 462.808 456.032C463.869 454.751 465.308 454.032 466.809 454.032C466.911 454.032 467.006 454.065 467.108 454.073C466.885 455.172 466.914 456.325 467.191 457.407L469.58 466.779C468.738 467.369 467.783 467.683 466.81 467.688L466.809 467.691Z" fill="#090814"/>
<path d="M430.158 276.031H218.822C217.006 276.034 215.265 276.905 213.98 278.455C212.696 280.005 211.974 282.106 211.972 284.298V456.412C211.974 458.603 212.696 460.704 213.98 462.254C215.265 463.804 217.006 464.676 218.822 464.678H430.158C431.974 464.676 433.715 463.804 434.999 462.254C436.283 460.704 437.005 458.603 437.007 456.412V284.298C437.005 282.106 436.283 280.005 434.999 278.455C433.715 276.905 431.974 276.034 430.158 276.031Z" fill="#042637"/>
<path d="M348.29 413.941H298.85C298.504 413.942 298.161 414.025 297.841 414.186C297.521 414.347 297.23 414.582 296.986 414.878C296.741 415.174 296.547 415.526 296.416 415.913C296.284 416.299 296.216 416.714 296.217 417.132V511.391H350.931V417.128C350.932 416.709 350.864 416.294 350.731 415.906C350.599 415.519 350.404 415.167 350.158 414.871C349.913 414.574 349.621 414.339 349.3 414.179C348.979 414.019 348.635 413.937 348.288 413.938L348.29 413.941ZM323.737 467.498C322.191 467.489 320.71 466.744 319.616 465.424C318.523 464.105 317.906 462.318 317.899 460.452V449.584C317.917 447.73 318.54 445.959 319.633 444.656C320.726 443.352 322.2 442.622 323.736 442.622C325.273 442.622 326.747 443.352 327.84 444.656C328.933 445.959 329.556 447.73 329.574 449.584V460.452C329.567 462.318 328.95 464.105 327.856 465.424C326.763 466.744 325.282 467.489 323.736 467.498H323.737Z" fill="#090814"/>
<path d="M296.047 508.371V517.465C296.048 517.936 296.203 518.388 296.479 518.721C296.755 519.054 297.129 519.242 297.52 519.243H349.63C350.02 519.24 350.394 519.052 350.67 518.72C350.945 518.387 351.101 517.936 351.103 517.465V508.371H296.047Z" fill="#042637"/>
<path d="M425.665 454.614C427.507 454.614 429.001 452.811 429.001 450.587C429.001 448.363 427.507 446.56 425.665 446.56C423.822 446.56 422.328 448.363 422.328 450.587C422.328 452.811 423.822 454.614 425.665 454.614Z" fill="#00F8BC"/>
<path d="M245.501 444.746C245.191 444.746 244.894 444.895 244.675 445.159C244.456 445.423 244.333 445.781 244.333 446.155V453.405C244.333 453.779 244.456 454.138 244.675 454.402C244.894 454.666 245.191 454.815 245.501 454.815C245.811 454.815 246.108 454.666 246.327 454.402C246.546 454.138 246.669 453.779 246.669 453.405V446.155C246.669 445.781 246.546 445.423 246.327 445.159C246.108 444.895 245.811 444.746 245.502 444.746H245.501Z" fill="#00F8BC"/>
<path d="M251.84 444.746C251.531 444.746 251.234 444.895 251.015 445.159C250.796 445.423 250.673 445.781 250.673 446.155V453.405C250.673 453.779 250.796 454.138 251.015 454.402C251.234 454.666 251.531 454.815 251.841 454.815C252.151 454.815 252.448 454.666 252.667 454.402C252.886 454.138 253.009 453.779 253.009 453.405V446.155C253.009 445.781 252.886 445.423 252.667 445.159C252.448 444.895 252.15 444.746 251.84 444.746Z" fill="#00F8BC"/>
<path d="M258.183 444.746C257.874 444.746 257.577 444.895 257.358 445.159C257.139 445.423 257.016 445.781 257.016 446.155V453.405C257.016 453.779 257.139 454.138 257.358 454.402C257.577 454.666 257.874 454.815 258.184 454.815C258.494 454.815 258.791 454.666 259.01 454.402C259.229 454.138 259.352 453.779 259.352 453.405V446.155C259.352 445.97 259.321 445.787 259.263 445.616C259.204 445.445 259.118 445.289 259.009 445.158C258.901 445.028 258.772 444.924 258.63 444.853C258.489 444.782 258.337 444.746 258.183 444.746Z" fill="#00F8BC"/>
<path d="M264.521 444.746C264.212 444.746 263.915 444.895 263.696 445.159C263.477 445.423 263.354 445.781 263.354 446.155V453.405C263.354 453.779 263.477 454.138 263.696 454.402C263.915 454.666 264.212 454.815 264.522 454.815C264.832 454.815 265.129 454.666 265.348 454.402C265.567 454.138 265.69 453.779 265.69 453.405V446.155C265.69 445.781 265.567 445.423 265.348 445.159C265.129 444.895 264.831 444.746 264.521 444.746Z" fill="#00F8BC"/>
<path d="M269.58 512.336C279.327 512.336 287.229 502.799 287.229 491.035C287.229 479.271 279.327 469.734 269.58 469.734C259.832 469.734 251.93 479.271 251.93 491.035C251.93 502.799 259.832 512.336 269.58 512.336Z" fill="#ED9DA0"/>
<path d="M392.883 516.433C402.63 516.433 410.532 506.896 410.532 495.132C410.532 483.368 402.63 473.831 392.883 473.831C383.135 473.831 375.234 483.368 375.234 495.132C375.234 506.896 383.135 516.433 392.883 516.433Z" fill="#ED9DA0"/>
<path d="M626.086 186.313C624.342 182.832 622.275 179.115 619.038 177.978C615.29 176.662 611.438 179.274 608.174 181.858C598.408 189.576 589.003 197.94 580.003 206.911L580.013 207.047C587.021 206.464 592.838 228.954 599.846 228.371C604.909 227.949 611.339 204.397 615.813 201.505C617.511 200.409 619.166 198.943 621.09 198.841C623.481 198.715 625.566 200.73 627.204 202.834C636.893 215.288 639.697 234.33 650.568 245.271C643.713 224.868 635.528 205.155 626.09 186.314L626.086 186.313Z" fill="#FF0606"/>
<path d="M644.735 216.559C649.847 227.701 655.268 238.622 661 249.321V249.329C660.966 249.706 660.917 250.083 660.871 250.46C660.179 249.182 659.493 247.898 658.814 246.609C653.668 236.868 648.778 226.941 644.144 216.829C641.945 212.02 639.8 207.172 637.709 202.287C636.093 198.502 634.511 194.695 632.964 190.866C632.522 189.769 632.094 188.672 631.667 187.564C630.663 184.972 629.671 182.37 628.611 179.814C627.402 176.898 625.929 173.85 623.709 171.892C622.699 170.963 621.491 170.4 620.225 170.27C618.444 170.283 616.699 170.886 615.182 172.015C603.699 179.299 592.98 188.219 583.256 198.584C573.522 208.908 564.82 220.569 557.328 233.331C557.098 233.724 556.554 233.347 556.785 232.946C557.702 231.39 558.625 229.855 559.575 228.334C571.354 209.43 585.796 193.173 602.241 180.307C605.004 178.144 607.821 176.084 610.692 174.125C612.138 173.134 613.591 172.159 615.07 171.242C616.487 170.24 618.076 169.645 619.713 169.505C625.347 169.398 628.267 177.099 630.27 182.278C630.894 183.909 631.53 185.537 632.177 187.164C634.614 193.308 637.146 199.404 639.773 205.45C641.391 209.172 643.045 212.875 644.735 216.559Z" fill="#042637"/>
<path d="M582.705 194.781C582.375 194.34 582.052 193.9 581.723 193.459C579.125 189.993 576.338 186.566 572.771 184.578C571.07 183.6 569.214 183.081 567.33 183.055C565.386 183.12 563.47 183.624 561.68 184.542C560.829 184.952 559.998 185.417 559.179 185.913C558.243 186.481 557.323 187.087 556.408 187.699C554.69 188.847 552.994 190.043 551.321 191.289C547.992 193.772 544.767 196.445 541.646 199.308C540.028 200.792 538.444 202.325 536.892 203.907C535.45 205.377 534.036 206.886 532.652 208.434C532.356 208.764 531.914 208.235 532.21 207.901C532.575 207.491 532.943 207.083 533.312 206.68C534.355 205.543 535.414 204.428 536.49 203.334C538.452 201.336 540.464 199.415 542.527 197.572C545.736 194.704 549.055 192.03 552.484 189.551C554.198 188.313 555.935 187.128 557.696 185.994C558.228 185.652 558.765 185.317 559.309 184.997C560.544 184.245 561.826 183.615 563.145 183.112C565.013 182.383 566.989 182.149 568.938 182.425C570.821 182.756 572.634 183.513 574.283 184.657C577.786 187.02 580.503 190.673 583.146 194.238C583.414 194.607 582.974 195.143 582.705 194.781Z" fill="#042637"/>
<path d="M557.075 211.462C556.185 211.515 555.306 211.212 554.574 210.598C552.636 208.826 552.686 204.569 554.729 197.584C555.285 195.692 556.157 193.957 557.29 192.487C558.423 191.017 559.794 189.843 561.318 189.038C562.747 188.267 564.292 187.863 565.856 187.852C567.421 187.841 568.97 188.222 570.406 188.973C570.656 189.106 570.904 189.247 571.149 189.396C572.811 190.518 574.368 191.851 575.795 193.373C577.007 194.643 578.301 195.796 579.663 196.822L580.119 197.144L579.687 197.511C568.684 206.849 561.229 211.462 557.075 211.462Z" fill="#FF0606"/>
<path d="M599.362 155.859C595.746 155.859 592.242 154.344 589.449 151.574C586.655 148.803 584.745 144.949 584.044 140.668C581.021 141.407 578.246 143.21 576.071 145.85C573.896 148.49 572.417 151.849 571.822 155.502C571.227 159.155 571.542 162.939 572.727 166.377C573.912 169.814 575.914 172.751 578.481 174.816C581.048 176.882 584.064 177.983 587.149 177.982C590.234 177.98 593.25 176.875 595.815 174.807C598.38 172.739 600.381 169.801 601.563 166.362C602.746 162.923 603.058 159.139 602.46 155.486C601.44 155.734 600.402 155.859 599.362 155.859Z" fill="#042637"/>
<path opacity="0.74" d="M128.297 157.267C141.165 157.267 151.596 144.677 151.596 129.147C151.596 113.617 141.165 101.027 128.297 101.027C115.429 101.027 104.998 113.617 104.998 129.147C104.998 144.677 115.429 157.267 128.297 157.267Z" fill="#042637"/>
<path opacity="0.74" d="M151.596 157.267C164.464 157.267 174.896 144.677 174.896 129.147C174.896 113.617 164.464 101.027 151.596 101.027C138.728 101.027 128.297 113.617 128.297 129.147C128.297 144.677 138.728 157.267 151.596 157.267Z" fill="#FF6B6B"/>
<path opacity="0.74" d="M140.144 134.855C153.011 134.855 163.443 122.265 163.443 106.735C163.443 91.2048 153.011 78.6152 140.144 78.6152C127.276 78.6152 116.844 91.2048 116.844 106.735C116.844 122.265 127.276 134.855 140.144 134.855Z" fill="#FF0606"/>
<path d="M201.07 98.6782L141.223 121.37L141.629 122.933L201.477 100.241L201.07 98.6782Z" fill="#042637"/>
<path d="M520.45 21.71H520.063C521.268 21.711 522.455 22.05 523.533 22.7H521.772C519.876 22.7027 518.057 23.6132 516.716 25.2319C515.375 26.8506 514.62 29.0453 514.618 31.3344V54.2096C514.62 56.4988 515.375 58.6935 516.716 60.3122C518.057 61.9309 519.876 62.8414 521.772 62.844H522.894C521.992 63.2708 521.033 63.4906 520.064 63.4921H520.451C522.527 63.4892 524.518 62.4922 525.987 60.7199C527.455 58.9476 528.281 56.5446 528.284 54.0381V31.1639C528.281 28.6575 527.455 26.2545 525.987 24.4822C524.518 22.7098 522.527 21.7129 520.45 21.71Z" fill="#FF6B6B"/>
<path opacity="0.21" d="M520.45 21.71H520.063C521.268 21.711 522.455 22.05 523.533 22.7H521.772C519.876 22.7027 518.057 23.6132 516.716 25.2319C515.375 26.8506 514.62 29.0453 514.618 31.3344V54.2096C514.62 56.4988 515.375 58.6935 516.716 60.3122C518.057 61.9309 519.876 62.8414 521.772 62.844H522.894C521.992 63.2708 521.033 63.4906 520.064 63.4921H520.451C522.527 63.4892 524.518 62.4922 525.987 60.7199C527.455 58.9476 528.281 56.5446 528.284 54.0381V31.1639C528.281 28.6575 527.455 26.2545 525.987 24.4822C524.518 22.7098 522.527 21.7129 520.45 21.71Z" fill="black"/>
<path d="M521.847 62.9163C519.95 62.9137 518.132 62.0031 516.79 60.3844C515.449 58.7657 514.695 56.5711 514.692 54.2819V31.4067C514.695 29.1175 515.449 26.9229 516.79 25.3042C518.132 23.6855 519.95 22.7749 521.847 22.7723H523.607C522.53 22.1223 521.342 21.7833 520.137 21.7822H501.185C499.108 21.7851 497.117 22.7821 495.649 24.5544C494.18 26.3268 493.354 28.7298 493.352 31.2362V54.1114C493.354 56.6179 494.18 59.0208 495.649 60.7932C497.117 62.5655 499.108 63.5625 501.185 63.5654H520.139C521.108 63.5639 522.068 63.3441 522.969 62.9173L521.847 62.9163Z" fill="#FF0606"/>
<path d="M521.847 62.9163C519.95 62.9137 518.132 62.0031 516.79 60.3844C515.449 58.7657 514.695 56.5711 514.692 54.2819V31.4067C514.695 29.1175 515.449 26.9229 516.79 25.3042C518.132 23.6855 519.95 22.7749 521.847 22.7723H523.607C522.53 22.1223 521.342 21.7833 520.137 21.7822H501.185C499.108 21.7851 497.117 22.7821 495.649 24.5544C494.18 26.3268 493.354 28.7298 493.352 31.2362V54.1114C493.354 56.6179 494.18 59.0208 495.649 60.7932C497.117 62.5655 499.108 63.5625 501.185 63.5654H520.139C521.108 63.5639 522.068 63.3441 522.969 62.9173L521.847 62.9163Z" fill="#FF6B6B"/>
<path d="M201.451 102.474C202.95 102.474 204.166 101.007 204.166 99.1972C204.166 97.3872 202.95 95.9199 201.451 95.9199C199.951 95.9199 198.735 97.3872 198.735 99.1972C198.735 101.007 199.951 102.474 201.451 102.474Z" fill="#042637"/>
<path d="M643.093 259.447C647.07 262.831 650.892 266.28 655.264 268.885C655.181 269.284 655.095 269.696 655.016 270.098C654.48 269.799 653.957 269.475 653.434 269.148C649.001 266.346 645.186 262.536 641.025 259.226C638.962 257.505 636.71 256.143 634.333 255.179C631.855 254.28 629.265 253.914 626.682 254.097C615.909 254.736 606.677 262.495 596.664 266.403C591.763 268.32 586.549 269.344 581.438 268.139C576.326 266.935 571.784 263.658 567.27 260.693C562.818 257.759 557.963 254.81 552.764 254.81C548.528 254.818 544.074 256.866 541.807 261.391C541.739 261.531 541.627 261.632 541.497 261.673C541.367 261.714 541.228 261.69 541.112 261.608C540.996 261.525 540.912 261.391 540.878 261.233C540.844 261.076 540.863 260.909 540.932 260.768C541.439 259.738 542.063 258.799 542.785 257.977C545.745 254.593 550.096 253.258 554.094 253.65C559.267 254.158 563.985 257.108 568.458 260.073C573.204 263.219 578.064 266.603 583.549 267.291C588.966 267.979 594.329 266.267 599.352 263.965C609.08 259.5 618.679 252.061 629.499 252.888C634.6 253.279 638.972 255.949 643.093 259.447Z" fill="#042637"/>
<path d="M280.102 13.2473V14.9104C279.646 14.8017 279.183 14.7469 278.718 14.7469H271.613V33.1483C271.611 35.8712 270.714 38.4817 269.118 40.4071C267.523 42.3324 265.36 43.4152 263.104 43.4179H252.609V46.2525C252.609 47.3889 252.796 48.5141 253.159 49.5627H251.707C251.403 48.4977 251.249 47.3788 251.251 46.2525V43.4179H245.481V41.7797H251.251V23.3823C251.254 20.6594 252.151 18.0489 253.746 16.1235C255.341 14.1982 257.504 13.1153 259.76 13.1127H270.252V10.2412H271.61V13.1087H278.714C279.178 13.1094 279.641 13.1561 280.099 13.2483L280.102 13.2473Z" fill="#FF0606"/>
<path d="M263.104 -0.000976562H244.151C241.895 0.00166313 239.732 1.08447 238.136 3.00981C236.541 4.93516 235.644 7.54572 235.642 10.2686V33.1428C235.644 35.8656 236.541 38.4762 238.136 40.4015C239.732 42.3269 241.895 43.4097 244.151 43.4123H263.104C265.36 43.4097 267.523 42.3269 269.118 40.4015C270.714 38.4762 271.611 35.8656 271.613 33.1428V10.2407C271.605 7.52258 270.705 4.91902 269.11 2.99965C267.516 1.08028 265.356 0.0013789 263.104 -0.000976562ZM270.259 33.1468C270.257 35.4361 269.502 37.6309 268.161 39.2497C266.819 40.8685 265.001 41.7792 263.104 41.7821H244.151C242.254 41.7792 240.435 40.8685 239.094 39.2497C237.753 37.6309 236.998 35.4361 236.996 33.1468V10.2736C236.998 7.98428 237.753 5.78966 239.094 4.17089C240.436 2.55212 242.254 1.64131 244.151 1.63815H263.104C264.996 1.64075 266.811 2.54688 268.151 4.15866C269.492 5.77044 270.25 7.95693 270.259 10.2407V33.1468Z" fill="#042637"/>
<path d="M251.252 41.7824V43.4205H252.61V41.7824H251.252ZM251.252 41.7824V43.4205H252.61V41.7824H251.252ZM280.103 13.247C279.646 13.1548 279.182 13.1082 278.719 13.1074H259.765C257.509 13.1101 255.345 14.1929 253.75 16.1182C252.155 18.0436 251.258 20.6541 251.255 23.377V46.2512C251.253 47.3775 251.407 48.4963 251.711 49.5613C252.284 51.5919 253.369 53.3552 254.814 54.6041C256.259 55.853 257.991 56.5249 259.769 56.5257H278.721C280.977 56.5231 283.14 55.4403 284.735 53.5149C286.331 51.5896 287.228 48.979 287.23 46.2562V23.382C287.23 20.947 286.514 18.5911 285.208 16.7348C283.903 14.8784 282.093 13.6423 280.102 13.247H280.103ZM285.874 46.2562C285.871 48.5455 285.117 50.7403 283.775 52.3591C282.434 53.9779 280.615 54.8886 278.719 54.8915H259.765C257.868 54.8884 256.049 53.9776 254.708 52.3588C253.367 50.74 252.612 48.5454 252.61 46.2562V23.382C252.612 21.0926 253.367 18.8978 254.708 17.279C256.049 15.6602 257.868 14.7494 259.765 14.7465H278.721C280.618 14.7473 282.438 15.6574 283.78 17.2767C285.121 18.896 285.875 21.0919 285.876 23.382L285.874 46.2562ZM251.253 41.7824V43.4205H252.61V41.7824H251.253Z" fill="#042637"/>
<path d="M105.315 211.445H38.894C38.4317 211.446 37.9882 211.667 37.6608 212.061C37.3333 212.455 37.1485 212.989 37.1467 213.547V218.299C39.338 228.428 41.9909 238.403 45.0933 248.179H105.312C105.541 248.18 105.768 248.126 105.979 248.02C106.19 247.914 106.382 247.76 106.544 247.564C106.706 247.369 106.834 247.137 106.922 246.882C107.009 246.627 107.054 246.354 107.054 246.078V213.549C107.054 212.992 106.871 212.458 106.545 212.063C106.219 211.669 105.776 211.447 105.315 211.445Z" fill="#FF0606"/>
<path d="M98.9868 258.732H48.6409C49.2398 260.427 49.8503 262.111 50.4831 263.787H98.986C101.72 263.835 101.692 258.685 98.9868 258.732Z" fill="#F8F9FA"/>
<path d="M98.9867 270.316H53.0093C53.6812 272.012 54.3718 273.697 55.0812 275.372H98.9867C101.719 275.419 101.691 270.275 98.9867 270.316Z" fill="#F8F9FA"/>
<path d="M98.9868 281.908H57.9092C58.6593 283.603 59.4326 285.287 60.2166 286.963H98.9868C101.72 287.009 101.692 281.86 98.9868 281.908Z" fill="#F8F9FA"/>
<path d="M470.215 21.71H469.829C471.033 21.7111 472.221 22.05 473.298 22.7H471.536C469.639 22.7024 467.821 23.6128 466.479 25.2316C465.138 26.8503 464.383 29.0451 464.381 31.3344V54.2096C464.383 56.4988 465.138 58.6935 466.479 60.3122C467.82 61.9309 469.639 62.8414 471.536 62.844H472.66C471.758 63.2708 470.798 63.4906 469.83 63.4921H470.216C472.293 63.4892 474.284 62.4922 475.753 60.7199C477.221 58.9476 478.047 56.5446 478.05 54.0381V31.1639C478.047 28.6575 477.221 26.2545 475.753 24.4822C474.284 22.7098 472.292 21.7129 470.215 21.71Z" fill="#042637"/>
<path opacity="0.21" d="M470.215 21.71H469.829C471.033 21.7111 472.221 22.05 473.298 22.7H471.536C469.639 22.7024 467.821 23.6128 466.479 25.2316C465.138 26.8503 464.383 29.0451 464.381 31.3344V54.2096C464.383 56.4988 465.138 58.6935 466.479 60.3122C467.82 61.9309 469.639 62.8414 471.536 62.844H472.66C471.758 63.2708 470.798 63.4906 469.83 63.4921H470.216C472.293 63.4892 474.284 62.4922 475.753 60.7199C477.221 58.9476 478.047 56.5446 478.05 54.0381V31.1639C478.047 28.6575 477.221 26.2545 475.753 24.4822C474.284 22.7098 472.292 21.7129 470.215 21.71Z" fill="black"/>
<path d="M419.982 21.71H419.595C420.8 21.711 421.987 22.05 423.065 22.7H421.304C419.408 22.7027 417.589 23.6132 416.248 25.2319C414.907 26.8506 414.152 29.0453 414.15 31.3344V54.2096C414.152 56.4988 414.907 58.6935 416.248 60.3122C417.589 61.9309 419.408 62.8414 421.304 62.844H422.426C421.524 63.2708 420.564 63.4906 419.596 63.4921H419.982C422.059 63.4892 424.05 62.4922 425.519 60.7199C426.987 58.9476 427.813 56.5446 427.816 54.0381V31.1639C427.813 28.6575 426.987 26.2545 425.519 24.4822C424.05 22.7098 422.058 21.7129 419.982 21.71Z" fill="#FF0606"/>
<path opacity="0.21" d="M419.982 21.71H419.595C420.8 21.711 421.987 22.05 423.065 22.7H421.304C419.408 22.7027 417.589 23.6132 416.248 25.2319C414.907 26.8506 414.152 29.0453 414.15 31.3344V54.2096C414.152 56.4988 414.907 58.6935 416.248 60.3122C417.589 61.9309 419.408 62.8414 421.304 62.844H422.426C421.524 63.2708 420.564 63.4906 419.596 63.4921H419.982C422.059 63.4892 424.05 62.4922 425.519 60.7199C426.987 58.9476 427.813 56.5446 427.816 54.0381V31.1639C427.813 28.6575 426.987 26.2545 425.519 24.4822C424.05 22.7098 422.058 21.7129 419.982 21.71Z" fill="black"/>
<path d="M421.379 62.9163C419.482 62.9137 417.663 62.0031 416.322 60.3844C414.981 58.7657 414.227 56.5711 414.224 54.2819V31.4067C414.227 29.1175 414.981 26.9229 416.322 25.3042C417.663 23.6855 419.482 22.7749 421.379 22.7723H423.139C422.062 22.1223 420.874 21.7833 419.669 21.7822H400.717C398.64 21.7851 396.649 22.7821 395.181 24.5544C393.712 26.3268 392.886 28.7298 392.884 31.2362V54.1114C392.886 56.6179 393.712 59.0208 395.181 60.7932C396.649 62.5655 398.64 63.5625 400.717 63.5654H419.671C420.64 63.5639 421.6 63.3441 422.501 62.9173L421.379 62.9163Z" fill="#FF0606"/>
<path d="M471.612 62.9163C469.715 62.9139 467.897 62.0035 466.555 60.3848C465.214 58.766 464.459 56.5712 464.457 54.2819V31.4067C464.459 29.1173 465.214 26.9225 466.555 25.3038C467.897 23.6851 469.715 22.7747 471.612 22.7723H473.373C472.295 22.1222 471.108 21.7833 469.903 21.7822H450.951C448.874 21.7851 446.883 22.7821 445.414 24.5544C443.946 26.3268 443.12 28.7298 443.117 31.2362V54.1114C443.12 56.6179 443.946 59.0208 445.414 60.7932C446.883 62.5655 448.874 63.5625 450.951 63.5654H469.905C470.873 63.5639 471.833 63.3441 472.735 62.9173L471.612 62.9163Z" fill="#042637"/>
<path d="M470.2 75.567L463.562 63.5646L458.708 54.7906C458.425 54.2782 458.027 53.8731 457.561 53.6223C457.095 53.3715 456.579 53.2852 456.074 53.3735C455.569 53.4618 455.095 53.721 454.707 54.1211C454.319 54.5212 454.033 55.0458 453.882 55.6341L451.838 63.5646L447.724 79.4994C447.561 80.1342 447.563 80.8138 447.729 81.4475C447.895 82.0811 448.217 82.6387 448.652 83.0456C449.087 83.4525 449.615 83.6894 450.165 83.7247C450.715 83.7601 451.26 83.5921 451.729 83.2433L453.189 82.1535C453.482 81.9348 453.818 81.8102 454.162 81.7916C454.507 81.773 454.85 81.861 455.159 82.0473C455.468 82.2335 455.732 82.5118 455.927 82.8559C456.121 83.1999 456.24 83.5982 456.271 84.013L457.609 101.628C457.671 102.437 457.981 103.189 458.478 103.737C458.975 104.286 459.623 104.591 460.297 104.594C460.379 104.594 460.462 104.586 460.545 104.578L462.595 104.357C462.949 104.318 463.292 104.195 463.607 103.996C463.921 103.797 464.2 103.524 464.427 103.195C464.654 102.865 464.825 102.485 464.93 102.076C465.035 101.666 465.072 101.236 465.039 100.809L463.661 82.6211C463.628 82.1938 463.689 81.7636 463.838 81.3739C463.987 80.9842 464.218 80.6487 464.509 80.4011C464.799 80.1536 465.138 80.0028 465.493 79.9638C465.847 79.9249 466.203 79.9992 466.526 80.1794L466.825 80.3429C467.36 80.6402 467.96 80.7184 468.536 80.5656C469.111 80.4128 469.629 80.0374 470.011 79.4966C470.393 78.9557 470.618 78.2789 470.652 77.5694C470.686 76.8599 470.527 76.1564 470.199 75.566L470.2 75.567Z" fill="#D6D6E3"/>
<path d="M421.79 63.596C419.893 63.5933 418.075 62.6828 416.733 61.0641C415.392 59.4454 414.638 57.2507 414.635 54.9616V32.0864C414.638 29.7972 415.392 27.6025 416.733 25.9839C418.075 24.3652 419.893 23.4546 421.79 23.452H423.55C422.473 22.802 421.285 22.463 420.08 22.4619H401.128C399.051 22.4648 397.06 23.4618 395.592 25.2341C394.123 27.0065 393.297 29.4094 393.295 31.9159V54.7911C393.297 57.2975 394.123 59.7005 395.592 61.4728C397.06 63.2452 399.051 64.2422 401.128 64.2451H420.082C421.051 64.2435 422.011 64.0238 422.912 63.597L421.79 63.596Z" fill="#FF0606"/>
</g>
<defs>
<clipPath id="clip0_171_193">
<rect width="661" height="532" fill="white"/>
</clipPath>
</defs>
</svg>
