<svg width="18" height="19" viewBox="0 0 18 19" fill="none" xmlns="http://www.w3.org/2000/svg">
<path d="M3.25 0.5C2.38805 0.5 1.5614 0.84241 0.951903 1.4519C0.34241 2.0614 0 2.88805 0 3.75V15.25C0 16.112 0.34241 16.9386 0.951903 17.5481C1.5614 18.1576 2.38805 18.5 3.25 18.5H14.75C15.612 18.5 16.4386 18.1576 17.0481 17.5481C17.6576 16.9386 18 16.112 18 15.25V3.75C18 2.88805 17.6576 2.0614 17.0481 1.4519C16.4386 0.84241 15.612 0.5 14.75 0.5H3.25Z" fill="url(#paint0_linear_502_512)"/>
<path d="M14.2798 6.78024L7.52585 13.5272C7.38522 13.6677 7.1946 13.7466 6.99585 13.7466C6.7971 13.7466 6.60647 13.6677 6.46585 13.5272L3.71985 10.7802C3.58737 10.6381 3.51524 10.45 3.51867 10.2557C3.5221 10.0614 3.60081 9.87603 3.73822 9.73862C3.87564 9.60121 4.06102 9.52249 4.25532 9.51907C4.44963 9.51564 4.63767 9.58776 4.77985 9.72024L6.99685 11.9362L13.2198 5.71924C13.2896 5.64964 13.3723 5.59446 13.4634 5.55684C13.5545 5.51922 13.652 5.49991 13.7506 5.5C13.8491 5.50009 13.9466 5.51959 14.0376 5.55738C14.1286 5.59517 14.2112 5.65051 14.2808 5.72024C14.3504 5.78997 14.4056 5.87273 14.4432 5.96379C14.4809 6.05485 14.5002 6.15242 14.5001 6.25095C14.5 6.34947 14.4805 6.44701 14.4427 6.538C14.4049 6.62899 14.3496 6.71164 14.2798 6.78124" fill="url(#paint1_linear_502_512)"/>
<defs>
<linearGradient id="paint0_linear_502_512" x1="0.643" y1="3.875" x2="13.065" y2="16.781" gradientUnits="userSpaceOnUse">
<stop stop-color="#36DFF1"/>
<stop offset="1" stop-color="#2764E7"/>
</linearGradient>
<linearGradient id="paint1_linear_502_512" x1="5.61585" y1="6.13424" x2="10.4668" y2="21.8132" gradientUnits="userSpaceOnUse">
<stop stop-color="white"/>
<stop offset="1" stop-color="#B3E0FF"/>
</linearGradient>
</defs>
</svg>
