<svg width="87" height="96" viewBox="0 0 87 96" fill="none" xmlns="http://www.w3.org/2000/svg">
<path d="M64.8889 73.4443H49.9167H34.9445" stroke="black" stroke-width="9.23429" stroke-linecap="round" stroke-linejoin="round"/>
<path d="M64.8889 56.3333H62.75H60.6111" stroke="black" stroke-width="9.23429" stroke-linecap="round" stroke-linejoin="round"/>
<path d="M64.8889 39.2222H58.4722H52.0556" stroke="black" stroke-width="9.23429" stroke-linecap="round" stroke-linejoin="round"/>
<path d="M64.8889 5H24.25L5.00003 24.25V77.7222" stroke="black" stroke-width="9.23429" stroke-linecap="round" stroke-linejoin="round"/>
<path d="M82 84.1388V24.2499C82 20.7061 79.1272 17.8333 75.5833 17.8333H33.8686C33.188 17.8333 32.5352 18.1036 32.054 18.585L18.5849 32.0537C18.1037 32.5351 17.8333 33.1879 17.8333 33.8686V84.1388C17.8333 87.6825 20.7063 90.5555 24.25 90.5555H75.5833C79.1272 90.5555 82 87.6825 82 84.1388Z" stroke="black" stroke-width="9.23429" stroke-linecap="round" stroke-linejoin="round"/>
<path d="M34.9446 17.8333V32.3777C34.9446 33.7952 33.7956 34.9444 32.3779 34.9444H17.8335" stroke="black" stroke-width="9.23429" stroke-linecap="round" stroke-linejoin="round"/>
</svg>
