<svg width="68" height="68" viewBox="0 0 68 68" fill="none" xmlns="http://www.w3.org/2000/svg">
<path d="M29.8335 67.3334C28.653 67.3334 27.6634 66.9341 26.8648 66.1355C26.0661 65.3369 25.6668 64.3473 25.6668 63.1667V38.1667L1.50017 7.33341C0.458506 5.94453 0.302256 4.48619 1.03142 2.95841C1.76059 1.43064 3.02795 0.666748 4.83351 0.666748H63.1668C64.9724 0.666748 66.2398 1.43064 66.9689 2.95841C67.6981 4.48619 67.5418 5.94453 66.5002 7.33341L42.3335 38.1667V63.1667C42.3335 64.3473 41.9342 65.3369 41.1356 66.1355C40.337 66.9341 39.3474 67.3334 38.1668 67.3334H29.8335ZM34.0002 35.2501L54.6252 9.00008H13.3752L34.0002 35.2501Z" fill="#23AE6D"/>
</svg>
