<svg width="88" height="84" viewBox="0 0 88 84" fill="none" xmlns="http://www.w3.org/2000/svg">
<path opacity="0.25" d="M44 4C36.0888 4 28.3552 6.22866 21.7772 10.4042C15.1992 14.5796 10.0723 20.5144 7.04484 27.458C4.01733 34.4016 3.2252 42.0421 4.76861 49.4134C6.31202 56.7847 10.1216 63.5557 15.7157 68.87C21.3098 74.1844 28.4372 77.8036 36.1964 79.2698C43.9556 80.7361 51.9983 79.9835 59.3073 77.1074C66.6164 74.2313 72.8635 69.3607 77.2588 63.1117C81.654 56.8626 84 49.5157 84 42C84 31.9218 79.7857 22.2563 72.2843 15.1299C64.7828 8.00356 54.6087 4 44 4ZM44 69.6364C38.2464 69.6364 32.6219 68.0155 27.838 64.9788C23.054 61.9421 19.3253 57.6259 17.1235 52.576C14.9217 47.5261 14.3456 41.9693 15.4681 36.6084C16.5906 31.2475 19.3612 26.3232 23.4296 22.4581C27.4981 18.5931 32.6816 15.961 38.3247 14.8947C43.9677 13.8283 49.8169 14.3756 55.1326 16.4673C60.4483 18.5591 64.9917 22.1013 68.1882 26.6461C71.3848 31.1908 73.0909 36.534 73.0909 42C73.0909 49.3296 70.026 56.359 64.5704 61.5419C59.1148 66.7247 51.7154 69.6364 44 69.6364Z" fill="black"/>
<path d="M39.3065 69.6493C35.311 69.0345 31.492 67.6372 28.0897 65.5453C24.6874 63.4533 21.7754 60.712 19.5369 57.4937C17.2983 54.2753 15.7817 50.6497 15.0823 46.8447C14.383 43.0397 14.516 39.1378 15.4731 35.3843C16.6913 30.173 19.4897 25.4194 23.5193 21.7161C27.5489 18.0128 32.6314 15.5237 38.1331 14.5593C41.9938 13.8073 45.9737 13.8056 49.8352 14.5541C53.6966 15.3026 57.3605 16.786 60.6082 18.9159C63.8558 21.0457 66.6207 23.7783 68.7377 26.9505C70.8546 30.1227 72.2804 33.6695 72.9298 37.3793C73.1204 38.642 73.774 39.7992 74.7743 40.6451C75.7747 41.4911 77.057 41.9709 78.3931 41.9993H78.8698C79.5884 42.0096 80.301 41.8726 80.9594 41.5975C81.6178 41.3225 82.2068 40.9157 82.6864 40.4048C83.166 39.8939 83.5252 39.2907 83.7397 38.6359C83.9542 37.9811 84.019 37.29 83.9298 36.6093C82.8866 29.565 79.819 22.9344 75.0675 17.4533C70.3159 11.9723 64.0663 7.85509 57.0122 5.55876C49.958 3.26243 42.3752 2.87674 35.1054 4.4445C27.8355 6.01225 21.1629 9.47214 15.828 14.4402C10.4932 19.4082 6.70481 25.6901 4.88328 32.5887C3.06175 39.4872 3.27833 46.7327 5.50899 53.5209C7.73965 60.309 11.8971 66.3745 17.5201 71.0441C23.143 75.7137 30.0114 78.8048 37.3631 79.9743C38.1738 80.1121 39.0063 80.079 39.8022 79.8773C40.5981 79.6756 41.3381 79.3101 41.9704 78.8066C42.6027 78.3031 43.112 77.6736 43.4626 76.9624C43.8131 76.2511 43.9965 75.4753 43.9998 74.6893C43.9842 73.4506 43.5009 72.2589 42.6387 71.333C41.7765 70.4072 40.5933 69.8093 39.3065 69.6493Z" fill="#5E9CC7"/>
</svg>
