<svg width="93" height="75" viewBox="0 0 93 75" fill="none" xmlns="http://www.w3.org/2000/svg">
<path d="M18.75 32.875V42.125H0.25V32.875H18.75ZM28 63.4463C23.56 66.73 17.7787 71.0775 13.2 74.5C11.35 72.0488 9.5 69.5512 7.65 67.1C12.2288 63.6775 18.01 59.33 22.45 56C24.3 58.4975 26.15 60.995 28 63.4463ZM7.65 7.9C9.5 5.44875 11.35 2.95125 13.2 0.5C17.7787 3.9225 23.56 8.27 28 11.6C26.15 14.0513 24.3 16.5487 22.45 19C18.01 15.67 12.2288 11.3687 7.65 7.9ZM83.5 23.625C88.5875 23.625 92.75 27.7875 92.75 32.875V42.125C92.75 47.2125 88.5875 51.375 83.5 51.375H78.875V69.875H69.625V51.375H65L41.875 65.25V9.75L65 23.625H83.5ZM30.3125 37.5C30.3125 31.3487 32.995 25.7987 37.25 22.0062V52.9475C32.995 49.2013 30.3125 43.6512 30.3125 37.5Z" fill="black"/>
</svg>
