<svg width="480" height="514" viewBox="0 0 480 514" fill="none" xmlns="http://www.w3.org/2000/svg">
<path d="M352.505 163.119C352.881 161.643 354.179 160.571 355.745 160.23C354.493 159.337 353.838 157.881 354.215 156.406C354.744 154.327 357.092 153.018 359.46 153.483C359.698 153.53 360.155 153.619 360.155 153.619L370.531 155.869C370.531 155.869 370.402 147.3 372.327 143.085C374.25 138.871 381.463 138.257 380.335 143.162C379.209 148.067 379.489 149.831 382.688 154.944C384.781 158.287 385.74 160.769 386.153 162.086C386.359 162.744 386.367 163.433 386.197 164.099L381.491 182.582C381.234 183.593 380.092 184.23 378.94 184.004L353.68 179.048C353.68 179.048 353.224 178.958 352.985 178.912C350.618 178.447 348.886 176.51 349.602 174.475C350.188 172.81 352.719 172.63 352.719 172.63C352.719 172.63 349.896 171.773 350.522 169.315C351.105 167.027 352.87 166.785 354.036 166.943C352.784 166.051 352.129 164.595 352.505 163.119Z" fill="#4A4A4A"/>
<path d="M392.412 163.9L401.527 165.688C403.02 165.982 403.959 167.281 403.626 168.592L398.3 189.512C397.966 190.822 396.486 191.647 394.992 191.354L385.878 189.566C384.385 189.273 383.445 187.973 383.779 186.662L389.105 165.743C389.439 164.432 390.919 163.607 392.412 163.9Z" fill="#50E3C2"/>
<path d="M334.653 403.529C338.992 388.849 353.579 377.955 369.448 371.959C385.317 365.964 402.694 363.97 419.614 360.906C436.534 357.842 453.777 353.39 466.9 343.527C472.641 339.212 477.602 333.649 478.903 327.114C480.206 320.579 476.97 313.066 470.088 310.325C459.197 305.988 447.806 314.774 439.543 322.365C419.322 340.941 396.096 356.993 370.78 369.887" fill="#4A4A4A"/>
<path d="M220.594 418.052C230.058 408.143 247.332 408.801 261.961 410.317C256.382 410.644 251.434 405.703 251.907 400.813C252.379 395.922 257.549 391.915 263.12 391.508C268.692 391.101 274.219 393.924 277.234 398.057C272.234 392.644 267.09 386.977 265.287 380.19C263.485 373.403 266.108 365.167 273.279 362.177C279.228 359.697 286.576 361.525 291.69 365.167C296.804 368.81 300.159 373.97 303.397 379.004C303.37 370.279 298.122 362.309 293.039 354.811C287.955 347.313 282.722 339.332 282.731 330.607C282.74 321.881 290.237 312.531 300.169 312.879C310.036 313.224 316.339 322.151 319.785 330.274C326.268 345.551 329.144 361.998 328.185 378.279C330.575 361.127 336.961 344.411 346.833 329.462C348.029 327.652 349.37 325.787 351.463 324.786C355.027 323.083 359.728 324.572 362.32 327.313C364.913 330.055 365.832 333.713 366.332 337.249C368.329 351.378 364.787 366.064 356.44 378.272C362.259 374.488 364.971 368.123 367.177 362.068C369.383 356.014 371.587 349.604 376.848 345.237C382.11 340.87 391.565 339.681 396.21 344.556C399.403 347.908 399.28 352.801 398.293 357.083C395.994 367.059 389.819 376.314 381.031 382.954C388.99 375.258 398.735 368.99 409.492 364.646C413.596 362.988 418.353 361.603 422.535 363.103C430.446 365.94 429.793 376.465 424.692 382.484C419.591 388.504 411.691 392.589 407.67 399.208C417.875 389.55 435.392 386.543 448.99 392.116C462.588 397.689 471.209 411.408 469.326 424.478L288.902 426.189C264.669 426.419 240.414 426.648 216.22 425.435" fill="#50E3C2"/>
<path d="M53.8998 467.493C49.2019 451.596 33.4041 439.797 16.219 433.305C-0.96611 426.812 -19.7837 424.653 -38.1077 421.335C-56.431 418.017 -75.1024 413.195 -89.3157 402.515C-95.5321 397.843 -100.904 391.817 -102.315 384.741C-103.725 377.664 -100.22 369.528 -92.7678 366.56C-80.973 361.862 -68.6376 371.378 -59.6897 379.598C-37.791 399.715 -12.639 417.097 14.7775 431.061" fill="#50E3C2"/>
<path d="M-48.883 459.011C-39.2875 448.962 -21.7723 449.629 -6.93887 451.168C-12.5957 451.499 -17.6135 446.49 -17.1341 441.53C-16.6554 436.571 -11.4136 432.51 -5.76379 432.096C-0.114029 431.684 5.49015 434.546 8.54612 438.738C3.47799 433.248 -1.73869 427.502 -3.56614 420.62C-5.39359 413.739 -2.73534 405.388 4.53595 402.357C10.5669 399.841 18.0182 401.696 23.2027 405.389C28.3879 409.083 31.7905 414.314 35.0736 419.418C35.0469 410.571 29.7249 402.49 24.5711 394.888C19.4165 387.286 14.1102 379.193 14.1196 370.346C14.1291 361.5 21.7313 352.02 31.8007 352.372C41.8049 352.722 48.1959 361.772 51.6912 370.01C58.263 385.499 61.1806 402.175 60.2067 418.683C62.63 401.292 69.1058 384.344 79.1163 369.186C80.3283 367.352 81.6873 365.46 83.8095 364.445C87.4236 362.718 92.1899 364.228 94.819 367.007C97.4482 369.787 98.3796 373.496 98.8858 377.082C100.911 391.407 97.3201 406.299 88.8564 418.676C94.7562 414.84 97.5056 408.385 99.7425 402.246C101.979 396.107 104.213 389.607 109.548 385.179C114.883 380.752 124.469 379.547 129.18 384.491C132.417 387.888 132.292 392.849 131.292 397.191C128.961 407.305 122.699 416.691 113.789 423.423C121.86 415.619 131.74 409.264 142.647 404.859C146.807 403.179 151.631 401.775 155.871 403.295C163.893 406.172 163.232 416.843 158.059 422.946C152.886 429.051 144.878 433.192 140.801 439.905C151.148 430.111 168.907 427.062 182.695 432.713C196.482 438.364 205.224 452.274 203.315 465.526C142.335 466.105 81.3564 466.682 20.377 467.26C-4.19416 467.493 -28.7865 467.726 -53.3184 466.497" fill="#4A4A4A"/>
<g opacity="0.6">
<path d="M399.127 459.576C401.186 470.939 329.148 490.442 238.225 503.137C147.303 515.831 71.9265 516.911 69.868 505.548C67.8095 494.185 139.848 474.683 230.77 461.989C321.692 449.294 397.069 448.213 399.127 459.576Z" fill="#4A4A4A"/>
</g>
<path d="M281.021 28.6519L359.685 432.898C360.136 435.215 360.309 437.529 360.23 439.789C360.191 440.919 360.078 442.03 359.912 443.133C359.814 443.695 359.715 444.256 359.613 444.804C358.937 448.08 357.695 451.214 355.995 454.127C355.137 455.592 354.165 457 353.091 458.331C352.017 459.662 350.827 460.919 349.553 462.112C348.701 462.893 347.793 463.652 346.863 464.385L346.846 464.387C345.913 465.105 344.936 465.782 343.918 466.421L343.902 466.424C342.375 467.382 340.744 468.249 339.056 469.004L339.04 469.006C337.909 469.51 336.753 469.973 335.551 470.381C333.132 471.2 330.588 471.823 327.948 472.219L139.063 500.545C136.271 500.964 133.495 501.106 130.774 500.998C130.319 500.975 129.885 500.965 129.428 500.928C128.937 500.895 128.426 500.85 127.931 500.802C125.847 500.583 123.821 500.218 121.839 499.725C120.837 499.465 119.865 499.186 118.921 498.872C118.477 498.726 118.034 498.579 117.603 498.415C116.674 498.084 115.768 497.703 114.878 497.305C112.109 496.065 109.525 494.522 107.172 492.748C106.238 492.038 105.332 491.293 104.467 490.495C103.179 489.306 101.982 488.043 100.887 486.687C99.4121 484.887 98.1553 482.964 97.117 480.918L97.1139 480.903C95.8012 478.335 94.8353 475.593 94.2717 472.699L15.6078 68.4546C12.0032 49.9281 26.2079 32.302 47.345 29.1321L236.231 0.806168C257.367 -2.3637 277.416 10.126 281.021 28.6519Z" fill="#292929"/>
<path d="M272.613 29.9124L351.277 434.158C351.624 435.944 351.77 437.761 351.705 439.563C351.69 440.37 351.607 441.188 351.471 442.09L351.195 443.604C350.717 445.954 349.772 448.391 348.409 450.722C347.746 451.855 346.978 452.972 346.125 454.012C345.347 454.995 344.4 456.003 343.331 456.999C342.831 457.453 342.222 457.97 341.517 458.532L341.233 458.756C340.646 459.209 340.039 459.65 339.394 460.066L338.943 460.33C337.88 461.006 336.753 461.616 335.577 462.157L335.181 462.338C334.24 462.752 333.355 463.097 332.481 463.411C330.546 464.05 328.546 464.533 326.512 464.838L137.625 493.164C135.489 493.484 133.316 493.613 131.171 493.525C130.439 493.498 129.704 493.456 128.997 493.38C127.372 493.213 125.759 492.923 124.158 492.525C123.392 492.321 122.621 492.102 121.953 491.868C121.566 491.744 121.271 491.652 121.01 491.554L120.804 491.479C120.228 491.276 119.571 491.01 118.756 490.646C116.648 489.686 114.616 488.487 112.73 487.068C111.958 486.485 111.277 485.919 110.647 485.345C109.612 484.391 108.671 483.377 107.85 482.361C106.782 481.048 105.858 479.682 105.091 478.233L104.896 477.851C103.857 475.804 103.11 473.652 102.679 471.438L24.0142 67.1932C21.205 52.7563 32.3175 38.9818 48.7803 36.5129L237.667 8.187C250.229 6.30329 262.343 11.5508 268.612 20.5615C270.555 23.3387 271.949 26.5024 272.613 29.9124Z" fill="#ECF0FF"/>
<path d="M337.058 320.958C336.967 319.421 336.888 317.596 336.848 315.52L343.05 347.391C340.12 342.65 338.071 339.143 337.571 337.82C336.336 334.588 336.55 327.324 337.058 320.958Z" fill="#292929"/>
<path d="M300.945 131.016L291.656 83.2876C295.895 82.6521 299.918 85.1534 300.642 88.8739L307.307 123.13C308.031 126.85 305.184 130.381 300.945 131.016Z" fill="#292929"/>
<path d="M28.8779 147.256L34.7242 146.379L30.0805 122.514L24.2334 123.391C23.225 123.542 22.5459 124.383 22.7188 125.269L26.7376 145.925C26.9105 146.811 27.8687 147.407 28.8779 147.256Z" fill="#292929"/>
<path d="M34.479 176.041L40.3253 175.164L35.6816 151.3L29.8345 152.176C28.826 152.327 28.1469 153.168 28.3199 154.054L32.3395 174.71C32.5116 175.596 33.4697 176.192 34.479 176.041Z" fill="#292929"/>
<path d="M173.311 28.2378L117.146 36.6614C107.697 38.0779 98.7292 32.5027 97.1147 24.2082L187.498 10.6538C189.112 18.9483 182.76 26.8205 173.311 28.2378Z" fill="#292929"/>
<path d="M260.867 167.911L86.1579 192.195L66.4685 83.0378L241.179 58.7539L260.867 167.911Z" fill="white"/>
<path d="M241.08 58.4604L245.286 81.512L69.9718 106.171L65.7651 83.119L241.08 58.4604Z" fill="#4A4A4A"/>
<path d="M85.3389 93.1757C85.5503 94.2686 84.7109 95.3057 83.4651 95.4913C82.2193 95.6762 81.0395 94.9407 80.828 93.847C80.6166 92.7534 81.4553 91.717 82.7011 91.5314C83.9469 91.3465 85.1275 92.082 85.3389 93.1757Z" fill="white"/>
<path d="M93.9087 91.8998C94.1202 92.9934 93.2815 94.0298 92.0357 94.2154C90.7907 94.401 89.6093 93.6648 89.3979 92.5711C89.1872 91.4782 90.0259 90.4411 91.2709 90.2562C92.5167 90.0706 93.6973 90.8068 93.9087 91.8998Z" fill="white"/>
<path d="M102.479 90.6244C102.691 91.718 101.852 92.7544 100.606 92.94C99.3612 93.1256 98.1799 92.3894 97.9684 91.2957C97.7578 90.2028 98.5964 89.1657 99.8423 88.9808C101.087 88.7952 102.268 89.5314 102.479 90.6244Z" fill="white"/>
<path d="M158.19 120.792L132.821 111.609L137.294 136.405L158.19 120.792Z" fill="#50E3C2"/>
<path d="M266.149 194.667L286.473 300.217L115.792 325.547L95.4656 219.996L266.149 194.667Z" fill="white"/>
<path d="M169.527 288.952L123.996 295.708L117.342 261.159L162.872 254.402L169.527 288.952Z" fill="#50E3C2"/>
<path d="M266.149 194.667L270.597 217.764L99.9136 243.094L95.4648 219.996L266.149 194.667Z" fill="#4A4A4A"/>
<path d="M115.458 229.386C115.699 230.633 114.741 231.815 113.32 232.026C111.9 232.236 110.553 231.396 110.313 230.149C110.073 228.902 111.029 227.72 112.45 227.509C113.871 227.298 115.218 228.138 115.458 229.386Z" fill="white"/>
<path d="M125.233 227.935C125.474 229.182 124.516 230.364 123.095 230.574C121.674 230.785 120.328 229.945 120.088 228.698C119.848 227.451 120.805 226.269 122.225 226.058C123.645 225.847 124.993 226.687 125.233 227.935Z" fill="white"/>
<path d="M135.009 226.484C135.248 227.731 134.291 228.914 132.871 229.124C131.45 229.335 130.103 228.495 129.863 227.247C129.622 226.001 130.58 224.819 132 224.608C133.421 224.397 134.768 225.236 135.009 226.484Z" fill="white"/>
<path d="M173.219 255.499C173.219 255.499 213.172 249.561 237.428 245.958" stroke="#4A4A4A" stroke-width="6.56" stroke-miterlimit="10"/>
<path d="M289.278 327.45L293.727 350.467L123.647 375.808L119.197 352.793L289.278 327.45Z" fill="#4A4A4A"/>
<path d="M138.759 362.131C138.971 363.224 138.133 364.261 136.887 364.446C135.641 364.632 134.46 363.897 134.248 362.803C134.038 361.71 134.876 360.673 136.122 360.487C137.367 360.302 138.548 361.038 138.759 362.131Z" fill="white"/>
<path d="M147.33 360.854C147.542 361.947 146.703 362.984 145.457 363.17C144.212 363.355 143.031 362.62 142.82 361.526C142.608 360.432 143.446 359.396 144.691 359.21C145.937 359.025 147.118 359.76 147.33 360.854Z" fill="white"/>
<path d="M155.9 359.578C156.112 360.67 155.273 361.708 154.028 361.892C152.782 362.079 151.601 361.343 151.39 360.25C151.178 359.156 152.017 358.12 153.263 357.933C154.508 357.748 155.689 358.484 155.9 359.578Z" fill="white"/>
<path d="M187.11 405.474C189.162 416.085 181.026 426.148 168.938 427.949C156.85 429.75 145.388 422.608 143.336 411.996C141.285 401.385 149.42 391.323 161.508 389.522C173.596 387.721 185.058 394.863 187.11 405.474Z" fill="#50E3C2"/>
<path d="M165.547 406.629C165.642 406.532 165.694 406.404 165.667 406.268C165.62 406.025 165.358 405.862 165.081 405.903C164.804 405.944 164.618 406.175 164.665 406.418C164.692 406.562 164.8 406.671 164.938 406.734C164.681 406.884 164.534 407.157 164.589 407.441L164.704 408.037L166.297 407.799L166.182 407.204C166.125 406.907 165.864 406.686 165.547 406.629Z" fill="white"/>
</svg>
