<svg width="302" height="275" viewBox="0 0 302 275" fill="none" xmlns="http://www.w3.org/2000/svg">
<g clip-path="url(#clip0_186_201)">
<path d="M80.217 203.098C35.9851 203.098 0 158.495 0 103.671C0 48.846 35.9851 4.24316 80.217 4.24316C93.069 4.25953 105.731 8.09484 117.14 15.4276C128.55 22.7603 138.375 33.3766 145.791 46.3865L145.032 47.0511C137.702 34.1916 127.99 23.698 116.713 16.45C105.435 9.20198 92.9204 5.41095 80.217 5.39473C36.4977 5.39473 0.929068 49.4814 0.929068 103.671C0.929068 157.86 36.4977 201.946 80.217 201.946C92.3958 201.996 104.418 198.544 115.339 191.864C126.26 185.183 135.783 175.454 143.16 163.443L143.896 164.143C136.434 176.296 126.799 186.138 115.75 192.897C104.701 199.656 92.5384 203.148 80.217 203.098Z" fill="#E6E6E6"/>
<path d="M113.38 87.0198C112.5 87.0198 111.641 86.6966 110.91 86.091C110.178 85.4854 109.608 84.6246 109.272 83.6176C108.935 82.6105 108.847 81.5023 109.019 80.4332C109.19 79.3641 109.614 78.3821 110.236 77.6113C110.858 76.8405 111.65 76.3156 112.512 76.103C113.375 75.8903 114.269 75.9995 115.081 76.4166C115.894 76.8337 116.588 77.5402 117.077 78.4465C117.566 79.3528 117.826 80.4184 117.826 81.5085C117.826 82.9702 117.358 84.372 116.524 85.4056C115.69 86.4392 114.559 87.0198 113.38 87.0198Z" fill="#E6E6E6"/>
<path d="M114.931 82.6617L114 81.5084L114.931 80.3551C114.972 80.3047 115.004 80.2448 115.026 80.1787C115.049 80.1127 115.06 80.0419 115.06 79.9703C115.06 79.8988 115.049 79.8279 115.027 79.7618C115.005 79.6957 114.973 79.6356 114.932 79.585C114.891 79.5344 114.842 79.4943 114.789 79.467C114.736 79.4397 114.679 79.4257 114.621 79.4258C114.563 79.4259 114.506 79.4401 114.453 79.4677C114.399 79.4952 114.351 79.5355 114.31 79.5863L113.38 80.7396L112.449 79.5863C112.367 79.4843 112.256 79.427 112.139 79.427C112.023 79.427 111.911 79.4843 111.829 79.5863C111.747 79.6882 111.701 79.8265 111.701 79.9707C111.701 80.1149 111.747 80.2532 111.829 80.3551L112.76 81.5084L111.829 82.6617C111.747 82.7638 111.701 82.9019 111.702 83.0458C111.702 83.1897 111.748 83.3276 111.83 83.4293C111.912 83.5311 112.024 83.5883 112.14 83.5886C112.256 83.5888 112.367 83.532 112.449 83.4306L113.38 82.2773L114.31 83.4306C114.351 83.4811 114.399 83.5211 114.453 83.5484C114.506 83.5758 114.563 83.5898 114.621 83.5898C114.678 83.5898 114.735 83.5758 114.788 83.5484C114.842 83.5211 114.89 83.4811 114.931 83.4306C114.971 83.3801 115.004 83.3202 115.026 83.2542C115.048 83.1882 115.059 83.1175 115.059 83.0462C115.059 82.9748 115.048 82.9041 115.026 82.8381C115.004 82.7721 114.971 82.7122 114.931 82.6617Z" fill="white"/>
<path d="M91.266 21.9358C96.1531 21.9358 100.115 17.0253 100.115 10.9679C100.115 4.9105 96.1531 0 91.266 0C86.379 0 82.4172 4.9105 82.4172 10.9679C82.4172 17.0253 86.379 21.9358 91.266 21.9358Z" fill="#E6E6E6"/>
<path d="M90.059 16.6767C89.9061 16.6767 89.7554 16.6326 89.6188 16.5478C89.4821 16.4631 89.3632 16.3401 89.2716 16.1886L86.8575 12.1989C86.7799 12.0707 86.7235 11.9249 86.6914 11.7697C86.6594 11.6145 86.6523 11.4529 86.6705 11.2943C86.6888 11.1357 86.7321 10.9832 86.798 10.8453C86.8639 10.7074 86.951 10.587 87.0544 10.4909C87.1578 10.3948 87.2755 10.3248 87.4007 10.2851C87.5259 10.2453 87.6562 10.2365 87.7842 10.2592C87.9121 10.2818 88.0352 10.3355 88.1465 10.4172C88.2577 10.4988 88.3548 10.6068 88.4324 10.7349L90.0118 13.3449L94.0682 5.80319C94.2138 5.53631 94.4387 5.35165 94.6937 5.28951C94.9488 5.22738 95.2133 5.2928 95.4296 5.47152C95.6459 5.65023 95.7963 5.92772 95.8482 6.24344C95.9 6.55916 95.849 6.88746 95.7062 7.15672L90.878 16.1334C90.7907 16.2957 90.6732 16.4297 90.5355 16.5242C90.3977 16.6187 90.2437 16.6708 90.0863 16.6763L90.059 16.6767Z" fill="white"/>
<path d="M102.101 30.7549H80.822C79.5214 30.7549 78.467 32.0617 78.467 33.6738V34.7243C78.467 36.3364 79.5214 37.6432 80.822 37.6432H102.101C103.402 37.6432 104.456 36.3364 104.456 34.7243V33.6738C104.456 32.0617 103.402 30.7549 102.101 30.7549Z" fill="#E6E6E6"/>
<path d="M115.3 44.5322H67.623C66.3224 44.5322 65.2681 45.8391 65.2681 47.4512V48.5016C65.2681 50.1137 66.3224 51.4206 67.623 51.4206H115.3C116.601 51.4206 117.655 50.1137 117.655 48.5016V47.4512C117.655 45.8391 116.601 44.5322 115.3 44.5322Z" fill="#E6E6E6"/>
<path d="M115.3 58.3086H67.623C66.3224 58.3086 65.2681 59.6154 65.2681 61.2275V62.278C65.2681 63.8901 66.3224 65.1969 67.623 65.1969H115.3C116.601 65.1969 117.655 63.8901 117.655 62.278V61.2275C117.655 59.6154 116.601 58.3086 115.3 58.3086Z" fill="#E6E6E6"/>
<path d="M86.3005 205.198C85.4211 205.198 84.5614 204.874 83.8302 204.269C83.0989 203.663 82.529 202.802 82.1925 201.795C81.8559 200.788 81.7679 199.68 81.9394 198.611C82.111 197.542 82.5345 196.56 83.1564 195.789C83.7782 195.018 84.5705 194.493 85.433 194.281C86.2956 194.068 87.1896 194.177 88.0021 194.594C88.8146 195.011 89.5091 195.718 89.9977 196.624C90.4863 197.531 90.747 198.596 90.747 199.686C90.747 201.148 90.2786 202.55 89.4447 203.583C88.6108 204.617 87.4798 205.198 86.3005 205.198Z" fill="#E6E6E6"/>
<path d="M87.8513 200.84L86.9209 199.687L87.8513 198.534C87.9336 198.432 87.9798 198.293 87.9798 198.149C87.9798 198.005 87.9336 197.867 87.8513 197.765C87.7691 197.663 87.6575 197.605 87.5412 197.605C87.4249 197.605 87.3133 197.663 87.231 197.765L86.3006 198.918L85.3701 197.765C85.2879 197.663 85.1763 197.605 85.06 197.605C84.9436 197.605 84.8321 197.663 84.7498 197.765C84.6675 197.867 84.6213 198.005 84.6213 198.149C84.6213 198.293 84.6675 198.432 84.7498 198.534L85.6803 199.687L84.7498 200.84C84.6675 200.942 84.6213 201.08 84.6213 201.225C84.6213 201.369 84.6675 201.507 84.7498 201.609C84.8321 201.711 84.9436 201.768 85.06 201.768C85.1763 201.768 85.2879 201.711 85.3701 201.609L86.3006 200.456L87.231 201.609C87.3133 201.711 87.4249 201.768 87.5412 201.768C87.6575 201.768 87.7691 201.711 87.8513 201.609C87.9336 201.507 87.9798 201.369 87.9798 201.225C87.9798 201.08 87.9336 200.942 87.8513 200.84Z" fill="white"/>
<path d="M64.1867 140.114C69.0737 140.114 73.0355 135.203 73.0355 129.146C73.0355 123.088 69.0737 118.178 64.1867 118.178C59.2996 118.178 55.3379 123.088 55.3379 129.146C55.3379 135.203 59.2996 140.114 64.1867 140.114Z" fill="#E6E6E6"/>
<path d="M62.9796 134.854C62.8268 134.854 62.6761 134.81 62.5394 134.725C62.4027 134.641 62.2839 134.518 62.1922 134.366L59.7781 130.376C59.7006 130.248 59.6442 130.102 59.6121 129.947C59.58 129.792 59.5729 129.63 59.5912 129.472C59.6095 129.313 59.6528 129.161 59.7186 129.023C59.7845 128.885 59.8716 128.765 59.975 128.668C60.0784 128.572 60.1961 128.502 60.3213 128.463C60.4465 128.423 60.5769 128.414 60.7048 128.437C60.8328 128.459 60.9559 128.513 61.0671 128.595C61.1783 128.676 61.2755 128.784 61.353 128.912L62.9324 131.522L66.9888 123.981C67.0601 123.846 67.1522 123.731 67.2597 123.64C67.3672 123.55 67.488 123.487 67.6152 123.455C67.7424 123.423 67.8735 123.423 68.0009 123.453C68.1283 123.484 68.2495 123.546 68.3575 123.636C68.4655 123.725 68.5582 123.84 68.6302 123.974C68.7023 124.107 68.7523 124.258 68.7773 124.415C68.8024 124.573 68.802 124.736 68.7761 124.893C68.7503 125.051 68.6996 125.201 68.6268 125.334L63.7987 134.311C63.7113 134.473 63.5939 134.607 63.4561 134.702C63.3184 134.796 63.1644 134.848 63.007 134.854L62.9796 134.854Z" fill="white"/>
<path d="M75.0218 148.933H53.7427C52.442 148.933 51.3877 150.239 51.3877 151.852V152.902C51.3877 154.514 52.442 155.821 53.7427 155.821H75.0218C76.3224 155.821 77.3767 154.514 77.3767 152.902V151.852C77.3767 150.239 76.3224 148.933 75.0218 148.933Z" fill="#E6E6E6"/>
<path d="M88.2206 162.709H40.5437C39.2431 162.709 38.1887 164.016 38.1887 165.628V166.678C38.1887 168.29 39.2431 169.597 40.5437 169.597H88.2206C89.5213 169.597 90.5756 168.29 90.5756 166.678V165.628C90.5756 164.016 89.5213 162.709 88.2206 162.709Z" fill="#E6E6E6"/>
<path d="M88.2206 176.486H40.5437C39.2431 176.486 38.1887 177.793 38.1887 179.405V180.456C38.1887 182.068 39.2431 183.375 40.5437 183.375H88.2206C89.5213 183.375 90.5756 182.068 90.5756 180.456V179.405C90.5756 177.793 89.5213 176.486 88.2206 176.486Z" fill="#E6E6E6"/>
<path d="M178.283 181.683C177.069 181.683 175.882 181.237 174.872 180.401C173.862 179.564 173.075 178.376 172.61 176.985C172.146 175.594 172.024 174.064 172.261 172.588C172.498 171.112 173.083 169.755 173.941 168.691C174.8 167.627 175.894 166.902 177.085 166.608C178.277 166.314 179.511 166.465 180.633 167.041C181.755 167.617 182.714 168.593 183.389 169.844C184.063 171.096 184.424 172.567 184.424 174.073C184.424 176.091 183.777 178.027 182.625 179.454C181.474 180.882 179.912 181.683 178.283 181.683Z" fill="#E6E6E6"/>
<path d="M180.425 175.665L179.14 174.072L180.425 172.48C180.538 172.339 180.602 172.148 180.602 171.949C180.602 171.75 180.538 171.559 180.425 171.418C180.311 171.277 180.157 171.198 179.996 171.198C179.836 171.198 179.682 171.277 179.568 171.418L178.283 173.011L176.998 171.418C176.885 171.277 176.731 171.198 176.57 171.198C176.409 171.198 176.255 171.277 176.142 171.418C176.028 171.559 175.964 171.75 175.964 171.949C175.964 172.148 176.028 172.339 176.142 172.48L177.427 174.072L176.142 175.665C176.028 175.806 175.964 175.997 175.964 176.196C175.964 176.395 176.028 176.586 176.142 176.727C176.255 176.868 176.409 176.947 176.57 176.947C176.731 176.947 176.885 176.868 176.998 176.727L178.283 175.134L179.568 176.727C179.682 176.868 179.836 176.947 179.996 176.947C180.157 176.947 180.311 176.868 180.425 176.727C180.538 176.586 180.602 176.395 180.602 176.196C180.602 175.997 180.538 175.806 180.425 175.665Z" fill="white"/>
<path d="M151.531 91.8079C158.279 91.8079 163.75 85.0269 163.75 76.6622C163.75 68.2975 158.279 61.5166 151.531 61.5166C144.782 61.5166 139.312 68.2975 139.312 76.6622C139.312 85.0269 144.782 91.8079 151.531 91.8079Z" fill="#16B84C"/>
<path d="M149.864 84.5442C149.653 84.5442 149.445 84.4833 149.256 84.3663C149.067 84.2493 148.903 84.0795 148.777 83.8702L145.443 78.3608C145.336 78.1838 145.258 77.9824 145.214 77.7681C145.169 77.5538 145.16 77.3307 145.185 77.1117C145.21 76.8927 145.27 76.682 145.361 76.4916C145.452 76.3013 145.572 76.135 145.715 76.0022C145.858 75.8695 146.02 75.7729 146.193 75.718C146.366 75.6631 146.546 75.6509 146.723 75.6822C146.899 75.7135 147.069 75.7877 147.223 75.9004C147.376 76.0131 147.511 76.1622 147.618 76.3392L149.799 79.9433L155.4 69.5289C155.499 69.3448 155.627 69.1866 155.775 69.0634C155.923 68.9403 156.09 68.8545 156.265 68.8111C156.44 68.7677 156.62 68.7674 156.795 68.8103C156.97 68.8533 157.137 68.9385 157.285 69.0613C157.434 69.184 157.562 69.3419 157.661 69.5257C157.76 69.7096 157.829 69.9159 157.864 70.1329C157.899 70.3499 157.899 70.5733 157.865 70.7904C157.83 71.0075 157.761 71.214 157.662 71.398L150.995 83.7939C150.874 84.0181 150.712 84.2032 150.522 84.3336C150.332 84.4641 150.119 84.5361 149.902 84.5436C149.889 84.5439 149.876 84.5442 149.864 84.5442Z" fill="white"/>
<path d="M167.39 103.986H136.211C134.911 103.986 133.856 105.293 133.856 106.905V110.58C133.856 112.192 134.911 113.498 136.211 113.498H167.39C168.69 113.498 169.745 112.192 169.745 110.58V106.905C169.745 105.293 168.69 103.986 167.39 103.986Z" fill="#3F3D56"/>
<path d="M185.616 123.011H117.985C116.684 123.011 115.63 124.318 115.63 125.93V129.604C115.63 131.216 116.684 132.523 117.985 132.523H185.616C186.917 132.523 187.971 131.216 187.971 129.604V125.93C187.971 124.318 186.917 123.011 185.616 123.011Z" fill="#3F3D56"/>
<path d="M185.616 142.035H117.985C116.684 142.035 115.63 143.342 115.63 144.954V148.628C115.63 150.24 116.684 151.547 117.985 151.547H185.616C186.917 151.547 187.971 150.24 187.971 148.628V144.954C187.971 143.342 186.917 142.035 185.616 142.035Z" fill="#3F3D56"/>
<path d="M209.354 266.954L203.429 266.953L200.61 238.623L209.356 238.624L209.354 266.954Z" fill="#FFB6B6"/>
<path d="M209.196 264.554L202.869 261.365L202.688 261.272L199.195 264.554C197.223 264.555 195.331 265.526 193.936 267.255C192.542 268.983 191.758 271.328 191.758 273.773V274.072H210.864V264.554H209.196Z" fill="#2F2E41"/>
<path d="M259.44 260.801L253.781 262.981L244.306 236.963L252.658 233.747L259.44 260.801Z" fill="#FFB6B6"/>
<path d="M258.715 258.568L251.909 257.849L251.714 257.828L249.164 262.247C247.281 262.973 245.707 264.596 244.789 266.76C243.871 268.924 243.684 271.451 244.269 273.786L244.341 274.072L262.586 267.044L260.307 257.955L258.715 258.568Z" fill="#2F2E41"/>
<path d="M235.731 121.827L238.141 130.323V134.916L237.805 139.966L241.535 156.81L244.461 193.952L259.188 248.935L247.896 252.965L219.067 163.13L209.962 253.995L199.636 253.654C199.636 253.654 197.869 248.359 198.334 245.48C198.798 242.601 198.798 246.056 198.798 242.601C198.798 239.146 196.784 240.647 198.256 237.881C199.727 235.116 199.544 232.695 199.636 231.027C199.727 229.358 198.798 161.992 198.798 159.689C198.798 157.385 198.476 157.89 198.637 155.622C198.798 153.355 200.84 154.287 200.283 150.366C199.727 146.446 199.544 147.131 199.636 144.197C199.727 141.264 201.007 124.062 201.007 124.062L235.731 121.827Z" fill="#2F2E41"/>
<path d="M197.084 124.591L217.785 99.847L223.523 79.7108L215.06 75.1494C210.713 80.3107 206.014 96.3866 206.014 96.3866L191.769 118.85C191.658 118.897 191.547 118.947 191.438 119.007C190.796 119.357 190.238 119.907 189.818 120.603C189.398 121.299 189.13 122.118 189.04 122.979C188.95 123.841 189.04 124.718 189.303 125.523C189.566 126.329 189.992 127.037 190.54 127.579C191.088 128.121 191.74 128.479 192.432 128.618C193.124 128.756 193.834 128.671 194.492 128.371C195.15 128.071 195.734 127.565 196.188 126.903C196.642 126.241 196.951 125.444 197.084 124.591Z" fill="#FFB8B8"/>
<path d="M212.678 77.398L223.413 81.622L223.453 81.6137C227.449 80.7841 230.764 72.6957 232.842 66.0565C233.525 63.8666 233.513 61.4367 232.806 59.258C232.1 57.0793 230.752 55.3144 229.036 54.32C227.766 53.5971 226.358 53.3289 224.972 53.5457C223.585 53.7625 222.275 54.4557 221.19 55.547L215.678 61.13L212.678 77.398Z" fill="#16B84C"/>
<path d="M237.555 132.742L237.617 132.639C240.967 127.133 236.386 113.498 235.693 111.521L238.807 110.378L238.265 103.028L238.003 99.7508L240.425 96.9007L240.433 96.8279L242.098 82.1392L244.277 72.4174C245.098 68.7421 245.115 64.8622 244.327 61.1758C243.539 57.4895 241.973 54.1296 239.791 51.441L235.337 45.9596L230.001 35.6066L221.053 35.3203L217.836 42.4045C214.844 43.1614 212.161 45.1953 210.254 48.1519C208.348 51.1085 207.339 54.8005 207.402 58.5847L207.705 77.4442L204.495 100.811L204.405 105.056L201.254 109.177L201.836 113.344L199.479 114.507L198.326 120.428C197.885 121.111 194.977 125.668 194.95 126.939C194.946 127.129 195.056 127.317 195.296 127.53C197.178 129.199 207.701 132.817 212.437 130.642C217.482 128.327 237.253 132.675 237.452 132.719L237.555 132.742Z" fill="#16B84C"/>
<path d="M215.622 72.9561L211.051 61.6621C204.417 62.2238 191.251 71.731 191.251 71.731L166.34 78.2776C165.602 77.9259 164.802 77.8215 164.021 77.9747C163.24 78.128 162.506 78.5335 161.891 79.1504C161.277 79.7674 160.805 80.574 160.522 81.4891C160.239 82.4043 160.156 83.3956 160.281 84.3633C160.405 85.331 160.733 86.241 161.232 87.0016C161.73 87.7622 162.381 88.3467 163.12 88.6961C163.859 89.0455 164.659 89.1476 165.439 88.992C166.22 88.8365 166.954 88.4288 167.567 87.81L199.255 84.9946L215.622 72.9561Z" fill="#FFB8B8"/>
<path d="M213.778 74.8097L225.715 63.8151L227.817 54.4237C228.224 52.5781 228.207 50.6281 227.767 48.7941C227.328 46.96 226.483 45.315 225.328 44.0449C223.754 42.3363 221.714 41.4324 219.623 41.5161C217.531 41.5997 215.544 42.6646 214.061 44.4955C209.569 50.0526 204.446 57.8053 205.547 63.1812L205.558 63.2357L213.778 74.8097Z" fill="#16B84C"/>
<path d="M225.822 32.7532C231.684 32.7532 236.436 26.8631 236.436 19.5973C236.436 12.3315 231.684 6.44141 225.822 6.44141C219.96 6.44141 215.208 12.3315 215.208 19.5973C215.208 26.8631 219.96 32.7532 225.822 32.7532Z" fill="#FFB8B8"/>
<path d="M232.806 33.356C231.031 32.3224 228.958 32.9506 226.998 33.0461C225.038 33.1417 222.663 32.226 222.247 29.8501C221.94 28.0933 222.864 26.1679 222.282 24.5216C221.647 22.7262 219.74 22.4707 218.212 21.968C216.295 21.2818 214.606 19.8564 213.387 17.8989C212.169 15.9415 211.486 13.5537 211.437 11.0822C211.33 12.0631 212.685 12.3853 213.129 11.5634C213.574 10.7414 213.268 9.60373 212.777 8.8227C212.287 8.04166 211.625 7.41791 211.255 6.54076C210.885 5.66361 210.957 4.36093 211.68 3.93881C212.05 4.86487 212.574 5.68315 213.218 6.33966C213.862 6.99619 214.611 7.47603 215.415 7.74753C215.087 6.51064 215.551 5.12006 216.299 4.20519C217.093 3.34803 218.008 2.68005 218.998 2.23487C221.445 0.920285 224.301 -0.387872 226.671 1.12885C227.282 1.52788 227.813 2.09303 228.224 2.78211C228.635 3.47119 228.915 4.26639 229.043 5.1083C233.425 5.56764 237.926 11.4522 237.676 16.8952C237.408 22.7547 237.212 23.2288 233.276 33.0891" fill="#2F2E41"/>
<path d="M285.976 274.41H270.56L270.494 274.261C270.297 273.818 270.107 273.348 269.929 272.866C268.341 268.652 267.67 263.833 267.077 259.581L266.631 256.376C266.577 255.988 266.618 255.588 266.748 255.229C266.878 254.87 267.092 254.567 267.362 254.359C267.632 254.151 267.946 254.047 268.263 254.062C268.581 254.076 268.888 254.208 269.145 254.44C271.487 256.553 273.831 258.664 276.176 260.773C277.064 261.573 278.078 262.5 279.049 263.502C279.142 262.938 279.24 262.372 279.338 261.814C279.406 261.429 279.565 261.078 279.794 260.805C280.024 260.532 280.314 260.351 280.627 260.284C280.941 260.217 281.263 260.267 281.553 260.428C281.843 260.589 282.088 260.854 282.256 261.189L284.06 264.781C285.375 267.404 286.536 269.989 286.3 272.776C286.301 272.81 286.299 272.844 286.294 272.878C286.246 273.336 286.158 273.786 286.032 274.22L285.976 274.41Z" fill="#F0F0F0"/>
<path d="M301.45 274.823L154.955 275C154.809 274.999 154.669 274.927 154.566 274.798C154.463 274.67 154.405 274.496 154.405 274.315C154.405 274.133 154.463 273.96 154.566 273.831C154.669 273.703 154.809 273.63 154.955 273.629L301.45 273.452C301.596 273.453 301.736 273.526 301.839 273.654C301.942 273.783 302 273.956 302 274.138C302 274.319 301.942 274.493 301.839 274.621C301.736 274.75 301.596 274.822 301.45 274.823Z" fill="#CACACA"/>
</g>
<defs>
<clipPath id="clip0_186_201">
<rect width="302" height="275" fill="white"/>
</clipPath>
</defs>
</svg>
