<svg width="1728" height="628" viewBox="0 0 1728 628" fill="none" xmlns="http://www.w3.org/2000/svg">
<path d="M179 223H1268.5" stroke="#244F5D" stroke-width="60"/>
<circle cx="1268" cy="223" r="30" fill="#244F5D"/>
<path d="M179 274.5V222.75V171" stroke="#244F5D" stroke-width="4"/>
<circle cx="1268" cy="223" r="20" fill="white"/>
<path d="M966.271 224.861H966.457C967.238 224.861 967.909 224.767 968.469 224.578C969.035 224.383 969.501 224.103 969.865 223.738C970.23 223.374 970.5 222.928 970.676 222.4C970.852 221.867 970.939 221.261 970.939 220.584V217.889C970.939 217.192 970.852 216.616 970.676 216.16C970.5 215.698 970.259 215.353 969.953 215.125C969.647 214.897 969.299 214.783 968.908 214.783C968.492 214.783 968.137 214.917 967.844 215.184C967.557 215.444 967.336 215.789 967.18 216.219C967.03 216.642 966.955 217.094 966.955 217.576C966.955 218.064 967.03 218.517 967.18 218.934C967.329 219.344 967.554 219.676 967.854 219.93C968.16 220.177 968.54 220.301 968.996 220.301C969.328 220.301 969.624 220.239 969.885 220.115C970.152 219.985 970.376 219.816 970.559 219.607C970.747 219.399 970.891 219.168 970.988 218.914C971.092 218.66 971.145 218.403 971.145 218.143L972.072 218.65C972.072 219.106 971.975 219.555 971.779 219.998C971.584 220.441 971.311 220.844 970.959 221.209C970.614 221.567 970.214 221.854 969.758 222.068C969.302 222.283 968.814 222.391 968.293 222.391C967.408 222.391 966.656 222.179 966.037 221.756C965.419 221.333 964.947 220.76 964.621 220.037C964.302 219.314 964.143 218.504 964.143 217.605C964.143 216.688 964.338 215.848 964.729 215.086C965.126 214.324 965.682 213.715 966.398 213.26C967.121 212.804 967.964 212.576 968.928 212.576C969.65 212.576 970.308 212.716 970.9 212.996C971.493 213.276 972.001 213.673 972.424 214.188C972.847 214.695 973.173 215.304 973.4 216.014C973.635 216.723 973.752 217.511 973.752 218.377V219.354C973.752 220.278 973.651 221.137 973.449 221.932C973.254 222.726 972.958 223.445 972.561 224.09C972.17 224.728 971.682 225.275 971.096 225.73C970.516 226.186 969.842 226.535 969.074 226.775C968.306 227.016 967.447 227.137 966.496 227.137H966.271V224.861ZM985.344 223.104C985.344 223.995 985.135 224.747 984.719 225.359C984.302 225.965 983.729 226.424 983 226.736C982.277 227.042 981.457 227.195 980.539 227.195C979.621 227.195 978.798 227.042 978.068 226.736C977.339 226.424 976.763 225.965 976.34 225.359C975.917 224.747 975.705 223.995 975.705 223.104C975.705 222.303 975.913 221.606 976.33 221.014C976.753 220.421 977.326 219.962 978.049 219.637C978.778 219.311 979.602 219.148 980.52 219.148C981.444 219.148 982.271 219.311 983 219.637C983.729 219.962 984.302 220.421 984.719 221.014C985.135 221.606 985.344 222.303 985.344 223.104ZM982.512 222.918C982.512 222.482 982.427 222.107 982.258 221.795C982.095 221.476 981.864 221.232 981.564 221.062C981.265 220.893 980.917 220.809 980.52 220.809C980.122 220.809 979.774 220.893 979.475 221.062C979.175 221.232 978.941 221.476 978.771 221.795C978.609 222.107 978.527 222.482 978.527 222.918C978.527 223.348 978.609 223.719 978.771 224.031C978.941 224.344 979.175 224.585 979.475 224.754C979.781 224.917 980.135 224.998 980.539 224.998C980.943 224.998 981.291 224.917 981.584 224.754C981.883 224.585 982.111 224.344 982.268 224.031C982.43 223.719 982.512 223.348 982.512 222.918ZM985.041 216.551C985.041 217.273 984.849 217.915 984.465 218.475C984.081 219.028 983.547 219.461 982.863 219.773C982.186 220.086 981.411 220.242 980.539 220.242C979.66 220.242 978.879 220.086 978.195 219.773C977.512 219.461 976.978 219.028 976.594 218.475C976.21 217.915 976.018 217.273 976.018 216.551C976.018 215.691 976.21 214.969 976.594 214.383C976.984 213.79 977.518 213.341 978.195 213.035C978.879 212.729 979.654 212.576 980.52 212.576C981.398 212.576 982.176 212.729 982.854 213.035C983.537 213.341 984.071 213.79 984.455 214.383C984.846 214.969 985.041 215.691 985.041 216.551ZM982.229 216.678C982.229 216.294 982.16 215.962 982.023 215.682C981.887 215.395 981.691 215.174 981.438 215.018C981.19 214.861 980.884 214.783 980.52 214.783C980.168 214.783 979.865 214.858 979.611 215.008C979.364 215.158 979.172 215.376 979.035 215.662C978.905 215.942 978.84 216.281 978.84 216.678C978.84 217.062 978.905 217.4 979.035 217.693C979.172 217.98 979.367 218.204 979.621 218.367C979.875 218.53 980.181 218.611 980.539 218.611C980.897 218.611 981.2 218.53 981.447 218.367C981.701 218.204 981.893 217.98 982.023 217.693C982.16 217.4 982.229 217.062 982.229 216.678ZM997.629 219.598C997.629 219.129 997.795 218.738 998.127 218.426C998.465 218.113 998.869 217.957 999.338 217.957C999.807 217.957 1000.2 218.113 1000.53 218.426C1000.86 218.738 1001.03 219.129 1001.03 219.598C1001.03 220.06 1000.86 220.451 1000.53 220.77C1000.2 221.082 999.807 221.238 999.338 221.238C998.856 221.238 998.449 221.082 998.117 220.77C997.792 220.457 997.629 220.066 997.629 219.598ZM997.629 225.35C997.629 224.887 997.795 224.5 998.127 224.188C998.465 223.875 998.869 223.719 999.338 223.719C999.807 223.719 1000.2 223.875 1000.53 224.188C1000.86 224.5 1001.03 224.887 1001.03 225.35C1001.03 225.818 1000.86 226.209 1000.53 226.521C1000.2 226.834 999.807 226.99 999.338 226.99C998.856 226.99 998.449 226.834 998.117 226.521C997.792 226.209 997.629 225.818 997.629 225.35ZM1009.12 217.967L1010.81 219.656L1009.12 221.346L1007.43 219.656L1009.12 217.967ZM1009.25 228.729C1010.21 228.729 1010.97 228.572 1011.53 228.26C1012.08 227.947 1012.47 227.527 1012.7 227C1012.93 226.473 1013.05 225.883 1013.05 225.232C1013.05 224.516 1012.94 223.784 1012.72 223.035C1012.5 222.286 1012.25 221.593 1011.99 220.955L1014.42 220.037C1014.78 220.988 1015.04 221.873 1015.19 222.693C1015.34 223.507 1015.42 224.327 1015.42 225.154C1015.42 226.411 1015.19 227.498 1014.73 228.416C1014.27 229.34 1013.58 230.053 1012.66 230.555C1011.75 231.062 1010.61 231.316 1009.25 231.316C1007.84 231.316 1006.69 231.049 1005.79 230.516C1004.9 229.988 1004.24 229.269 1003.81 228.357C1003.39 227.446 1003.18 226.424 1003.18 225.291C1003.18 224.529 1003.26 223.745 1003.42 222.938C1003.59 222.124 1003.83 221.32 1004.13 220.525L1006.35 221.385C1006.12 222.049 1005.93 222.71 1005.77 223.367C1005.62 224.018 1005.54 224.63 1005.54 225.203C1005.54 225.848 1005.65 226.437 1005.87 226.971C1006.1 227.505 1006.48 227.931 1007.02 228.25C1007.56 228.569 1008.31 228.729 1009.25 228.729ZM1020.71 219.1C1021.31 219.1 1021.85 219.236 1022.32 219.51C1022.79 219.783 1023.19 220.161 1023.52 220.643C1023.85 221.124 1024.11 221.684 1024.31 222.322C1024.5 222.96 1024.62 223.644 1024.66 224.373H1025.48V227H1024.48C1024.26 227.944 1023.87 228.764 1023.33 229.461C1022.79 230.164 1022.08 230.75 1021.19 231.219C1020.31 231.694 1019.22 232.055 1017.94 232.303L1017.05 229.9C1017.91 229.731 1018.68 229.51 1019.38 229.236C1020.08 228.969 1020.67 228.647 1021.14 228.27C1021.62 227.892 1021.94 227.469 1022.1 227H1021.07C1019.76 227 1018.77 226.73 1018.1 226.189C1017.42 225.649 1017.08 224.786 1017.08 223.602C1017.08 223.12 1017.16 222.618 1017.31 222.098C1017.46 221.57 1017.68 221.082 1017.98 220.633C1018.29 220.177 1018.66 219.809 1019.11 219.529C1019.57 219.243 1020.1 219.1 1020.71 219.1ZM1021.04 224.373H1022.38C1022.35 224.035 1022.3 223.706 1022.22 223.387C1022.14 223.068 1022.03 222.778 1021.9 222.518C1021.77 222.257 1021.6 222.055 1021.4 221.912C1021.2 221.762 1020.97 221.688 1020.7 221.688C1020.37 221.688 1020.11 221.792 1019.91 222C1019.73 222.202 1019.59 222.443 1019.51 222.723C1019.44 223.003 1019.4 223.263 1019.4 223.504C1019.4 223.868 1019.54 224.106 1019.84 224.217C1020.13 224.321 1020.53 224.373 1021.04 224.373ZM1027.9 220.467L1030.19 220.193L1030.38 222.889C1030.4 223.227 1030.47 223.507 1030.59 223.729C1030.71 223.95 1030.89 224.113 1031.12 224.217C1031.36 224.321 1031.66 224.373 1032.02 224.373H1032.23V227H1032C1031.56 227 1031.16 226.945 1030.81 226.834C1030.46 226.723 1030.15 226.57 1029.88 226.375C1029.62 226.18 1029.39 225.952 1029.19 225.691C1028.81 226.108 1028.34 226.43 1027.79 226.658C1027.24 226.886 1026.66 227 1026.04 227H1025.1V224.373H1026.04C1026.77 224.373 1027.28 224.24 1027.57 223.973C1027.86 223.706 1028 223.234 1028 222.557C1028 222.192 1027.99 221.837 1027.97 221.492C1027.96 221.141 1027.93 220.799 1027.9 220.467ZM1028.37 215.359L1030.06 217.049L1028.37 218.738L1026.68 217.049L1028.37 215.359ZM1035.15 217.889C1035.66 218.208 1036.14 218.52 1036.6 218.826C1037.07 219.132 1037.49 219.448 1037.87 219.773C1038.26 220.092 1038.59 220.428 1038.88 220.779C1039.17 221.131 1039.39 221.505 1039.54 221.902C1039.7 222.299 1039.78 222.726 1039.78 223.182C1039.78 224.165 1039.55 224.936 1039.1 225.496C1038.65 226.049 1038.01 226.44 1037.18 226.668C1036.35 226.889 1035.37 227 1034.22 227H1031.84V224.373H1034.21C1034.93 224.373 1035.53 224.34 1036 224.275C1036.47 224.204 1036.83 224.08 1037.06 223.904C1037.3 223.729 1037.41 223.475 1037.41 223.143C1037.41 222.941 1037.31 222.719 1037.1 222.479C1036.89 222.238 1036.62 221.987 1036.28 221.727C1035.94 221.466 1035.57 221.206 1035.17 220.945C1034.77 220.685 1034.37 220.428 1033.98 220.174C1033.59 219.92 1033.23 219.679 1032.92 219.451C1032.67 219.256 1032.47 219.005 1032.34 218.699C1032.2 218.393 1032.13 218.084 1032.13 217.771C1032.13 217.426 1032.21 217.101 1032.38 216.795C1032.54 216.489 1032.8 216.268 1033.15 216.131L1040.59 213.094V215.682L1035.15 217.889ZM1047.51 213.357H1049.96V222.361C1049.96 223.097 1050.07 223.618 1050.29 223.924C1050.52 224.223 1050.96 224.373 1051.6 224.373H1051.85V227H1051.6C1050.19 227 1049.16 226.632 1048.5 225.896C1047.84 225.161 1047.51 224.044 1047.51 222.547V213.357ZM1051.47 224.373H1052.61V227H1051.47V224.373ZM1056.28 214.588L1057.89 216.189L1056.28 217.811L1054.67 216.189L1056.28 214.588ZM1052.98 214.588L1054.61 216.189L1052.98 217.811L1051.39 216.189L1052.98 214.588ZM1053.95 227H1052.38V224.373H1053.95C1054.47 224.373 1054.83 224.214 1055.02 223.895C1055.22 223.576 1055.31 223.169 1055.31 222.674C1055.31 222.238 1055.26 221.762 1055.16 221.248C1055.06 220.727 1054.96 220.216 1054.86 219.715L1057.25 219.1C1057.37 219.692 1057.47 220.281 1057.54 220.867C1057.61 221.447 1057.65 222 1057.65 222.527C1057.65 223.38 1057.53 224.145 1057.31 224.822C1057.08 225.493 1056.69 226.023 1056.15 226.414C1055.61 226.805 1054.88 227 1053.95 227ZM1070.31 217.967L1072 219.656L1070.31 221.346L1068.62 219.656L1070.31 217.967ZM1070.44 228.729C1071.4 228.729 1072.16 228.572 1072.72 228.26C1073.27 227.947 1073.66 227.527 1073.89 227C1074.12 226.473 1074.24 225.883 1074.24 225.232C1074.24 224.516 1074.13 223.784 1073.91 223.035C1073.69 222.286 1073.45 221.593 1073.19 220.955L1075.61 220.037C1075.97 220.988 1076.23 221.873 1076.38 222.693C1076.54 223.507 1076.61 224.327 1076.61 225.154C1076.61 226.411 1076.38 227.498 1075.92 228.416C1075.46 229.34 1074.77 230.053 1073.85 230.555C1072.94 231.062 1071.8 231.316 1070.44 231.316C1069.04 231.316 1067.88 231.049 1066.98 230.516C1066.09 229.988 1065.43 229.269 1065 228.357C1064.58 227.446 1064.37 226.424 1064.37 225.291C1064.37 224.529 1064.45 223.745 1064.61 222.938C1064.78 222.124 1065.02 221.32 1065.32 220.525L1067.54 221.385C1067.31 222.049 1067.12 222.71 1066.96 223.367C1066.81 224.018 1066.73 224.63 1066.73 225.203C1066.73 225.848 1066.84 226.437 1067.06 226.971C1067.29 227.505 1067.67 227.931 1068.21 228.25C1068.76 228.569 1069.5 228.729 1070.44 228.729ZM1078.8 213.357H1081.25V222.361C1081.25 223.097 1081.36 223.618 1081.58 223.924C1081.81 224.223 1082.25 224.373 1082.89 224.373H1083.14V227H1082.89C1081.48 227 1080.44 226.632 1079.79 225.896C1079.13 225.161 1078.8 224.044 1078.8 222.547V213.357ZM1082.74 224.373H1083.52V227H1082.74V224.373ZM1086.29 228.309L1087.9 229.91L1086.29 231.531L1084.68 229.91L1086.29 228.309ZM1082.99 228.309L1084.62 229.91L1082.99 231.531L1081.4 229.91L1082.99 228.309ZM1084.85 227H1083.28V224.373H1084.85C1085.37 224.373 1085.73 224.214 1085.92 223.895C1086.12 223.576 1086.21 223.169 1086.21 222.674C1086.21 222.238 1086.16 221.762 1086.06 221.248C1085.96 220.727 1085.86 220.216 1085.75 219.715L1088.15 219.1C1088.27 219.692 1088.37 220.281 1088.44 220.867C1088.51 221.447 1088.55 222 1088.55 222.527C1088.55 223.38 1088.43 224.145 1088.21 224.822C1087.98 225.493 1087.59 226.023 1087.05 226.414C1086.51 226.805 1085.78 227 1084.85 227ZM1093.84 219.1C1094.44 219.1 1094.97 219.236 1095.44 219.51C1095.91 219.783 1096.31 220.161 1096.64 220.643C1096.97 221.124 1097.24 221.684 1097.43 222.322C1097.63 222.96 1097.75 223.644 1097.79 224.373H1098.61V227H1097.61C1097.38 227.944 1097 228.764 1096.46 229.461C1095.92 230.164 1095.2 230.75 1094.32 231.219C1093.43 231.694 1092.35 232.055 1091.07 232.303L1090.18 229.9C1091.03 229.731 1091.81 229.51 1092.5 229.236C1093.21 228.969 1093.79 228.647 1094.27 228.27C1094.74 227.892 1095.06 227.469 1095.23 227H1094.19C1092.89 227 1091.9 226.73 1091.22 226.189C1090.55 225.649 1090.21 224.786 1090.21 223.602C1090.21 223.12 1090.28 222.618 1090.43 222.098C1090.58 221.57 1090.81 221.082 1091.11 220.633C1091.41 220.177 1091.79 219.809 1092.24 219.529C1092.69 219.243 1093.23 219.1 1093.84 219.1ZM1094.16 224.373H1095.5C1095.47 224.035 1095.42 223.706 1095.34 223.387C1095.27 223.068 1095.16 222.778 1095.02 222.518C1094.89 222.257 1094.73 222.055 1094.52 221.912C1094.33 221.762 1094.09 221.688 1093.82 221.688C1093.49 221.688 1093.23 221.792 1093.04 222C1092.85 222.202 1092.72 222.443 1092.64 222.723C1092.56 223.003 1092.52 223.263 1092.52 223.504C1092.52 223.868 1092.67 224.106 1092.96 224.217C1093.25 224.321 1093.65 224.373 1094.16 224.373ZM1104.92 228.221L1106.61 229.91L1104.92 231.6L1103.23 229.91L1104.92 228.221ZM1098.22 224.373H1099.88C1100.54 224.373 1101.15 224.324 1101.72 224.227C1102.29 224.129 1102.86 223.986 1103.42 223.797C1103.99 223.602 1104.58 223.364 1105.2 223.084C1105.82 222.804 1106.5 222.485 1107.25 222.127C1106.75 221.945 1106.29 221.772 1105.87 221.609C1105.45 221.44 1105.08 221.294 1104.74 221.17C1104.41 221.04 1104.12 220.939 1103.89 220.867C1103.65 220.789 1103.48 220.75 1103.36 220.75C1103 220.75 1102.67 220.861 1102.38 221.082C1102.1 221.303 1101.86 221.541 1101.66 221.795L1101.19 222.381L1099.14 221.385L1099.52 220.76C1099.97 220.024 1100.51 219.415 1101.14 218.934C1101.78 218.445 1102.52 218.201 1103.37 218.201C1103.73 218.201 1104.15 218.286 1104.62 218.455C1105.1 218.618 1105.61 218.826 1106.16 219.08C1106.72 219.327 1107.29 219.578 1107.87 219.832C1108.47 220.086 1109.05 220.301 1109.63 220.477C1110.22 220.646 1110.77 220.737 1111.3 220.75V223.152C1110.85 223.217 1110.42 223.325 1110 223.475C1109.59 223.618 1109.15 223.807 1108.68 224.041C1108.21 224.275 1107.67 224.559 1107.05 224.891C1106.22 225.333 1105.43 225.714 1104.7 226.033C1103.96 226.346 1103.21 226.587 1102.43 226.756C1101.67 226.919 1100.81 227 1099.86 227H1098.22V224.373ZM1117.52 232.312L1116.6 229.91C1117.57 229.695 1118.38 229.409 1119.05 229.051C1119.73 228.699 1120.25 228.234 1120.6 227.654C1120.95 227.075 1121.12 226.352 1121.12 225.486C1121.12 224.9 1121.04 224.249 1120.86 223.533C1120.69 222.817 1120.5 222.143 1120.29 221.512L1122.72 220.711C1122.97 221.414 1123.16 222.16 1123.29 222.947C1123.42 223.735 1123.49 224.49 1123.49 225.213C1123.49 226.528 1123.25 227.671 1122.77 228.641C1122.28 229.617 1121.6 230.411 1120.71 231.023C1119.81 231.635 1118.75 232.065 1117.52 232.312ZM1125.66 213.357H1128.11V222.361C1128.11 223.097 1128.22 223.618 1128.44 223.924C1128.67 224.223 1129.1 224.373 1129.75 224.373H1129.99V227H1129.75C1128.34 227 1127.3 226.632 1126.64 225.896C1125.99 225.161 1125.66 224.044 1125.66 222.547V213.357ZM1132.92 217.889C1133.43 218.208 1133.91 218.52 1134.38 218.826C1134.84 219.132 1135.26 219.448 1135.65 219.773C1136.03 220.092 1136.37 220.428 1136.65 220.779C1136.94 221.131 1137.16 221.505 1137.32 221.902C1137.47 222.299 1137.55 222.726 1137.55 223.182C1137.55 224.165 1137.33 224.936 1136.88 225.496C1136.43 226.049 1135.79 226.44 1134.95 226.668C1134.13 226.889 1133.14 227 1131.99 227H1129.61V224.373H1131.98C1132.71 224.373 1133.3 224.34 1133.77 224.275C1134.25 224.204 1134.6 224.08 1134.84 223.904C1135.07 223.729 1135.19 223.475 1135.19 223.143C1135.19 222.941 1135.08 222.719 1134.88 222.479C1134.67 222.238 1134.39 221.987 1134.05 221.727C1133.72 221.466 1133.35 221.206 1132.94 220.945C1132.54 220.685 1132.15 220.428 1131.75 220.174C1131.36 219.92 1131.01 219.679 1130.7 219.451C1130.44 219.256 1130.25 219.005 1130.11 218.699C1129.97 218.393 1129.9 218.084 1129.9 217.771C1129.9 217.426 1129.99 217.101 1130.15 216.795C1130.32 216.489 1130.57 216.268 1130.92 216.131L1138.36 213.094V215.682L1132.92 217.889ZM1147.31 224.412C1147.91 224.412 1148.47 224.367 1148.99 224.275C1149.51 224.184 1149.93 224.028 1150.25 223.807C1150.57 223.579 1150.72 223.263 1150.72 222.859C1150.72 222.449 1150.54 222.016 1150.17 221.561C1149.8 221.105 1149.29 220.649 1148.65 220.193C1148.02 219.731 1147.3 219.305 1146.5 218.914L1147.62 216.57C1148.34 216.928 1149.03 217.319 1149.68 217.742C1150.33 218.165 1150.91 218.631 1151.42 219.139C1151.93 219.646 1152.33 220.203 1152.62 220.809C1152.91 221.408 1153.06 222.062 1153.06 222.771C1153.06 223.768 1152.83 224.575 1152.38 225.193C1151.93 225.812 1151.28 226.264 1150.44 226.551C1149.61 226.837 1148.61 226.98 1147.45 226.98C1146.95 226.98 1146.48 226.964 1146.04 226.932C1145.6 226.893 1145.17 226.827 1144.76 226.736V224.119C1145.18 224.204 1145.62 224.275 1146.09 224.334C1146.55 224.386 1146.96 224.412 1147.31 224.412ZM1157.72 213.357V226.99H1155.28V213.357H1157.72ZM1165.5 222.908C1165.5 222.745 1165.46 222.531 1165.38 222.264C1165.31 221.997 1165.23 221.772 1165.15 221.59L1163.26 217.381L1165.43 216.336L1167.81 221.863C1168.03 222.365 1168.22 222.804 1168.39 223.182C1168.56 223.559 1168.75 223.852 1168.95 224.061C1169.15 224.269 1169.4 224.373 1169.71 224.373H1170.12V227H1169.71C1169.21 227 1168.79 226.938 1168.44 226.814C1168.09 226.684 1167.79 226.505 1167.52 226.277C1167.26 226.049 1167.02 225.783 1166.79 225.477C1166.47 225.802 1166.1 226.079 1165.69 226.307C1165.28 226.535 1164.81 226.707 1164.29 226.824C1163.77 226.935 1163.18 226.99 1162.52 226.99C1161.97 226.99 1161.5 226.971 1161.11 226.932C1160.71 226.893 1160.32 226.824 1159.91 226.727V224.109C1160.32 224.201 1160.73 224.272 1161.16 224.324C1161.59 224.376 1162 224.402 1162.38 224.402C1162.92 224.402 1163.42 224.357 1163.9 224.266C1164.37 224.168 1164.76 224.012 1165.05 223.797C1165.35 223.576 1165.5 223.279 1165.5 222.908ZM1176.01 220.975C1175.69 220.975 1175.33 220.991 1174.94 221.023C1174.56 221.056 1174.17 221.121 1173.76 221.219C1174.06 221.557 1174.38 221.896 1174.73 222.234C1175.08 222.573 1175.38 222.856 1175.63 223.084C1175.87 223.305 1176 223.416 1176 223.416C1176 223.416 1176.07 223.351 1176.22 223.221C1176.37 223.09 1176.56 222.918 1176.79 222.703C1177.02 222.488 1177.27 222.251 1177.53 221.99C1177.79 221.73 1178.03 221.473 1178.25 221.219C1177.86 221.121 1177.46 221.056 1177.06 221.023C1176.67 220.991 1176.32 220.975 1176.01 220.975ZM1176 218.582C1176.51 218.582 1177.05 218.621 1177.62 218.699C1178.19 218.777 1178.73 218.898 1179.22 219.061C1179.72 219.217 1180.13 219.422 1180.44 219.676C1180.76 219.93 1180.92 220.236 1180.92 220.594C1180.92 220.763 1180.86 220.968 1180.74 221.209C1180.63 221.45 1180.48 221.707 1180.29 221.98C1180.11 222.247 1179.9 222.518 1179.68 222.791C1179.46 223.064 1179.23 223.322 1179.01 223.562C1178.78 223.803 1178.58 224.012 1178.4 224.188C1178.7 224.272 1178.99 224.324 1179.27 224.344C1179.55 224.363 1179.81 224.373 1180.04 224.373H1181.56V227H1180.05C1179.31 227 1178.6 226.915 1177.92 226.746C1177.24 226.57 1176.6 226.32 1176 225.994C1175.58 226.215 1175.1 226.401 1174.55 226.551C1174.01 226.701 1173.46 226.814 1172.88 226.893C1172.31 226.964 1171.77 227 1171.27 227H1169.73V224.373H1171.28C1171.44 224.373 1171.67 224.373 1171.95 224.373C1172.23 224.367 1172.51 224.35 1172.81 224.324C1173.12 224.292 1173.38 224.243 1173.61 224.178C1173.42 224.002 1173.22 223.794 1173 223.553C1172.78 223.312 1172.55 223.055 1172.33 222.781C1172.1 222.501 1171.9 222.228 1171.71 221.961C1171.53 221.688 1171.38 221.434 1171.26 221.199C1171.14 220.958 1171.09 220.757 1171.09 220.594C1171.09 220.236 1171.24 219.93 1171.55 219.676C1171.87 219.422 1172.27 219.217 1172.77 219.061C1173.27 218.898 1173.8 218.777 1174.37 218.699C1174.94 218.621 1175.48 218.582 1176 218.582ZM1181.17 224.373H1181.87V227H1181.17V224.373ZM1185.5 214.588L1187.11 216.189L1185.5 217.811L1183.89 216.189L1185.5 214.588ZM1182.2 214.588L1183.83 216.189L1182.2 217.811L1180.61 216.189L1182.2 214.588ZM1183.17 227H1181.6V224.373H1183.17C1183.69 224.373 1184.05 224.214 1184.24 223.895C1184.44 223.576 1184.53 223.169 1184.53 222.674C1184.53 222.238 1184.48 221.762 1184.38 221.248C1184.28 220.727 1184.18 220.216 1184.07 219.715L1186.47 219.1C1186.59 219.692 1186.69 220.281 1186.76 220.867C1186.83 221.447 1186.87 222 1186.87 222.527C1186.87 223.38 1186.75 224.145 1186.53 224.822C1186.3 225.493 1185.91 226.023 1185.37 226.414C1184.83 226.805 1184.1 227 1183.17 227Z" fill="white"/>
<path d="M179 380H983" stroke="#23A1A8" stroke-width="60"/>
<circle cx="983" cy="380" r="30" fill="#23A1A8"/>
<path d="M179 431.5V379.75V328" stroke="#23A1A8" stroke-width="4"/>
<circle cx="983" cy="380" r="20" fill="white"/>
<path d="M589.406 369.635H589.816V371.881H589.65C588.908 371.881 588.247 371.992 587.668 372.213C587.089 372.434 586.597 372.75 586.193 373.16C585.796 373.564 585.49 374.052 585.275 374.625C585.067 375.198 584.963 375.839 584.963 376.549V378.912C584.963 379.589 585.051 380.159 585.227 380.621C585.409 381.077 585.66 381.419 585.979 381.646C586.304 381.874 586.682 381.988 587.111 381.988C587.521 381.988 587.88 381.874 588.186 381.646C588.492 381.412 588.726 381.096 588.889 380.699C589.058 380.302 589.143 379.85 589.143 379.342C589.143 378.827 589.058 378.372 588.889 377.975C588.726 377.571 588.488 377.255 588.176 377.027C587.863 376.799 587.486 376.686 587.043 376.686C586.6 376.686 586.21 376.79 585.871 376.998C585.539 377.2 585.279 377.46 585.09 377.779C584.901 378.098 584.8 378.434 584.787 378.785L583.938 378.238C583.97 377.574 584.149 376.959 584.475 376.393C584.8 375.82 585.256 375.361 585.842 375.016C586.428 374.671 587.121 374.498 587.922 374.498C588.814 374.498 589.559 374.719 590.158 375.162C590.757 375.598 591.206 376.181 591.506 376.91C591.805 377.639 591.955 378.44 591.955 379.312C591.955 380.23 591.757 381.061 591.359 381.803C590.969 382.538 590.415 383.121 589.699 383.551C588.983 383.98 588.14 384.195 587.17 384.195C586.415 384.195 585.728 384.059 585.109 383.785C584.497 383.505 583.97 383.115 583.527 382.613C583.085 382.112 582.743 381.516 582.502 380.826C582.268 380.136 582.15 379.381 582.15 378.561V377.467C582.15 376.321 582.316 375.273 582.648 374.322C582.987 373.365 583.472 372.538 584.104 371.842C584.735 371.139 585.497 370.595 586.389 370.211C587.281 369.827 588.286 369.635 589.406 369.635ZM603.215 380.104C603.215 380.995 603.007 381.747 602.59 382.359C602.173 382.965 601.6 383.424 600.871 383.736C600.148 384.042 599.328 384.195 598.41 384.195C597.492 384.195 596.669 384.042 595.939 383.736C595.21 383.424 594.634 382.965 594.211 382.359C593.788 381.747 593.576 380.995 593.576 380.104C593.576 379.303 593.785 378.606 594.201 378.014C594.624 377.421 595.197 376.962 595.92 376.637C596.649 376.311 597.473 376.148 598.391 376.148C599.315 376.148 600.142 376.311 600.871 376.637C601.6 376.962 602.173 377.421 602.59 378.014C603.007 378.606 603.215 379.303 603.215 380.104ZM600.383 379.918C600.383 379.482 600.298 379.107 600.129 378.795C599.966 378.476 599.735 378.232 599.436 378.062C599.136 377.893 598.788 377.809 598.391 377.809C597.993 377.809 597.645 377.893 597.346 378.062C597.046 378.232 596.812 378.476 596.643 378.795C596.48 379.107 596.398 379.482 596.398 379.918C596.398 380.348 596.48 380.719 596.643 381.031C596.812 381.344 597.046 381.585 597.346 381.754C597.652 381.917 598.007 381.998 598.41 381.998C598.814 381.998 599.162 381.917 599.455 381.754C599.755 381.585 599.982 381.344 600.139 381.031C600.301 380.719 600.383 380.348 600.383 379.918ZM602.912 373.551C602.912 374.273 602.72 374.915 602.336 375.475C601.952 376.028 601.418 376.461 600.734 376.773C600.057 377.086 599.283 377.242 598.41 377.242C597.531 377.242 596.75 377.086 596.066 376.773C595.383 376.461 594.849 376.028 594.465 375.475C594.081 374.915 593.889 374.273 593.889 373.551C593.889 372.691 594.081 371.969 594.465 371.383C594.855 370.79 595.389 370.341 596.066 370.035C596.75 369.729 597.525 369.576 598.391 369.576C599.27 369.576 600.048 369.729 600.725 370.035C601.408 370.341 601.942 370.79 602.326 371.383C602.717 371.969 602.912 372.691 602.912 373.551ZM600.1 373.678C600.1 373.294 600.031 372.962 599.895 372.682C599.758 372.395 599.562 372.174 599.309 372.018C599.061 371.861 598.755 371.783 598.391 371.783C598.039 371.783 597.736 371.858 597.482 372.008C597.235 372.158 597.043 372.376 596.906 372.662C596.776 372.942 596.711 373.281 596.711 373.678C596.711 374.062 596.776 374.4 596.906 374.693C597.043 374.98 597.238 375.204 597.492 375.367C597.746 375.53 598.052 375.611 598.41 375.611C598.768 375.611 599.071 375.53 599.318 375.367C599.572 375.204 599.764 374.98 599.895 374.693C600.031 374.4 600.1 374.062 600.1 373.678ZM615.5 376.598C615.5 376.129 615.666 375.738 615.998 375.426C616.337 375.113 616.74 374.957 617.209 374.957C617.678 374.957 618.075 375.113 618.4 375.426C618.732 375.738 618.898 376.129 618.898 376.598C618.898 377.06 618.732 377.451 618.4 377.77C618.075 378.082 617.678 378.238 617.209 378.238C616.727 378.238 616.32 378.082 615.988 377.77C615.663 377.457 615.5 377.066 615.5 376.598ZM615.5 382.35C615.5 381.887 615.666 381.5 615.998 381.188C616.337 380.875 616.74 380.719 617.209 380.719C617.678 380.719 618.075 380.875 618.4 381.188C618.732 381.5 618.898 381.887 618.898 382.35C618.898 382.818 618.732 383.209 618.4 383.521C618.075 383.834 617.678 383.99 617.209 383.99C616.727 383.99 616.32 383.834 615.988 383.521C615.663 383.209 615.5 382.818 615.5 382.35ZM626.994 374.967L628.684 376.656L626.994 378.346L625.305 376.656L626.994 374.967ZM627.121 385.729C628.085 385.729 628.843 385.572 629.396 385.26C629.95 384.947 630.34 384.527 630.568 384C630.803 383.473 630.92 382.883 630.92 382.232C630.92 381.516 630.809 380.784 630.588 380.035C630.367 379.286 630.126 378.593 629.865 377.955L632.287 377.037C632.652 377.988 632.909 378.873 633.059 379.693C633.215 380.507 633.293 381.327 633.293 382.154C633.293 383.411 633.062 384.498 632.6 385.416C632.137 386.34 631.447 387.053 630.529 387.555C629.618 388.062 628.482 388.316 627.121 388.316C625.715 388.316 624.562 388.049 623.664 387.516C622.772 386.988 622.111 386.269 621.682 385.357C621.258 384.446 621.047 383.424 621.047 382.291C621.047 381.529 621.128 380.745 621.291 379.938C621.46 379.124 621.698 378.32 622.004 377.525L624.221 378.385C623.993 379.049 623.801 379.71 623.645 380.367C623.488 381.018 623.41 381.63 623.41 382.203C623.41 382.848 623.521 383.437 623.742 383.971C623.97 384.505 624.354 384.931 624.895 385.25C625.435 385.569 626.177 385.729 627.121 385.729ZM638.586 376.1C639.185 376.1 639.719 376.236 640.188 376.51C640.656 376.783 641.057 377.161 641.389 377.643C641.721 378.124 641.984 378.684 642.18 379.322C642.375 379.96 642.492 380.644 642.531 381.373H643.352V384H642.355C642.128 384.944 641.743 385.764 641.203 386.461C640.663 387.164 639.95 387.75 639.064 388.219C638.179 388.694 637.095 389.055 635.812 389.303L634.924 386.9C635.777 386.731 636.551 386.51 637.248 386.236C637.951 385.969 638.54 385.647 639.016 385.27C639.491 384.892 639.81 384.469 639.973 384H638.938C637.635 384 636.646 383.73 635.969 383.189C635.292 382.649 634.953 381.786 634.953 380.602C634.953 380.12 635.028 379.618 635.178 379.098C635.327 378.57 635.552 378.082 635.852 377.633C636.158 377.177 636.535 376.809 636.984 376.529C637.44 376.243 637.974 376.1 638.586 376.1ZM638.908 381.373H640.246C640.22 381.035 640.168 380.706 640.09 380.387C640.012 380.068 639.904 379.778 639.768 379.518C639.637 379.257 639.471 379.055 639.27 378.912C639.074 378.762 638.84 378.688 638.566 378.688C638.241 378.688 637.98 378.792 637.785 379C637.596 379.202 637.463 379.443 637.385 379.723C637.307 380.003 637.268 380.263 637.268 380.504C637.268 380.868 637.414 381.106 637.707 381.217C638 381.321 638.4 381.373 638.908 381.373ZM645.773 377.467L648.059 377.193L648.254 379.889C648.273 380.227 648.342 380.507 648.459 380.729C648.583 380.95 648.762 381.113 648.996 381.217C649.23 381.321 649.53 381.373 649.895 381.373H650.1V384H649.875C649.432 384 649.035 383.945 648.684 383.834C648.332 383.723 648.023 383.57 647.756 383.375C647.489 383.18 647.258 382.952 647.062 382.691C646.678 383.108 646.21 383.43 645.656 383.658C645.109 383.886 644.527 384 643.908 384H642.971V381.373H643.908C644.644 381.373 645.155 381.24 645.441 380.973C645.728 380.706 645.871 380.234 645.871 379.557C645.871 379.192 645.861 378.837 645.842 378.492C645.829 378.141 645.806 377.799 645.773 377.467ZM646.242 372.359L647.932 374.049L646.242 375.738L644.553 374.049L646.242 372.359ZM653.02 374.889C653.527 375.208 654.012 375.52 654.475 375.826C654.937 376.132 655.36 376.448 655.744 376.773C656.128 377.092 656.464 377.428 656.75 377.779C657.036 378.131 657.258 378.505 657.414 378.902C657.57 379.299 657.648 379.726 657.648 380.182C657.648 381.165 657.424 381.936 656.975 382.496C656.525 383.049 655.884 383.44 655.051 383.668C654.224 383.889 653.238 384 652.092 384H649.709V381.373H652.082C652.805 381.373 653.4 381.34 653.869 381.275C654.344 381.204 654.699 381.08 654.934 380.904C655.168 380.729 655.285 380.475 655.285 380.143C655.285 379.941 655.181 379.719 654.973 379.479C654.764 379.238 654.491 378.987 654.152 378.727C653.814 378.466 653.443 378.206 653.039 377.945C652.642 377.685 652.245 377.428 651.848 377.174C651.457 376.92 651.105 376.679 650.793 376.451C650.539 376.256 650.344 376.005 650.207 375.699C650.07 375.393 650.002 375.084 650.002 374.771C650.002 374.426 650.083 374.101 650.246 373.795C650.415 373.489 650.673 373.268 651.018 373.131L658.459 370.094V372.682L653.02 374.889ZM665.383 370.357H667.834V379.361C667.834 380.097 667.945 380.618 668.166 380.924C668.394 381.223 668.83 381.373 669.475 381.373H669.719V384H669.475C668.062 384 667.027 383.632 666.369 382.896C665.712 382.161 665.383 381.044 665.383 379.547V370.357ZM669.338 381.373H670.48V384H669.338V381.373ZM674.152 371.588L675.764 373.189L674.152 374.811L672.541 373.189L674.152 371.588ZM670.852 371.588L672.482 373.189L670.852 374.811L669.26 373.189L670.852 371.588ZM671.818 384H670.256V381.373H671.818C672.346 381.373 672.704 381.214 672.893 380.895C673.088 380.576 673.186 380.169 673.186 379.674C673.186 379.238 673.133 378.762 673.029 378.248C672.932 377.727 672.831 377.216 672.727 376.715L675.119 376.1C675.243 376.692 675.34 377.281 675.412 377.867C675.484 378.447 675.52 379 675.52 379.527C675.52 380.38 675.406 381.145 675.178 381.822C674.95 382.493 674.566 383.023 674.025 383.414C673.485 383.805 672.749 384 671.818 384ZM687.951 380.24C687.951 380.019 687.854 379.775 687.658 379.508C687.469 379.241 687.235 378.977 686.955 378.717C686.675 378.45 686.402 378.215 686.135 378.014C685.874 378.248 685.624 378.502 685.383 378.775C685.142 379.042 684.943 379.309 684.787 379.576C684.631 379.843 684.553 380.097 684.553 380.338C684.553 380.657 684.699 380.911 684.992 381.1C685.285 381.282 685.702 381.373 686.242 381.373C686.809 381.373 687.235 381.282 687.521 381.1C687.808 380.917 687.951 380.631 687.951 380.24ZM684.338 376.451L683.957 376.109L685.48 374.156C686.073 374.632 686.652 375.104 687.219 375.572C687.792 376.041 688.309 376.523 688.771 377.018C689.234 377.506 689.602 378.017 689.875 378.551C690.148 379.085 690.285 379.651 690.285 380.25C690.285 381.018 690.113 381.679 689.768 382.232C689.423 382.786 688.947 383.212 688.342 383.512C687.736 383.811 687.04 383.961 686.252 383.961C684.95 383.961 683.951 383.642 683.254 383.004C682.564 382.359 682.219 381.552 682.219 380.582C682.219 379.775 682.417 379.055 682.814 378.424C683.212 377.786 683.719 377.128 684.338 376.451ZM697.531 379.908C697.531 379.745 697.492 379.531 697.414 379.264C697.342 378.997 697.264 378.772 697.18 378.59L695.295 374.381L697.463 373.336L699.846 378.863C700.061 379.365 700.253 379.804 700.422 380.182C700.591 380.559 700.777 380.852 700.979 381.061C701.18 381.269 701.434 381.373 701.74 381.373H702.15V384H701.74C701.245 384 700.822 383.938 700.471 383.814C700.126 383.684 699.82 383.505 699.553 383.277C699.292 383.049 699.048 382.783 698.82 382.477C698.501 382.802 698.133 383.079 697.717 383.307C697.307 383.535 696.841 383.707 696.32 383.824C695.799 383.935 695.21 383.99 694.553 383.99C694.006 383.99 693.534 383.971 693.137 383.932C692.746 383.893 692.349 383.824 691.945 383.727V381.109C692.349 381.201 692.766 381.272 693.195 381.324C693.625 381.376 694.029 381.402 694.406 381.402C694.947 381.402 695.454 381.357 695.93 381.266C696.405 381.168 696.789 381.012 697.082 380.797C697.382 380.576 697.531 380.279 697.531 379.908ZM710.656 370.27L712.18 371.793L710.656 373.316L709.133 371.793L710.656 370.27ZM712.355 372.76L713.879 374.283L712.355 375.807L710.832 374.283L712.355 372.76ZM708.957 372.76L710.48 374.283L708.957 375.807L707.434 374.283L708.957 372.76ZM708.566 384C707.889 384 707.329 383.886 706.887 383.658C706.451 383.424 706.096 383.111 705.822 382.721C705.471 383.118 705.051 383.43 704.562 383.658C704.074 383.886 703.439 384 702.658 384H701.76V381.373H702.678C703.173 381.373 703.57 381.334 703.869 381.256C704.169 381.178 704.387 381.021 704.523 380.787C704.667 380.546 704.738 380.191 704.738 379.723C704.738 379.618 704.732 379.456 704.719 379.234C704.712 379.013 704.699 378.769 704.68 378.502C704.66 378.229 704.641 377.968 704.621 377.721L706.906 377.438L707.111 379.967C707.144 380.423 707.277 380.771 707.512 381.012C707.753 381.253 708.111 381.373 708.586 381.373C709.159 381.373 709.54 381.249 709.729 381.002C709.924 380.748 710.021 380.322 710.021 379.723C710.021 379.625 710.015 379.465 710.002 379.244C709.995 379.023 709.982 378.775 709.963 378.502C709.943 378.229 709.924 377.968 709.904 377.721L712.189 377.438L712.395 379.967C712.421 380.39 712.528 380.732 712.717 380.992C712.906 381.246 713.221 381.373 713.664 381.373C713.938 381.373 714.152 381.298 714.309 381.148C714.471 380.999 714.585 380.8 714.65 380.553C714.722 380.299 714.758 380.022 714.758 379.723C714.758 379.358 714.725 378.987 714.66 378.609C714.602 378.225 714.533 377.874 714.455 377.555C714.377 377.236 714.318 376.998 714.279 376.842L716.633 376.197C716.763 376.699 716.87 377.232 716.955 377.799C717.04 378.359 717.082 378.919 717.082 379.479C717.082 380.26 716.975 380.995 716.76 381.686C716.551 382.376 716.2 382.936 715.705 383.365C715.217 383.788 714.54 384 713.674 384C713.081 384 712.587 383.88 712.189 383.639C711.792 383.391 711.46 383.079 711.193 382.701C710.855 383.092 710.471 383.408 710.041 383.648C709.618 383.883 709.126 384 708.566 384ZM729.533 380.24C729.533 380.019 729.436 379.775 729.24 379.508C729.051 379.241 728.817 378.977 728.537 378.717C728.257 378.45 727.984 378.215 727.717 378.014C727.456 378.248 727.206 378.502 726.965 378.775C726.724 379.042 726.525 379.309 726.369 379.576C726.213 379.843 726.135 380.097 726.135 380.338C726.135 380.657 726.281 380.911 726.574 381.1C726.867 381.282 727.284 381.373 727.824 381.373C728.391 381.373 728.817 381.282 729.104 381.1C729.39 380.917 729.533 380.631 729.533 380.24ZM725.92 376.451L725.539 376.109L727.062 374.156C727.655 374.632 728.234 375.104 728.801 375.572C729.374 376.041 729.891 376.523 730.354 377.018C730.816 377.506 731.184 378.017 731.457 378.551C731.73 379.085 731.867 379.651 731.867 380.25C731.867 381.018 731.695 381.679 731.35 382.232C731.005 382.786 730.529 383.212 729.924 383.512C729.318 383.811 728.622 383.961 727.834 383.961C726.532 383.961 725.533 383.642 724.836 383.004C724.146 382.359 723.801 381.552 723.801 380.582C723.801 379.775 723.999 379.055 724.396 378.424C724.794 377.786 725.301 377.128 725.92 376.451ZM739.113 379.908C739.113 379.745 739.074 379.531 738.996 379.264C738.924 378.997 738.846 378.772 738.762 378.59L736.877 374.381L739.045 373.336L741.428 378.863C741.643 379.365 741.835 379.804 742.004 380.182C742.173 380.559 742.359 380.852 742.561 381.061C742.762 381.269 743.016 381.373 743.322 381.373H743.732V384H743.322C742.827 384 742.404 383.938 742.053 383.814C741.708 383.684 741.402 383.505 741.135 383.277C740.874 383.049 740.63 382.783 740.402 382.477C740.083 382.802 739.715 383.079 739.299 383.307C738.889 383.535 738.423 383.707 737.902 383.824C737.382 383.935 736.792 383.99 736.135 383.99C735.588 383.99 735.116 383.971 734.719 383.932C734.328 383.893 733.931 383.824 733.527 383.727V381.109C733.931 381.201 734.348 381.272 734.777 381.324C735.207 381.376 735.611 381.402 735.988 381.402C736.529 381.402 737.036 381.357 737.512 381.266C737.987 381.168 738.371 381.012 738.664 380.797C738.964 380.576 739.113 380.279 739.113 379.908ZM743.322 381.373H744.104V384H743.322V381.373ZM746.877 385.309L748.488 386.91L746.877 388.531L745.266 386.91L746.877 385.309ZM743.576 385.309L745.207 386.91L743.576 388.531L741.984 386.91L743.576 385.309ZM745.432 384H743.869V381.373H745.432C745.959 381.373 746.317 381.214 746.506 380.895C746.701 380.576 746.799 380.169 746.799 379.674C746.799 379.238 746.747 378.762 746.643 378.248C746.545 377.727 746.444 377.216 746.34 376.715L748.732 376.1C748.856 376.692 748.954 377.281 749.025 377.867C749.097 378.447 749.133 379 749.133 379.527C749.133 380.38 749.019 381.145 748.791 381.822C748.563 382.493 748.179 383.023 747.639 383.414C747.098 383.805 746.363 384 745.432 384ZM753.342 381.412C753.941 381.412 754.501 381.367 755.021 381.275C755.542 381.184 755.962 381.028 756.281 380.807C756.6 380.579 756.76 380.263 756.76 379.859C756.76 379.449 756.574 379.016 756.203 378.561C755.832 378.105 755.327 377.649 754.689 377.193C754.051 376.731 753.332 376.305 752.531 375.914L753.654 373.57C754.377 373.928 755.064 374.319 755.715 374.742C756.366 375.165 756.945 375.631 757.453 376.139C757.961 376.646 758.361 377.203 758.654 377.809C758.947 378.408 759.094 379.062 759.094 379.771C759.094 380.768 758.866 381.575 758.41 382.193C757.961 382.812 757.316 383.264 756.477 383.551C755.643 383.837 754.647 383.98 753.488 383.98C752.987 383.98 752.515 383.964 752.072 383.932C751.636 383.893 751.21 383.827 750.793 383.736V381.119C751.216 381.204 751.659 381.275 752.121 381.334C752.59 381.386 752.997 381.412 753.342 381.412ZM771.906 388.922C770.5 388.922 769.348 388.655 768.449 388.121C767.557 387.594 766.896 386.874 766.467 385.963C766.044 385.058 765.832 384.036 765.832 382.896C765.832 382.135 765.913 381.35 766.076 380.543C766.245 379.729 766.483 378.925 766.789 378.131L769.006 378.99C768.778 379.661 768.586 380.325 768.43 380.982C768.273 381.633 768.195 382.245 768.195 382.818C768.195 383.456 768.306 384.042 768.527 384.576C768.755 385.11 769.139 385.536 769.68 385.855C770.22 386.174 770.962 386.334 771.906 386.334C772.635 386.334 773.28 386.266 773.84 386.129C774.406 385.999 774.878 385.826 775.256 385.611C775.633 385.403 775.92 385.182 776.115 384.947C776.311 384.713 776.408 384.498 776.408 384.303C776.408 384.186 776.376 384.088 776.311 384.01C776.245 383.938 776.128 383.902 775.959 383.902H774.377C774.012 383.902 773.651 383.867 773.293 383.795C772.941 383.717 772.619 383.57 772.326 383.355C772.04 383.134 771.809 382.818 771.633 382.408C771.464 381.998 771.379 381.464 771.379 380.807C771.379 380.136 771.486 379.492 771.701 378.873C771.923 378.255 772.235 377.701 772.639 377.213C773.049 376.725 773.54 376.34 774.113 376.061C774.686 375.781 775.327 375.641 776.037 375.641C776.493 375.641 776.949 375.709 777.404 375.846C777.86 375.976 778.283 376.181 778.674 376.461L777.844 378.756C777.512 378.58 777.196 378.456 776.896 378.385C776.597 378.313 776.314 378.277 776.047 378.277C775.565 378.277 775.148 378.388 774.797 378.609C774.452 378.831 774.188 379.13 774.006 379.508C773.824 379.885 773.732 380.315 773.732 380.797C773.732 380.992 773.788 381.122 773.898 381.188C774.016 381.253 774.178 381.285 774.387 381.285H775.861C776.577 381.285 777.141 381.402 777.551 381.637C777.961 381.865 778.251 382.184 778.42 382.594C778.589 382.997 778.674 383.463 778.674 383.99C778.674 384.661 778.524 385.292 778.225 385.885C777.932 386.477 777.495 387.001 776.916 387.457C776.343 387.919 775.637 388.277 774.797 388.531C773.957 388.792 772.993 388.922 771.906 388.922ZM780.793 370.357H783.244V379.361C783.244 380.097 783.355 380.618 783.576 380.924C783.804 381.223 784.24 381.373 784.885 381.373H785.129V384H784.885C783.472 384 782.437 383.632 781.779 382.896C781.122 382.161 780.793 381.044 780.793 379.547V370.357ZM788.488 379C788.488 379.247 788.563 379.485 788.713 379.713C788.863 379.941 789.058 380.143 789.299 380.318C789.546 380.494 789.81 380.631 790.09 380.729C790.311 380.663 790.539 380.556 790.773 380.406C791.008 380.25 791.206 380.064 791.369 379.85C791.532 379.635 791.613 379.404 791.613 379.156C791.613 378.876 791.545 378.619 791.408 378.385C791.271 378.144 791.089 377.955 790.861 377.818C790.64 377.675 790.389 377.604 790.109 377.604C789.667 377.604 789.286 377.74 788.967 378.014C788.648 378.281 788.488 378.609 788.488 379ZM789.67 375.885L790.773 373.707C791.978 374.28 793.042 374.807 793.967 375.289C794.891 375.771 795.669 376.243 796.301 376.705C796.932 377.167 797.408 377.659 797.727 378.18C798.052 378.701 798.215 379.29 798.215 379.947C798.215 381.236 797.824 382.219 797.043 382.896C796.268 383.567 795.236 383.902 793.947 383.902C793.492 383.902 793.016 383.863 792.521 383.785C792.027 383.707 791.551 383.609 791.096 383.492C790.646 383.375 790.256 383.264 789.924 383.16C789.338 383.368 788.667 383.561 787.912 383.736C787.163 383.912 786.431 384 785.715 384H784.748V381.373H785.588C785.848 381.373 786.086 381.37 786.301 381.363C786.522 381.357 786.75 381.344 786.984 381.324C786.822 381.135 786.682 380.914 786.564 380.66C786.447 380.4 786.356 380.126 786.291 379.84C786.226 379.553 786.193 379.28 786.193 379.02C786.193 378.434 786.34 377.874 786.633 377.34C786.926 376.806 787.352 376.373 787.912 376.041C788.479 375.702 789.165 375.533 789.973 375.533C790.565 375.533 791.141 375.676 791.701 375.963C792.268 376.249 792.73 376.64 793.088 377.135C793.452 377.623 793.635 378.183 793.635 378.814C793.635 379.166 793.592 379.495 793.508 379.801C793.43 380.1 793.319 380.38 793.176 380.641C793.033 380.901 792.86 381.142 792.658 381.363C792.958 381.409 793.254 381.445 793.547 381.471C793.846 381.497 794.071 381.51 794.221 381.51C794.683 381.51 795.083 381.402 795.422 381.188C795.76 380.966 795.93 380.576 795.93 380.016C795.93 379.872 795.874 379.713 795.764 379.537C795.66 379.361 795.477 379.16 795.217 378.932C794.956 378.704 794.592 378.443 794.123 378.15C793.654 377.857 793.052 377.525 792.316 377.154C791.587 376.777 790.705 376.354 789.67 375.885ZM820.842 370.27L822.365 371.793L820.842 373.316L819.318 371.793L820.842 370.27ZM822.541 372.76L824.064 374.283L822.541 375.807L821.018 374.283L822.541 372.76ZM819.143 372.76L820.666 374.283L819.143 375.807L817.619 374.283L819.143 372.76ZM818.762 384C818.43 384 818.137 383.951 817.883 383.854C817.629 383.756 817.398 383.642 817.189 383.512C817.092 384.632 816.792 385.602 816.291 386.422C815.796 387.249 815.106 387.887 814.221 388.336C813.342 388.792 812.271 389.02 811.008 389.02C809.602 389.02 808.449 388.753 807.551 388.219C806.659 387.691 805.998 386.972 805.568 386.061C805.145 385.156 804.934 384.133 804.934 382.994C804.934 382.232 805.015 381.448 805.178 380.641C805.347 379.827 805.585 379.023 805.891 378.229L808.107 379.088C807.88 379.758 807.688 380.423 807.531 381.08C807.375 381.731 807.297 382.343 807.297 382.916C807.297 383.554 807.408 384.14 807.629 384.674C807.857 385.208 808.241 385.634 808.781 385.953C809.322 386.272 810.064 386.432 811.008 386.432C811.971 386.432 812.73 386.275 813.283 385.963C813.837 385.65 814.227 385.23 814.455 384.703C814.689 384.176 814.807 383.587 814.807 382.936C814.807 382.219 814.696 381.49 814.475 380.748C814.253 379.999 814.012 379.303 813.752 378.658L816.174 377.74L816.828 379.723C816.978 380.204 817.202 380.602 817.502 380.914C817.808 381.22 818.234 381.373 818.781 381.373C819.354 381.373 819.735 381.236 819.924 380.963C820.119 380.689 820.217 380.257 820.217 379.664C820.217 379.56 820.21 379.404 820.197 379.195C820.184 378.98 820.168 378.743 820.148 378.482C820.129 378.222 820.109 377.968 820.09 377.721L822.385 377.438L822.59 379.967C822.622 380.39 822.73 380.732 822.912 380.992C823.094 381.246 823.41 381.373 823.859 381.373C824.133 381.373 824.348 381.298 824.504 381.148C824.667 380.999 824.781 380.8 824.846 380.553C824.917 380.299 824.953 380.022 824.953 379.723C824.953 379.358 824.921 378.987 824.855 378.609C824.797 378.225 824.729 377.874 824.65 377.555C824.572 377.236 824.514 376.998 824.475 376.842L826.828 376.197C826.958 376.699 827.066 377.232 827.15 377.799C827.235 378.359 827.277 378.919 827.277 379.479C827.277 380.26 827.17 380.995 826.955 381.686C826.747 382.376 826.395 382.936 825.9 383.365C825.412 383.788 824.735 384 823.869 384C823.27 384 822.772 383.88 822.375 383.639C821.984 383.391 821.656 383.079 821.389 382.701C821.05 383.092 820.666 383.408 820.236 383.648C819.813 383.883 819.322 384 818.762 384ZM830.803 372.877L832.492 374.566L830.803 376.256L829.113 374.566L830.803 372.877ZM827.033 389.312L826.115 386.91C827.079 386.695 827.896 386.409 828.566 386.051C829.243 385.699 829.758 385.234 830.109 384.654C830.461 384.075 830.637 383.352 830.637 382.486C830.637 381.9 830.549 381.249 830.373 380.533C830.204 379.817 830.012 379.143 829.797 378.512L832.229 377.711C832.482 378.414 832.674 379.16 832.805 379.947C832.935 380.735 833 381.49 833 382.213C833 383.528 832.759 384.671 832.277 385.641C831.796 386.617 831.109 387.411 830.217 388.023C829.325 388.635 828.264 389.065 827.033 389.312ZM838.273 376.1C838.872 376.1 839.406 376.236 839.875 376.51C840.344 376.783 840.744 377.161 841.076 377.643C841.408 378.124 841.672 378.684 841.867 379.322C842.062 379.96 842.18 380.644 842.219 381.373H843.039V384H842.043C841.815 384.944 841.431 385.764 840.891 386.461C840.35 387.164 839.637 387.75 838.752 388.219C837.867 388.694 836.783 389.055 835.5 389.303L834.611 386.9C835.464 386.731 836.239 386.51 836.936 386.236C837.639 385.969 838.228 385.647 838.703 385.27C839.178 384.892 839.497 384.469 839.66 384H838.625C837.323 384 836.333 383.73 835.656 383.189C834.979 382.649 834.641 381.786 834.641 380.602C834.641 380.12 834.715 379.618 834.865 379.098C835.015 378.57 835.24 378.082 835.539 377.633C835.845 377.177 836.223 376.809 836.672 376.529C837.128 376.243 837.661 376.1 838.273 376.1ZM838.596 381.373H839.934C839.908 381.035 839.855 380.706 839.777 380.387C839.699 380.068 839.592 379.778 839.455 379.518C839.325 379.257 839.159 379.055 838.957 378.912C838.762 378.762 838.527 378.688 838.254 378.688C837.928 378.688 837.668 378.792 837.473 379C837.284 379.202 837.15 379.443 837.072 379.723C836.994 380.003 836.955 380.263 836.955 380.504C836.955 380.868 837.102 381.106 837.395 381.217C837.688 381.321 838.088 381.373 838.596 381.373ZM849.045 378.697C848.765 378.697 848.511 378.792 848.283 378.98C848.062 379.169 847.863 379.4 847.688 379.674C847.518 379.941 847.375 380.201 847.258 380.455C847.447 380.637 847.629 380.797 847.805 380.934C847.987 381.064 848.156 381.174 848.312 381.266C848.553 381.402 848.775 381.5 848.977 381.559C849.185 381.617 849.367 381.646 849.523 381.646C849.895 381.646 850.161 381.523 850.324 381.275C850.493 381.028 850.578 380.729 850.578 380.377C850.578 379.915 850.441 379.521 850.168 379.195C849.895 378.863 849.52 378.697 849.045 378.697ZM849.514 384.225C849.064 384.225 848.638 384.16 848.234 384.029C847.831 383.899 847.437 383.717 847.053 383.482C846.675 383.248 846.294 382.978 845.91 382.672C845.669 382.926 845.425 383.154 845.178 383.355C844.93 383.551 844.644 383.707 844.318 383.824C843.993 383.941 843.583 384 843.088 384H842.658V381.373H843.039C843.384 381.373 843.687 381.249 843.947 381.002C844.208 380.755 844.458 380.436 844.699 380.045C844.94 379.648 845.188 379.231 845.441 378.795C845.702 378.352 845.992 377.932 846.311 377.535C846.63 377.138 847.004 376.816 847.434 376.568C847.863 376.321 848.374 376.197 848.967 376.197C849.768 376.197 850.461 376.389 851.047 376.773C851.639 377.151 852.095 377.652 852.414 378.277C852.733 378.902 852.893 379.586 852.893 380.328C852.893 381.083 852.766 381.754 852.512 382.34C852.258 382.926 851.88 383.388 851.379 383.727C850.884 384.059 850.262 384.225 849.514 384.225ZM857.521 370.357V383.99H855.08V370.357H857.521ZM874.738 373.512L876.35 375.113L874.738 376.734L873.127 375.113L874.738 373.512ZM871.438 373.512L873.068 375.113L871.438 376.734L869.846 375.113L871.438 373.512ZM878.576 377.467L880.861 377.193L881.057 379.889C881.089 380.403 881.229 380.781 881.477 381.021C881.724 381.256 882.124 381.373 882.678 381.373H882.902V384H882.678C881.936 384 881.317 383.863 880.822 383.59C880.334 383.316 879.93 382.926 879.611 382.418C879.025 382.978 878.306 383.382 877.453 383.629C876.607 383.876 875.49 384 874.104 384H872.473C871.327 384 870.282 383.928 869.338 383.785C868.394 383.642 867.58 383.395 866.896 383.043C866.213 382.691 865.686 382.206 865.314 381.588C864.943 380.963 864.758 380.172 864.758 379.215C864.758 378.655 864.82 378.111 864.943 377.584C865.074 377.05 865.233 376.552 865.422 376.09L867.609 376.92C867.499 377.219 867.391 377.564 867.287 377.955C867.183 378.339 867.131 378.71 867.131 379.068C867.131 379.57 867.264 379.973 867.531 380.279C867.805 380.585 868.182 380.816 868.664 380.973C869.152 381.129 869.719 381.236 870.363 381.295C871.014 381.347 871.717 381.373 872.473 381.373H874.104C875.067 381.373 875.887 381.331 876.564 381.246C877.248 381.161 877.769 380.989 878.127 380.729C878.492 380.468 878.674 380.074 878.674 379.547C878.674 379.228 878.664 378.88 878.645 378.502C878.625 378.118 878.602 377.773 878.576 377.467ZM884.807 381.373C884.676 381.152 884.559 380.898 884.455 380.611C884.357 380.325 884.279 380.032 884.221 379.732C884.162 379.426 884.133 379.143 884.133 378.883C884.133 378.121 884.325 377.421 884.709 376.783C885.093 376.145 885.604 375.637 886.242 375.26C886.88 374.876 887.587 374.684 888.361 374.684C889.051 374.684 889.693 374.811 890.285 375.064C890.884 375.312 891.499 375.65 892.131 376.08L891.184 378.229C890.741 377.968 890.308 377.75 889.885 377.574C889.468 377.398 889.019 377.311 888.537 377.311C888.212 377.311 887.893 377.379 887.58 377.516C887.268 377.646 887.01 377.835 886.809 378.082C886.607 378.323 886.506 378.613 886.506 378.951C886.506 379.27 886.574 379.57 886.711 379.85C886.854 380.13 887.02 380.367 887.209 380.562C887.404 380.751 887.567 380.882 887.697 380.953C887.717 380.953 887.743 380.95 887.775 380.943C887.814 380.937 887.85 380.93 887.883 380.924L892.521 379.811V382.438C891.701 382.691 890.904 382.916 890.129 383.111C889.354 383.3 888.592 383.463 887.844 383.6C887.102 383.73 886.369 383.831 885.646 383.902C884.93 383.967 884.221 384 883.518 384H882.521V381.373H884.807ZM894.699 370.357H897.15V379.361C897.15 380.097 897.261 380.618 897.482 380.924C897.71 381.223 898.146 381.373 898.791 381.373H899.035V384H898.791C897.378 384 896.343 383.632 895.686 382.896C895.028 382.161 894.699 381.044 894.699 379.547V370.357ZM905.461 384C904.784 384 904.224 383.886 903.781 383.658C903.345 383.424 902.99 383.111 902.717 382.721C902.365 383.118 901.945 383.43 901.457 383.658C900.969 383.886 900.334 384 899.553 384H898.654V381.373H899.572C900.067 381.373 900.464 381.334 900.764 381.256C901.063 381.178 901.281 381.021 901.418 380.787C901.561 380.546 901.633 380.191 901.633 379.723C901.633 379.618 901.626 379.456 901.613 379.234C901.607 379.013 901.594 378.769 901.574 378.502C901.555 378.229 901.535 377.968 901.516 377.721L903.801 377.438L904.006 379.967C904.038 380.423 904.172 380.771 904.406 381.012C904.647 381.253 905.005 381.373 905.48 381.373C906.053 381.373 906.434 381.249 906.623 381.002C906.818 380.748 906.916 380.322 906.916 379.723C906.916 379.625 906.91 379.465 906.896 379.244C906.89 379.023 906.877 378.775 906.857 378.502C906.838 378.229 906.818 377.968 906.799 377.721L909.084 377.438L909.289 379.967C909.315 380.39 909.423 380.732 909.611 380.992C909.8 381.246 910.116 381.373 910.559 381.373C910.832 381.373 911.047 381.298 911.203 381.148C911.366 380.999 911.48 380.8 911.545 380.553C911.617 380.299 911.652 380.022 911.652 379.723C911.652 379.358 911.62 378.987 911.555 378.609C911.496 378.225 911.428 377.874 911.35 377.555C911.271 377.236 911.213 376.998 911.174 376.842L913.527 376.197C913.658 376.699 913.765 377.232 913.85 377.799C913.934 378.359 913.977 378.919 913.977 379.479C913.977 380.26 913.869 380.995 913.654 381.686C913.446 382.376 913.094 382.936 912.6 383.365C912.111 383.788 911.434 384 910.568 384C909.976 384 909.481 383.88 909.084 383.639C908.687 383.391 908.355 383.079 908.088 382.701C907.749 383.092 907.365 383.408 906.936 383.648C906.512 383.883 906.021 384 905.461 384Z" fill="white"/>
<path d="M179 66H681.5" stroke="#2F2E41" stroke-width="60"/>
<circle cx="687" cy="66" r="30" fill="#2F2E41"/>
<path d="M179 117.5V65.75V14" stroke="#2F2E41" stroke-width="4"/>
<circle cx="687" cy="66" r="20" fill="white"/>
<path d="M396.879 61.6699H398.383C398.865 61.6699 399.262 61.5885 399.574 61.4258C399.887 61.2565 400.118 61.0221 400.268 60.7227C400.424 60.4167 400.502 60.0618 400.502 59.6582C400.502 59.2936 400.43 58.9714 400.287 58.6914C400.15 58.4049 399.939 58.1836 399.652 58.0273C399.366 57.8646 399.005 57.7832 398.568 57.7832C398.223 57.7832 397.904 57.8516 397.611 57.9883C397.318 58.125 397.084 58.3171 396.908 58.5645C396.732 58.8118 396.645 59.1113 396.645 59.4629H393.822C393.822 58.6816 394.031 58.0013 394.447 57.4219C394.87 56.8424 395.437 56.39 396.146 56.0645C396.856 55.7389 397.637 55.5762 398.49 55.5762C399.454 55.5762 400.297 55.7324 401.02 56.0449C401.742 56.3509 402.305 56.8034 402.709 57.4023C403.113 58.0013 403.314 58.7435 403.314 59.6289C403.314 60.0781 403.21 60.5143 403.002 60.9375C402.794 61.3542 402.494 61.7318 402.104 62.0703C401.719 62.4023 401.251 62.6693 400.697 62.8711C400.144 63.0664 399.522 63.1641 398.832 63.1641H396.879V61.6699ZM396.879 63.8086V62.3535H398.832C399.607 62.3535 400.287 62.4414 400.873 62.6172C401.459 62.793 401.951 63.0469 402.348 63.3789C402.745 63.7044 403.044 64.0918 403.246 64.541C403.448 64.9837 403.549 65.4753 403.549 66.0156C403.549 66.901 403.327 67.6562 402.885 68.2812C402.442 68.8997 401.84 69.375 401.078 69.707C400.316 70.0326 399.454 70.1953 398.49 70.1953C397.891 70.1953 397.302 70.1139 396.723 69.9512C396.15 69.7819 395.629 69.5312 395.16 69.1992C394.698 68.8607 394.327 68.4375 394.047 67.9297C393.773 67.4154 393.637 66.8066 393.637 66.1035H396.459C396.459 66.4681 396.55 66.7936 396.732 67.0801C396.915 67.3665 397.165 67.5911 397.484 67.7539C397.81 67.9167 398.171 67.998 398.568 67.998C399.245 67.998 399.773 67.8158 400.15 67.4512C400.535 67.0801 400.727 66.5918 400.727 65.9863C400.727 65.4655 400.632 65.0488 400.443 64.7363C400.255 64.4173 399.984 64.1829 399.633 64.0332C399.281 63.8835 398.865 63.8086 398.383 63.8086H396.879ZM415.443 64.6875V66.8945H405.199L405.062 65.1855L410.99 55.7812H413.227L410.805 59.834L407.855 64.6875H415.443ZM413.832 55.7812V70H411.02V55.7812H413.832ZM427.348 62.5977C427.348 62.1289 427.514 61.7383 427.846 61.4258C428.184 61.1133 428.588 60.957 429.057 60.957C429.525 60.957 429.923 61.1133 430.248 61.4258C430.58 61.7383 430.746 62.1289 430.746 62.5977C430.746 63.0599 430.58 63.4505 430.248 63.7695C429.923 64.082 429.525 64.2383 429.057 64.2383C428.575 64.2383 428.168 64.082 427.836 63.7695C427.51 63.457 427.348 63.0664 427.348 62.5977ZM427.348 68.3496C427.348 67.8874 427.514 67.5 427.846 67.1875C428.184 66.875 428.588 66.7188 429.057 66.7188C429.525 66.7188 429.923 66.875 430.248 67.1875C430.58 67.5 430.746 67.8874 430.746 68.3496C430.746 68.8184 430.58 69.209 430.248 69.5215C429.923 69.834 429.525 69.9902 429.057 69.9902C428.575 69.9902 428.168 69.834 427.836 69.5215C427.51 69.209 427.348 68.8184 427.348 68.3496ZM438.842 60.9668L440.531 62.6562L438.842 64.3457L437.152 62.6562L438.842 60.9668ZM438.969 71.7285C439.932 71.7285 440.691 71.5723 441.244 71.2598C441.798 70.9473 442.188 70.5273 442.416 70C442.65 69.4727 442.768 68.8835 442.768 68.2324C442.768 67.5163 442.657 66.7839 442.436 66.0352C442.214 65.2865 441.973 64.5931 441.713 63.9551L444.135 63.0371C444.499 63.9876 444.757 64.873 444.906 65.6934C445.062 66.5072 445.141 67.3275 445.141 68.1543C445.141 69.4108 444.91 70.498 444.447 71.416C443.985 72.3405 443.295 73.0534 442.377 73.5547C441.465 74.0625 440.329 74.3164 438.969 74.3164C437.562 74.3164 436.41 74.0495 435.512 73.5156C434.62 72.9883 433.959 72.2689 433.529 71.3574C433.106 70.446 432.895 69.4238 432.895 68.291C432.895 67.5293 432.976 66.7448 433.139 65.9375C433.308 65.1237 433.546 64.3197 433.852 63.5254L436.068 64.3848C435.84 65.0488 435.648 65.7096 435.492 66.3672C435.336 67.0182 435.258 67.6302 435.258 68.2031C435.258 68.8477 435.368 69.4368 435.59 69.9707C435.818 70.5046 436.202 70.931 436.742 71.25C437.283 71.569 438.025 71.7285 438.969 71.7285ZM450.434 62.0996C451.033 62.0996 451.566 62.2363 452.035 62.5098C452.504 62.7832 452.904 63.1608 453.236 63.6426C453.568 64.1243 453.832 64.6842 454.027 65.3223C454.223 65.9603 454.34 66.6439 454.379 67.373H455.199V70H454.203C453.975 70.944 453.591 71.7643 453.051 72.4609C452.51 73.1641 451.798 73.75 450.912 74.2188C450.027 74.694 448.943 75.0553 447.66 75.3027L446.771 72.9004C447.624 72.7311 448.399 72.5098 449.096 72.2363C449.799 71.9694 450.388 71.6471 450.863 71.2695C451.339 70.8919 451.658 70.4688 451.82 70H450.785C449.483 70 448.493 69.7298 447.816 69.1895C447.139 68.6491 446.801 67.7865 446.801 66.6016C446.801 66.1198 446.876 65.6185 447.025 65.0977C447.175 64.5703 447.4 64.082 447.699 63.6328C448.005 63.1771 448.383 62.8092 448.832 62.5293C449.288 62.2428 449.822 62.0996 450.434 62.0996ZM450.756 67.373H452.094C452.068 67.0345 452.016 66.7057 451.938 66.3867C451.859 66.0677 451.752 65.778 451.615 65.5176C451.485 65.2572 451.319 65.0553 451.117 64.9121C450.922 64.7624 450.688 64.6875 450.414 64.6875C450.089 64.6875 449.828 64.7917 449.633 65C449.444 65.2018 449.311 65.4427 449.232 65.7227C449.154 66.0026 449.115 66.263 449.115 66.5039C449.115 66.8685 449.262 67.1061 449.555 67.2168C449.848 67.321 450.248 67.373 450.756 67.373ZM457.621 63.4668L459.906 63.1934L460.102 65.8887C460.121 66.2272 460.189 66.5072 460.307 66.7285C460.43 66.9499 460.609 67.1126 460.844 67.2168C461.078 67.321 461.378 67.373 461.742 67.373H461.947V70H461.723C461.28 70 460.883 69.9447 460.531 69.834C460.18 69.7233 459.87 69.5703 459.604 69.375C459.337 69.1797 459.105 68.9518 458.91 68.6914C458.526 69.1081 458.057 69.4303 457.504 69.6582C456.957 69.8861 456.374 70 455.756 70H454.818V67.373H455.756C456.492 67.373 457.003 67.2396 457.289 66.9727C457.576 66.7057 457.719 66.2337 457.719 65.5566C457.719 65.1921 457.709 64.8372 457.689 64.4922C457.676 64.1406 457.654 63.7988 457.621 63.4668ZM458.09 58.3594L459.779 60.0488L458.09 61.7383L456.4 60.0488L458.09 58.3594ZM464.867 60.8887C465.375 61.2077 465.86 61.5202 466.322 61.8262C466.785 62.1322 467.208 62.4479 467.592 62.7734C467.976 63.0924 468.311 63.4277 468.598 63.7793C468.884 64.1309 469.105 64.5052 469.262 64.9023C469.418 65.2995 469.496 65.7259 469.496 66.1816C469.496 67.1647 469.271 67.9362 468.822 68.4961C468.373 69.0495 467.732 69.4401 466.898 69.668C466.072 69.8893 465.085 70 463.939 70H461.557V67.373H463.93C464.652 67.373 465.248 67.3405 465.717 67.2754C466.192 67.2038 466.547 67.0801 466.781 66.9043C467.016 66.7285 467.133 66.4746 467.133 66.1426C467.133 65.9408 467.029 65.7194 466.82 65.4785C466.612 65.2376 466.339 64.987 466 64.7266C465.661 64.4661 465.29 64.2057 464.887 63.9453C464.49 63.6849 464.092 63.4277 463.695 63.1738C463.305 62.9199 462.953 62.679 462.641 62.4512C462.387 62.2559 462.191 62.0052 462.055 61.6992C461.918 61.3932 461.85 61.084 461.85 60.7715C461.85 60.4264 461.931 60.1009 462.094 59.7949C462.263 59.4889 462.52 59.2676 462.865 59.1309L470.307 56.0938V58.6816L464.867 60.8887ZM477.23 56.3574H479.682V65.3613C479.682 66.097 479.792 66.6178 480.014 66.9238C480.242 67.2233 480.678 67.373 481.322 67.373H481.566V70H481.322C479.91 70 478.874 69.6322 478.217 68.8965C477.559 68.1608 477.23 67.0443 477.23 65.5469V56.3574ZM481.186 67.373H482.328V70H481.186V67.373ZM486 57.5879L487.611 59.1895L486 60.8105L484.389 59.1895L486 57.5879ZM482.699 57.5879L484.33 59.1895L482.699 60.8105L481.107 59.1895L482.699 57.5879ZM483.666 70H482.104V67.373H483.666C484.193 67.373 484.551 67.2135 484.74 66.8945C484.936 66.5755 485.033 66.1686 485.033 65.6738C485.033 65.2376 484.981 64.7624 484.877 64.248C484.779 63.7272 484.678 63.2161 484.574 62.7148L486.967 62.0996C487.09 62.6921 487.188 63.2812 487.26 63.8672C487.331 64.4466 487.367 65 487.367 65.5273C487.367 66.3802 487.253 67.1452 487.025 67.8223C486.798 68.4928 486.413 69.0234 485.873 69.4141C485.333 69.8047 484.597 70 483.666 70ZM500.033 60.9668L501.723 62.6562L500.033 64.3457L498.344 62.6562L500.033 60.9668ZM500.16 71.7285C501.124 71.7285 501.882 71.5723 502.436 71.2598C502.989 70.9473 503.38 70.5273 503.607 70C503.842 69.4727 503.959 68.8835 503.959 68.2324C503.959 67.5163 503.848 66.7839 503.627 66.0352C503.406 65.2865 503.165 64.5931 502.904 63.9551L505.326 63.0371C505.691 63.9876 505.948 64.873 506.098 65.6934C506.254 66.5072 506.332 67.3275 506.332 68.1543C506.332 69.4108 506.101 70.498 505.639 71.416C505.176 72.3405 504.486 73.0534 503.568 73.5547C502.657 74.0625 501.521 74.3164 500.16 74.3164C498.754 74.3164 497.602 74.0495 496.703 73.5156C495.811 72.9883 495.15 72.2689 494.721 71.3574C494.298 70.446 494.086 69.4238 494.086 68.291C494.086 67.5293 494.167 66.7448 494.33 65.9375C494.499 65.1237 494.737 64.3197 495.043 63.5254L497.26 64.3848C497.032 65.0488 496.84 65.7096 496.684 66.3672C496.527 67.0182 496.449 67.6302 496.449 68.2031C496.449 68.8477 496.56 69.4368 496.781 69.9707C497.009 70.5046 497.393 70.931 497.934 71.25C498.474 71.569 499.216 71.7285 500.16 71.7285ZM510.971 56.3574V69.9902H508.529V56.3574H510.971ZM515.209 58.877L516.898 60.5664L515.209 62.2559L513.52 60.5664L515.209 58.877ZM511.439 75.3125L510.521 72.9102C511.485 72.6953 512.302 72.4089 512.973 72.0508C513.65 71.6992 514.164 71.2337 514.516 70.6543C514.867 70.0749 515.043 69.3522 515.043 68.4863C515.043 67.9004 514.955 67.2493 514.779 66.5332C514.61 65.8171 514.418 65.1432 514.203 64.5117L516.635 63.7109C516.889 64.4141 517.081 65.1595 517.211 65.9473C517.341 66.735 517.406 67.4902 517.406 68.2129C517.406 69.528 517.165 70.6706 516.684 71.6406C516.202 72.6172 515.515 73.4115 514.623 74.0234C513.731 74.6354 512.67 75.0651 511.439 75.3125ZM522.68 62.0996C523.279 62.0996 523.812 62.2363 524.281 62.5098C524.75 62.7832 525.15 63.1608 525.482 63.6426C525.814 64.1243 526.078 64.6842 526.273 65.3223C526.469 65.9603 526.586 66.6439 526.625 67.373H527.445V70H526.449C526.221 70.944 525.837 71.7643 525.297 72.4609C524.757 73.1641 524.044 73.75 523.158 74.2188C522.273 74.694 521.189 75.0553 519.906 75.3027L519.018 72.9004C519.87 72.7311 520.645 72.5098 521.342 72.2363C522.045 71.9694 522.634 71.6471 523.109 71.2695C523.585 70.8919 523.904 70.4688 524.066 70H523.031C521.729 70 520.74 69.7298 520.062 69.1895C519.385 68.6491 519.047 67.7865 519.047 66.6016C519.047 66.1198 519.122 65.6185 519.271 65.0977C519.421 64.5703 519.646 64.082 519.945 63.6328C520.251 63.1771 520.629 62.8092 521.078 62.5293C521.534 62.2428 522.068 62.0996 522.68 62.0996ZM523.002 67.373H524.34C524.314 67.0345 524.262 66.7057 524.184 66.3867C524.105 66.0677 523.998 65.778 523.861 65.5176C523.731 65.2572 523.565 65.0553 523.363 64.9121C523.168 64.7624 522.934 64.6875 522.66 64.6875C522.335 64.6875 522.074 64.7917 521.879 65C521.69 65.2018 521.557 65.4427 521.479 65.7227C521.4 66.0026 521.361 66.263 521.361 66.5039C521.361 66.8685 521.508 67.1061 521.801 67.2168C522.094 67.321 522.494 67.373 523.002 67.373ZM533.451 64.6973C533.171 64.6973 532.917 64.7917 532.689 64.9805C532.468 65.1693 532.27 65.4004 532.094 65.6738C531.924 65.9408 531.781 66.2012 531.664 66.4551C531.853 66.6374 532.035 66.7969 532.211 66.9336C532.393 67.0638 532.562 67.1745 532.719 67.2656C532.96 67.4023 533.181 67.5 533.383 67.5586C533.591 67.6172 533.773 67.6465 533.93 67.6465C534.301 67.6465 534.568 67.5228 534.73 67.2754C534.9 67.028 534.984 66.7285 534.984 66.377C534.984 65.9147 534.848 65.5208 534.574 65.1953C534.301 64.8633 533.926 64.6973 533.451 64.6973ZM533.92 70.2246C533.471 70.2246 533.044 70.1595 532.641 70.0293C532.237 69.8991 531.843 69.7168 531.459 69.4824C531.081 69.248 530.701 68.9779 530.316 68.6719C530.076 68.9258 529.831 69.1536 529.584 69.3555C529.337 69.5508 529.05 69.707 528.725 69.8242C528.399 69.9414 527.989 70 527.494 70H527.064V67.373H527.445C527.79 67.373 528.093 67.2493 528.354 67.002C528.614 66.7546 528.865 66.4355 529.105 66.0449C529.346 65.6478 529.594 65.2311 529.848 64.7949C530.108 64.3522 530.398 63.9323 530.717 63.5352C531.036 63.138 531.41 62.8158 531.84 62.5684C532.27 62.321 532.781 62.1973 533.373 62.1973C534.174 62.1973 534.867 62.3893 535.453 62.7734C536.046 63.151 536.501 63.6523 536.82 64.2773C537.139 64.9023 537.299 65.5859 537.299 66.3281C537.299 67.0833 537.172 67.7539 536.918 68.3398C536.664 68.9258 536.286 69.388 535.785 69.7266C535.29 70.0586 534.669 70.2246 533.92 70.2246ZM541.928 56.3574V69.9902H539.486V56.3574H541.928ZM548.803 75.3125L547.885 72.9102C548.848 72.6953 549.665 72.4089 550.336 72.0508C551.013 71.6992 551.527 71.2337 551.879 70.6543C552.23 70.0749 552.406 69.3522 552.406 68.4863C552.406 67.9004 552.318 67.2493 552.143 66.5332C551.973 65.8171 551.781 65.1432 551.566 64.5117L553.998 63.7109C554.252 64.4141 554.444 65.1595 554.574 65.9473C554.704 66.735 554.77 67.4902 554.77 68.2129C554.77 69.528 554.529 70.6706 554.047 71.6406C553.565 72.6172 552.878 73.4115 551.986 74.0234C551.094 74.6354 550.033 75.0651 548.803 75.3125ZM556.938 56.3574H559.389V65.3613C559.389 66.097 559.499 66.6178 559.721 66.9238C559.949 67.2233 560.385 67.373 561.029 67.373H561.273V70H561.029C559.617 70 558.581 69.6322 557.924 68.8965C557.266 68.1608 556.938 67.0443 556.938 65.5469V56.3574ZM564.203 60.8887C564.711 61.2077 565.196 61.5202 565.658 61.8262C566.12 62.1322 566.544 62.4479 566.928 62.7734C567.312 63.0924 567.647 63.4277 567.934 63.7793C568.22 64.1309 568.441 64.5052 568.598 64.9023C568.754 65.2995 568.832 65.7259 568.832 66.1816C568.832 67.1647 568.607 67.9362 568.158 68.4961C567.709 69.0495 567.068 69.4401 566.234 69.668C565.408 69.8893 564.421 70 563.275 70H560.893V67.373H563.266C563.988 67.373 564.584 67.3405 565.053 67.2754C565.528 67.2038 565.883 67.0801 566.117 66.9043C566.352 66.7285 566.469 66.4746 566.469 66.1426C566.469 65.9408 566.365 65.7194 566.156 65.4785C565.948 65.2376 565.674 64.987 565.336 64.7266C564.997 64.4661 564.626 64.2057 564.223 63.9453C563.826 63.6849 563.428 63.4277 563.031 63.1738C562.641 62.9199 562.289 62.679 561.977 62.4512C561.723 62.2559 561.527 62.0052 561.391 61.6992C561.254 61.3932 561.186 61.084 561.186 60.7715C561.186 60.4264 561.267 60.1009 561.43 59.7949C561.599 59.4889 561.856 59.2676 562.201 59.1309L569.643 56.0938V58.6816L564.203 60.8887ZM578.588 67.4121C579.187 67.4121 579.747 67.3665 580.268 67.2754C580.788 67.1842 581.208 67.028 581.527 66.8066C581.846 66.5788 582.006 66.263 582.006 65.8594C582.006 65.4492 581.82 65.0163 581.449 64.5605C581.078 64.1048 580.574 63.6491 579.936 63.1934C579.298 62.7311 578.578 62.3047 577.777 61.9141L578.9 59.5703C579.623 59.9284 580.31 60.319 580.961 60.7422C581.612 61.1654 582.191 61.6309 582.699 62.1387C583.207 62.6465 583.607 63.2031 583.9 63.8086C584.193 64.4076 584.34 65.0618 584.34 65.7715C584.34 66.7676 584.112 67.5749 583.656 68.1934C583.207 68.8118 582.562 69.2643 581.723 69.5508C580.889 69.8372 579.893 69.9805 578.734 69.9805C578.233 69.9805 577.761 69.9642 577.318 69.9316C576.882 69.8926 576.456 69.8275 576.039 69.7363V67.1191C576.462 67.2038 576.905 67.2754 577.367 67.334C577.836 67.3861 578.243 67.4121 578.588 67.4121ZM588.998 56.3574V69.9902H586.557V56.3574H588.998ZM596.781 65.9082C596.781 65.7454 596.742 65.5306 596.664 65.2637C596.592 64.9967 596.514 64.7721 596.43 64.5898L594.545 60.3809L596.713 59.3359L599.096 64.8633C599.311 65.3646 599.503 65.804 599.672 66.1816C599.841 66.5592 600.027 66.8522 600.229 67.0605C600.43 67.2689 600.684 67.373 600.99 67.373H601.4V70H600.99C600.495 70 600.072 69.9382 599.721 69.8145C599.376 69.6842 599.07 69.5052 598.803 69.2773C598.542 69.0495 598.298 68.7826 598.07 68.4766C597.751 68.8021 597.383 69.0788 596.967 69.3066C596.557 69.5345 596.091 69.707 595.57 69.8242C595.049 69.9349 594.46 69.9902 593.803 69.9902C593.256 69.9902 592.784 69.9707 592.387 69.9316C591.996 69.8926 591.599 69.8242 591.195 69.7266V67.1094C591.599 67.2005 592.016 67.2721 592.445 67.3242C592.875 67.3763 593.279 67.4023 593.656 67.4023C594.197 67.4023 594.704 67.3568 595.18 67.2656C595.655 67.168 596.039 67.0117 596.332 66.7969C596.632 66.5755 596.781 66.2793 596.781 65.9082ZM607.289 63.9746C606.97 63.9746 606.615 63.9909 606.225 64.0234C605.84 64.056 605.447 64.1211 605.043 64.2188C605.342 64.5573 605.665 64.8958 606.01 65.2344C606.361 65.5729 606.661 65.8561 606.908 66.084C607.156 66.3053 607.279 66.416 607.279 66.416C607.279 66.416 607.354 66.3509 607.504 66.2207C607.654 66.0905 607.842 65.918 608.07 65.7031C608.305 65.4883 608.552 65.2507 608.812 64.9902C609.073 64.7298 609.314 64.4727 609.535 64.2188C609.138 64.1211 608.741 64.056 608.344 64.0234C607.953 63.9909 607.602 63.9746 607.289 63.9746ZM607.279 61.582C607.794 61.582 608.334 61.6211 608.9 61.6992C609.473 61.7773 610.007 61.8978 610.502 62.0605C611.003 62.2168 611.41 62.4219 611.723 62.6758C612.042 62.9297 612.201 63.2357 612.201 63.5938C612.201 63.763 612.143 63.9681 612.025 64.209C611.915 64.4499 611.765 64.707 611.576 64.9805C611.387 65.2474 611.182 65.5176 610.961 65.791C610.74 66.0645 610.515 66.3216 610.287 66.5625C610.066 66.8034 609.864 67.0117 609.682 67.1875C609.981 67.2721 610.271 67.3242 610.551 67.3438C610.831 67.3633 611.088 67.373 611.322 67.373H612.846V70H611.332C610.59 70 609.88 69.9154 609.203 69.7461C608.526 69.5703 607.885 69.3197 607.279 68.9941C606.863 69.2155 606.381 69.401 605.834 69.5508C605.294 69.7005 604.737 69.8145 604.164 69.8926C603.591 69.9642 603.054 70 602.553 70H601.01V67.373H602.562C602.725 67.373 602.947 67.373 603.227 67.373C603.507 67.3665 603.796 67.3503 604.096 67.3242C604.402 67.2917 604.665 67.2428 604.887 67.1777C604.704 67.002 604.503 66.7936 604.281 66.5527C604.06 66.3118 603.835 66.0547 603.607 65.7812C603.386 65.5013 603.181 65.2279 602.992 64.9609C602.81 64.6875 602.66 64.4336 602.543 64.1992C602.426 63.9583 602.367 63.7565 602.367 63.5938C602.367 63.2357 602.523 62.9297 602.836 62.6758C603.148 62.4219 603.552 62.2168 604.047 62.0605C604.548 61.8978 605.082 61.7773 605.648 61.6992C606.221 61.6211 606.765 61.582 607.279 61.582ZM612.455 67.373H613.148V70H612.455V67.373ZM616.781 57.5879L618.393 59.1895L616.781 60.8105L615.17 59.1895L616.781 57.5879ZM613.48 57.5879L615.111 59.1895L613.48 60.8105L611.889 59.1895L613.48 57.5879ZM614.447 70H612.885V67.373H614.447C614.975 67.373 615.333 67.2135 615.521 66.8945C615.717 66.5755 615.814 66.1686 615.814 65.6738C615.814 65.2376 615.762 64.7624 615.658 64.248C615.561 63.7272 615.46 63.2161 615.355 62.7148L617.748 62.0996C617.872 62.6921 617.969 63.2812 618.041 63.8672C618.113 64.4466 618.148 65 618.148 65.5273C618.148 66.3802 618.035 67.1452 617.807 67.8223C617.579 68.4928 617.195 69.0234 616.654 69.4141C616.114 69.8047 615.378 70 614.447 70Z" fill="white"/>
<path d="M179 550H681.5" stroke="#72C2C7" stroke-width="60"/>
<circle cx="687" cy="550" r="30" fill="#72C2C7"/>
<path d="M179 601.5V549.75V498" stroke="#72C2C7" stroke-width="4"/>
<circle cx="687" cy="550" r="20" fill="white"/>
<path d="M300.949 545.67H302.453C302.935 545.67 303.332 545.589 303.645 545.426C303.957 545.257 304.188 545.022 304.338 544.723C304.494 544.417 304.572 544.062 304.572 543.658C304.572 543.294 304.501 542.971 304.357 542.691C304.221 542.405 304.009 542.184 303.723 542.027C303.436 541.865 303.075 541.783 302.639 541.783C302.294 541.783 301.975 541.852 301.682 541.988C301.389 542.125 301.154 542.317 300.979 542.564C300.803 542.812 300.715 543.111 300.715 543.463H297.893C297.893 542.682 298.101 542.001 298.518 541.422C298.941 540.842 299.507 540.39 300.217 540.064C300.926 539.739 301.708 539.576 302.561 539.576C303.524 539.576 304.367 539.732 305.09 540.045C305.812 540.351 306.376 540.803 306.779 541.402C307.183 542.001 307.385 542.743 307.385 543.629C307.385 544.078 307.281 544.514 307.072 544.938C306.864 545.354 306.564 545.732 306.174 546.07C305.79 546.402 305.321 546.669 304.768 546.871C304.214 547.066 303.592 547.164 302.902 547.164H300.949V545.67ZM300.949 547.809V546.354H302.902C303.677 546.354 304.357 546.441 304.943 546.617C305.529 546.793 306.021 547.047 306.418 547.379C306.815 547.704 307.115 548.092 307.316 548.541C307.518 548.984 307.619 549.475 307.619 550.016C307.619 550.901 307.398 551.656 306.955 552.281C306.512 552.9 305.91 553.375 305.148 553.707C304.387 554.033 303.524 554.195 302.561 554.195C301.962 554.195 301.372 554.114 300.793 553.951C300.22 553.782 299.699 553.531 299.23 553.199C298.768 552.861 298.397 552.438 298.117 551.93C297.844 551.415 297.707 550.807 297.707 550.104H300.529C300.529 550.468 300.62 550.794 300.803 551.08C300.985 551.367 301.236 551.591 301.555 551.754C301.88 551.917 302.242 551.998 302.639 551.998C303.316 551.998 303.843 551.816 304.221 551.451C304.605 551.08 304.797 550.592 304.797 549.986C304.797 549.465 304.702 549.049 304.514 548.736C304.325 548.417 304.055 548.183 303.703 548.033C303.352 547.883 302.935 547.809 302.453 547.809H300.949ZM319.514 548.688V550.895H309.27L309.133 549.186L315.061 539.781H317.297L314.875 543.834L311.926 548.688H319.514ZM317.902 539.781V554H315.09V539.781H317.902ZM331.418 546.598C331.418 546.129 331.584 545.738 331.916 545.426C332.255 545.113 332.658 544.957 333.127 544.957C333.596 544.957 333.993 545.113 334.318 545.426C334.65 545.738 334.816 546.129 334.816 546.598C334.816 547.06 334.65 547.451 334.318 547.77C333.993 548.082 333.596 548.238 333.127 548.238C332.645 548.238 332.238 548.082 331.906 547.77C331.581 547.457 331.418 547.066 331.418 546.598ZM331.418 552.35C331.418 551.887 331.584 551.5 331.916 551.188C332.255 550.875 332.658 550.719 333.127 550.719C333.596 550.719 333.993 550.875 334.318 551.188C334.65 551.5 334.816 551.887 334.816 552.35C334.816 552.818 334.65 553.209 334.318 553.521C333.993 553.834 333.596 553.99 333.127 553.99C332.645 553.99 332.238 553.834 331.906 553.521C331.581 553.209 331.418 552.818 331.418 552.35ZM342.912 544.967L344.602 546.656L342.912 548.346L341.223 546.656L342.912 544.967ZM343.039 555.729C344.003 555.729 344.761 555.572 345.314 555.26C345.868 554.947 346.258 554.527 346.486 554C346.721 553.473 346.838 552.883 346.838 552.232C346.838 551.516 346.727 550.784 346.506 550.035C346.285 549.286 346.044 548.593 345.783 547.955L348.205 547.037C348.57 547.988 348.827 548.873 348.977 549.693C349.133 550.507 349.211 551.327 349.211 552.154C349.211 553.411 348.98 554.498 348.518 555.416C348.055 556.34 347.365 557.053 346.447 557.555C345.536 558.062 344.4 558.316 343.039 558.316C341.633 558.316 340.48 558.049 339.582 557.516C338.69 556.988 338.029 556.269 337.6 555.357C337.176 554.446 336.965 553.424 336.965 552.291C336.965 551.529 337.046 550.745 337.209 549.938C337.378 549.124 337.616 548.32 337.922 547.525L340.139 548.385C339.911 549.049 339.719 549.71 339.562 550.367C339.406 551.018 339.328 551.63 339.328 552.203C339.328 552.848 339.439 553.437 339.66 553.971C339.888 554.505 340.272 554.931 340.812 555.25C341.353 555.569 342.095 555.729 343.039 555.729ZM354.504 546.1C355.103 546.1 355.637 546.236 356.105 546.51C356.574 546.783 356.975 547.161 357.307 547.643C357.639 548.124 357.902 548.684 358.098 549.322C358.293 549.96 358.41 550.644 358.449 551.373H359.27V554H358.273C358.046 554.944 357.661 555.764 357.121 556.461C356.581 557.164 355.868 557.75 354.982 558.219C354.097 558.694 353.013 559.055 351.73 559.303L350.842 556.9C351.695 556.731 352.469 556.51 353.166 556.236C353.869 555.969 354.458 555.647 354.934 555.27C355.409 554.892 355.728 554.469 355.891 554H354.855C353.553 554 352.564 553.73 351.887 553.189C351.21 552.649 350.871 551.786 350.871 550.602C350.871 550.12 350.946 549.618 351.096 549.098C351.245 548.57 351.47 548.082 351.77 547.633C352.076 547.177 352.453 546.809 352.902 546.529C353.358 546.243 353.892 546.1 354.504 546.1ZM354.826 551.373H356.164C356.138 551.035 356.086 550.706 356.008 550.387C355.93 550.068 355.822 549.778 355.686 549.518C355.555 549.257 355.389 549.055 355.188 548.912C354.992 548.762 354.758 548.688 354.484 548.688C354.159 548.688 353.898 548.792 353.703 549C353.514 549.202 353.381 549.443 353.303 549.723C353.225 550.003 353.186 550.263 353.186 550.504C353.186 550.868 353.332 551.106 353.625 551.217C353.918 551.321 354.318 551.373 354.826 551.373ZM361.691 547.467L363.977 547.193L364.172 549.889C364.191 550.227 364.26 550.507 364.377 550.729C364.501 550.95 364.68 551.113 364.914 551.217C365.148 551.321 365.448 551.373 365.812 551.373H366.018V554H365.793C365.35 554 364.953 553.945 364.602 553.834C364.25 553.723 363.941 553.57 363.674 553.375C363.407 553.18 363.176 552.952 362.98 552.691C362.596 553.108 362.128 553.43 361.574 553.658C361.027 553.886 360.445 554 359.826 554H358.889V551.373H359.826C360.562 551.373 361.073 551.24 361.359 550.973C361.646 550.706 361.789 550.234 361.789 549.557C361.789 549.192 361.779 548.837 361.76 548.492C361.747 548.141 361.724 547.799 361.691 547.467ZM362.16 542.359L363.85 544.049L362.16 545.738L360.471 544.049L362.16 542.359ZM368.938 544.889C369.445 545.208 369.93 545.52 370.393 545.826C370.855 546.132 371.278 546.448 371.662 546.773C372.046 547.092 372.382 547.428 372.668 547.779C372.954 548.131 373.176 548.505 373.332 548.902C373.488 549.299 373.566 549.726 373.566 550.182C373.566 551.165 373.342 551.936 372.893 552.496C372.443 553.049 371.802 553.44 370.969 553.668C370.142 553.889 369.156 554 368.01 554H365.627V551.373H368C368.723 551.373 369.318 551.34 369.787 551.275C370.262 551.204 370.617 551.08 370.852 550.904C371.086 550.729 371.203 550.475 371.203 550.143C371.203 549.941 371.099 549.719 370.891 549.479C370.682 549.238 370.409 548.987 370.07 548.727C369.732 548.466 369.361 548.206 368.957 547.945C368.56 547.685 368.163 547.428 367.766 547.174C367.375 546.92 367.023 546.679 366.711 546.451C366.457 546.256 366.262 546.005 366.125 545.699C365.988 545.393 365.92 545.084 365.92 544.771C365.92 544.426 366.001 544.101 366.164 543.795C366.333 543.489 366.59 543.268 366.936 543.131L374.377 540.094V542.682L368.938 544.889ZM381.301 540.357H383.752V549.361C383.752 550.097 383.863 550.618 384.084 550.924C384.312 551.223 384.748 551.373 385.393 551.373H385.637V554H385.393C383.98 554 382.945 553.632 382.287 552.896C381.63 552.161 381.301 551.044 381.301 549.547V540.357ZM385.256 551.373H386.398V554H385.256V551.373ZM390.07 541.588L391.682 543.189L390.07 544.811L388.459 543.189L390.07 541.588ZM386.77 541.588L388.4 543.189L386.77 544.811L385.178 543.189L386.77 541.588ZM387.736 554H386.174V551.373H387.736C388.264 551.373 388.622 551.214 388.811 550.895C389.006 550.576 389.104 550.169 389.104 549.674C389.104 549.238 389.051 548.762 388.947 548.248C388.85 547.727 388.749 547.216 388.645 546.715L391.037 546.1C391.161 546.692 391.258 547.281 391.33 547.867C391.402 548.447 391.438 549 391.438 549.527C391.438 550.38 391.324 551.145 391.096 551.822C390.868 552.493 390.484 553.023 389.943 553.414C389.403 553.805 388.667 554 387.736 554ZM408.908 550.24C408.908 550.019 408.811 549.775 408.615 549.508C408.426 549.241 408.192 548.977 407.912 548.717C407.632 548.45 407.359 548.215 407.092 548.014C406.831 548.248 406.581 548.502 406.34 548.775C406.099 549.042 405.9 549.309 405.744 549.576C405.588 549.843 405.51 550.097 405.51 550.338C405.51 550.657 405.656 550.911 405.949 551.1C406.242 551.282 406.659 551.373 407.199 551.373C407.766 551.373 408.192 551.282 408.479 551.1C408.765 550.917 408.908 550.631 408.908 550.24ZM405.295 546.451L404.914 546.109L406.438 544.156C407.03 544.632 407.609 545.104 408.176 545.572C408.749 546.041 409.266 546.523 409.729 547.018C410.191 547.506 410.559 548.017 410.832 548.551C411.105 549.085 411.242 549.651 411.242 550.25C411.242 551.018 411.07 551.679 410.725 552.232C410.38 552.786 409.904 553.212 409.299 553.512C408.693 553.811 407.997 553.961 407.209 553.961C405.907 553.961 404.908 553.642 404.211 553.004C403.521 552.359 403.176 551.552 403.176 550.582C403.176 549.775 403.374 549.055 403.771 548.424C404.169 547.786 404.676 547.128 405.295 546.451ZM418.488 549.908C418.488 549.745 418.449 549.531 418.371 549.264C418.299 548.997 418.221 548.772 418.137 548.59L416.252 544.381L418.42 543.336L420.803 548.863C421.018 549.365 421.21 549.804 421.379 550.182C421.548 550.559 421.734 550.852 421.936 551.061C422.137 551.269 422.391 551.373 422.697 551.373H423.107V554H422.697C422.202 554 421.779 553.938 421.428 553.814C421.083 553.684 420.777 553.505 420.51 553.277C420.249 553.049 420.005 552.783 419.777 552.477C419.458 552.802 419.09 553.079 418.674 553.307C418.264 553.535 417.798 553.707 417.277 553.824C416.757 553.935 416.167 553.99 415.51 553.99C414.963 553.99 414.491 553.971 414.094 553.932C413.703 553.893 413.306 553.824 412.902 553.727V551.109C413.306 551.201 413.723 551.272 414.152 551.324C414.582 551.376 414.986 551.402 415.363 551.402C415.904 551.402 416.411 551.357 416.887 551.266C417.362 551.168 417.746 551.012 418.039 550.797C418.339 550.576 418.488 550.279 418.488 549.908ZM431.613 540.27L433.137 541.793L431.613 543.316L430.09 541.793L431.613 540.27ZM433.312 542.76L434.836 544.283L433.312 545.807L431.789 544.283L433.312 542.76ZM429.914 542.76L431.438 544.283L429.914 545.807L428.391 544.283L429.914 542.76ZM429.523 554C428.846 554 428.286 553.886 427.844 553.658C427.408 553.424 427.053 553.111 426.779 552.721C426.428 553.118 426.008 553.43 425.52 553.658C425.031 553.886 424.396 554 423.615 554H422.717V551.373H423.635C424.13 551.373 424.527 551.334 424.826 551.256C425.126 551.178 425.344 551.021 425.48 550.787C425.624 550.546 425.695 550.191 425.695 549.723C425.695 549.618 425.689 549.456 425.676 549.234C425.669 549.013 425.656 548.769 425.637 548.502C425.617 548.229 425.598 547.968 425.578 547.721L427.863 547.438L428.068 549.967C428.101 550.423 428.234 550.771 428.469 551.012C428.71 551.253 429.068 551.373 429.543 551.373C430.116 551.373 430.497 551.249 430.686 551.002C430.881 550.748 430.979 550.322 430.979 549.723C430.979 549.625 430.972 549.465 430.959 549.244C430.952 549.023 430.939 548.775 430.92 548.502C430.9 548.229 430.881 547.968 430.861 547.721L433.146 547.438L433.352 549.967C433.378 550.39 433.485 550.732 433.674 550.992C433.863 551.246 434.178 551.373 434.621 551.373C434.895 551.373 435.109 551.298 435.266 551.148C435.428 550.999 435.542 550.8 435.607 550.553C435.679 550.299 435.715 550.022 435.715 549.723C435.715 549.358 435.682 548.987 435.617 548.609C435.559 548.225 435.49 547.874 435.412 547.555C435.334 547.236 435.275 546.998 435.236 546.842L437.59 546.197C437.72 546.699 437.827 547.232 437.912 547.799C437.997 548.359 438.039 548.919 438.039 549.479C438.039 550.26 437.932 550.995 437.717 551.686C437.508 552.376 437.157 552.936 436.662 553.365C436.174 553.788 435.497 554 434.631 554C434.038 554 433.544 553.88 433.146 553.639C432.749 553.391 432.417 553.079 432.15 552.701C431.812 553.092 431.428 553.408 430.998 553.648C430.575 553.883 430.083 554 429.523 554ZM450.49 550.24C450.49 550.019 450.393 549.775 450.197 549.508C450.008 549.241 449.774 548.977 449.494 548.717C449.214 548.45 448.941 548.215 448.674 548.014C448.413 548.248 448.163 548.502 447.922 548.775C447.681 549.042 447.482 549.309 447.326 549.576C447.17 549.843 447.092 550.097 447.092 550.338C447.092 550.657 447.238 550.911 447.531 551.1C447.824 551.282 448.241 551.373 448.781 551.373C449.348 551.373 449.774 551.282 450.061 551.1C450.347 550.917 450.49 550.631 450.49 550.24ZM446.877 546.451L446.496 546.109L448.02 544.156C448.612 544.632 449.191 545.104 449.758 545.572C450.331 546.041 450.848 546.523 451.311 547.018C451.773 547.506 452.141 548.017 452.414 548.551C452.688 549.085 452.824 549.651 452.824 550.25C452.824 551.018 452.652 551.679 452.307 552.232C451.962 552.786 451.486 553.212 450.881 553.512C450.275 553.811 449.579 553.961 448.791 553.961C447.489 553.961 446.49 553.642 445.793 553.004C445.103 552.359 444.758 551.552 444.758 550.582C444.758 549.775 444.956 549.055 445.354 548.424C445.751 547.786 446.258 547.128 446.877 546.451ZM457.033 551.412C457.632 551.412 458.192 551.367 458.713 551.275C459.234 551.184 459.654 551.028 459.973 550.807C460.292 550.579 460.451 550.263 460.451 549.859C460.451 549.449 460.266 549.016 459.895 548.561C459.523 548.105 459.019 547.649 458.381 547.193C457.743 546.731 457.023 546.305 456.223 545.914L457.346 543.57C458.068 543.928 458.755 544.319 459.406 544.742C460.057 545.165 460.637 545.631 461.145 546.139C461.652 546.646 462.053 547.203 462.346 547.809C462.639 548.408 462.785 549.062 462.785 549.771C462.785 550.768 462.557 551.575 462.102 552.193C461.652 552.812 461.008 553.264 460.168 553.551C459.335 553.837 458.339 553.98 457.18 553.98C456.678 553.98 456.206 553.964 455.764 553.932C455.327 553.893 454.901 553.827 454.484 553.736V551.119C454.908 551.204 455.35 551.275 455.812 551.334C456.281 551.386 456.688 551.412 457.033 551.412ZM467.443 540.357V553.99H465.002V540.357H467.443ZM472.189 551.412C472.788 551.412 473.348 551.367 473.869 551.275C474.39 551.184 474.81 551.028 475.129 550.807C475.448 550.579 475.607 550.263 475.607 549.859C475.607 549.449 475.422 549.016 475.051 548.561C474.68 548.105 474.175 547.649 473.537 547.193C472.899 546.731 472.18 546.305 471.379 545.914L472.502 543.57C473.225 543.928 473.911 544.319 474.562 544.742C475.214 545.165 475.793 545.631 476.301 546.139C476.809 546.646 477.209 547.203 477.502 547.809C477.795 548.408 477.941 549.062 477.941 549.771C477.941 550.768 477.714 551.575 477.258 552.193C476.809 552.812 476.164 553.264 475.324 553.551C474.491 553.837 473.495 553.98 472.336 553.98C471.835 553.98 471.363 553.964 470.92 553.932C470.484 553.893 470.057 553.827 469.641 553.736V551.119C470.064 551.204 470.507 551.275 470.969 551.334C471.438 551.386 471.844 551.412 472.189 551.412ZM490.754 558.922C489.348 558.922 488.195 558.655 487.297 558.121C486.405 557.594 485.744 556.874 485.314 555.963C484.891 555.058 484.68 554.036 484.68 552.896C484.68 552.135 484.761 551.35 484.924 550.543C485.093 549.729 485.331 548.925 485.637 548.131L487.854 548.99C487.626 549.661 487.434 550.325 487.277 550.982C487.121 551.633 487.043 552.245 487.043 552.818C487.043 553.456 487.154 554.042 487.375 554.576C487.603 555.11 487.987 555.536 488.527 555.855C489.068 556.174 489.81 556.334 490.754 556.334C491.483 556.334 492.128 556.266 492.688 556.129C493.254 555.999 493.726 555.826 494.104 555.611C494.481 555.403 494.768 555.182 494.963 554.947C495.158 554.713 495.256 554.498 495.256 554.303C495.256 554.186 495.223 554.088 495.158 554.01C495.093 553.938 494.976 553.902 494.807 553.902H493.225C492.86 553.902 492.499 553.867 492.141 553.795C491.789 553.717 491.467 553.57 491.174 553.355C490.887 553.134 490.656 552.818 490.48 552.408C490.311 551.998 490.227 551.464 490.227 550.807C490.227 550.136 490.334 549.492 490.549 548.873C490.77 548.255 491.083 547.701 491.486 547.213C491.896 546.725 492.388 546.34 492.961 546.061C493.534 545.781 494.175 545.641 494.885 545.641C495.34 545.641 495.796 545.709 496.252 545.846C496.708 545.976 497.131 546.181 497.521 546.461L496.691 548.756C496.359 548.58 496.044 548.456 495.744 548.385C495.445 548.313 495.161 548.277 494.895 548.277C494.413 548.277 493.996 548.388 493.645 548.609C493.299 548.831 493.036 549.13 492.854 549.508C492.671 549.885 492.58 550.315 492.58 550.797C492.58 550.992 492.635 551.122 492.746 551.188C492.863 551.253 493.026 551.285 493.234 551.285H494.709C495.425 551.285 495.988 551.402 496.398 551.637C496.809 551.865 497.098 552.184 497.268 552.594C497.437 552.997 497.521 553.463 497.521 553.99C497.521 554.661 497.372 555.292 497.072 555.885C496.779 556.477 496.343 557.001 495.764 557.457C495.191 557.919 494.484 558.277 493.645 558.531C492.805 558.792 491.841 558.922 490.754 558.922ZM499.641 540.357H502.092V549.361C502.092 550.097 502.202 550.618 502.424 550.924C502.652 551.223 503.088 551.373 503.732 551.373H503.977V554H503.732C502.32 554 501.285 553.632 500.627 552.896C499.969 552.161 499.641 551.044 499.641 549.547V540.357ZM507.336 549C507.336 549.247 507.411 549.485 507.561 549.713C507.71 549.941 507.906 550.143 508.146 550.318C508.394 550.494 508.658 550.631 508.938 550.729C509.159 550.663 509.387 550.556 509.621 550.406C509.855 550.25 510.054 550.064 510.217 549.85C510.38 549.635 510.461 549.404 510.461 549.156C510.461 548.876 510.393 548.619 510.256 548.385C510.119 548.144 509.937 547.955 509.709 547.818C509.488 547.675 509.237 547.604 508.957 547.604C508.514 547.604 508.133 547.74 507.814 548.014C507.495 548.281 507.336 548.609 507.336 549ZM508.518 545.885L509.621 543.707C510.826 544.28 511.89 544.807 512.814 545.289C513.739 545.771 514.517 546.243 515.148 546.705C515.78 547.167 516.255 547.659 516.574 548.18C516.9 548.701 517.062 549.29 517.062 549.947C517.062 551.236 516.672 552.219 515.891 552.896C515.116 553.567 514.084 553.902 512.795 553.902C512.339 553.902 511.864 553.863 511.369 553.785C510.874 553.707 510.399 553.609 509.943 553.492C509.494 553.375 509.104 553.264 508.771 553.16C508.186 553.368 507.515 553.561 506.76 553.736C506.011 553.912 505.279 554 504.562 554H503.596V551.373H504.436C504.696 551.373 504.934 551.37 505.148 551.363C505.37 551.357 505.598 551.344 505.832 551.324C505.669 551.135 505.529 550.914 505.412 550.66C505.295 550.4 505.204 550.126 505.139 549.84C505.074 549.553 505.041 549.28 505.041 549.02C505.041 548.434 505.188 547.874 505.48 547.34C505.773 546.806 506.2 546.373 506.76 546.041C507.326 545.702 508.013 545.533 508.82 545.533C509.413 545.533 509.989 545.676 510.549 545.963C511.115 546.249 511.577 546.64 511.936 547.135C512.3 547.623 512.482 548.183 512.482 548.814C512.482 549.166 512.44 549.495 512.355 549.801C512.277 550.1 512.167 550.38 512.023 550.641C511.88 550.901 511.708 551.142 511.506 551.363C511.805 551.409 512.102 551.445 512.395 551.471C512.694 551.497 512.919 551.51 513.068 551.51C513.531 551.51 513.931 551.402 514.27 551.188C514.608 550.966 514.777 550.576 514.777 550.016C514.777 549.872 514.722 549.713 514.611 549.537C514.507 549.361 514.325 549.16 514.064 548.932C513.804 548.704 513.439 548.443 512.971 548.15C512.502 547.857 511.9 547.525 511.164 547.154C510.435 546.777 509.553 546.354 508.518 545.885ZM529.494 550.24C529.494 550.019 529.396 549.775 529.201 549.508C529.012 549.241 528.778 548.977 528.498 548.717C528.218 548.45 527.945 548.215 527.678 548.014C527.417 548.248 527.167 548.502 526.926 548.775C526.685 549.042 526.486 549.309 526.33 549.576C526.174 549.843 526.096 550.097 526.096 550.338C526.096 550.657 526.242 550.911 526.535 551.1C526.828 551.282 527.245 551.373 527.785 551.373C528.352 551.373 528.778 551.282 529.064 551.1C529.351 550.917 529.494 550.631 529.494 550.24ZM525.881 546.451L525.5 546.109L527.023 544.156C527.616 544.632 528.195 545.104 528.762 545.572C529.335 546.041 529.852 546.523 530.314 547.018C530.777 547.506 531.145 548.017 531.418 548.551C531.691 549.085 531.828 549.651 531.828 550.25C531.828 551.018 531.656 551.679 531.311 552.232C530.965 552.786 530.49 553.212 529.885 553.512C529.279 553.811 528.583 553.961 527.795 553.961C526.493 553.961 525.493 553.642 524.797 553.004C524.107 552.359 523.762 551.552 523.762 550.582C523.762 549.775 523.96 549.055 524.357 548.424C524.755 547.786 525.262 547.128 525.881 546.451ZM539.074 549.908C539.074 549.745 539.035 549.531 538.957 549.264C538.885 548.997 538.807 548.772 538.723 548.59L536.838 544.381L539.006 543.336L541.389 548.863C541.604 549.365 541.796 549.804 541.965 550.182C542.134 550.559 542.32 550.852 542.521 551.061C542.723 551.269 542.977 551.373 543.283 551.373H543.693V554H543.283C542.788 554 542.365 553.938 542.014 553.814C541.669 553.684 541.363 553.505 541.096 553.277C540.835 553.049 540.591 552.783 540.363 552.477C540.044 552.802 539.676 553.079 539.26 553.307C538.85 553.535 538.384 553.707 537.863 553.824C537.342 553.935 536.753 553.99 536.096 553.99C535.549 553.99 535.077 553.971 534.68 553.932C534.289 553.893 533.892 553.824 533.488 553.727V551.109C533.892 551.201 534.309 551.272 534.738 551.324C535.168 551.376 535.572 551.402 535.949 551.402C536.49 551.402 536.997 551.357 537.473 551.266C537.948 551.168 538.332 551.012 538.625 550.797C538.924 550.576 539.074 550.279 539.074 549.908ZM543.283 551.373H544.064V554H543.283V551.373ZM546.838 555.309L548.449 556.91L546.838 558.531L545.227 556.91L546.838 555.309ZM543.537 555.309L545.168 556.91L543.537 558.531L541.945 556.91L543.537 555.309ZM545.393 554H543.83V551.373H545.393C545.92 551.373 546.278 551.214 546.467 550.895C546.662 550.576 546.76 550.169 546.76 549.674C546.76 549.238 546.708 548.762 546.604 548.248C546.506 547.727 546.405 547.216 546.301 546.715L548.693 546.1C548.817 546.692 548.915 547.281 548.986 547.867C549.058 548.447 549.094 549 549.094 549.527C549.094 550.38 548.98 551.145 548.752 551.822C548.524 552.493 548.14 553.023 547.6 553.414C547.059 553.805 546.324 554 545.393 554ZM553.732 540.357V553.99H551.291V540.357H553.732ZM563.518 551.412C564.117 551.412 564.676 551.367 565.197 551.275C565.718 551.184 566.138 551.028 566.457 550.807C566.776 550.579 566.936 550.263 566.936 549.859C566.936 549.449 566.75 549.016 566.379 548.561C566.008 548.105 565.503 547.649 564.865 547.193C564.227 546.731 563.508 546.305 562.707 545.914L563.83 543.57C564.553 543.928 565.24 544.319 565.891 544.742C566.542 545.165 567.121 545.631 567.629 546.139C568.137 546.646 568.537 547.203 568.83 547.809C569.123 548.408 569.27 549.062 569.27 549.771C569.27 550.768 569.042 551.575 568.586 552.193C568.137 552.812 567.492 553.264 566.652 553.551C565.819 553.837 564.823 553.98 563.664 553.98C563.163 553.98 562.691 553.964 562.248 553.932C561.812 553.893 561.385 553.827 560.969 553.736V551.119C561.392 551.204 561.835 551.275 562.297 551.334C562.766 551.386 563.173 551.412 563.518 551.412ZM573.928 540.357V553.99H571.486V540.357H573.928ZM581.711 549.908C581.711 549.745 581.672 549.531 581.594 549.264C581.522 548.997 581.444 548.772 581.359 548.59L579.475 544.381L581.643 543.336L584.025 548.863C584.24 549.365 584.432 549.804 584.602 550.182C584.771 550.559 584.956 550.852 585.158 551.061C585.36 551.269 585.614 551.373 585.92 551.373H586.33V554H585.92C585.425 554 585.002 553.938 584.65 553.814C584.305 553.684 583.999 553.505 583.732 553.277C583.472 553.049 583.228 552.783 583 552.477C582.681 552.802 582.313 553.079 581.896 553.307C581.486 553.535 581.021 553.707 580.5 553.824C579.979 553.935 579.39 553.99 578.732 553.99C578.186 553.99 577.714 553.971 577.316 553.932C576.926 553.893 576.529 553.824 576.125 553.727V551.109C576.529 551.201 576.945 551.272 577.375 551.324C577.805 551.376 578.208 551.402 578.586 551.402C579.126 551.402 579.634 551.357 580.109 551.266C580.585 551.168 580.969 551.012 581.262 550.797C581.561 550.576 581.711 550.279 581.711 549.908ZM592.219 547.975C591.9 547.975 591.545 547.991 591.154 548.023C590.77 548.056 590.376 548.121 589.973 548.219C590.272 548.557 590.594 548.896 590.939 549.234C591.291 549.573 591.59 549.856 591.838 550.084C592.085 550.305 592.209 550.416 592.209 550.416C592.209 550.416 592.284 550.351 592.434 550.221C592.583 550.09 592.772 549.918 593 549.703C593.234 549.488 593.482 549.251 593.742 548.99C594.003 548.73 594.243 548.473 594.465 548.219C594.068 548.121 593.671 548.056 593.273 548.023C592.883 547.991 592.531 547.975 592.219 547.975ZM592.209 545.582C592.723 545.582 593.264 545.621 593.83 545.699C594.403 545.777 594.937 545.898 595.432 546.061C595.933 546.217 596.34 546.422 596.652 546.676C596.971 546.93 597.131 547.236 597.131 547.594C597.131 547.763 597.072 547.968 596.955 548.209C596.844 548.45 596.695 548.707 596.506 548.98C596.317 549.247 596.112 549.518 595.891 549.791C595.669 550.064 595.445 550.322 595.217 550.562C594.995 550.803 594.794 551.012 594.611 551.188C594.911 551.272 595.201 551.324 595.48 551.344C595.76 551.363 596.018 551.373 596.252 551.373H597.775V554H596.262C595.52 554 594.81 553.915 594.133 553.746C593.456 553.57 592.814 553.32 592.209 552.994C591.792 553.215 591.311 553.401 590.764 553.551C590.223 553.701 589.667 553.814 589.094 553.893C588.521 553.964 587.984 554 587.482 554H585.939V551.373H587.492C587.655 551.373 587.876 551.373 588.156 551.373C588.436 551.367 588.726 551.35 589.025 551.324C589.331 551.292 589.595 551.243 589.816 551.178C589.634 551.002 589.432 550.794 589.211 550.553C588.99 550.312 588.765 550.055 588.537 549.781C588.316 549.501 588.111 549.228 587.922 548.961C587.74 548.688 587.59 548.434 587.473 548.199C587.355 547.958 587.297 547.757 587.297 547.594C587.297 547.236 587.453 546.93 587.766 546.676C588.078 546.422 588.482 546.217 588.977 546.061C589.478 545.898 590.012 545.777 590.578 545.699C591.151 545.621 591.695 545.582 592.209 545.582ZM597.385 551.373H598.078V554H597.385V551.373ZM601.711 541.588L603.322 543.189L601.711 544.811L600.1 543.189L601.711 541.588ZM598.41 541.588L600.041 543.189L598.41 544.811L596.818 543.189L598.41 541.588ZM599.377 554H597.814V551.373H599.377C599.904 551.373 600.262 551.214 600.451 550.895C600.646 550.576 600.744 550.169 600.744 549.674C600.744 549.238 600.692 548.762 600.588 548.248C600.49 547.727 600.389 547.216 600.285 546.715L602.678 546.1C602.801 546.692 602.899 547.281 602.971 547.867C603.042 548.447 603.078 549 603.078 549.527C603.078 550.38 602.964 551.145 602.736 551.822C602.508 552.493 602.124 553.023 601.584 553.414C601.044 553.805 600.308 554 599.377 554Z" fill="white"/>
</svg>
