<svg width="587" height="519" viewBox="0 0 587 519" fill="none" xmlns="http://www.w3.org/2000/svg">
<path d="M417.45 483.37L423.256 576.001C423.256 576.001 177.648 381.77 147.049 324.94C116.45 268.111 174.048 127.531 174.048 127.531L301.841 185.855L417.45 483.37Z" fill="#ED9DA0"/>
<path d="M40.8541 88.6484L3.05573 91.6395C3.05573 91.6395 -16.7434 127.532 44.4539 130.522L40.8541 88.6484Z" fill="#ED9DA0"/>
<path d="M40.8541 143.98L3.05573 146.974C3.05573 146.974 -16.7434 182.866 44.4539 185.856L40.8541 143.98Z" fill="#ED9DA0"/>
<path d="M40.8541 203.802L3.05573 206.793C3.05573 206.793 -16.7434 242.685 44.4539 245.675L40.8541 203.802Z" fill="#ED9DA0"/>
<path d="M51.6539 263.621L13.8555 266.612C13.8555 266.612 -5.9436 302.505 55.2537 305.494L51.6539 263.621Z" fill="#ED9DA0"/>
<path d="M22.4519 103.065H25.3203V37.7835C25.3203 27.7627 30.1113 18.1523 38.6393 11.0665C47.1673 3.98075 58.7337 0 70.7941 0H237.252C249.312 0 260.879 3.98075 269.407 11.0665C277.935 18.1523 282.726 27.7627 282.726 37.7835V395.924C282.726 400.886 281.549 405.799 279.264 410.383C276.979 414.967 273.629 419.132 269.407 422.641C265.184 426.149 260.171 428.932 254.654 430.831C249.137 432.73 243.224 433.707 237.252 433.707H70.7941C64.8224 433.707 58.9092 432.73 53.3921 430.831C47.8749 428.932 42.8619 426.149 38.6393 422.641C34.4167 419.132 31.0671 414.967 28.7818 410.383C26.4966 405.799 25.3203 400.886 25.3203 395.924V149.534H22.4519V103.065Z" fill="#042637"/>
<path d="M68.9589 9.83152H90.687C89.6879 11.8668 89.3065 14.0751 89.5764 16.2617C89.8463 18.4484 90.7592 20.5463 92.2348 22.3708C93.7103 24.1953 95.7032 25.6902 98.0378 26.724C100.373 27.7579 102.977 28.2988 105.623 28.2992H200.987C203.632 28.2989 206.237 27.758 208.572 26.7242C210.907 25.6904 212.9 24.1954 214.376 22.3709C215.852 20.5463 216.765 18.4483 217.035 16.2615C217.305 14.0747 216.923 11.8663 215.924 9.8308H236.219C245.225 9.83099 253.863 12.8038 260.231 18.0952C266.599 23.3866 270.177 30.5632 270.177 38.0464V395.661C270.177 403.144 266.6 410.321 260.231 415.613C253.863 420.904 245.225 423.877 236.219 423.877H68.9589C59.9523 423.877 51.3146 420.905 44.946 415.613C38.5774 410.321 34.9995 403.145 34.9995 395.661V38.0464C34.9995 30.5629 38.5774 23.386 44.946 18.0944C51.3146 12.8029 59.9523 9.83008 68.9589 9.83008V9.83152Z" fill="white"/>
<path d="M181.492 110.017H123.687C119.858 110.017 116.754 112.596 116.754 115.777V118.626C116.754 121.807 119.858 124.386 123.687 124.386H181.492C185.32 124.386 188.424 121.807 188.424 118.626V115.777C188.424 112.596 185.32 110.017 181.492 110.017Z" fill="#FF0606"/>
<path d="M184.903 171.762H120.274C116.445 171.762 113.342 174.341 113.342 177.522V180.371C113.342 183.553 116.445 186.132 120.274 186.132H184.903C188.732 186.132 191.836 183.553 191.836 180.371V177.522C191.836 174.341 188.732 171.762 184.903 171.762Z" fill="#E5E5E5"/>
<path d="M233.252 202.632H71.9259C68.0971 202.632 64.9932 205.211 64.9932 208.392V211.241C64.9932 214.423 68.0971 217.002 71.9259 217.002H233.252C237.081 217.002 240.185 214.423 240.185 211.241V208.392C240.185 205.211 237.081 202.632 233.252 202.632Z" fill="#E5E5E5"/>
<path d="M233.252 233.5H71.9259C68.0971 233.5 64.9932 236.079 64.9932 239.26V242.11C64.9932 245.291 68.0971 247.87 71.9259 247.87H233.252C237.081 247.87 240.185 245.291 240.185 242.11V239.26C240.185 236.079 237.081 233.5 233.252 233.5Z" fill="#E5E5E5"/>
<path d="M587 531.614L575.87 521.063L385.537 340.642L378.337 218.01L302.742 113.323L281.143 68.457C281.143 68.457 230.745 72.9436 272.144 158.188L289.243 203.801C273.829 231.385 265.844 261.432 265.844 291.844V396.367C265.844 420.979 407.001 555.04 423.432 575.518L587 531.614Z" fill="#ED9DA0"/>
<path opacity="0.2" d="M287.069 122.194L302.098 116.057L301.585 115.193L287.7 120.864L266.739 75.1982L265.654 75.5424L287.069 122.194Z" fill="#4A4A4A"/>
<path opacity="0.2" d="M3.25686 91.1835L2.85547 92.0889L25.1187 98.9029L25.5201 97.9976L3.25686 91.1835Z" fill="#4A4A4A"/>
<path opacity="0.2" d="M3.25784 147.148L2.85645 148.054L25.1197 154.868L25.5211 153.962L3.25784 147.148Z" fill="#4A4A4A"/>
<path opacity="0.2" d="M3.25784 206.974L2.85645 207.879L25.1197 214.693L25.5211 213.788L3.25784 206.974Z" fill="#4A4A4A"/>
<path opacity="0.2" d="M14.9219 266.815L14.4194 267.685L25.2588 272.007L25.7612 271.137L14.9219 266.815Z" fill="#4A4A4A"/>
<path d="M152.461 372.163C180.187 372.163 202.663 353.487 202.663 330.45C202.663 307.413 180.187 288.737 152.461 288.737C124.734 288.737 102.258 307.413 102.258 330.45C102.258 353.487 124.734 372.163 152.461 372.163Z" fill="#FF0606"/>
<path d="M147.084 348.106C146.474 348.107 145.87 348.007 145.306 347.813C144.743 347.619 144.231 347.335 143.8 346.976L127.884 333.032C127.013 332.308 126.523 331.326 126.523 330.303C126.523 329.279 127.013 328.297 127.884 327.573C128.755 326.85 129.937 326.443 131.169 326.443C132.401 326.443 133.582 326.85 134.453 327.573L147.084 338.788L170.43 312.91C171.301 312.186 172.483 311.779 173.715 311.779C174.947 311.779 176.129 312.186 177 312.91C177.871 313.634 178.361 314.615 178.361 315.639C178.361 316.663 177.871 317.645 177 318.368L150.369 346.976C149.938 347.335 149.426 347.619 148.862 347.813C148.298 348.007 147.694 348.107 147.084 348.106Z" fill="#F2F2F2"/>
</svg>
