<svg width="906" height="718" viewBox="0 0 906 718" fill="none" xmlns="http://www.w3.org/2000/svg">
<g clip-path="url(#clip0_1_2394)">
<mask id="mask0_1_2394" style="mask-type:luminance" maskUnits="userSpaceOnUse" x="-39" y="0" width="945" height="718">
<path d="M906 0H-39V718H906V0Z" fill="white"/>
</mask>
<g mask="url(#mask0_1_2394)">
<path d="M865.577 491.899C868.074 493.298 869.698 495.216 869.739 497.493L870.78 683.638C870.821 688.033 864.412 691.629 856.464 691.629L521.74 691.668C517.619 691.668 514.123 690.789 511.627 689.391C506.383 686.474 505.426 681.44 511.502 678.044L569.849 645.522C575.425 642.406 575.383 637.371 569.765 634.255L226.968 444.154L203.828 431.169C192.883 425.096 192.842 415.267 203.704 409.194C214.565 403.121 232.253 403.121 243.197 409.194L248.441 412.111C259.386 418.185 275.161 417.266 286.023 411.193C296.885 405.12 296.842 395.291 285.897 389.218L238.897 362.016C227.952 355.943 227.91 346.116 238.772 340.042C249.634 333.969 267.321 333.969 278.266 340.042L325.267 367.244C336.212 373.317 353.9 373.317 364.761 367.244C375.623 361.17 375.581 351.342 364.637 345.269L303.992 311.976C293.048 305.903 293.006 296.075 303.868 290.002C314.729 283.929 332.417 283.929 343.362 290.002L423.774 334.361L766.612 524.382C772.23 527.498 781.304 527.498 786.881 524.382L845.227 491.859C851.303 488.463 860.334 488.983 865.577 491.899Z" fill="#ED5551"/>
<path d="M646.149 312.519C638.991 316.434 630.209 314.158 623.467 310.402L583.349 288.187C582.225 287.548 581.309 286.509 580.643 285.43C579.978 284.352 579.561 283.112 579.52 281.834L579.687 232.171C579.687 231.212 580.02 230.214 580.852 229.694L573.07 234.05C572.196 234.569 571.863 235.567 571.905 236.527L571.737 286.189C571.737 287.467 572.195 288.666 572.861 289.785C573.527 290.903 574.443 291.903 575.567 292.542L615.685 314.756C621.636 318.072 629.003 320.27 635.786 318.033C637.866 317.473 644.193 313.518 646.149 312.519Z" fill="#AEC7E6"/>
<path d="M679.109 295.018C678.485 283.112 671.035 270.406 660.63 263.894C660.297 263.695 659.924 263.494 659.591 263.295L583.806 221.263C582.641 220.624 581.392 220.104 580.061 219.865C578.479 219.545 576.773 219.705 575.358 220.504L567.576 224.86C570.24 223.381 573.485 224.219 576.024 225.658L651.808 267.69C652.766 268.249 653.722 268.849 654.68 269.528C655.679 270.247 656.635 271.006 657.551 271.805C664.126 277.718 668.787 285.709 670.66 294.179C671.825 299.693 671.909 306.045 667.831 310.481C666.665 311.879 645.69 324.983 643.942 326.142L651.725 321.788C652.1 321.588 652.432 321.388 652.765 321.148L673.865 307.524C677.985 304.727 679.275 299.613 679.109 295.018Z" fill="#AEC7E6"/>
<path d="M669.619 290.464C672.782 300.173 671.409 308.363 666.04 311.799L644.941 325.423C637.408 330.298 626.714 329.539 615.643 323.386L575.524 301.172C569.073 297.616 563.871 288.905 563.871 281.794L564.038 232.131C564.08 224.899 569.407 221.983 575.982 225.618L651.766 267.65C659.631 272.005 666.498 280.755 669.619 290.464ZM660.298 302.729C668.163 296.976 660.006 280.435 651.724 276.28L575.941 234.248C573.735 233.01 571.904 234.009 571.904 236.446L571.737 286.108C571.737 288.426 573.443 291.302 575.566 292.461L615.685 314.675C624.591 319.63 633.163 320.229 639.198 316.314L660.298 302.729Z" fill="#E9F0F7"/>
<path d="M692.384 286.429C692.218 283.592 691.136 280.836 690.137 278.159C687.682 272.125 683.936 266.532 679.067 262.017C677.611 260.659 676.03 259.42 674.323 258.341C673.782 257.981 673.199 257.622 672.617 257.302L579.02 205.482C577.855 204.843 576.357 204.444 575.109 205.123L554.841 216.43C556.09 215.751 557.546 216.15 558.753 216.789L652.349 268.609C656.844 271.126 660.59 274.683 663.669 278.678C666.749 282.713 669.204 287.268 670.786 292.022C671.535 294.699 673.033 297.936 671.285 300.413C671.077 300.692 670.786 300.932 670.494 301.132L690.761 289.825C691.968 289.106 692.384 287.707 692.384 286.429Z" fill="#27639E"/>
<path d="M652.349 268.609C662.129 274.044 669.662 285.59 671.909 296.018C672.908 300.533 669.954 302.689 666.582 300.732C664.169 299.414 661.963 296.417 661.297 293.34C660.215 288.466 656.886 283.272 652.308 280.715L558.711 228.895C555.673 227.217 553.218 223.102 553.218 219.785C553.218 216.429 555.715 215.071 558.753 216.749L652.349 268.609Z" fill="#114077"/>
<path d="M406.352 502.3C409.64 500.502 413.344 499.342 417.047 499.143C426.37 498.703 432.072 504.657 429.783 512.408C427.41 520.399 417.672 526.911 408.766 527.271C399.444 527.711 393.742 521.757 396.031 514.006C397.446 509.331 401.4 505.057 406.352 502.3ZM410.888 520.119C412.719 520.039 414.509 519.48 416.132 518.561C418.587 517.202 420.502 515.125 421.167 512.807C422.291 509.011 419.504 506.096 414.925 506.295C410.556 506.495 405.769 509.651 404.604 513.567C403.522 517.403 406.31 520.318 410.888 520.119Z" fill="#175294"/>
<path d="M409.723 507.853C407.268 509.211 405.353 511.29 404.645 513.607C403.522 517.403 406.31 520.318 410.888 520.119C415.258 519.959 420.044 516.763 421.209 512.847C422.915 506.135 414.675 504.856 409.723 507.853Z" fill="#E9F0F7"/>
<path d="M391.162 510.53C390.746 497.545 412.179 486.037 422.833 494.868C423.541 495.507 424.165 496.187 424.623 496.985L429.034 504.297C428.784 503.897 428.534 503.538 428.243 503.178C422.833 497.105 412.887 498.663 406.394 502.259C399.902 505.894 393.368 513.407 396.323 520.958C396.489 521.357 396.656 521.716 396.864 522.076L392.452 514.765C391.662 513.486 391.245 512.048 391.162 510.53Z" fill="#0C3461"/>
<path d="M421.167 436.056C419.544 436.616 418.463 438.254 418.504 440.691C418.587 444.726 421.584 449.441 425.246 451.198C428.825 452.916 431.821 451.159 431.78 447.004C431.821 442.249 426.661 434.778 421.167 436.056Z" fill="#E9F0F7"/>
<path d="M423.373 428.265C420.96 427.386 418.088 427.226 415.757 428.504C415.882 428.425 425.287 423.111 425.08 423.311C426.453 422.751 427.993 422.632 429.449 422.831C438.689 424.389 445.971 435.017 447.053 443.528C447.802 447.923 446.262 452.877 443.058 454.435L434.527 459.229C438.355 457.231 439.396 451.318 438.231 446.604C436.566 439.093 431.072 431.182 423.373 428.265Z" fill="#0C3461"/>
<path d="M417.048 427.946C427.993 425.149 438.813 440.651 438.689 450.36C438.813 458.79 432.654 462.386 425.372 458.87C417.922 455.314 411.762 445.684 411.637 437.414C411.554 432.42 413.719 429.065 417.048 427.946ZM425.288 451.238C428.867 452.956 431.863 451.198 431.821 447.043C431.78 442.968 428.742 438.254 425.08 436.536C421.501 434.818 418.504 436.576 418.546 440.731C418.587 444.766 421.625 449.48 425.288 451.238Z" fill="#175294"/>
<path d="M555.84 426.347C553.842 427.465 551.886 429.542 550.596 432.18C547.641 438.132 550.346 443.607 555.84 440.61C557.837 439.491 559.793 437.375 561.042 434.777C564.038 428.784 561.374 423.31 555.84 426.347Z" fill="#E9F0F7"/>
<path d="M533.908 435.696C534.116 428.465 538.029 421.434 543.48 416.559C546.31 414.162 549.888 412.003 553.801 412.363C554.717 412.443 555.633 412.723 556.423 413.163L565.204 418.037C564.913 417.877 564.58 417.717 564.247 417.597C561.458 416.598 558.337 417.518 555.841 418.876C551.055 421.593 547.559 426.028 545.187 430.783C542.814 435.817 540.899 443.647 545.394 448.003C545.728 448.323 546.102 448.602 546.518 448.801C545.769 448.322 536.946 443.647 536.613 443.088C534.532 441.29 533.908 438.374 533.908 435.696Z" fill="#0C3461"/>
<path d="M555.798 418.916C558.462 417.438 561.208 416.838 563.539 417.398C569.448 418.876 570.78 427.226 566.535 436.096C563.955 441.45 559.961 445.725 555.882 448.003C544.562 454.156 539.152 443.008 545.187 430.823C547.725 425.469 551.761 421.194 555.798 418.916ZM552.053 441.33C555.84 442.009 559.336 438.254 561.083 434.738C564.038 428.786 561.374 423.311 555.84 426.308C553.842 427.427 551.887 429.504 550.597 432.141C548.515 436.536 549.181 440.611 552.053 441.33Z" fill="#175294"/>
<path d="M516.678 534.941C516.429 535.14 516.22 535.86 516.137 537.178C515.888 540.415 516.304 545.929 517.053 549.485C517.511 551.642 518.01 552.562 518.385 552.242C518.634 552.042 518.843 551.322 518.926 550.004C519.175 546.767 518.759 541.254 518.01 537.698C517.51 535.58 517.053 534.621 516.678 534.941Z" fill="#E9F0F7"/>
<path d="M520.382 556.717C520.174 559.354 519.758 560.871 519.258 561.271C518.509 561.871 517.511 559.954 516.554 555.599C514.972 548.367 514.14 537.14 514.681 530.508C514.889 527.87 515.305 526.393 515.805 525.993C516.554 525.394 517.552 527.31 518.509 531.665C520.091 538.857 520.923 550.084 520.382 556.717ZM518.926 550.045C519.175 546.808 518.759 541.294 518.01 537.739C517.552 535.581 517.053 534.663 516.678 534.942C516.429 535.141 516.22 535.861 516.137 537.179C515.888 540.416 516.304 545.93 517.053 549.486C517.843 553.161 518.676 553.121 518.926 550.045Z" fill="#175294"/>
<path d="M520.507 554.16C520.632 548.367 520.216 542.493 519.384 536.74C518.801 533.343 518.385 529.708 516.887 526.592C516.679 526.272 516.471 525.872 516.055 525.832L528.331 524.874C528.58 524.874 528.789 525.034 528.914 525.233C529.33 525.753 529.581 526.432 529.788 527.031C531.078 530.986 531.619 535.102 532.119 539.217C532.66 544.252 532.951 549.325 532.743 554.399C532.618 555.678 532.534 560.033 531.286 560.393L519.009 561.351C519.092 561.351 519.176 561.311 519.259 561.231C519.8 560.632 519.925 559.832 520.091 558.994C520.382 557.475 520.466 555.758 520.507 554.16Z" fill="#0C3461"/>
<path d="M618.057 499.263C618.306 492.191 607.443 487.477 602.408 492.191C599.204 495.307 600.411 499.782 603.99 502.659C608.942 506.774 617.64 505.695 618.057 499.263Z" fill="#E9F0F7"/>
<path d="M627.129 500.861C626.256 514.006 608.567 516.163 598.371 507.733C591.172 501.9 588.675 492.751 595.167 486.398C605.529 476.809 627.587 486.478 627.129 500.861ZM602.408 492.151C599.204 495.267 600.411 499.742 603.99 502.619C608.984 506.734 617.64 505.695 618.098 499.223C618.306 492.191 607.443 487.477 602.408 492.151Z" fill="#175294"/>
<path d="M617.225 485.599C609.65 481.124 597.499 481.164 592.838 489.434L596.292 483.082C596.999 481.764 598.039 480.565 599.204 479.606C604.573 475.29 612.522 475.491 618.64 478.248C626.755 481.684 633.621 491.232 629.21 499.623L625.756 505.975C629.835 498.344 624.3 489.435 617.225 485.599Z" fill="#0C3461"/>
<path d="M520.631 478.487C523.919 477.328 527.124 475.731 529.663 473.494L529.704 483.242C527.581 485.2 524.46 486.838 521.589 487.917C521.298 488.036 520.963 488.156 520.673 488.236C520.631 488.236 520.631 478.487 520.631 478.487Z" fill="#98ADD4"/>
<path d="M486.964 486.957L486.922 477.209C488.504 477.928 490.209 478.527 491.874 479.046C493.956 479.646 496.077 480.084 498.242 480.404L498.283 490.153C497.493 490.033 496.743 489.914 495.994 489.754C492.915 489.195 489.835 488.276 486.964 486.957Z" fill="#98ADD4"/>
<path d="M527.54 464.463L527.498 454.714L567.118 411.764C567.95 410.845 568.366 409.847 568.366 408.887L568.408 418.636C568.408 419.595 567.991 420.593 567.159 421.513L527.54 464.463Z" fill="#AEC7E6"/>
<path d="M417.672 434.658C416.008 433.738 414.426 432.22 414.384 430.262L414.343 420.514C414.384 421.433 414.718 422.272 415.259 422.991C415.883 423.79 416.716 424.389 417.589 424.909L478.683 458.99L478.725 468.738L417.672 434.658Z" fill="#AEC7E6"/>
<path d="M529.663 473.454L615.268 481.005C616.517 481.124 617.807 481.085 619.055 480.965C622.468 480.645 627.171 479.087 628.211 475.771C628.294 475.411 628.378 475.092 628.336 474.732L628.378 484.481C628.378 484.801 628.336 485.16 628.253 485.52C626.671 489.955 619.679 491.153 615.31 490.753L529.704 483.202L529.663 473.454Z" fill="#AEC7E6"/>
<path d="M393.202 494.269C394.45 498.704 401.15 499.982 405.354 499.782C406.768 499.702 408.184 499.503 409.557 499.143L486.964 477.249L487.005 486.997L409.598 508.892C409.182 509.011 408.725 509.132 408.267 509.212C405.895 509.651 403.439 509.691 401.109 509.291C398.112 508.732 394.741 507.494 393.451 504.657C393.285 504.217 393.201 503.778 393.201 503.339L393.159 493.59C393.118 493.79 393.16 494.03 393.202 494.269Z" fill="#AEC7E6"/>
<path d="M511.726 528.589C514.39 533.823 524.211 534.263 529.163 532.225C531.618 531.386 534.157 529.228 534.032 527.071L534.074 536.819C534.074 538.537 532.826 540.136 530.745 541.294C527.415 543.052 523.337 543.452 519.591 542.893C516.429 542.333 512.683 541.015 511.6 537.858L498.325 490.233L498.283 480.484L511.559 528.07C511.6 528.269 511.684 528.43 511.726 528.589Z" fill="#AEC7E6"/>
<path d="M417.714 416.04C413.303 418.476 413.261 422.472 417.672 424.909L478.765 458.99C477.142 461.227 476.477 463.624 476.768 465.981L399.361 487.877C398.279 488.197 397.321 488.596 396.489 489.035C393.118 490.913 392.077 493.869 394.366 496.346C397.196 499.422 403.981 500.661 409.557 499.103L486.964 477.209C490.335 478.767 494.246 479.845 498.283 480.404L511.56 528.07C513.059 533.423 525.001 534.942 530.703 531.546C533.2 530.188 534.49 528.19 533.907 526.112L520.632 478.487C522.422 477.848 524.127 477.128 525.667 476.289C527.249 475.41 528.539 474.492 529.663 473.493L615.268 481.045C620.262 481.444 626.671 480.084 628.211 475.81C629.21 472.374 625.006 469.138 618.847 468.619L533.242 461.068C532.201 458.79 530.328 456.632 527.498 454.754L567.118 411.804C569.948 408.728 567.783 404.932 562.207 403.334C556.756 401.936 550.637 402.575 546.975 406.091L507.356 449.081C503.111 448.922 498.783 449.28 494.746 450.159L433.652 416.079C429.283 413.563 422.125 413.563 417.714 416.04Z" fill="#E9F0F7"/>
<path d="M518.967 414.921C511.102 419.276 498.242 419.276 490.418 414.921C486.506 412.763 484.508 409.886 484.508 407.01V463.425C484.508 466.301 486.464 469.178 490.418 471.336C498.283 475.691 511.143 475.691 518.967 471.336C522.88 469.178 524.877 466.301 524.877 463.425V407.01C524.835 409.886 522.88 412.763 518.967 414.921Z" fill="#AEC7E6"/>
<path d="M518.967 399.099C511.102 394.743 498.242 394.743 490.418 399.099C482.553 403.454 482.553 410.565 490.418 414.921C498.283 419.276 511.143 419.276 518.967 414.921C522.879 412.763 524.877 409.886 524.877 407.01C524.835 404.133 522.879 401.256 518.967 399.099Z" fill="#98ADD4"/>
<path d="M516.054 364.339C509.769 367.815 499.533 367.815 493.248 364.339C490.127 362.621 488.545 360.304 488.545 358.026V405.851C488.545 408.129 490.127 410.446 493.248 412.164C499.533 415.64 509.769 415.64 516.054 412.164C519.175 410.446 520.756 408.129 520.756 405.851V358.026C520.756 360.304 519.216 362.621 516.054 364.339Z" fill="#AEC7E6"/>
<path d="M516.055 351.714C509.77 348.238 499.533 348.238 493.248 351.714C486.964 355.19 486.964 360.863 493.248 364.339C499.533 367.815 509.77 367.815 516.055 364.339C519.176 362.621 520.758 360.304 520.758 358.026C520.758 355.749 519.217 353.432 516.055 351.714Z" fill="#98ADD4"/>
<path d="M517.51 80.4663C523.711 83.9023 529.412 91.6138 531.119 99.4849C533.116 108.794 534.781 117.744 536.529 126.454C540.774 145.871 550.762 202.605 557.42 220.185C561.166 230.853 565.827 240.761 572.111 250.35C591.505 279.277 619.013 298.735 651.225 316.914C659.048 321.229 665.333 331.737 665.333 340.366C665.291 348.996 658.965 352.472 651.142 348.117C598.538 319.351 554.382 280.076 534.157 225.819C529.496 213.713 526.042 201.368 523.295 189.101C518.717 167.446 508.021 113.309 503.818 92.6528C501.197 80.9867 508.77 75.392 517.51 80.4663Z" fill="#ED4944"/>
<path d="M361.998 167.071C368.198 170.507 374.142 178.913 375.848 186.784C377.845 196.093 379.631 204.927 381.379 213.637C385.624 233.054 395.733 289.557 402.391 307.137C406.136 317.805 410.556 327.713 416.84 337.302C436.234 366.228 462.535 386.034 494.746 404.213C502.57 408.528 508.854 419.036 508.854 427.666C508.813 436.296 502.487 439.772 494.663 435.417C442.059 406.611 397.904 367.335 377.678 313.078C373.017 300.972 369.563 288.627 366.816 276.361C362.238 254.706 351.543 200.568 347.34 179.912C344.718 168.286 353.299 161.996 361.998 167.071Z" fill="#144B8A"/>
<path d="M508.854 427.586C508.896 418.956 502.571 408.488 494.747 404.132C481.679 396.9 470.4 389.749 460.745 382.757C438.813 366.816 421.293 349.596 409.308 326.862C403.439 315.714 399.402 304.088 396.24 291.863C394.159 283.832 381.758 222.383 380.051 213.713C378.345 205.043 376.68 196.052 374.641 186.743C372.394 177.514 365.943 168.804 357.286 166.207C354.956 165.608 352.958 165.808 351.293 166.607C351.252 166.567 507.44 79.4673 507.44 79.4673C510.187 77.8291 514.515 78.6287 517.511 80.4265C523.711 83.8625 529.413 91.5731 531.12 99.4442C536.364 123.936 546.892 180.032 552.719 204.563C556.922 220.825 562.79 236.127 572.112 250.271C583.89 268.05 598.789 281.953 617.266 295.418C626.921 302.41 638.199 309.561 651.267 316.793C659.091 321.109 665.375 331.616 665.375 340.246C665.375 344.522 663.794 347.518 661.255 348.957L504.776 436.256C507.273 434.898 508.854 431.901 508.854 427.586Z" fill="#3D75A9"/>
<path d="M568.654 144.343C562.421 91.0408 623.866 94.1023 637.115 124.72C648.543 151.119 692.705 204.159 709.287 168.464C715.908 154.155 765.292 174.213 761.412 187.461C737.953 267.253 580.576 246.283 568.654 144.343Z" fill="#AEC7E6"/>
<path d="M577.625 315.731C614.651 291.108 653.362 296.095 684.105 308.467C717.087 321.763 740.887 343.522 743.779 346.222C753.927 355.688 785.758 307.212 775.533 296.308C758.152 277.709 727.205 253.392 689.314 239.517C649.258 224.874 601.206 221.964 553.6 249.866C519.622 269.815 535.233 343.943 577.625 315.731Z" fill="#0C3461"/>
<path d="M841.995 272.295C838.13 262.535 817.159 256.101 805.376 268.074C793.593 280.047 789.805 289.855 779.464 295.845C772.5 299.89 770.876 300.403 767.972 298.993C760.918 295.531 735.782 335.365 746.43 344.034C757.078 352.703 761.218 365.779 779.171 368.327C792.47 370.218 804.507 339.435 815.935 323.308C827.404 307.141 845.818 281.895 841.995 272.295Z" fill="#071F3B"/>
<path d="M780.76 368.373C781.675 368.457 782.841 368.181 784.257 367.468C784.257 367.468 784.257 367.468 784.299 367.469C784.34 367.469 784.383 367.429 784.425 367.429C795.676 362.243 806.019 337.285 815.981 323.267C826.152 308.931 841.803 287.469 842.521 276.091C842.527 274.652 842.16 273.213 840.915 272.529C838.012 270.96 823.403 282.722 815.92 300.344C808.438 317.965 791.413 339.742 783.964 350.016C777.729 358.657 776.021 368.034 780.76 368.373Z" fill="#114077"/>
<path d="M430.657 304.92C431.532 326.492 466.839 327.864 485.93 324.642C508.929 320.774 576.823 288.085 576.201 272.745C574.097 220.893 610.137 196.402 619.675 182.371C622.45 178.281 624.54 173.653 625.995 168.685C633.426 143.563 624.513 110.694 606.493 104.56C590.152 98.9717 577.853 102.132 557.061 115.488C557.061 115.488 523.695 134.414 508.947 143.573C489.915 155.393 475.579 166.54 465.324 177.193C459.282 183.47 454.685 189.619 451.365 195.607C432.492 229.701 430.003 288.822 430.657 304.92Z" fill="#DCE9F5"/>
<path d="M430.19 304.918C431.066 326.493 466.422 327.865 485.538 324.643C508.525 320.736 576.511 288.083 575.888 272.741C575.187 255.481 578.716 241.284 584.085 229.468C571.408 245.162 483.198 316.037 491.522 239.155C492.422 230.685 510.693 199.567 490.395 200.226C470.097 200.886 461.551 217.167 459.306 228.281C457.061 239.395 458.135 254.603 448.789 261.427C444.036 264.902 438.743 261.233 433.381 255.846C430.314 277.349 429.857 296.728 430.19 304.918Z" fill="#AEC7E6"/>
<path d="M578.458 194.379C578.458 194.379 581.071 217.043 560.894 220.271C547.538 222.393 536.083 204.741 531.778 199.086L522.935 215.332C522.935 215.332 554.622 239.469 578.837 221.754C590.904 212.917 585.818 191.417 585.818 191.417L586.306 177.127L578.002 183.08L564.565 185.245L578.458 194.379Z" fill="#ED4944"/>
<path d="M460.763 175.281C460.763 175.281 482.06 171.976 496.728 188.242C515.312 208.856 531.666 250.255 575.052 224.029C575.052 224.029 559.669 232.855 539.504 204.537C518.411 174.93 503.436 155.435 477.968 152.401L462.493 159.111L460.763 175.281Z" fill="#FF8666"/>
<path d="M578.42 183.083C578.42 183.083 585.234 185.659 587.847 191.252C587.847 191.252 607.962 146.606 570.213 136.562C570.211 136.522 594.383 154.008 578.42 183.083Z" fill="#AEC7E6"/>
<path d="M599.528 175.573C599.528 175.573 589.638 176.214 578.425 183.099C567.212 189.984 549.022 182.454 539.76 162.83C527.596 137.14 541.875 127.075 547.977 127.156C567.57 127.36 579.954 123.757 591.556 123.381C615.88 122.591 633.759 169.46 599.528 175.573Z" fill="#F2A29B"/>
<path d="M576.623 184.468C576.623 184.468 575.839 196.773 569.603 201.976C569.603 201.976 540.053 183.381 533.285 165.165C528.002 150.979 526.992 136.214 538.271 130.047C546.435 125.542 555.387 127.249 557.372 128.304C557.37 128.265 531.773 154.335 576.623 184.468Z" fill="#AEC7E6"/>
<path d="M578.197 183.098C578.197 183.098 577.414 195.402 571.178 200.605C571.178 200.605 541.628 182.01 534.86 163.794C529.576 149.608 528.566 134.843 539.845 128.677C548.009 124.171 556.962 125.879 558.946 126.934C558.943 126.854 533.346 152.925 578.197 183.098Z" fill="#DCE9F5"/>
<path d="M670.866 79.0002C670.603 81.5272 669.988 103.658 669.337 130.706C668.928 148.03 662.688 172.703 645.745 181.613C622.631 193.805 589.231 185.582 569.454 166.039C549.677 146.497 543.155 123.442 540.958 89.6504C539.129 61.5244 571.866 28.5073 618.029 33.2731C667.299 38.3373 670.578 62.7371 670.866 79.0002Z" fill="#FFC5B3"/>
<path d="M558.074 151.497C558.074 151.497 561.354 156.379 577.59 152.756C578.854 152.474 581.013 151.921 585.374 154.37C587.746 155.728 593.647 155.847 593.44 151.461L592.896 139.018C592.033 132.936 592.319 125.858 603.39 125.484C614.173 125.119 627.987 126.97 658.999 114.1C704.124 95.4022 677.229 79.2565 677.229 79.2565C677.229 79.2565 679.949 76.608 680.905 72.3824C681.314 70.5714 681.422 68.4906 680.82 66.1945C678.654 57.8403 671.319 56.1314 671.319 56.1314C671.319 56.1314 654.345 28.2678 626.001 25.1117C568.112 18.6796 555.322 52.6608 555.322 52.6608C546.437 54.798 538.834 74.5858 538.197 87.3477C536.181 129.512 552.347 143.663 558.074 151.497Z" fill="#114077"/>
<path d="M557.431 151.506C557.431 151.506 560.726 156.385 577.043 152.769C578.314 152.487 580.484 151.936 584.866 154.385C587.25 155.743 593.179 155.865 592.972 151.48L592.427 139.044C591.561 132.965 591.848 125.891 602.975 125.52C613.811 125.16 627.692 127.013 658.86 114.16C690.638 101.087 686.89 89.2363 681.805 83.2979C687.005 96.9361 634.371 113.139 620.672 114.273C604.082 115.623 593.667 104.714 577.08 106.103C568.373 106.832 550.366 115.016 542.74 106.129C540.461 103.49 538.896 100.19 537.293 96.9296C537.939 131.716 552.12 144.298 557.431 151.506Z" fill="#0C3461"/>
<path d="M668.634 83.031C671.27 82.2228 674.299 81.0415 678.042 79.2767C678.042 79.2767 680.756 76.6275 681.71 72.401C682.118 70.5896 682.226 68.5083 681.625 66.2117C681.575 66.014 681.523 65.7755 681.431 65.5792C680.791 67.7184 679.862 69.8276 678.591 71.6682C675.858 75.6758 671.756 78.5705 667.579 80.7099C666.215 81.4351 667.135 83.5215 668.634 83.031Z" fill="#0C3461"/>
<path d="M583.566 138.609L585.163 159.748C585.364 162.54 583.005 164.018 580.63 163.176C573.63 160.726 568.898 153.684 566.893 146.114C563.475 133.311 564.767 123.153 575.779 128.27C577.287 128.979 583.103 132.546 583.566 138.609Z" fill="#FFC5B3"/>
<path d="M640.538 161.183C638.977 162.115 637.805 164.313 637.889 166.107L637.997 168.42C638.372 175.559 643.683 178.294 649.921 174.487C656.16 170.681 660.927 161.811 660.591 154.631L660.483 152.318C660.401 150.563 659.053 149.889 657.534 150.82L640.538 161.183Z" fill="#6A0000"/>
<path d="M664.996 125.601C663.133 126.744 661.774 130.907 661.955 134.898C662.135 138.889 663.829 141.19 665.692 140.047C667.556 138.904 668.915 134.741 668.734 130.75C668.512 126.76 666.859 124.458 664.996 125.601Z" fill="#6A0000"/>
<path d="M631.158 137.846C629.873 138.648 628.723 139.685 627.896 140.55C627.069 141.416 626.561 142.073 626.522 142.114C626.094 142.687 625.966 143.45 626.23 143.801C626.406 144.034 626.738 144.063 627.1 143.851C627.261 143.766 627.419 143.601 627.577 143.436L627.614 143.355C627.654 143.314 627.73 143.192 627.809 143.109C628.006 142.903 628.28 142.574 628.635 142.203C629.304 141.502 630.255 140.632 631.261 140.039C631.261 140.039 631.262 140.039 631.303 140.038C631.946 139.656 632.635 139.353 633.25 139.253C633.906 139.151 634.531 139.25 635.169 139.628C635.381 139.741 635.628 139.732 635.91 139.563C636.152 139.436 636.347 139.189 636.54 138.904C636.925 138.292 636.933 137.572 636.55 137.346C635.74 136.814 634.824 136.685 633.88 136.836C632.934 136.948 632.002 137.339 631.158 137.846Z" fill="#6A0000"/>
<path d="M631.551 145.627C629.687 146.77 628.328 150.933 628.509 154.924C628.69 158.915 630.384 161.216 632.247 160.073C634.11 158.93 635.469 154.767 635.288 150.776C635.067 146.786 633.414 144.484 631.551 145.627Z" fill="#6A0000"/>
<path d="M664.841 117.692C663.998 118.2 663.083 118.909 662.219 119.857C661.355 120.805 660.505 122.031 659.79 123.493C659.448 124.143 659.521 124.819 659.941 124.965C660.11 125.039 660.357 124.991 660.598 124.863C660.837 124.695 661.113 124.407 661.304 124.081C661.871 122.983 662.45 122.125 663.079 121.465C663.708 120.804 664.343 120.265 664.985 119.883C665.87 119.374 666.681 119.067 667.374 118.884C668.067 118.701 668.562 118.685 668.768 118.678C668.809 118.676 668.85 118.675 668.85 118.675C669.014 118.669 669.178 118.624 669.339 118.539C669.66 118.329 669.972 117.958 670.116 117.514C670.331 116.828 670.141 116.275 669.685 116.251C669.644 116.252 669.106 116.231 668.246 116.379C667.345 116.529 666.165 116.889 664.841 117.692Z" fill="#6A0000"/>
<path d="M777.079 149.302C766.635 190.88 746.601 190.546 731.563 181.045C711.837 168.56 721.95 141.472 728.531 131.672C739.972 127.093 779.987 137.792 777.079 149.302Z" fill="#F2A29B"/>
<path d="M744.67 170.869C749.449 163.939 747.822 147.792 726.61 141.823C726.61 141.823 726.298 133.642 718.029 124.722C711.073 117.208 699.422 124.625 703.065 131.285C705.716 136.106 708.164 145.333 709.496 149.071C709.496 149.071 713.709 160.385 717.869 167.238C725.123 179.192 737.946 180.639 744.67 170.869Z" fill="#F2A29B"/>
<path d="M661.074 139.603C661.578 143.456 663.309 147.71 667.14 149.423L674.801 152.847C674.454 152.681 674.11 152.513 673.798 152.303C670.616 150.285 669.237 146.559 668.735 143.027C668 137.104 669.402 131.089 671.827 125.777C674.228 120.588 677.802 115.685 682.76 112.698C685.618 111.005 689.301 110.036 692.57 111.482L684.909 108.058C684.177 107.728 683.38 107.525 682.6 107.442C677.294 106.842 672.519 110.617 669.316 114.316C663.625 120.999 660.019 130.612 661.074 139.603Z" fill="#F9B142"/>
<path d="M668.873 143.036C670.243 153.202 678.064 156.61 686.315 150.598C694.566 144.587 700.18 131.432 698.81 121.266C697.439 111.1 689.618 107.692 681.367 113.704C673.117 119.715 667.503 132.869 668.873 143.036Z" fill="#6A0000"/>
<path d="M673.439 139.618C672.848 132.429 675.999 124.874 681.138 119.98C683.285 118.038 686.037 116.359 689.09 116.623C689.715 116.722 690.385 116.857 690.951 117.124L718.9 129.472C717.642 128.912 716.248 128.848 714.936 129.097C707.547 130.871 702.772 139.713 701.579 146.674C700.977 150.719 701.07 155.701 704.448 158.71C704.904 159.068 705.399 159.422 705.919 159.652L677.97 147.304C674.976 145.948 673.715 142.61 673.439 139.618Z" fill="#E83838"/>
<path d="M723.44 136.605C724.469 144.024 720.409 153.604 714.406 157.991C708.403 162.377 702.735 159.89 701.706 152.471C700.677 145.051 704.737 135.47 710.74 131.084C716.749 126.737 722.456 129.221 723.44 136.605ZM714.009 155.013C718.649 151.61 721.78 144.174 721.013 138.418C720.246 132.662 715.826 130.733 711.147 134.14C706.508 137.544 703.376 144.98 704.143 150.736C704.95 156.488 709.37 158.417 714.009 155.013Z" fill="#ED4944"/>
<path d="M711.188 134.136C706.549 137.54 703.417 144.977 704.184 150.733C704.951 156.489 709.371 158.417 714.05 155.01C718.689 151.606 721.821 144.17 721.054 138.414C720.242 132.623 715.827 130.733 711.188 134.136Z" fill="#ED4944"/>
<path d="M700.951 152.489C701.297 155.072 702.357 157.787 704.682 159.251C708.536 161.13 676.539 146.859 677.375 147.301C676.767 147.038 676.183 146.652 675.709 146.175C673.842 144.465 673.098 141.96 672.858 139.568C672.821 139.29 672.824 139.007 672.787 138.729L700.834 151.01C700.823 151.534 700.887 152.011 700.951 152.489Z" fill="#C21717"/>
<path d="M675.722 109.234L683.545 112.71C685.019 111.884 686.559 111.254 688.221 110.936C688.627 110.858 689.037 110.82 689.447 110.781L681.583 107.31C679.521 107.422 677.504 108.218 675.722 109.234Z" fill="#FBC977"/>
<path d="M665.406 120.039L673.168 123.488C673.974 122.042 674.907 120.622 675.896 119.319C676.676 118.317 677.502 117.351 678.414 116.418L670.653 112.969C670.357 113.238 670.068 113.549 669.818 113.855C668.08 115.754 666.652 117.824 665.406 120.039Z" fill="#FBC977"/>
<path d="M660.287 139.581C660.749 142.998 662.011 146.621 664.995 148.668C665.683 149.286 672.998 152.404 673.994 152.872C673.175 152.508 672.411 151.937 671.728 151.359C668.958 148.728 667.989 144.836 667.824 141.188C667.819 141.148 667.814 141.108 667.814 141.108L660.132 137.663C660.165 138.264 660.208 138.944 660.287 139.581Z" fill="#F89D1F"/>
<path d="M711.078 162.085C710.908 162.022 710.778 161.955 710.609 161.892L706.189 159.933C706.918 160.26 707.747 160.416 708.519 160.457C712.394 160.463 715.595 157.843 717.968 155.068C722.296 149.721 724.95 142.415 723.766 135.382C723.296 132.776 721.917 130.023 719.343 128.88C719.603 129.014 724.228 130.994 724.283 131.108C726.03 132.095 727.154 133.869 727.768 135.736C730.027 143.263 726.622 152.494 721.548 157.998C718.96 160.675 715.083 163.363 711.078 162.085Z" fill="#ED4944"/>
<path d="M696.295 156.37C696.771 159.939 698.12 163.701 701.089 166.01C702.277 167.054 705.965 168.406 707.388 169.104C706.874 168.875 706.394 168.602 705.949 168.286C702.436 165.832 701.048 161.471 700.632 157.454C699.577 146.225 705.361 132.769 714.268 126.108C717.607 123.635 722.121 121.805 726.328 123.425C725.649 123.172 721.994 121.457 721.405 121.277C720.647 121.032 719.819 120.876 719.008 120.839C713.947 120.674 709.5 123.904 706.208 127.336C699.446 134.662 694.98 146.214 696.295 156.37Z" fill="#F9B142"/>
<path d="M733.51 134.387C735.054 145.565 728.962 160.016 719.956 166.605C710.956 173.233 702.382 169.527 700.838 158.349C699.295 147.17 705.386 132.721 714.392 126.132C723.393 119.504 731.961 123.169 733.51 134.387ZM719.053 160.185C725.187 155.659 729.355 145.826 728.292 138.217C727.228 130.608 721.395 128.068 715.261 132.595C709.127 137.121 704.959 146.954 706.022 154.563C707.086 162.172 712.913 164.672 719.053 160.185Z" fill="#6A0000"/>
<path d="M721.617 130.567C726.328 136.654 723.369 146.928 719.62 152.654C717.072 156.409 713.337 160.363 708.414 160.453C702.04 152.76 708.021 137.719 715.278 132.527C717.424 130.986 719.514 130.254 721.381 130.308C721.471 130.38 721.567 130.491 721.617 130.567Z" fill="#ED4944"/>
<g opacity="0.4">
<path d="M706.486 157.264C706.94 158.545 707.568 159.606 708.365 160.411C708.936 160.433 709.496 160.377 710.086 160.237L723.425 143.454C723.979 140.906 724.185 138.191 723.716 135.584C723.721 135.624 706.486 157.264 706.486 157.264Z" fill="#ED4944"/>
</g>
<g opacity="0.4">
<path d="M705.982 154.503C706.024 154.821 706.072 155.176 706.154 155.49L723.418 133.768C723.224 133.224 723.036 132.721 722.767 132.225C722.483 131.61 722.083 131.048 721.648 130.529L705.911 150.328C705.781 151.789 705.807 153.194 705.982 154.503Z" fill="#ED4944"/>
</g>
<path d="M710.283 124.238C710.248 124.281 710.206 124.285 710.17 124.329L714.69 126.32C715.859 125.443 717.083 124.681 718.415 124.11C718.649 124.007 718.886 123.904 719.12 123.801C719.079 123.805 714.595 121.77 714.559 121.813C713.068 122.439 711.604 123.265 710.283 124.238Z" fill="#FBC977"/>
<path d="M700.763 135.115C700.698 135.242 700.627 135.33 700.602 135.453L705.078 137.433C705.839 136.031 706.645 134.663 707.584 133.364C708.346 132.284 709.152 131.24 710.011 130.27L705.534 128.29C703.677 130.403 702.089 132.691 700.763 135.115Z" fill="#FBC977"/>
<path d="M695.276 155.612C695.601 158.961 696.587 162.407 698.884 164.962C699.587 165.738 700.439 166.421 701.389 166.892C701.478 166.964 706.068 169.013 706.368 169.145C703.069 167.694 701.116 164.302 700.305 160.959C699.903 159.308 699.655 157.601 699.653 155.911C699.619 155.633 699.661 155.306 699.627 155.028L695.169 153.047C695.145 153.854 695.17 154.736 695.276 155.612Z" fill="#F89D1F"/>
<path d="M704.374 156.637C703.619 147.686 707.543 138.122 713.733 131.803C716.895 128.677 721.434 125.742 726.213 126.852C726.639 126.971 727.064 127.092 727.501 127.291C726.173 126.855 804.275 160.969 798.019 158.592C795.14 157.903 792.221 158.789 789.784 160.233C781.579 165.255 776.484 175.901 776.07 185.327C776.001 189.524 776.744 194.286 780.161 197.219C780.76 197.726 781.384 198.108 782.084 198.443L710.319 166.699C706.399 164.942 704.72 160.552 704.374 156.637Z" fill="#E83838"/>
<path d="M805.162 168.34C806.468 178.03 801.129 190.512 793.285 196.241C785.436 201.931 778.005 198.726 776.699 189.036C775.393 179.347 780.732 166.864 788.581 161.174C796.425 155.444 803.855 158.651 805.162 168.34Z" fill="#ED4944"/>
<path d="M719.763 159.075L775.701 183.943C775.68 184.429 775.608 184.839 775.632 185.36C775.544 188.268 775.88 191.297 777.148 193.914C778.049 195.881 779.567 197.548 781.562 198.443C781.562 198.443 716.338 169.394 716.605 169.569L709.799 166.558C708.314 165.814 707.063 164.647 706.232 163.236C704.434 160.308 703.997 156.806 704.117 153.492C704.546 145.435 708.022 137.489 713.697 131.747C716.653 128.845 720.591 126.252 724.975 126.595C725.809 126.716 726.649 126.878 727.432 127.246L733.546 129.961C733.546 129.961 725.206 129.433 718.399 138.585C716.435 141.231 715.077 143.818 714.217 146.116C712.292 151.053 714.822 156.892 719.763 159.075Z" fill="#C21717"/>
<path d="M787.023 195.381C786.853 195.318 786.723 195.25 786.554 195.186L782.129 193.221C782.859 193.55 783.689 193.707 784.463 193.749C788.226 193.771 791.374 191.281 793.733 188.629C798.2 183.271 800.971 175.793 799.793 168.714C799.328 166.106 797.951 163.35 795.374 162.204C795.634 162.338 800.265 164.323 800.32 164.438C802.068 165.428 803.191 167.205 803.802 169.073C806.052 176.607 802.622 185.84 797.527 191.342C794.93 194.017 791.079 196.7 787.023 195.381Z" fill="#6A0000"/>
<path d="M772.144 188.978C772.546 192.637 773.746 196.538 776.665 199.058C777.964 200.333 781.693 201.645 783.334 202.444C782.864 202.251 782.424 201.973 781.983 201.696C778.471 199.276 777.014 194.961 776.605 190.94C775.554 179.908 781.038 166.966 789.503 160.076C793.081 157.181 798.154 154.898 802.785 156.923C802.275 156.733 798.019 154.791 797.639 154.668C796.795 154.392 795.965 154.235 795.112 154.201C790.364 154.038 786.246 156.827 783.025 159.968C775.803 167.093 771.187 178.659 772.144 188.978Z" fill="#F9B142"/>
<path d="M809.598 167.685C811.122 178.872 804.988 193.324 795.951 199.908C786.919 206.531 778.334 202.814 776.81 191.628C775.287 180.441 781.42 165.988 790.458 159.405C799.49 152.782 808.074 156.499 809.598 167.685ZM795.059 193.484C801.215 188.961 805.411 179.126 804.361 171.511C803.311 163.897 797.471 161.35 791.315 165.873C785.159 170.396 780.963 180.231 782.013 187.845C783.023 195.464 788.903 198.007 795.059 193.484Z" fill="#CC5E04"/>
<path d="M781.932 187.835C782.274 190.174 782.975 192.156 784.439 193.78C784.598 193.764 784.764 193.788 784.883 193.776C790.291 193.356 794.427 188.396 796.85 183.97C799.248 179.345 800.7 173.97 799.779 168.712C799.419 166.857 798.738 165.034 797.425 163.636C795.552 163.542 793.466 164.314 791.318 165.856C785.189 170.411 780.967 179.725 781.932 187.835Z" fill="#114077"/>
<path d="M781.828 186.032L798.627 165.056C798.414 164.675 798.16 164.299 797.872 163.965C797.822 163.889 797.776 163.854 797.726 163.778L781.942 183.487C781.851 184.34 781.799 185.19 781.828 186.032Z" fill="#5386B4"/>
<path d="M782.864 191.553C783.259 192.399 783.742 193.276 784.417 193.772C785.97 193.818 787.529 193.302 788.857 192.567L798.298 180.767C798.328 180.684 798.358 180.601 798.388 180.518C799.589 177.261 800.266 173.734 799.964 170.184C799.953 170.105 782.864 191.553 782.864 191.553Z" fill="#5386B4"/>
<path d="M786.309 157.563C786.273 157.606 786.231 157.61 786.195 157.654L790.714 159.65C791.848 158.777 793.119 158.011 794.456 157.441C794.691 157.338 794.928 157.234 795.163 157.131L790.645 155.135C789.107 155.764 787.637 156.59 786.309 157.563Z" fill="#FBC977"/>
<path d="M776.772 168.44C776.706 168.567 776.634 168.655 776.609 168.778L781.091 170.765C781.82 169.366 782.676 167.994 783.623 166.695C784.392 165.614 785.207 164.57 786.072 163.6L781.59 161.614C779.671 163.691 778.114 166.015 776.772 168.44Z" fill="#FBC977"/>
<path d="M771.261 188.864C771.628 192.893 773.005 197.227 776.464 199.669C777.402 200.382 781.242 201.942 782.362 202.477C782.232 202.409 782.061 202.346 781.932 202.278C778.819 200.689 777.042 197.4 776.245 194.176C775.916 192.8 775.698 191.331 775.649 189.927C775.627 189.406 775.604 188.885 775.617 188.32L771.198 186.335C771.179 187.181 771.195 187.984 771.261 188.864Z" fill="#F89D1F"/>
<path d="M729.358 111.428C720.39 109.734 712.775 115.885 712.224 129.549C711.642 144.384 724.991 142.404 727.87 135.006C728.93 132.329 728.703 131.786 728.703 131.786L740.309 133.394C740.309 133.394 743.071 114.086 729.358 111.428Z" fill="#F2A29B"/>
<path d="M741.309 110.809C731.112 108.868 722.395 115.889 721.772 131.452C721.099 148.388 736.313 146.073 739.575 137.672C740.759 134.621 740.562 133.995 740.562 133.995L753.807 135.811C753.766 135.815 756.923 113.812 741.309 110.809Z" fill="#FCB1A2"/>
<path d="M753.6 113.616C743.404 111.675 734.687 118.696 734.064 134.259C733.391 151.195 748.605 148.88 751.867 140.479C753.05 137.428 752.854 136.802 752.854 136.802L766.098 138.619C766.057 138.622 769.215 116.619 753.6 113.616Z" fill="#FFBDAB"/>
<path d="M769.339 123.373C759.6 119.735 750.669 122.789 747.23 138.016C743.523 154.517 758.973 154.84 763.728 147.142C765.436 144.323 765.587 143.826 765.587 143.826L777.544 149.109C777.539 149.069 784.271 128.941 769.339 123.373Z" fill="#FFC5B3"/>
<path d="M595.633 413.804C595.633 413.804 603.179 439.241 608.703 451.53C610.683 455.923 616.762 457.708 621.46 455.241L703.804 411.092C711.333 407.179 713.262 398.465 707.988 392.448C702.212 385.857 692.401 379.501 676.656 381.576C663.386 383.336 658.353 387.099 652.844 389.767C648.697 391.805 642.059 387.383 638.056 384.561C632.88 380.933 619.569 381.439 609.092 386.747C596.529 393.174 591.237 403.926 595.633 413.804Z" fill="#071F3B"/>
<path d="M556.667 261.213C536.82 259.446 505.305 286.741 488.742 303.952C452.39 341.713 443.974 354.978 447.219 357.562C447.219 357.562 484.234 391.5 552.579 347.607C552.579 347.607 583.875 403.401 589.087 414.601C589.947 416.419 592.082 417.317 594.069 416.669C600.292 414.63 611.911 409.822 626.452 401.803C638.544 395.15 644.522 391.354 647.698 389.454C649.309 388.486 650.164 386.556 649.453 384.873C644.831 374.297 630.304 341.762 611.296 308.697C598.322 286.117 582.061 263.474 556.667 261.213Z" fill="#114077"/>
<path d="M482.095 403.453C474.937 407.369 466.154 405.092 459.413 401.336L419.295 379.122C418.171 378.483 417.255 377.444 416.589 376.365C415.924 375.286 415.507 374.047 415.465 372.768L415.633 323.106C415.633 322.147 415.966 321.149 416.798 320.629L409.016 324.984C408.142 325.504 407.809 326.502 407.85 327.461L407.683 377.124C407.683 377.484 407.726 377.843 407.809 378.203C407.975 379.082 408.349 379.961 408.807 380.719C409.473 381.838 410.389 382.837 411.513 383.476L451.631 405.691C457.582 409.007 464.949 411.205 471.732 408.967C473.77 408.368 480.139 404.452 482.095 403.453Z" fill="#AEC7E6"/>
<path d="M515.014 385.954C514.39 374.048 506.941 361.342 496.536 354.83C496.203 354.63 495.829 354.43 495.496 354.23L419.711 312.199C418.546 311.559 417.298 311.04 415.966 310.801C414.384 310.481 412.678 310.641 411.263 311.44L403.481 315.795C406.145 314.316 409.391 315.155 411.929 316.594L487.714 358.626C488.671 359.185 489.628 359.784 490.585 360.463C491.584 361.182 492.541 361.942 493.457 362.741C500.032 368.653 504.694 376.644 506.566 385.115C507.731 390.628 507.815 396.981 503.736 401.416C502.571 402.814 481.596 415.919 479.848 417.078L487.63 412.723C488.005 412.524 488.338 412.323 488.671 412.084L509.77 398.46C513.932 395.663 515.222 390.549 515.014 385.954Z" fill="#AEC7E6"/>
<path d="M505.566 381.399C508.729 391.108 507.356 399.298 501.987 402.734L480.888 416.359C473.355 421.233 462.66 420.475 451.59 414.322L411.471 392.107C405.02 388.551 399.818 379.841 399.818 372.73L399.985 323.067C400.027 315.835 405.354 312.918 411.929 316.554L487.713 358.586C495.578 362.941 502.404 371.691 505.566 381.399ZM496.203 393.665C504.068 387.911 495.911 371.371 487.63 367.216L411.846 325.184C409.64 323.945 407.809 324.944 407.809 327.381L407.643 377.044C407.643 379.361 409.348 382.238 411.471 383.397L451.59 405.611C460.496 410.566 469.069 411.165 475.103 407.249L496.203 393.665Z" fill="#E9F0F7"/>
<path d="M528.29 377.363C528.123 374.526 527.041 371.77 526.042 369.093C523.587 363.06 519.842 357.467 514.973 352.952C513.517 351.594 511.935 350.355 510.228 349.276C509.687 348.916 509.105 348.557 508.522 348.237L414.925 296.416C413.76 295.777 412.262 295.378 411.014 296.057L390.746 307.365C391.994 306.686 393.451 307.084 394.658 307.724L488.255 359.544C492.75 362.061 496.495 365.617 499.574 369.613C502.654 373.648 505.109 378.203 506.691 382.957C507.44 385.634 508.937 388.871 507.189 391.347C506.982 391.627 506.691 391.867 506.399 392.066L526.666 380.759C527.873 380.04 528.331 378.641 528.29 377.363Z" fill="#27639E"/>
<path d="M488.254 359.545C498.033 364.979 505.566 376.525 507.814 386.953C508.813 391.468 505.858 393.625 502.487 391.667C500.073 390.349 497.867 387.352 497.201 384.276C496.119 379.401 492.79 374.207 488.212 371.651L394.616 319.83C391.578 318.152 389.122 314.037 389.122 310.721C389.122 307.365 391.619 306.006 394.657 307.685L488.254 359.545Z" fill="#114077"/>
<path d="M432.81 336.164C443.024 347.675 484.744 325.14 475.86 308.588C446.478 253.699 482.609 245.502 507.121 229.918C523.005 219.81 493.274 162.372 471.958 173.094C415.184 201.671 383.524 280.714 432.81 336.164Z" fill="#DCE9F5"/>
<path d="M521.718 336.298C502.089 321.305 484.465 320.04 475.252 318.78C471.209 318.232 469.758 328.754 475.383 337.087C481.007 345.42 494.133 342.314 494.133 342.314C494.133 342.314 509.039 347.786 512.824 349.062C519.469 351.324 528.404 341.398 521.718 336.298Z" fill="#F2A29B"/>
<path d="M486.502 345.123C491.938 352.62 498.59 361.559 503.683 364.95C510.815 369.714 515.925 359.15 514.12 354.572C511.154 346.993 506.544 341.427 501.466 333.597C499.7 330.896 495.473 328.476 490.222 331.966C482.007 337.433 486.459 345.084 486.502 345.123Z" fill="#FBBBAB"/>
<path d="M470.635 355.989C474.737 364.251 479.774 374.121 484.235 378.253C490.457 384.086 499.729 377.505 497.103 369.115C494.669 361.358 491.549 355.823 487.847 347.308C486.568 344.392 482.303 340.973 476.527 343.602C467.521 347.736 470.633 355.949 470.635 355.989Z" fill="#FBBBAB"/>
<path d="M438.172 351.838C439.625 360.866 441.447 373.761 443.776 379.282C446.7 386.223 459.394 383.566 459.35 374.811C459.29 366.697 458.306 361.89 457.299 352.727C456.96 349.579 453.594 343.814 447.269 344.701C437.433 346.064 438.171 351.798 438.172 351.838Z" fill="#FBBBAB"/>
<path d="M452.107 359.025C455.233 367.638 458.832 378.675 462.173 383.683C466.354 390.022 478.362 385.15 476.676 376.53C475.141 368.544 473.26 364.007 470.534 355.14C469.622 352.092 465.208 346.999 459.164 348.996C449.753 352.104 452.064 358.986 452.107 359.025Z" fill="#FBBBAB"/>
<path d="M471.364 357.439C495.617 347.414 503.837 336.391 500.775 332.652C490.453 320.075 473.887 318.217 472.588 317.859C471.289 317.501 459.867 314.915 448.425 324.243C439.302 331.657 435.157 339.229 438.44 351.875C438.99 354.056 447.261 357.545 452.338 359.058C457.247 360.498 462.371 361.13 471.364 357.439Z" fill="#FBBBAB"/>
<mask id="mask1_1_2394" style="mask-type:luminance" maskUnits="userSpaceOnUse" x="-68" y="-147" width="1044" height="1003">
<path d="M-67.9877 -146.568H975.57V855.292H-67.9877V-146.568Z" fill="white"/>
</mask>
<g mask="url(#mask1_1_2394)">
<path d="M95.0992 171.675C76.119 160.948 63.0581 153.566 60.855 152.321" stroke="#ED5551" stroke-width="42" stroke-linecap="round"/>
<path d="M203.469 407.57C184.887 397.067 160.484 383.275 135.004 368.874" stroke="#ED5551" stroke-width="42" stroke-linecap="round"/>
<path d="M270.202 356.217C270.202 356.217 256.795 348.639 236.322 337.069" stroke="#ED5551" stroke-width="42" stroke-linecap="round"/>
</g>
</g>
</g>
<defs>
<clipPath id="clip0_1_2394">
<rect width="945" height="718" fill="white" transform="translate(-39)"/>
</clipPath>
</defs>
</svg>
