<svg width="60" height="60" viewBox="0 0 60 60" fill="none" xmlns="http://www.w3.org/2000/svg">
<path d="M31.6666 50H6.66659C5.78253 50 4.93468 49.6488 4.30956 49.0237C3.68444 48.3986 3.33325 47.5507 3.33325 46.6667V13.3333C3.33325 12.4493 3.68444 11.6014 4.30956 10.9763C4.93468 10.3512 5.78253 10 6.66659 10H53.3333C54.2173 10 55.0652 10.3512 55.6903 10.9763C56.3154 11.6014 56.6666 12.4493 56.6666 13.3333V30.6167C54.4462 27.7887 51.2164 25.9312 47.6555 25.4341C44.0945 24.937 40.4795 25.8391 37.5696 27.9509C34.6597 30.0627 32.6813 33.2199 32.0498 36.7595C31.4184 40.299 32.1831 43.9456 34.1833 46.9333L32.6333 48.8333L31.6666 50ZM11.6666 20V22.6667H39.9999V20H11.6666ZM11.6666 29.3333H29.9999V26.6667H11.6666V29.3333ZM11.6666 41H28.3333V38.3333H11.6666V41Z" fill="#182527"/>
<path d="M56.3835 39.3165C56.3879 37.5591 55.9561 35.8282 55.1267 34.2789C54.2973 32.7296 53.0963 31.4104 51.6314 30.4396C50.1665 29.4689 48.4835 28.877 46.7335 28.717C44.9834 28.5569 43.2211 28.8339 41.6044 29.5228C39.9878 30.2118 38.5674 31.2913 37.4708 32.6645C36.3742 34.0378 35.6356 35.6617 35.3213 37.3907C35.007 39.1197 35.1268 40.8997 35.67 42.571C36.2132 44.2423 37.1627 45.7526 38.4334 46.9665L35.2001 50.9165L36.7001 56.9331L42.8001 49.4998C44.731 50.0707 46.7859 50.0707 48.7168 49.4998L54.8168 56.9331L56.3168 50.9165L53.0835 46.9665C54.1232 45.9815 54.952 44.7955 55.5192 43.4804C56.0865 42.1653 56.3806 40.7487 56.3835 39.3165ZM38.4834 39.3165C38.4636 37.8719 38.8739 36.454 39.662 35.2432C40.4502 34.0324 41.5806 33.0833 42.9096 32.5167C44.2386 31.95 45.706 31.7915 47.1254 32.0611C48.5448 32.3307 49.8518 33.0164 50.8805 34.0309C51.9091 35.0454 52.6128 36.3429 52.902 37.7584C53.1912 39.1739 53.0529 40.6434 52.5047 41.9801C51.9565 43.3168 51.0232 44.4602 49.8234 45.265C48.6236 46.0699 47.2115 46.4997 45.7668 46.4998C43.8526 46.5043 42.0143 45.7515 40.6529 44.4058C39.2916 43.0601 38.5177 41.2306 38.5001 39.3165H38.4834Z" fill="#182527"/>
</svg>
