<svg width="60" height="60" viewBox="0 0 60 60" fill="none" xmlns="http://www.w3.org/2000/svg">
<path d="M45.2551 6.88486C50.504 6.88486 53.1151 9.49593 53.1151 14.6688V45.332C53.1151 50.5049 50.504 53.1159 45.2551 53.1159H14.7697C9.54653 53.1159 6.88403 50.5295 6.88403 45.332V14.6677C6.88403 9.47022 9.54653 6.88379 14.7697 6.88379L45.2551 6.88486ZM16.8837 36.6138L16.0608 39.1445C16.0434 39.1989 16.0091 39.2464 15.9629 39.2799C15.9166 39.3135 15.8608 39.3313 15.8037 39.3309L13.1262 39.3159C13.0693 39.3155 13.0138 39.3331 12.9676 39.3663C12.9214 39.3995 12.887 39.4465 12.8693 39.5006C12.8517 39.5547 12.8517 39.6129 12.8693 39.667C12.887 39.7211 12.9214 39.7681 12.9676 39.8013L15.1383 41.3827C15.184 41.4161 15.218 41.4631 15.2353 41.517C15.2526 41.5709 15.2524 41.6289 15.2347 41.6827L14.4119 44.2166C14.3942 44.2705 14.394 44.3286 14.4114 44.3826C14.4288 44.4366 14.4629 44.4837 14.5088 44.517C14.5546 44.5504 14.6099 44.5683 14.6666 44.5683C14.7234 44.5682 14.7786 44.5501 14.8244 44.5166L16.9801 42.9502C17.0259 42.9169 17.081 42.899 17.1376 42.899C17.1942 42.899 17.2493 42.9169 17.2951 42.9502L19.4508 44.5156C19.4965 44.5488 19.5516 44.5668 19.6082 44.5669C19.6647 44.5669 19.7198 44.5491 19.7656 44.5159C19.8114 44.4827 19.8455 44.4359 19.8631 44.3821C19.8806 44.3284 19.8807 44.2705 19.8633 44.2166L19.0383 41.6816C19.0209 41.628 19.0208 41.5702 19.0381 41.5166C19.0554 41.4629 19.0892 41.416 19.1347 41.3827L21.2787 39.8002C21.3246 39.7668 21.3586 39.7196 21.376 39.6655C21.3933 39.6115 21.393 39.5533 21.3751 39.4994C21.3572 39.4455 21.3227 39.3987 21.2765 39.3657C21.2302 39.3328 21.1747 39.3153 21.118 39.3159L18.4715 39.3309C18.4148 39.3313 18.3595 39.3136 18.3135 39.2805C18.2675 39.2474 18.2331 39.2005 18.2155 39.1466L17.3926 36.6138C17.3752 36.5598 17.3412 36.5127 17.2954 36.4793C17.2496 36.4459 17.1943 36.4279 17.1376 36.4279C17.0809 36.4279 17.0257 36.4459 16.9798 36.4793C16.934 36.5127 16.9 36.5598 16.8826 36.6138M44.1226 38.5713H26.5908C25.5151 38.5713 24.643 39.5302 24.643 40.7141C24.643 41.8981 25.5151 42.857 26.5908 42.857H44.1237C45.1994 42.857 46.0715 41.8981 46.0715 40.7141C46.0715 39.5302 45.1983 38.5713 44.1226 38.5713ZM16.8826 25.8995L16.0608 28.4313C16.0431 28.4853 16.0086 28.5323 15.9624 28.5655C15.9161 28.5986 15.8606 28.6161 15.8037 28.6156L13.1262 28.6027C13.0699 28.6029 13.015 28.6208 12.9695 28.6538C12.9239 28.6869 12.8899 28.7336 12.8724 28.7871C12.8548 28.8406 12.8546 28.8982 12.8717 28.9519C12.8888 29.0055 12.9223 29.0524 12.9676 29.0859L15.1383 30.6695C15.1838 30.7028 15.2176 30.7497 15.2349 30.8034C15.2523 30.857 15.2522 30.9148 15.2347 30.9684L14.4119 33.5034C14.3945 33.5572 14.3946 33.6152 14.4121 33.6689C14.4297 33.7227 14.4638 33.7695 14.5096 33.8027C14.5554 33.8359 14.6105 33.8537 14.667 33.8536C14.7236 33.8536 14.7787 33.8356 14.8244 33.8024L16.9801 32.2359C17.0259 32.2027 17.081 32.1847 17.1376 32.1847C17.1942 32.1847 17.2493 32.2027 17.2951 32.2359L19.4508 33.8024C19.4966 33.8358 19.5518 33.8539 19.6086 33.854C19.6653 33.854 19.7206 33.8361 19.7664 33.8027C19.8123 33.7694 19.8464 33.7223 19.8638 33.6683C19.8812 33.6144 19.8811 33.5562 19.8633 33.5024L19.0383 30.9674C19.0211 30.9139 19.0212 30.8563 19.0385 30.8029C19.0558 30.7494 19.0895 30.7028 19.1347 30.6695L21.2787 29.0849C21.3237 29.0511 21.3569 29.0041 21.3736 28.9504C21.3904 28.8968 21.3899 28.8392 21.3721 28.7859C21.3543 28.7325 21.3202 28.6861 21.2746 28.6533C21.229 28.6204 21.1742 28.6027 21.118 28.6027L18.4715 28.6156C18.415 28.616 18.3597 28.5985 18.3137 28.5656C18.2677 28.5327 18.2333 28.486 18.2155 28.4324L17.3926 25.8995C17.3752 25.8455 17.3412 25.7984 17.2954 25.765C17.2496 25.7316 17.1943 25.7136 17.1376 25.7136C17.0809 25.7136 17.0257 25.7316 16.9798 25.765C16.934 25.7984 16.9 25.8455 16.8826 25.8995ZM44.1237 27.857H26.5908C25.5151 27.857 24.643 28.8159 24.643 29.9999C24.643 31.1838 25.5151 32.1427 26.5908 32.1427H44.1237C45.1994 32.1427 46.0715 31.1838 46.0715 29.9999C46.0715 28.8159 45.1994 27.857 44.1237 27.857ZM16.8826 15.1852L16.0608 17.7159C16.0434 17.7704 16.0091 17.8178 15.9629 17.8514C15.9166 17.8849 15.8608 17.9028 15.8037 17.9024L13.1262 17.8874C13.0693 17.8869 13.0138 17.9045 12.9676 17.9377C12.9214 17.9709 12.887 18.018 12.8693 18.072C12.8517 18.1261 12.8517 18.1844 12.8693 18.2384C12.887 18.2925 12.9214 18.3395 12.9676 18.3727L15.1383 19.9541C15.184 19.9875 15.218 20.0346 15.2353 20.0885C15.2526 20.1424 15.2524 20.2004 15.2347 20.2541L14.4119 22.7891C14.3945 22.843 14.3946 22.9009 14.4121 22.9546C14.4297 23.0084 14.4638 23.0552 14.5096 23.0884C14.5554 23.1216 14.6105 23.1394 14.667 23.1394C14.7236 23.1393 14.7787 23.1213 14.8244 23.0881L16.9801 21.5216C17.0259 21.4884 17.081 21.4704 17.1376 21.4704C17.1942 21.4704 17.2493 21.4884 17.2951 21.5216L19.4508 23.0881C19.4966 23.1215 19.5518 23.1396 19.6086 23.1397C19.6653 23.1398 19.7206 23.1218 19.7664 23.0885C19.8123 23.0551 19.8464 23.008 19.8638 22.9541C19.8812 22.9001 19.8811 22.842 19.8633 22.7881L19.0383 20.2531C19.0209 20.1994 19.0208 20.1417 19.0381 20.088C19.0554 20.0343 19.0892 19.9875 19.1347 19.9541L21.2787 18.3716C21.3241 18.3381 21.3577 18.291 21.3748 18.2371C21.3918 18.1832 21.3914 18.1254 21.3736 18.0718C21.3557 18.0181 21.3214 17.9715 21.2755 17.9386C21.2296 17.9057 21.1745 17.8881 21.118 17.8884L18.4715 17.9013C18.415 17.9017 18.3597 17.8842 18.3137 17.8513C18.2677 17.8184 18.2333 17.7717 18.2155 17.7181L17.3926 15.1852C17.3752 15.1312 17.3412 15.0842 17.2954 15.0507C17.2496 15.0173 17.1943 14.9994 17.1376 14.9994C17.0809 14.9994 17.0257 15.0173 16.9798 15.0507C16.934 15.0842 16.9 15.1312 16.8826 15.1852ZM44.1237 17.1427H26.5908C25.5151 17.1427 24.643 18.1016 24.643 19.2856C24.643 20.4695 25.5151 21.4284 26.5908 21.4284H44.1237C45.1994 21.4284 46.0715 20.4695 46.0715 19.2856C46.0715 18.1016 45.1994 17.1427 44.1237 17.1427Z" fill="#182527"/>
</svg>
