<svg width="50" height="50" viewBox="0 0 50 50" fill="none" xmlns="http://www.w3.org/2000/svg">
<path d="M42.5 15C44.4891 15 46.3968 15.7902 47.8033 17.1967C49.2098 18.6032 50 20.5109 50 22.5V30C50 31.9891 49.2098 33.8968 47.8033 35.3033C46.3968 36.7098 44.4891 37.5 42.5 37.5V39.915C42.5 42.565 39.41 44.0125 37.375 42.315L31.595 37.5H25C23.0109 37.5 21.1032 36.7098 19.6967 35.3033C18.2902 33.8968 17.5 31.9891 17.5 30V22.5C17.5 20.5109 18.2902 18.6032 19.6967 17.1967C21.1032 15.7902 23.0109 15 25 15H42.5ZM35 0C36.9891 0 38.8968 0.790177 40.3033 2.1967C41.7098 3.60322 42.5 5.51088 42.5 7.5V10H22.5C19.8478 10 17.3043 11.0536 15.4289 12.9289C13.5536 14.8043 12.5 17.3478 12.5 20V30C12.5 32.61 13.5 34.99 15.14 36.77L12.5 38.75C10.44 40.295 7.5 38.825 7.5 36.25V32.5C5.51088 32.5 3.60322 31.7098 2.1967 30.3033C0.790177 28.8968 0 26.9891 0 25V7.5C0 5.51088 0.790177 3.60322 2.1967 2.1967C3.60322 0.790177 5.51088 0 7.5 0H35Z" fill="#182527"/>
</svg>
