<svg width="640" height="565" viewBox="0 0 640 565" fill="none" xmlns="http://www.w3.org/2000/svg">
<path d="M344.496 530.878C340.937 532.108 337.115 532.415 333.399 531.772C329.683 531.129 326.198 529.557 323.28 527.206C315.849 521.077 313.517 510.982 311.624 501.632L306.017 473.979L317.756 481.922C326.199 487.633 334.83 493.53 340.679 501.802C346.528 510.073 349.076 521.369 344.382 530.321" fill="#E6E6E6"/>
<path d="M343.498 564.358C344.687 555.853 345.908 547.241 345.075 538.646C344.334 531.013 341.965 523.557 337.14 517.444C334.579 514.205 331.462 511.43 327.93 509.244C327.009 508.674 326.162 510.11 327.078 510.675C333.189 514.47 337.916 520.073 340.577 526.677C343.515 534.022 343.987 542.028 343.476 549.829C343.17 554.547 342.521 559.233 341.866 563.916C341.814 564.128 341.845 564.351 341.955 564.541C342.064 564.731 342.243 564.872 342.455 564.936C342.671 564.993 342.901 564.964 343.095 564.855C343.29 564.747 343.433 564.568 343.493 564.356L343.498 564.358Z" fill="#F2F2F2"/>
<path d="M248.671 564.019C248.671 564.019 260.999 534.202 224.016 511.839L248.671 564.019Z" fill="#E6E6E6"/>
<path d="M263.83 563.477C263.83 563.477 267.591 542.225 296.699 542.406L263.83 563.477Z" fill="#E6E6E6"/>
<path d="M638.91 564.998H213.396C213.192 565.001 212.991 564.948 212.815 564.844C212.64 564.741 212.497 564.592 212.403 564.414C212.302 564.228 212.249 564.021 212.249 563.81C212.249 563.599 212.302 563.392 212.403 563.206C212.497 563.027 212.64 562.878 212.815 562.775C212.99 562.672 213.192 562.618 213.396 562.621H638.91C639.209 562.652 639.486 562.791 639.687 563.01C639.888 563.23 640 563.515 640 563.81C640 564.106 639.888 564.391 639.687 564.61C639.486 564.83 639.209 564.968 638.91 564.998Z" fill="#F2F2F2"/>
<path d="M520.922 254.938L507.962 264.487L501.483 245.388L516.062 240.613L520.922 254.938Z" fill="#FFB9B9"/>
<path d="M513.635 284.381L539.55 416.477L573.566 515.15L518.495 526.294L465.044 328.943L463.423 518.335L393.773 519.926L409.97 406.928L418.068 279.606L513.635 284.381Z" fill="#090814"/>
<path d="M431.03 515.152V540.617L429.41 554.94C429.41 554.94 426.171 567.675 445.607 564.489C465.043 561.304 455.323 546.982 455.323 546.982L448.844 534.248L445.604 513.558L431.03 515.152Z" fill="#090814"/>
<path d="M552.736 513.342L557.408 538.389L561.63 552.191C561.63 552.191 567.152 564.141 547.45 564.453C527.748 564.765 534.678 548.955 534.678 548.955L538.717 535.279L538.107 514.355L552.736 513.342Z" fill="#090814"/>
<path d="M491.666 137.96C491.666 137.96 488.427 153.875 468.99 153.875C449.553 153.875 454.412 145.92 454.412 145.92L428.497 158.655L431.736 231.865L411.272 317.466C411.272 317.466 405.399 327.799 421.594 335.756C437.789 343.713 463.428 331.489 463.428 331.489C463.428 331.489 500.968 318.551 509.064 321.734C517.16 324.916 523.733 325.392 523.733 325.392L506.243 241.407L520.82 190.478L517.581 145.92L491.666 137.96Z" fill="#FF0606"/>
<path d="M400.254 297.113L395.395 317.803C395.395 317.803 377.578 348.042 390.536 349.634C403.495 351.225 406.733 317.803 406.733 317.803L414.832 297.113H400.254Z" fill="#FFB9B9"/>
<path d="M505.537 150.693L513.506 144.282L518.495 145.916C518.495 145.916 526.594 144.325 534.692 157.057C542.79 169.789 574.461 210.658 573.565 217.534C572.669 224.411 529.835 252.548 529.835 252.548C529.835 252.548 531.454 257.323 529.835 258.914C528.215 260.506 518.497 263.689 518.497 262.097C518.497 260.506 507.497 240.226 507.497 240.226C507.497 240.226 515.256 230.263 516.877 231.859C518.933 233.582 521.097 235.177 523.356 236.634L536.317 223.899C537.593 222.445 538.681 220.841 539.556 219.124C541.672 215.408 541.176 209.575 512.021 182.519L505.537 150.693Z" fill="#FF0606"/>
<path d="M437.508 158.654L433.148 156.555C433.148 156.555 422.931 158.654 419.692 165.02C416.453 171.387 408.354 236.639 408.354 236.639L401.874 279.607C401.874 279.607 397.016 279.607 397.016 284.381C397.016 289.156 390.536 301.889 395.396 301.889C400.256 301.889 419.692 301.889 422.931 298.706C426.17 295.523 432.649 282.791 431.03 281.199C429.41 279.606 426.171 279.607 426.171 279.607L435.889 235.045L437.508 158.654Z" fill="#FF0606"/>
<path d="M465.601 72.981C451.314 76.9384 445.381 83.4082 441.152 99.8075C436.263 118.77 442.699 127.42 438.436 142.486C434.455 156.557 418.334 163.825 418.334 163.825C418.334 163.825 432.43 156.667 441.152 158.947C454.541 162.447 456.2 171.836 469.947 171.751C483.474 171.667 493.962 167.294 505.261 158.947C514.282 152.283 525.363 146.144 525.363 146.144C525.363 146.144 512.649 145.913 507.977 135.169C502.652 122.922 511.828 112.142 505.261 97.3686C497.026 78.8446 483.51 68.0203 465.601 72.981Z" fill="#090814"/>
<path d="M473.142 130.001C486.56 130.001 497.438 119.313 497.438 106.129C497.438 92.9439 490.592 97.3679 484.616 82.7354C477.488 100.416 448.846 92.9439 448.846 106.129C448.846 119.313 459.724 130.001 473.142 130.001Z" fill="#FFB9B9"/>
<path d="M350.01 307.028L395.891 340.975C396.14 341.16 396.307 341.432 396.358 341.735C396.409 342.038 396.341 342.349 396.166 342.603C395.992 342.858 395.725 343.037 395.42 343.105C395.115 343.172 394.796 343.122 394.527 342.965L346.875 314.919L350.01 307.028Z" fill="#3F3D56"/>
<path d="M332.581 304.754C334.55 303.796 336.627 303.07 338.769 302.59C339.86 302.351 340.962 302.179 342.059 302.033C342.443 301.973 342.833 301.925 343.215 301.873C344.126 301.75 345.037 301.626 345.956 301.505C346.731 301.397 347.515 301.29 348.287 301.191C349.422 301.036 350.677 300.908 351.591 301.596C351.986 301.951 352.296 302.387 352.498 302.874C352.7 303.36 352.79 303.885 352.761 304.41C352.714 305.506 352.513 306.591 352.164 307.633C351.473 310.079 350.77 312.522 350.077 314.968L350.39 316.252C348.616 316.727 346.77 316.893 344.937 316.743C344.184 316.648 343.458 316.405 342.803 316.027C342.149 315.649 341.578 315.145 341.127 314.544C340.935 314.273 340.773 313.983 340.644 313.678C340.086 312.337 340.171 310.767 339.824 309.334C339.748 309.037 339.654 308.744 339.542 308.458C339.222 307.611 338.715 306.844 338.058 306.212C337.402 305.58 336.611 305.097 335.742 304.8C334.713 304.496 333.618 304.48 332.581 304.754Z" fill="#CCCCCC"/>
<path d="M332.581 304.753C334.55 303.795 336.627 303.069 338.769 302.589C339.86 302.349 340.963 302.178 342.059 302.032C342.443 301.972 342.833 301.923 343.215 301.872C344.126 301.749 345.037 301.625 345.957 301.504C345.968 301.964 345.955 302.424 345.918 302.882C345.58 307.162 343.524 311.014 341.129 314.545C340.937 314.273 340.775 313.983 340.646 313.678C340.088 312.337 340.173 310.767 339.825 309.334C339.749 309.037 339.654 308.745 339.542 308.459C339.221 307.612 338.715 306.845 338.058 306.213C337.401 305.58 336.61 305.098 335.742 304.8C334.713 304.496 333.619 304.48 332.581 304.753Z" fill="#FF0606"/>
<path d="M238.631 170.922C241.759 177.451 248.995 180.573 248.995 180.573C248.995 180.573 251.159 173.105 248.031 166.576C244.903 160.046 237.668 156.925 237.668 156.925C237.668 156.925 235.503 164.393 238.631 170.922Z" fill="#D6D6E3"/>
<path d="M326.692 295.017L325.655 295.118C325.673 294.963 324.194 249.21 314.739 233.274C306.01 218.552 287.163 202.12 238.683 199.313C201.503 197.158 177.223 187.215 166.519 169.758C157.116 154.42 158.256 154.116 167.465 169.113C178.042 186.334 202.104 196.149 238.984 198.285C260.552 199.534 278.492 203.884 292.303 211.213C303.372 217.088 310.094 223.173 315.707 232.663C325.278 248.843 326.715 294.858 326.692 295.017Z" fill="#D6D6E3"/>
<path d="M247.639 156.942H7.23572C3.24184 156.942 0.00617157 154.376 0 151.214V5.72801C0.00440826 2.566 3.24096 0.00346522 7.23572 0H247.639C251.633 0 254.868 2.566 254.874 5.72801V151.214C254.87 154.376 251.633 156.938 247.639 156.942ZM7.23572 0.879286C3.85459 0.879286 1.11439 3.05112 1.11086 5.7306V151.214C1.11086 153.89 3.85459 156.06 7.23572 156.065H247.639C251.02 156.065 253.76 153.893 253.763 151.214V5.72801C253.763 3.05113 251.02 0.881893 247.639 0.876695L7.23572 0.879286Z" fill="#090814"/>
<path d="M130.088 37.9651C128.765 35.8132 127.194 33.5158 124.737 32.8132C121.891 31.9997 118.968 33.6162 116.488 35.2111C109.073 39.9816 101.931 45.1516 95.0969 50.6972L95.104 50.7838L111.066 49.7018C114.91 49.4419 118.887 49.1448 122.284 47.3576C123.573 46.6793 124.831 45.774 126.291 45.7116C128.106 45.6328 129.689 46.8785 130.932 48.1797C138.288 55.8768 140.417 67.6482 148.671 74.4106C143.467 61.7985 137.253 49.6118 130.088 37.9651Z" fill="#FF0606"/>
<path d="M175.308 103.253C174.494 102.244 174.162 102.008 173.36 100.989C166.825 92.685 160.683 84.1008 154.933 75.2362C151.029 69.2159 147.317 63.0799 143.8 56.8281C142.125 53.8561 140.496 50.8607 138.914 47.8419C137.685 45.5011 136.484 43.1465 135.311 40.778C134.975 40.1014 134.65 39.4214 134.325 38.7405C133.561 37.1387 132.811 35.5291 132.005 33.9489C131.172 32.052 129.897 30.3739 128.283 29.05C127.516 28.4768 126.599 28.13 125.638 28.0503C124.286 28.0578 122.961 28.4306 121.809 29.128C113.092 33.631 104.955 39.1445 97.5728 45.5505C90.1794 51.9304 83.5709 59.1383 77.882 67.0271C77.7057 67.2714 77.2966 67.0383 77.472 66.7923C78.1638 65.8313 78.8692 64.8804 79.588 63.9396C88.5298 52.254 99.4939 42.2051 111.979 34.2522C114.08 32.9146 116.22 31.6397 118.399 30.4274C119.498 29.8158 120.603 29.2146 121.723 28.6463C122.799 28.0265 124.006 27.6591 125.25 27.5729C129.527 27.508 131.741 32.2666 133.262 35.4693C133.74 36.4771 134.224 37.4817 134.713 38.4832C136.564 42.2857 138.485 46.0535 140.478 49.7867C141.707 52.0917 142.964 54.383 144.248 56.6609C148.244 63.7547 152.491 70.7048 156.987 77.5111C162.945 86.5267 168.854 94.4907 175.641 102.922C175.83 103.156 175.497 103.49 175.308 103.253Z" fill="#090814"/>
<path d="M97.1522 43.1988C96.9036 42.9267 96.6567 42.6547 96.4064 42.3818C94.4341 40.2386 92.3181 38.1205 89.6097 36.8921C88.3183 36.2878 86.9085 35.9667 85.4782 35.9512C84.0025 35.9911 82.5476 36.3029 81.189 36.8704C80.5436 37.1242 79.9115 37.4118 79.2899 37.7176C78.5793 38.0694 77.8793 38.4436 77.1863 38.8222C75.8821 39.5314 74.5949 40.2718 73.3247 41.0434C70.7973 42.5785 68.3486 44.2308 65.9787 46.0004C64.7503 46.9181 63.5474 47.8658 62.3701 48.8436C61.2751 49.7521 60.2019 50.6848 59.1503 51.6418C58.9255 51.8454 58.5905 51.5161 58.8144 51.3117C59.0913 51.0579 59.3717 50.8066 59.652 50.5571C60.4432 49.8543 61.2472 49.1647 62.0642 48.4884C63.5536 47.2536 65.0818 46.0665 66.6488 44.927C69.0851 43.154 71.6048 41.5014 74.2081 39.9692C75.5094 39.2039 76.8284 38.4708 78.165 37.7696C78.5688 37.5582 78.977 37.3512 79.3905 37.1554C80.3269 36.6909 81.2998 36.3012 82.2999 35.9902C83.718 35.5395 85.2183 35.3947 86.6985 35.5657C88.1267 35.7702 89.5027 36.2382 90.7541 36.9449C93.4131 38.4055 95.4753 40.664 97.4829 42.867C97.6909 43.0913 97.3568 43.4223 97.1522 43.1988Z" fill="#090814"/>
<path d="M151.638 65.4077L158.009 63.118L161.173 61.9815C162.195 61.5771 163.237 61.2244 164.296 60.9246C165.222 60.6648 166.205 60.6771 167.124 60.9601C167.943 61.258 168.692 61.7147 169.328 62.3029C169.978 62.8908 170.582 63.5252 171.136 64.2009C171.825 65.0144 172.504 65.8365 173.185 66.6552C175.998 70.0361 178.793 73.4314 181.57 76.8412C184.346 80.251 187.104 83.6755 189.843 87.1147C192.589 90.562 195.316 94.0238 198.025 97.5L199.019 98.7778C199.203 99.0134 199.615 98.7778 199.429 98.5421C196.701 95.0307 193.954 91.534 191.188 88.052C188.422 84.5701 185.63 81.0942 182.812 77.6243C180.001 74.1632 177.17 70.717 174.321 67.2858C173.611 66.4311 172.9 65.5772 172.188 64.7242C171.588 64.0043 170.993 63.2774 170.337 62.6078C169.775 61.9434 169.087 61.3943 168.309 60.9919C167.532 60.5895 166.681 60.3417 165.807 60.2627C164.747 60.299 163.703 60.5245 162.725 60.928C161.66 61.3066 160.597 61.6921 159.534 62.075L153.117 64.3811L151.513 64.9572C151.228 65.0594 151.352 65.5108 151.639 65.4068L151.638 65.4077Z" fill="#090814"/>
<path d="M88.7721 39.5889C87.1348 38.7961 85.3123 38.4457 83.4916 38.5736C81.671 38.7015 79.9178 39.303 78.4119 40.3166C84.0876 41.2788 89.7013 42.5663 95.2241 44.1725C92.93 42.8522 91.1367 40.7827 88.7721 39.5889Z" fill="#FF0606"/>
<path d="M78.3801 40.3115L77.7568 40.8097C77.9676 40.6364 78.1871 40.4718 78.4119 40.3176L78.3801 40.3115Z" fill="#F2F2F2"/>
<path d="M169.089 65.4317C168.531 64.6237 167.754 63.9858 166.845 63.5908L165.969 63.6246C172.636 75.2017 181.641 85.3178 192.431 93.3519L169.089 65.4317Z" fill="#FF0606"/>
<path d="M90.8087 84.9297C90.7003 84.9514 90.5918 84.9739 90.4843 84.9982C88.2256 85.4848 86.0285 86.2145 83.9327 87.1743C83.826 87.2228 83.7211 87.2714 83.618 87.3207C80.719 88.681 78.0518 90.4741 75.7113 92.6364C75.6883 92.6556 75.6665 92.6761 75.6461 92.6979C75.1012 93.2027 74.5763 93.7299 74.0714 94.2798C73.0969 95.2897 72.2903 96.4442 71.6813 97.7008C71.2101 98.7494 70.9934 99.8912 71.0482 101.036C71.0526 101.15 71.0588 101.265 71.0685 101.383C71.0747 101.474 71.0818 101.565 71.0914 101.659C71.3232 102.912 71.399 104.187 71.3171 105.458C71.2131 106.103 70.9723 106.719 70.6102 107.266C70.248 107.814 69.7728 108.28 69.2153 108.635C68.7709 108.743 68.3345 108.851 67.906 108.96C67.9889 108.926 68.0691 108.887 68.1503 108.848C68.8236 108.567 69.4229 108.14 69.9022 107.597C70.3816 107.054 70.7283 106.411 70.916 105.717C71.0732 104.429 71.0208 103.126 70.7608 101.855C70.7379 101.649 70.7211 101.448 70.7106 101.248C70.7097 101.239 70.7097 101.23 70.7106 101.221C70.6327 100.116 70.7974 99.0063 71.1937 97.9685C71.7353 96.6852 72.495 95.5017 73.4402 94.4686C74.0282 93.7955 74.6533 93.151 75.3075 92.5376C75.3957 92.4553 75.4768 92.3765 75.5632 92.2994C79.7462 88.4896 84.891 85.8496 90.4631 84.6534C90.5698 84.63 90.6782 84.6075 90.7849 84.5858C90.9983 84.5425 91.0256 84.8855 90.8087 84.9297Z" fill="white"/>
<path d="M75.4061 92.6644C74.6921 91.8235 74.3059 90.7604 74.3164 89.6653C74.3269 88.5702 74.7335 87.5145 75.4634 86.6869C75.6115 86.5197 75.8822 86.738 75.7341 86.9052C75.0538 87.6745 74.6758 88.6573 74.6682 89.6763C74.6606 90.6954 75.0239 91.6836 75.6927 92.4625C75.8381 92.6358 75.5507 92.829 75.4061 92.6609V92.6644Z" fill="white"/>
<path d="M70.9369 101.032C73.2017 101.253 75.4682 100.628 77.2848 99.2811C77.4612 99.1477 77.6666 99.4292 77.4867 99.5626C75.5928 100.962 73.2316 101.608 70.8744 101.371C70.6531 101.348 70.7139 101.009 70.9369 101.032Z" fill="white"/>
<path d="M83.8797 87.0814C84.0867 87.4633 84.3869 87.7886 84.7535 88.0283C85.12 88.268 85.5414 88.4144 85.9798 88.4545C86.2047 88.4744 86.1438 88.8131 85.9199 88.7932C85.4358 88.7467 84.9706 88.5845 84.5651 88.3207C84.1595 88.0569 83.8258 87.6995 83.5932 87.2798C83.5678 87.242 83.558 87.1961 83.5659 87.1515C83.5738 87.1069 83.5987 87.067 83.6355 87.0398C83.6736 87.0138 83.7206 87.0036 83.7663 87.0113C83.8121 87.0191 83.8528 87.0443 83.8797 87.0814Z" fill="white"/>
<path d="M200.282 113.065C200.271 113.1 200.249 113.13 200.22 113.151C200.19 113.173 200.154 113.184 200.118 113.184C200.1 113.183 200.082 113.181 200.066 113.175C184.706 108.404 168.905 105.137 152.891 103.423L152.376 103.367L151.8 103.307L150.796 103.206L150.672 103.194C149.849 103.112 149.033 103.036 148.224 102.965C134.674 101.764 121.046 101.671 107.481 102.687C106.414 102.768 105.366 102.855 104.338 102.947C103.944 102.98 103.553 103.016 103.166 103.053C102.845 103.082 102.527 103.111 102.211 103.14L102.155 103.145L101.112 103.25C99.7018 103.394 98.3308 103.547 96.9995 103.708C71.1336 106.827 54.9791 113.105 54.8186 113.168C54.7786 113.175 54.7374 113.168 54.7019 113.149C54.6665 113.13 54.6389 113.099 54.6239 113.062C54.6088 113.025 54.6073 112.984 54.6195 112.946C54.6316 112.908 54.6568 112.875 54.6908 112.853C54.8512 112.791 71.0384 106.496 96.944 103.375C98.2406 103.219 99.5402 103.072 100.843 102.935C101.268 102.891 101.691 102.849 102.115 102.806L102.212 102.798C102.571 102.762 102.929 102.728 103.287 102.694C103.795 102.646 104.301 102.6 104.808 102.556C105.979 102.453 107.151 102.358 108.325 102.273C119.912 101.429 131.545 101.4 143.136 102.186C144.653 102.289 146.17 102.407 147.687 102.539C148.612 102.617 149.538 102.703 150.463 102.793L150.661 102.813C151.036 102.849 151.409 102.888 151.784 102.927C152.06 102.954 152.335 102.983 152.611 103.013C152.804 103.033 152.998 103.054 153.189 103.076C169.138 104.819 184.874 108.094 200.172 112.853C200.194 112.859 200.214 112.87 200.232 112.884C200.249 112.899 200.263 112.916 200.274 112.936C200.284 112.956 200.29 112.977 200.292 112.999C200.294 113.022 200.291 113.044 200.284 113.065H200.282Z" fill="#090814"/>
<path d="M161.459 75.9191C161.103 75.3217 160.92 74.6399 160.93 73.9476C160.941 73.2552 161.144 72.579 161.518 71.9922C161.924 73.4378 162.837 74.6958 164.096 75.544C164.582 75.8697 165.159 76.1825 165.326 76.7378C165.412 77.0905 165.358 77.4624 165.175 77.7774C164.991 78.0892 164.767 78.3765 164.508 78.6324L164.485 78.719C163.237 78.0678 162.192 77.0978 161.459 75.9113V75.9191Z" fill="#FF0606"/>
<path d="M171.906 38.5055C176.769 38.5055 180.712 34.6316 180.712 29.8529C180.712 25.0741 176.769 21.2002 171.906 21.2002C167.042 21.2002 163.1 25.0741 163.1 29.8529C163.1 34.6316 167.042 38.5055 171.906 38.5055Z" fill="#FF6584"/>
<path d="M187.796 23.2159C183.528 22.6493 178.656 24.9156 177.55 29.0054C177.272 28.278 176.765 27.6565 176.103 27.2306C175.442 26.8048 174.659 26.5968 173.869 26.6366C173.079 26.6764 172.323 26.9621 171.709 27.4522C171.095 27.9423 170.656 28.6116 170.455 29.3632L170.943 29.7097C180.088 31.6531 189.555 31.6111 198.682 29.5867C195.715 26.5183 192.064 23.7825 187.796 23.2159Z" fill="#FF0606"/>
<path d="M187.003 100.708C186.793 100.632 186.587 100.546 186.386 100.448L186.356 100.494L187.003 100.708Z" fill="#E6E6E6"/>
<path d="M94.1218 33.8459C93.7656 33.2485 93.5828 32.5666 93.5932 31.8743C93.6036 31.182 93.8069 30.5057 94.1809 29.9189C94.5871 31.3646 95.5002 32.6226 96.7589 33.4708C97.2456 33.7965 97.8221 34.1093 97.9888 34.6646C98.0754 35.0173 98.0215 35.3892 97.838 35.7041C97.6539 36.0159 97.4299 36.3033 97.1715 36.5592L97.1477 36.6458C95.9006 35.9945 94.8555 35.0245 94.1227 33.8381L94.1218 33.8459Z" fill="#F2F2F2"/>
<path d="M200.118 136.426C200.1 136.426 200.083 136.423 200.066 136.418C164.021 125.192 125.813 122.359 88.4618 128.141C84.9625 128.693 81.4535 129.33 78.0327 130.035C77.159 130.215 76.2535 130.407 75.3401 130.607C74.2486 130.847 73.173 131.092 72.1406 131.338C71.6945 131.442 71.2575 131.546 70.8296 131.651C70.1807 131.809 69.5221 131.973 68.8168 132.153C68.0277 132.353 67.2298 132.563 66.4363 132.776H66.4275C65.5326 133.016 64.6421 133.263 63.7825 133.51C63.3164 133.642 62.8677 133.772 62.4363 133.901L62.3022 133.94L62.2141 133.968L62.0545 134.015L61.9143 134.057L61.4241 134.203C57.186 135.487 54.8567 136.4 54.8338 136.409C54.7937 136.416 54.7523 136.41 54.7166 136.391C54.6809 136.371 54.6531 136.34 54.6379 136.303C54.6227 136.266 54.6212 136.225 54.6334 136.187C54.6456 136.149 54.671 136.116 54.7051 136.094C54.728 136.085 57.0696 135.167 61.3227 133.879L61.8147 133.731L61.9452 133.691L61.9584 133.687L62.1171 133.64L62.2097 133.613L62.3481 133.573C62.7757 133.445 63.2298 133.313 63.6944 133.181C64.5558 132.934 65.4462 132.687 66.3393 132.447H66.3482C67.1417 132.233 67.9475 132.022 68.7383 131.821C69.4436 131.641 70.1049 131.475 70.7547 131.319C71.1849 131.214 71.6228 131.109 72.0683 131.004C73.1016 130.758 74.1843 130.512 75.2731 130.272C76.1883 130.071 77.0955 129.878 77.9701 129.699C81.3962 128.993 84.9105 128.354 88.4159 127.802C125.818 122.014 164.079 124.852 200.172 136.095C200.208 136.11 200.238 136.136 200.257 136.17C200.276 136.203 200.283 136.242 200.278 136.28C200.272 136.318 200.253 136.353 200.224 136.38C200.196 136.406 200.159 136.423 200.12 136.426L200.118 136.426Z" fill="#090814"/>
<path d="M88.0252 115.994C90.1412 115.145 100.174 114.023 102.453 114.189C102.521 114.192 102.587 114.168 102.637 114.123C102.688 114.078 102.718 114.016 102.722 113.949C102.726 113.882 102.703 113.817 102.658 113.766C102.613 113.716 102.55 113.685 102.482 113.681C100.107 113.507 89.9886 114.659 87.7845 115.543C87.4768 115.667 87.7157 116.122 88.0252 115.994Z" fill="#090814"/>
<path d="M142.807 113.72C145.063 113.334 147.379 113.465 149.575 114.104C149.642 114.122 149.712 114.113 149.772 114.08C149.832 114.047 149.876 113.991 149.894 113.926C149.912 113.861 149.903 113.791 149.869 113.733C149.836 113.674 149.779 113.631 149.713 113.613C147.426 112.952 145.015 112.821 142.668 113.229C142.341 113.286 142.481 113.777 142.807 113.72Z" fill="#090814"/>
<path d="M181.482 121.186C183.738 120.8 186.055 120.931 188.251 121.57C188.317 121.588 188.388 121.579 188.447 121.546C188.507 121.512 188.551 121.457 188.569 121.392C188.588 121.327 188.579 121.257 188.545 121.198C188.511 121.14 188.454 121.097 188.388 121.079C186.102 120.418 183.691 120.287 181.344 120.695C181.017 120.753 181.156 121.242 181.482 121.186Z" fill="#090814"/>
</svg>
