<svg width="150" height="150" viewBox="0 0 150 150" fill="none" xmlns="http://www.w3.org/2000/svg">
<g clip-path="url(#clip0_200_659)">
<path d="M75 150C116.421 150 150 116.421 150 75C150 33.5786 116.421 0 75 0C33.5786 0 0 33.5786 0 75C0 116.421 33.5786 150 75 150Z" fill="#E6D9D9"/>
<mask id="mask0_200_659" style="mask-type:luminance" maskUnits="userSpaceOnUse" x="0" y="0" width="150" height="150">
<path d="M75 150C116.421 150 150 116.421 150 75C150 33.5786 116.421 0 75 0C33.5786 0 0 33.5786 0 75C0 116.421 33.5786 150 75 150Z" fill="white"/>
</mask>
<g mask="url(#mask0_200_659)">
<path d="M82.2802 71.947L82.8846 81.7579L64.5649 82.6875L70.2382 69.7612L82.2802 71.947Z" fill="#ED9DA0"/>
<path d="M83.3516 80.2905C78.4412 82.871 70.5873 82.1655 61.6866 80.2905L60.2949 152.941C60.2949 152.941 89.3005 162.337 98.873 150.168L92.6696 88.008L83.3487 80.2912L83.3516 80.2905Z" fill="#6C63FF"/>
<path d="M67.2751 76.5124L54.0686 84.329C51.6365 85.7683 49.7532 87.9766 48.716 90.6054C47.6787 93.2342 47.5468 96.1336 48.3409 98.8458L58.5487 133.707C58.5487 133.707 41.927 162.262 47.3277 164.781C59.4644 170.442 77.5743 169.064 77.5743 169.064L73.5266 100.697L67.2747 76.5112L67.2751 76.5124Z" fill="#3F3D58"/>
<path d="M82.7781 80.0317L97.711 85.833L101.238 128.911L111.115 163.615C94.3862 169.721 95.9485 166.876 95.9485 166.876L93.1775 106.994L82.7785 80.0329L82.7781 80.0317Z" fill="#3F3D58"/>
<path d="M104.593 162.881L104.542 162.645L89.2774 92.0441C89.0903 91.2642 89.0595 90.4549 89.187 89.663C89.3145 88.8712 89.5977 88.1124 90.0201 87.4306C90.4426 86.7488 90.996 86.1575 91.6483 85.6908C92.3007 85.2242 93.039 84.8914 93.8207 84.7118C94.6024 84.5322 95.412 84.5092 96.2026 84.6443C96.9932 84.7794 97.7492 85.0699 98.4269 85.4989C99.1046 85.9279 99.6906 86.4869 100.151 87.1437C100.611 87.8005 100.937 88.542 101.109 89.3254L117.875 158.244L104.592 162.88L104.593 162.881Z" fill="#3F3D58"/>
<path d="M82.1244 126.504C86.7123 126.021 90.6671 128.086 90.9531 131.117C91.239 134.148 87.7499 136.995 83.158 137.477C81.3258 137.697 79.4678 137.458 77.751 136.781L58.2786 138.573L57.6943 129.075L76.9525 128.317C78.5016 127.297 80.2778 126.675 82.1244 126.504V126.504Z" fill="#ED9DA0"/>
<path d="M58.3999 84.7769C56.1287 84.4562 53.8204 85.0104 51.9424 86.3273C50.0643 87.6442 48.7567 89.6254 48.2843 91.87C44.8666 108.121 38.7328 142.739 48.3663 143.316C60.9623 144.072 73.0542 141.051 73.0542 141.051L70.0307 123.669L60.2057 122.661L65.9845 95.6296C66.2444 94.4151 66.2515 93.1602 66.0053 91.9429C65.7591 90.7256 65.2648 89.572 64.5534 88.554C63.842 87.536 62.9286 86.6754 61.8701 86.0257C60.8115 85.3761 59.6306 84.9514 58.4008 84.778L58.3999 84.7769Z" fill="#3F3D58"/>
<path d="M55 50.4998C50 69.4998 65 77.4998 65 77.4998C65 77.4998 53.7825 82.8925 50 87.4998C47.0059 91.1469 46 103.5 46 103.5C46 103.5 63.0227 87.0004 77 84.4998C85.466 82.9852 99 85.4998 99 85.4998C99 85.4998 95.7131 83.8176 93.5 82.9998C90.6567 81.949 86 77.4998 86 77.4998C86 77.4998 104 58.4998 89 42.4998C84.652 37.862 76.704 36.6124 70.5 37.9999C63.7146 39.5174 57.1053 42.4998 55 50.4998Z" fill="#042637"/>
<path d="M74.3314 74.5534C82.5398 74.5534 89.1941 67.8992 89.1941 59.6908C89.1941 51.4824 82.5398 44.8281 74.3314 44.8281C66.123 44.8281 59.4688 51.4824 59.4688 59.6908C59.4688 67.8992 66.123 74.5534 74.3314 74.5534Z" fill="#ED9DA0"/>
</g>
</g>
<defs>
<clipPath id="clip0_200_659">
<rect width="150" height="150" fill="white"/>
</clipPath>
</defs>
</svg>
