<svg width="61" height="63" viewBox="0 0 61 63" fill="none" xmlns="http://www.w3.org/2000/svg">
<path d="M18.3568 62.829C16.8974 62.829 15.6674 62.3407 14.6668 61.3642C13.6662 60.3877 13.167 59.1885 13.1693 57.7665C13.1716 56.3445 13.6708 55.1441 14.6668 54.1654C15.6674 53.1911 16.8974 52.704 18.3568 52.704C19.8163 52.704 21.0451 53.1911 22.0434 54.1654C23.0417 55.1396 23.542 56.34 23.5443 57.7665C23.5466 59.193 23.0463 60.3922 22.0434 61.3642C21.0405 62.3362 19.8116 62.8245 18.3568 62.829ZM50.8098 62.829C49.3527 62.829 48.1239 62.3407 47.1233 61.3642C46.1226 60.3877 45.6223 59.1885 45.6223 57.7665C45.6223 56.3445 46.1226 55.1441 47.1233 54.1654C48.1239 53.1911 49.3527 52.704 50.8098 52.704C52.2669 52.704 53.497 53.1911 54.4999 54.1654C55.4982 55.1419 55.9973 56.3422 55.9973 57.7665C55.9973 59.1885 55.4982 60.3877 54.4999 61.3642C53.4993 62.3407 52.2692 62.829 50.8098 62.829ZM11.7307 6.75H56.7582C58.2614 6.75 59.3911 7.3485 60.1473 8.5455C60.9082 9.74025 60.9485 10.9721 60.2684 12.2411L50.3845 29.8181C49.8842 30.6394 49.234 31.284 48.434 31.752C47.6339 32.22 46.7544 32.454 45.7952 32.454H21.0958L16.894 39.9802C16.5389 40.5 16.5274 41.0625 16.8594 41.6677C17.1914 42.273 17.6905 42.5768 18.3568 42.579H55.9973V45.954H18.3568C16.3395 45.954 14.8339 45.1237 13.8403 43.4632C12.8466 41.8027 12.8223 40.1355 13.7676 38.4615L18.969 29.4165L6.25267 3.375H0V0H8.44525L11.7307 6.75Z" fill="#042637"/>
</svg>
