<svg width="61" height="93" viewBox="0 0 61 93" fill="none" xmlns="http://www.w3.org/2000/svg">
<path d="M27.2889 92.8292C25.6562 92.8292 24.1256 92.3872 22.697 91.5031C21.2684 90.619 20.0585 89.3665 19.0672 87.7457L0 57.1342L1.66182 54.924C2.82801 53.3768 4.22744 52.4559 5.86011 52.1612C7.49278 51.8665 9.00883 52.2717 10.4083 53.3768L16.8806 58.3498V22.1022C16.8806 20.8497 17.2159 19.7999 17.8865 18.9526C18.557 18.1054 19.3879 17.6818 20.3792 17.6818C21.3704 17.6818 22.2159 18.1054 22.9157 18.9526C23.6154 19.7999 23.9652 20.8497 23.9652 22.1022V74.2634L15.4812 67.6327L24.5775 82.3307C24.9273 82.8464 25.3355 83.2516 25.802 83.5463C26.2685 83.841 26.7641 83.9883 27.2889 83.9883H46.6185C48.5427 83.9883 50.1899 83.1227 51.5602 81.3913C52.9305 79.66 53.6156 77.5787 53.6156 75.1475V57.4657C53.6156 56.2133 53.2803 55.1634 52.6098 54.3161C51.9392 53.4689 51.1083 53.0453 50.1171 53.0453H30.9624V44.2044H50.1171C53.0325 44.2044 55.5107 45.4937 57.5515 48.0723C59.5924 50.6509 60.6128 53.782 60.6128 57.4657V75.1475C60.6128 80.0099 59.2425 84.1725 56.502 87.6352C53.7614 91.0979 50.4669 92.8292 46.6185 92.8292H27.2889ZM5.24786 33.1533C4.48984 31.5325 3.90674 29.7827 3.49857 27.904C3.09041 26.0253 2.88632 24.0914 2.88632 22.1022C2.88632 15.9873 4.59188 10.7748 8.00299 6.46489C11.4141 2.15496 15.5395 0 20.3792 0C25.2189 0 29.3443 2.15496 32.7554 6.46489C36.1665 10.7748 37.8721 15.9873 37.8721 22.1022C37.8721 24.0914 37.668 26.0253 37.2598 27.904C36.8516 29.7827 36.2685 31.5325 35.5105 33.1533L29.4755 28.7329C29.942 27.7014 30.2918 26.6516 30.525 25.5833C30.7583 24.515 30.8749 23.3547 30.8749 22.1022C30.8749 18.4185 29.8545 15.2874 27.8137 12.7088C25.7728 10.1302 23.2947 8.84088 20.3792 8.84088C17.4637 8.84088 14.9856 10.1302 12.9447 12.7088C10.9039 15.2874 9.88347 18.4185 9.88347 22.1022C9.88347 23.3547 10.0001 24.515 10.2333 25.5833C10.4666 26.6516 10.8164 27.7014 11.2829 28.7329L5.24786 33.1533Z" fill="#235D13"/>
</svg>
