<svg width="570" height="552" viewBox="0 0 570 552" fill="none" xmlns="http://www.w3.org/2000/svg">
<g clip-path="url(#clip0_186_137)">
<path d="M570 276C570 428.429 443.837 552 288.211 552C279.991 552 271.863 551.66 263.824 550.979C241.213 549.085 219.365 544.563 198.597 537.749C134.677 516.764 80.9787 473.943 46.7409 418.336C21.1457 376.773 6.42163 328.07 6.42163 276C6.42163 123.571 132.585 0 288.211 0C443.837 0 570 123.571 570 276Z" fill="#090814"/>
<path opacity="0.2" d="M570 276C570 428.429 443.837 552 288.211 552C279.991 552 271.863 551.66 263.824 550.979C241.213 549.085 219.365 544.563 198.597 537.749C134.677 516.764 80.9787 473.943 46.7409 418.336C21.1457 376.773 6.42163 328.07 6.42163 276C6.42163 123.571 132.585 0 288.211 0C443.837 0 570 123.571 570 276Z" fill="#F50057"/>
<path d="M283.678 394.761C334.372 394.761 375.467 354.51 375.467 304.858C375.467 255.205 334.372 214.954 283.678 214.954C232.984 214.954 191.889 255.205 191.889 304.858C191.889 354.51 232.984 394.761 283.678 394.761Z" fill="#F50057"/>
<path d="M279.367 250.902C287.17 250.554 295.572 257.478 294.305 265.534C293.354 271.579 281.914 278.947 271.982 272.932C262.452 267.16 265.075 251.54 279.367 250.902Z" fill="white"/>
<path d="M240.426 260.109C243.834 259.807 245.383 263.711 243.615 266.85C242.479 268.868 232.664 274.288 231.531 269.809C230.619 266.205 237.386 260.379 240.426 260.109Z" fill="white"/>
<path d="M334.756 263.726C343.58 261.612 351.086 285.281 338.113 278.193C330.953 274.281 331.44 264.521 334.756 263.726Z" fill="white"/>
<path d="M56.0946 257.318C57.9589 257.033 60.5258 263.673 60.2267 264.699C59.2858 267.926 20.3423 283.491 14.0444 283.744C18.5816 280.753 48.0976 260.386 50.261 260.175C56.4162 259.575 53.2292 265.874 54.6362 266.365C58.3348 267.657 57.6434 260.35 56.3376 259.461C54.6059 258.282 46.9744 261.386 56.0946 257.318Z" fill="#FF6363"/>
<path d="M195.37 176.375C190.975 177.846 169.036 187.851 163.529 190.659C147.692 198.736 130.248 210.501 114.43 219.228C100.88 221.429 61.2864 218.791 58.5251 219.228C57.3991 219.406 46.5411 224.674 46.6149 225.656C56.0323 229.902 64.9154 235.491 74.3243 240.178C78.0266 242.022 81.6338 240.478 71.6505 249.225C68.2701 252.187 62.5086 255.269 61.6849 255.891C61.0075 256.402 59.9659 256.181 60.2265 257.319C65.9067 263.388 63.7493 268.828 70.6783 267.794C73.8772 267.317 75.4919 262.225 79.6716 268.27C81.7139 262.259 83.8091 256.171 85.0191 249.939C114.96 229.952 107.242 237.607 96.6862 263.985C116.098 254.755 112.788 248.346 114.916 245.892L196.586 196.849C208.709 188.441 212.888 181.723 222.107 170.899C213.192 172.462 203.921 173.514 195.37 176.375ZM125.854 216.371C132.736 212.103 139.783 208.107 146.757 203.991C159.183 216.021 128.24 232.138 125.854 216.371Z" fill="#D6D6E3"/>
<path d="M96.6861 263.985L84.2898 285.888C57.8299 299.213 32.4976 314.56 6.50927 328.74L5.29395 328.026C25.9979 315.016 48.8584 305.137 69.2199 291.601C69.5901 291.355 69.9705 291.834 70.1921 292.077C72.6303 290.363 72.7509 288.47 72.8658 288.268C74.2978 285.752 74.8018 283.284 75.7826 280.65C77.2862 276.612 78.286 272.349 79.6716 268.27C81.7139 262.26 83.809 256.171 85.019 249.939C114.96 229.952 107.242 237.607 96.6861 263.985Z" fill="#D6D6E3"/>
<path d="M125.854 216.371C132.736 212.103 139.784 208.107 146.758 203.991C159.183 216.021 128.24 232.137 125.854 216.371Z" fill="#090814"/>
<path d="M0.000110307 251.741C0.000483614 251.269 -0.000269437 250.785 0.000110307 250.313C8.03047 246.618 36.5266 229.073 39.6196 227.934C40.5476 227.592 42.0848 226.797 42.2933 228.172C42.6507 230.529 4.14567 248.549 0.000110307 251.741Z" fill="#FFFEFF"/>
<path d="M129.553 184.128C131.67 183.947 125.207 187.799 121.775 189.842C107.464 198.359 92.486 206.052 77.7808 213.887C94.1323 202.551 112.461 194.329 129.553 184.128Z" fill="#FFFEFF"/>
<path d="M108.65 302.212C110.289 302.162 107.462 303.943 107.191 304.117C91.3639 314.24 73.728 322.235 57.3633 331.495C73.5886 320.371 91.6172 312.066 108.65 302.212Z" fill="#C8C8C8"/>
<path d="M150.457 243.17C150.762 243.125 151.091 243.115 151.186 243.408C134.578 253.375 117.466 263.057 100.143 271.977C105.866 267.99 147.574 243.596 150.457 243.17Z" fill="#FFFEFF"/>
<path d="M431.072 124.594C418.82 137.279 403.586 150.315 387.768 158.46C358.5 173.53 343.064 167.242 365.948 138.896C357.84 116.311 374.58 93.929 399.181 95.3309C396.003 95.6835 395.359 97.1501 392.803 98.2901C383.889 102.266 378.047 101.375 371.654 110.62C370.695 112.008 368.999 114.725 368.969 116.374C367.023 117.908 367.048 121.375 366.955 123.607C366.505 134.416 370.916 144.332 378.2 152.213C393.741 147.986 420.542 126.506 428.051 113.086C433.09 104.079 430.62 99.7325 419.994 102.893C419.792 102.703 417.786 102.911 418.651 100.92C420.854 100.763 429.068 96.2922 434.261 99.2765C440.541 102.885 432.679 113.257 429.729 117.031C419.756 129.791 395.848 149.104 380.718 155.172C374.568 157.638 360.039 162.818 362.591 150.733C363.406 146.874 368.867 140.855 366.451 140.705C365.625 140.654 359.136 151.892 358.898 155.007C357.981 167.006 376.064 159.275 381.725 156.816C399.096 149.27 418.426 133.763 430.401 119.333C446.135 100.373 444.284 89.4334 417.309 100.263H415.63C415.632 100.082 414.721 99.6411 414.623 99.6053C451.145 83.4231 453.555 99.8923 431.072 124.594Z" fill="#FFFEFF"/>
<path d="M388.7 297.376C351.295 336.103 304.787 375.901 256.493 400.767C167.141 446.775 120.016 427.578 189.878 341.041C165.124 272.09 208.948 210.675 284.056 214.955C274.354 216.031 279.669 213.591 271.866 217.071C244.653 229.209 226.815 226.49 207.3 254.714C204.37 258.952 199.193 267.248 199.101 272.281C195.666 277.11 193.236 287.55 192.952 294.364C191.579 327.364 205.046 357.636 227.285 381.695C274.73 368.791 356.553 303.213 379.476 262.243C394.862 234.744 387.32 221.475 354.88 231.125C354.261 230.542 348.139 231.18 350.78 225.102C357.506 224.62 382.58 210.972 398.436 220.083C417.608 231.099 393.606 262.766 384.601 274.288C354.153 313.244 281.163 372.206 234.971 390.729C216.194 398.259 171.838 414.073 179.629 377.178C182.117 365.396 198.792 347.02 191.415 346.562C188.894 346.405 169.082 380.715 168.356 390.227C165.557 426.86 220.762 403.256 238.046 395.748C291.079 372.71 350.093 325.368 386.65 281.315C434.686 223.429 429.036 190.032 346.681 223.094H341.557C341.561 222.541 338.781 221.196 338.482 221.087C449.981 171.683 457.339 221.963 388.7 297.376Z" fill="#FFFEFF"/>
<path d="M414.623 99.6049C414.721 99.6407 415.632 100.081 415.63 100.263C404.595 115.718 386.533 125.054 366.955 123.607C367.047 121.375 367.023 117.908 368.969 116.374C371.58 114.315 374.498 116.419 381.557 111.442C385.133 108.92 391.153 102.495 392.803 98.2897C395.359 97.1498 396.003 95.6831 399.181 95.3306C408.192 95.8441 409.239 97.6351 414.623 99.6049Z" fill="#D6D6E3"/>
<path d="M387.768 158.46C403.586 150.315 418.82 137.279 431.072 124.594C431.646 146.657 409.727 164.9 387.768 158.46Z" fill="#D6D6E3"/>
<path d="M417.309 100.263C417.515 100.679 418.218 100.951 418.651 100.92C417.786 102.911 419.792 102.702 419.994 102.893C423.178 105.891 425.969 109.268 428.051 113.086C420.542 126.506 393.741 147.986 378.2 152.212C370.916 144.332 366.505 134.416 366.955 123.607C386.533 125.054 404.595 115.719 415.63 100.263L417.309 100.263Z" fill="#D6D6E3"/>
<path d="M392.803 98.29C391.153 102.495 385.133 108.92 381.557 111.442C374.498 116.42 371.58 114.315 368.969 116.374C368.999 114.725 370.694 112.008 371.654 110.62C378.046 101.375 383.889 102.266 392.803 98.29Z" fill="#D6D6E3"/>
<path d="M282.517 120.974L283.356 127.386C284.807 129.624 296.187 128.075 283.524 129.852L282.182 136.428L281.342 130.345C273.689 127.566 274.272 130.111 281.342 127.386L282.517 120.974Z" fill="#F0F0F0"/>
<path d="M222.08 92.856L222.919 99.2675C224.37 101.506 235.75 99.9565 223.087 101.733L221.744 108.309L220.905 102.227C213.252 99.4481 213.835 101.993 220.905 99.2675L222.08 92.856Z" fill="#F0F0F0"/>
<path d="M427.567 354.797L428.406 361.208C429.857 363.446 441.237 361.897 428.574 363.674L427.231 370.25L426.392 364.168C418.739 361.389 419.322 363.934 426.392 361.208L427.567 354.797Z" fill="#F0F0F0"/>
<path d="M144.267 320.76L145.106 327.171C146.557 329.409 157.937 327.86 145.274 329.637L143.931 336.213L143.092 330.13C135.438 327.352 136.022 329.896 143.092 327.171L144.267 320.76Z" fill="#F0F0F0"/>
<path d="M477.306 206.808L478.981 219.61C481.878 224.079 504.601 220.986 479.317 224.534L476.635 237.665L474.959 225.519C459.677 219.971 460.842 225.052 474.959 219.61L477.306 206.808Z" fill="#F0F0F0"/>
<path d="M318.658 452.47L320.333 465.272C323.23 469.741 345.953 466.648 320.669 470.196L317.987 483.327L316.312 471.181C301.029 465.633 302.194 470.714 316.312 465.272L318.658 452.47Z" fill="#F0F0F0"/>
</g>
<defs>
<clipPath id="clip0_186_137">
<rect width="570" height="552" fill="white"/>
</clipPath>
</defs>
</svg>
