<svg width="346" height="244" viewBox="0 0 346 244" fill="none" xmlns="http://www.w3.org/2000/svg">
<path d="M200.458 192.627H11.3712C8.35643 192.623 5.46611 191.277 3.33434 188.884C1.20257 186.491 0.00343957 183.246 0 179.862V52.9435C0.00343957 49.5593 1.20257 46.3147 3.33434 43.9217C5.46611 41.5287 8.35643 40.1826 11.3712 40.1787H200.458C203.473 40.1826 206.363 41.5287 208.495 43.9217C210.627 46.3147 211.826 49.5593 211.829 52.9435V179.862C211.826 183.246 210.627 186.491 208.495 188.884C206.363 191.277 203.473 192.623 200.458 192.627ZM11.3712 42.367C8.87326 42.3702 6.47844 43.4855 4.71212 45.4683C2.9458 47.4511 1.95222 50.1394 1.94935 52.9435V179.862C1.95222 182.666 2.9458 185.355 4.71212 187.337C6.47844 189.32 8.87326 190.436 11.3712 190.439H200.458C202.956 190.436 205.351 189.32 207.117 187.337C208.884 185.355 209.877 182.666 209.88 179.862V52.9435C209.877 50.1394 208.884 47.4511 207.117 45.4683C205.351 43.4855 202.956 42.3702 200.458 42.367H11.3712Z" fill="#042637"/>
<path d="M36.7129 70.085C35.1064 70.085 33.5361 69.5503 32.2004 68.5484C30.8647 67.5466 29.8236 66.1226 29.2089 64.4565C28.5941 62.7905 28.4332 60.9572 28.7466 59.1885C29.06 57.4199 29.8336 55.7953 30.9695 54.5201C32.1055 53.245 33.5527 52.3766 35.1283 52.0248C36.7039 51.673 38.337 51.8536 39.8211 52.5436C41.3053 53.2337 42.5738 54.4024 43.4663 55.9018C44.3588 57.4012 44.8352 59.164 44.8352 60.9673C44.8327 63.3847 43.9762 65.7022 42.4535 67.4115C40.9308 69.1208 38.8663 70.0823 36.7129 70.085ZM36.7129 54.0379C35.492 54.0379 34.2985 54.4443 33.2834 55.2057C32.2682 55.9671 31.477 57.0493 31.0098 58.3155C30.5426 59.5817 30.4204 60.975 30.6585 62.3192C30.8967 63.6634 31.4846 64.8981 32.3479 65.8672C33.2112 66.8363 34.3112 67.4963 35.5086 67.7637C36.706 68.031 37.9472 67.8938 39.0752 67.3693C40.2031 66.8448 41.1672 65.9567 41.8455 64.8171C42.5238 63.6776 42.8858 62.3378 42.8858 60.9673C42.884 59.1302 42.233 57.3688 41.0758 56.0698C39.9185 54.7707 38.3495 54.0399 36.7129 54.0379Z" fill="#042637"/>
<path d="M173.817 70.085C172.211 70.085 170.64 69.5503 169.305 68.5484C167.969 67.5466 166.928 66.1226 166.313 64.4565C165.698 62.7905 165.537 60.9572 165.851 59.1885C166.164 57.4199 166.938 55.7953 168.074 54.5201C169.21 53.245 170.657 52.3766 172.233 52.0248C173.808 51.673 175.441 51.8536 176.925 52.5436C178.41 53.2337 179.678 54.4024 180.571 55.9018C181.463 57.4012 181.939 59.164 181.939 60.9673C181.937 63.3847 181.08 65.7022 179.558 67.4115C178.035 69.1208 175.971 70.0823 173.817 70.085ZM173.817 54.0379C172.596 54.0379 171.403 54.4443 170.388 55.2057C169.373 55.9671 168.581 57.0493 168.114 58.3155C167.647 59.5817 167.525 60.975 167.763 62.3192C168.001 63.6634 168.589 64.8981 169.452 65.8672C170.315 66.8363 171.415 67.4963 172.613 67.7637C173.81 68.031 175.051 67.8938 176.179 67.3693C177.307 66.8448 178.271 65.9567 178.95 64.8171C179.628 63.6776 179.99 62.3378 179.99 60.9673C179.988 59.1302 179.337 57.3688 178.18 56.0698C177.023 54.7707 175.454 54.0399 173.817 54.0379Z" fill="#042637"/>
<path d="M55.8815 125.521H20.7932C19.3289 125.519 17.9251 124.865 16.8896 123.703C15.8542 122.54 15.2718 120.964 15.27 119.321V95.9793C15.2718 94.3356 15.8542 92.7597 16.8896 91.5974C17.9251 90.4351 19.3289 89.7813 20.7932 89.7793H55.8815C57.3458 89.7813 58.7496 90.4351 59.785 91.5974C60.8204 92.7597 61.4029 94.3356 61.4046 95.9793V119.321C61.4029 120.964 60.8204 122.54 59.785 123.703C58.7496 124.865 57.3458 125.519 55.8815 125.521Z" fill="#F8F9FA"/>
<path d="M123.459 125.521H88.3706C86.9063 125.519 85.5024 124.865 84.467 123.703C83.4316 122.54 82.8492 120.964 82.8474 119.321V95.9793C82.8492 94.3356 83.4316 92.7597 84.467 91.5974C85.5024 90.4351 86.9063 89.7813 88.3706 89.7793H123.459C124.923 89.7813 126.327 90.4351 127.362 91.5974C128.398 92.7597 128.98 94.3356 128.982 95.9793V119.321C128.98 120.964 128.398 122.54 127.362 123.703C126.327 124.865 124.923 125.519 123.459 125.521Z" fill="#F8F9FA"/>
<path d="M155.948 90.5088C154.656 90.5104 153.417 91.0872 152.504 92.1128C151.59 93.1384 151.076 94.529 151.075 95.9794V119.321C151.076 120.771 151.59 122.162 152.504 123.187C153.417 124.213 154.656 124.79 155.948 124.791H191.036C192.328 124.79 193.567 124.213 194.481 123.187C195.394 122.162 195.908 120.771 195.91 119.321V95.9794C195.908 94.529 195.394 93.1384 194.481 92.1128C193.567 91.0872 192.328 90.5104 191.036 90.5088H155.948Z" fill="#F8F9FA"/>
<path d="M56.2062 172.203H21.1179C19.6536 172.201 18.2498 171.548 17.2143 170.385C16.1789 169.223 15.5965 167.647 15.5947 166.003V142.662C15.5965 141.018 16.1789 139.442 17.2143 138.28C18.2498 137.118 19.6536 136.464 21.1179 136.462H56.2062C57.6705 136.464 59.0743 137.118 60.1097 138.28C61.1451 139.442 61.7276 141.018 61.7293 142.662V166.003C61.7276 167.647 61.1451 169.223 60.1097 170.385C59.0743 171.548 57.6705 172.201 56.2062 172.203Z" fill="#F8F9FA"/>
<path d="M123.784 172.203H88.6955C87.2312 172.201 85.8274 171.548 84.792 170.385C83.7566 169.223 83.1741 167.647 83.1724 166.003V142.662C83.1741 141.018 83.7566 139.442 84.792 138.28C85.8274 137.118 87.2312 136.464 88.6955 136.462H123.784C125.248 136.464 126.652 137.118 127.687 138.28C128.723 139.442 129.305 141.018 129.307 142.662V166.003C129.305 167.647 128.723 169.223 127.687 170.385C126.652 171.548 125.248 172.201 123.784 172.203Z" fill="#F8F9FA"/>
<path d="M191.361 172.203H156.273C154.809 172.201 153.405 171.548 152.369 170.385C151.334 169.223 150.751 167.647 150.75 166.003V142.662C150.751 141.018 151.334 139.442 152.369 138.28C153.405 137.118 154.809 136.464 156.273 136.462H191.361C192.826 136.464 194.229 137.118 195.265 138.28C196.3 139.442 196.883 141.018 196.884 142.662V166.003C196.883 167.647 196.3 169.223 195.265 170.385C194.229 171.548 192.826 172.201 191.361 172.203Z" fill="#F8F9FA"/>
<path d="M36.7127 63.5202C36.1098 63.5193 35.5317 63.2501 35.1054 62.7715C34.679 62.2929 34.4392 61.644 34.4385 60.9672V24.4963C34.4385 23.8192 34.6781 23.1699 35.1046 22.6911C35.5311 22.2123 36.1096 21.9434 36.7127 21.9434C37.3159 21.9434 37.8943 22.2123 38.3208 22.6911C38.7473 23.1699 38.987 23.8192 38.987 24.4963V60.9672C38.9862 61.644 38.7464 62.2929 38.32 62.7715C37.8937 63.2501 37.3157 63.5193 36.7127 63.5202Z" fill="#042637"/>
<path d="M173.817 63.5202C173.214 63.5193 172.636 63.2501 172.21 62.7715C171.783 62.2929 171.543 61.644 171.543 60.9672V24.4963C171.543 23.8192 171.782 23.1699 172.209 22.6911C172.635 22.2123 173.214 21.9434 173.817 21.9434C174.42 21.9434 174.999 22.2123 175.425 22.6911C175.852 23.1699 176.091 23.8192 176.091 24.4963V60.9672C176.09 61.644 175.851 62.2929 175.424 62.7715C174.998 63.2501 174.42 63.5193 173.817 63.5202Z" fill="#042637"/>
<path d="M37.0108 117.111C36.0541 117.113 35.1228 116.766 34.3574 116.121L34.3099 116.082L24.3158 107.499C23.381 106.695 22.7692 105.506 22.6149 104.196C22.4607 102.885 22.7766 101.559 23.4933 100.509C24.21 99.46 25.2686 98.7732 26.4364 98.6C27.6042 98.4269 28.7854 98.7816 29.7202 99.5861L36.1936 105.159L51.4905 82.7561C51.8452 82.2368 52.2876 81.8009 52.7923 81.4734C53.2971 81.146 53.8544 80.9333 54.4324 80.8476C55.0103 80.7619 55.5977 80.8048 56.1609 80.9739C56.7241 81.1431 57.2521 81.435 57.7148 81.8332L57.7161 81.8343L57.6211 81.9823L57.7186 81.8343C58.6521 82.6396 59.2628 83.8278 59.4167 85.138C59.5707 86.4482 59.2553 87.7734 58.5398 88.8229L40.5473 115.161C40.131 115.768 39.5958 116.259 38.9832 116.596C38.3705 116.933 37.697 117.108 37.0147 117.105L37.0108 117.111Z" fill="#23AE6D"/>
<path d="M106.538 163.065C105.581 163.066 104.65 162.719 103.884 162.075L103.837 162.035L93.8427 153.452C92.9079 152.648 92.296 151.46 92.1418 150.149C91.9875 148.838 92.3035 147.512 93.0202 146.462C93.7368 145.413 94.7955 144.726 95.9632 144.553C97.131 144.38 98.3122 144.735 99.247 145.539L105.72 151.112L121.017 128.709C121.372 128.19 121.814 127.754 122.319 127.427C122.824 127.099 123.381 126.886 123.959 126.801C124.537 126.715 125.125 126.758 125.688 126.927C126.251 127.096 126.779 127.388 127.242 127.786L127.243 127.787L127.148 127.935L127.246 127.787C128.179 128.593 128.79 129.781 128.944 131.091C129.098 132.401 128.782 133.727 128.067 134.776L110.074 161.114C109.658 161.721 109.123 162.212 108.51 162.549C107.897 162.887 107.224 163.061 106.542 163.059L106.538 163.065Z" fill="#23AE6D"/>
<path d="M172.166 117.111C171.209 117.113 170.278 116.766 169.512 116.121L169.465 116.082L159.471 107.499C158.536 106.695 157.924 105.506 157.77 104.196C157.616 102.885 157.932 101.559 158.648 100.509C159.365 99.46 160.424 98.7732 161.591 98.6C162.759 98.4269 163.94 98.7816 164.875 99.5861L171.349 105.159L186.646 82.7561C187 82.2368 187.443 81.8009 187.947 81.4734C188.452 81.146 189.009 80.9333 189.587 80.8476C190.165 80.7619 190.753 80.8048 191.316 80.9739C191.879 81.1431 192.407 81.435 192.87 81.8332L192.871 81.8343L192.776 81.9823L192.874 81.8343C193.807 82.6396 194.418 83.8278 194.572 85.138C194.726 86.4482 194.41 87.7734 193.695 88.8229L175.702 115.161C175.286 115.768 174.751 116.259 174.138 116.596C173.526 116.933 172.852 117.108 172.17 117.105L172.166 117.111Z" fill="#23AE6D"/>
</svg>
