<svg width="150" height="150" viewBox="0 0 150 150" fill="none" xmlns="http://www.w3.org/2000/svg">
<g clip-path="url(#clip0_183_2627)">
<path d="M0 0H150V150H0V0Z" fill="white"/>
<path d="M12.6205 131.674L12.661 131.68L12.7093 131.901C12.7936 131.943 12.8072 131.956 12.9136 131.977C13.3686 132.067 14.0202 131.959 14.5003 131.959L20.5329 131.947L41.8925 131.968L122.538 131.999L134.923 131.996C135.842 131.995 138.88 132.127 139.554 131.937C139.631 131.915 139.664 131.896 139.741 131.862C139.679 132.964 139.731 134.098 139.73 135.204L139.716 141.648L12.6011 141.61L12.6205 131.674Z" fill="#343D95"/>
<path d="M10.9233 76.6238C10.0952 75.4421 9.15406 74.3596 8.38609 73.1313C5.8278 69.0395 3.96555 64.9987 2.47787 60.4266C2.0919 59.2404 1.68958 58.0537 1.40513 56.8383C1.12019 55.6209 0.939092 54.3711 0.742799 53.1365C0.225811 49.8849 0.0163574 46.7816 0.395518 43.5009C0.423096 43.2566 0.453115 43.0126 0.485574 42.7689C0.518034 42.5252 0.552928 42.2818 0.590257 42.0389C0.627585 41.7958 0.667341 41.5532 0.709523 41.311C0.751707 41.0688 0.796308 40.827 0.843328 40.5857C0.890348 40.3444 0.939776 40.1036 0.991614 39.8633C1.04345 39.6229 1.09769 39.3831 1.15433 39.1439C1.21096 38.9046 1.26998 38.666 1.33139 38.4279C1.39281 38.1899 1.45659 37.9525 1.52275 37.7157C1.58891 37.4789 1.65744 37.2427 1.72833 37.0073C1.79921 36.7719 1.87244 36.5373 1.94803 36.3033C2.0236 36.0693 2.10151 35.8361 2.18176 35.6038C2.262 35.3714 2.34456 35.1398 2.42945 34.909C2.51432 34.6783 2.6015 34.4484 2.69098 34.2195C2.78045 33.9905 2.87221 33.7624 2.96625 33.5353C3.0603 33.3081 3.1566 33.0818 3.25516 32.8566C3.35373 32.6314 3.45454 32.4072 3.5576 32.184C3.66065 31.9607 3.76593 31.7386 3.87342 31.5175C3.98092 31.2964 4.09062 31.0764 4.20252 30.8574C4.31442 30.6385 4.42849 30.4207 4.54475 30.2041C4.66101 29.9875 4.77943 29.7721 4.89999 29.5578C5.02056 29.3436 5.14325 29.1305 5.26808 28.9187C5.39291 28.7069 5.51985 28.4963 5.64889 28.2871C5.77794 28.0778 5.90906 27.8698 6.04226 27.6632C6.17547 27.4565 6.31072 27.2512 6.44802 27.0472C6.58534 26.8433 6.72468 26.6408 6.86603 26.4396C7.0074 26.2385 7.15076 26.0388 7.29613 25.8405C7.44149 25.6422 7.58881 25.4454 7.7381 25.25C7.88739 25.0547 8.03863 24.8609 8.1918 24.6686C8.34499 24.4763 8.50007 24.2855 8.65705 24.0963C8.81405 23.9071 8.97292 23.7195 9.13367 23.5335C9.29441 23.3475 9.457 23.163 9.62143 22.9802C9.78587 22.7975 9.95211 22.6164 10.1202 22.4369C11.7712 20.6706 13.602 19.0925 15.4952 17.5924C19.7046 14.257 24.3125 11.9841 29.3648 10.2367C30.4148 9.87353 31.4673 9.47936 32.5372 9.1789C43.9744 5.96693 57.1696 6.32758 67.5363 12.6067C68.6424 13.2842 69.7209 14.0031 70.7718 14.7635C71.8227 15.5238 72.8428 16.3234 73.8322 17.1623C74.7959 17.9921 75.6708 18.9749 76.6811 19.7417C76.9768 19.966 77.1707 20.0592 77.5414 20.0983C77.5683 20.1012 77.5951 20.1033 77.622 20.1058C78.6843 18.7594 80.1325 17.9173 81.8503 17.7206C81.9476 17.7098 82.0453 17.7015 82.1431 17.6955C82.241 17.6895 82.3389 17.686 82.4368 17.685C82.5348 17.6839 82.6327 17.6853 82.7307 17.6891C82.8286 17.6928 82.9264 17.699 83.0239 17.7077C83.1216 17.7163 83.2189 17.7273 83.316 17.7408C83.413 17.7541 83.5096 17.77 83.6059 17.7882C83.7022 17.8065 83.798 17.8271 83.8933 17.8502C83.9885 17.8731 84.0831 17.8985 84.177 17.9262C84.2711 17.954 84.3643 17.984 84.4568 18.0163C84.5493 18.0486 84.641 18.0832 84.7318 18.12C84.8226 18.1569 84.9124 18.196 85.0013 18.2374C85.0901 18.2787 85.1778 18.3222 85.2645 18.3679C85.3513 18.4136 85.4368 18.4614 85.521 18.5113C85.6054 18.5612 85.6885 18.6132 85.7702 18.6673C85.8519 18.7213 85.9323 18.7773 86.0112 18.8353C86.0902 18.8933 86.1677 18.9533 86.2436 19.0152C87.5462 20.0702 88.3305 21.502 88.5143 23.1626L99.107 23.138C99.3788 21.4111 100.154 19.8649 101.59 18.8085C101.672 18.7488 101.756 18.6913 101.841 18.6358C101.926 18.5803 102.012 18.5269 102.1 18.4757C102.188 18.4245 102.277 18.3755 102.367 18.3288C102.457 18.282 102.548 18.2374 102.641 18.1952C102.733 18.1529 102.826 18.1129 102.921 18.0753C103.015 18.0376 103.11 18.0023 103.207 17.9694C103.303 17.9365 103.399 17.906 103.497 17.8779C103.595 17.8498 103.693 17.8242 103.792 17.801C103.891 17.7777 103.99 17.7569 104.09 17.7386C104.19 17.7203 104.29 17.7045 104.391 17.6911C104.492 17.6778 104.593 17.667 104.694 17.6587C104.795 17.6504 104.897 17.6446 104.998 17.6413C105.1 17.638 105.201 17.6372 105.303 17.639C105.404 17.6407 105.506 17.645 105.607 17.6517C105.709 17.6585 105.81 17.6678 105.911 17.6795C106.012 17.6914 106.112 17.7057 106.212 17.7225C106.31 17.7388 106.407 17.7574 106.503 17.7784C106.599 17.7994 106.695 17.8228 106.791 17.8486C106.886 17.8743 106.98 17.9022 107.074 17.9325C107.168 17.9629 107.261 17.9955 107.354 18.0304C107.446 18.0652 107.537 18.1023 107.628 18.1417C107.719 18.1811 107.808 18.2226 107.897 18.2662C107.985 18.31 108.072 18.3558 108.159 18.4038C108.245 18.4517 108.33 18.5018 108.414 18.5539C108.497 18.6061 108.58 18.6602 108.661 18.7164C108.742 18.7725 108.822 18.8306 108.9 18.8907C108.979 18.9506 109.055 19.0125 109.131 19.0764C109.206 19.1402 109.28 19.2058 109.352 19.2731C109.424 19.3405 109.494 19.4097 109.563 19.4806C109.632 19.5514 109.699 19.6238 109.764 19.6979C109.829 19.7721 109.892 19.8477 109.954 19.9249C110.015 20.0021 110.075 20.0808 110.132 20.1608C110.779 21.075 111.075 22.0632 111.208 23.1644C114.411 23.1629 117.675 23.0315 120.873 23.1764C120.952 24.2398 120.921 25.3175 120.921 26.3838L120.92 31.4697L120.923 47.1613L120.926 94.6795C121.742 95.1389 122.572 95.582 123.311 96.1606C125.614 97.9641 127.123 100.917 127.893 103.685C129.057 107.872 128.703 112.414 128.81 116.713C128.933 121.687 129.11 126.66 129.341 131.631L135.876 131.628C136.974 131.626 138.119 131.562 139.214 131.643C139.373 131.655 139.548 131.669 139.67 131.784C139.696 131.808 139.717 131.835 139.741 131.861C139.664 131.896 139.631 131.915 139.554 131.937C138.88 132.126 135.842 131.995 134.923 131.995L122.538 131.999L41.8924 131.968L20.5328 131.947L14.5003 131.959C14.0202 131.958 13.3685 132.066 12.9136 131.976C12.8071 131.955 12.7936 131.943 12.7093 131.901L12.6609 131.679L12.6204 131.673C12.4883 131.201 12.2884 130.739 12.1522 130.262C11.7376 128.811 11.4164 127.299 11.1806 125.809C9.90533 117.748 11.1587 109.587 11.7247 101.524C11.8506 99.4736 11.9231 97.4209 11.9422 95.3664C10.5991 94.4855 9.34543 93.6072 8.63261 92.1159C8.05591 90.9093 7.81308 89.5962 7.83283 88.2633C7.88471 84.7607 9.74195 79.9691 10.9233 76.6238Z" fill="#2A2626"/>
<path d="M30.7569 115.51C32.2074 115.937 33.601 116.046 35.1054 116.026L34.937 116.152C33.509 116.146 32.0812 116.148 30.6533 116.161C30.6568 115.919 30.6779 115.739 30.7569 115.51Z" fill="#F1BB8C"/>
<path d="M94.6849 102.594C94.787 103.05 93.7427 112.765 93.6057 113.987C93.4994 113.538 93.4182 113.084 93.3315 112.632L92.2529 106.372C92.8547 104.995 93.7947 103.796 94.6849 102.594Z" fill="#F28A20"/>
<path d="M96.3053 129.634C99.7043 129.576 103.115 129.634 106.515 129.638C108.6 129.641 110.774 129.522 112.849 129.675C113.179 129.699 113.582 129.758 113.786 130.056C113.899 130.221 113.946 130.398 113.922 130.597C113.871 131.019 113.663 131.252 113.332 131.494C112.331 131.724 109.761 131.585 108.611 131.591L95.9448 131.613L96.4707 131.225C96.449 130.687 96.3884 130.166 96.3053 129.634Z" fill="#6375B7"/>
<path d="M99.7647 124.895C101.354 124.749 103.025 124.865 104.622 124.883L104.596 129.262L100.641 129.259L96.2248 129.238C96.0248 128.397 95.8709 127.547 95.7632 126.688C97.0638 125.98 98.3165 125.257 99.7647 124.895Z" fill="white"/>
<path d="M112.314 88.2305C112.323 88.2557 112.334 88.2806 112.341 88.3063C112.594 89.1476 113.016 94.2456 112.914 95.1485C112.868 95.5578 112.744 95.9353 112.541 96.294C112.114 97.0499 111.367 97.6024 110.533 97.8312C109.42 98.1368 108.417 97.8504 107.45 97.292C107.392 97.2496 107.335 97.2065 107.278 97.1626C106.035 96.1994 106.146 94.6613 105.968 93.2493C107.34 93.2643 108.427 93.0292 109.616 92.3109C111.226 91.3384 111.867 90.0034 112.314 88.2305Z" fill="white"/>
<path d="M82.073 18.0423C83.4934 17.9103 84.954 18.4147 86.0453 19.3157C87.2236 20.2886 88.0062 21.6566 88.1481 23.1815L82.8917 23.1969C80.8656 23.2028 78.8157 23.2592 76.7925 23.169C77.0154 22.0413 77.3853 21.0241 78.1141 20.1193C79.0973 18.8988 80.5338 18.2191 82.073 18.0423Z" fill="white"/>
<path d="M104.58 18.0424C104.604 18.0393 104.628 18.0355 104.653 18.0333C104.744 18.0246 104.836 18.0182 104.928 18.014C105.02 18.0097 105.112 18.0076 105.204 18.0078C105.296 18.008 105.388 18.0105 105.48 18.0151C105.572 18.0197 105.664 18.0266 105.755 18.0357C105.847 18.0446 105.938 18.0559 106.029 18.0693C106.12 18.0828 106.211 18.0985 106.301 18.1164C106.392 18.1341 106.481 18.1541 106.571 18.1763C106.66 18.1985 106.749 18.2229 106.837 18.2492C106.925 18.2757 107.013 18.3043 107.099 18.3349C107.186 18.3656 107.272 18.3984 107.357 18.4332C107.442 18.4681 107.527 18.5049 107.61 18.5438C107.694 18.5827 107.776 18.6235 107.858 18.6664C107.939 18.7093 108.019 18.7541 108.099 18.8009C108.178 18.8476 108.256 18.8962 108.333 18.9468C108.41 18.9973 108.486 19.0496 108.56 19.1038C108.635 19.1579 108.708 19.2138 108.779 19.2715C110.026 20.2805 110.679 21.5861 110.854 23.1657L105.799 23.1648L99.4639 23.1506C99.612 22.094 99.9543 21.1726 100.597 20.3155C101.597 18.9837 102.948 18.2697 104.58 18.0424Z" fill="white"/>
<path d="M36.2317 18.1137C36.2666 18.1093 36.3013 18.1046 36.3362 18.1006C36.4311 18.0899 36.5263 18.0815 36.6217 18.0756C36.717 18.0696 36.8124 18.066 36.9079 18.0649C37.0035 18.0637 37.099 18.065 37.1944 18.0687C37.2899 18.0723 37.3853 18.0784 37.4805 18.0868C37.5756 18.0952 37.6705 18.106 37.7651 18.1192C37.8598 18.1324 37.954 18.148 38.0479 18.1659C38.1417 18.1839 38.2351 18.2042 38.3279 18.2269C38.4207 18.2495 38.5129 18.2745 38.6045 18.3017C38.696 18.329 38.7868 18.3585 38.877 18.3904C38.967 18.4222 39.0562 18.4563 39.1446 18.4926C39.233 18.5289 39.3204 18.5675 39.4068 18.6082C39.4932 18.6489 39.5786 18.6918 39.6628 18.7368C39.7471 18.7818 39.8302 18.8289 39.9122 18.8782C39.9941 18.9274 40.0747 18.9786 40.154 19.0318C40.2334 19.085 40.3113 19.1403 40.3878 19.1975C40.4644 19.2546 40.5395 19.3137 40.6131 19.3746C41.8191 20.356 42.59 21.6463 42.7499 23.1972C41.1123 23.2402 39.4679 23.2175 37.8294 23.2211L31.2085 23.2122C31.3973 22.1799 31.7061 21.2597 32.3333 20.4051C33.2966 19.0928 34.6419 18.3658 36.2317 18.1137Z" fill="#D6E5F4"/>
<path d="M59.5293 18.0476C60.8276 18.007 62.0808 18.3019 63.1374 19.079C64.5446 20.114 65.2491 21.5089 65.5158 23.2025L60.2232 23.2072L54.0127 23.2019C54.1816 21.9967 54.5956 20.9925 55.3828 20.0559C56.472 18.7602 57.8701 18.1807 59.5293 18.0476Z" fill="#D6E5F4"/>
<path d="M31.1924 23.5703C35.0521 23.5155 38.9213 23.5787 42.7819 23.5743C42.6886 25.1283 42.1562 26.2886 41.1084 27.4261C41.0475 27.4858 40.9855 27.5441 40.9222 27.6011C40.8589 27.6582 40.7944 27.7138 40.7287 27.7681C40.6629 27.8224 40.5961 27.8753 40.5283 27.9268C40.4603 27.9782 40.3913 28.0282 40.3211 28.0768C40.2511 28.1252 40.1801 28.1722 40.108 28.2177C40.0359 28.2631 39.9629 28.307 39.8889 28.3494C39.8149 28.3918 39.7401 28.4325 39.6645 28.4717C39.5888 28.5109 39.5123 28.5484 39.4351 28.5842C39.3577 28.6201 39.2797 28.6544 39.201 28.6869C39.1222 28.7195 39.0427 28.7504 38.9626 28.7796C38.8827 28.8087 38.8021 28.8362 38.7208 28.8619C38.6396 28.8877 38.5578 28.9117 38.4754 28.9339C38.3932 28.9561 38.3105 28.9766 38.2274 28.9954C38.1442 29.0141 38.0607 29.0311 37.977 29.0462C37.8931 29.0613 37.8089 29.0747 37.7244 29.0863C37.64 29.0979 37.5554 29.1076 37.4706 29.1156C35.9502 29.2491 34.4238 28.7222 33.2596 27.7462C31.9689 26.6642 31.3283 25.2256 31.1924 23.5703Z" fill="#A2B4DC"/>
<path d="M54.0479 23.5586L65.5425 23.5615C65.3749 25.0853 64.9138 26.3106 63.8693 27.4514C62.8328 28.4897 61.4081 29.0654 59.9481 29.1361C59.8563 29.1407 59.7645 29.1431 59.6727 29.1432C59.5808 29.1433 59.489 29.1411 59.3972 29.1367C59.3054 29.1322 59.2138 29.1255 59.1224 29.1167C59.0309 29.1078 58.9397 29.0966 58.8489 29.0833C58.758 29.0698 58.6674 29.0542 58.5773 29.0364C58.4872 29.0185 58.3975 28.9984 58.3083 28.9762C58.2192 28.954 58.1307 28.9296 58.0428 28.9031C57.9548 28.8764 57.8675 28.8477 57.781 28.8168C57.6945 28.7859 57.6087 28.753 57.5238 28.7179C57.4389 28.6829 57.3549 28.6457 57.2718 28.6064C57.1887 28.5673 57.1066 28.5261 57.0256 28.4828C56.9444 28.4397 56.8645 28.3945 56.7856 28.3473C56.7068 28.3001 56.6292 28.2511 56.5527 28.2001C56.4763 28.1491 56.4011 28.0963 56.3273 28.0416C56.2534 27.9869 56.1809 27.9305 56.1099 27.8723C56.0388 27.8141 55.9692 27.7542 55.901 27.6925C54.6791 26.5806 54.1359 25.1796 54.0479 23.5586Z" fill="#A2B4DC"/>
<path d="M78.2682 23.5483C81.5658 23.5228 84.8633 23.5169 88.1609 23.5307C88.142 23.8087 88.1263 24.0907 88.0828 24.3661C87.832 25.9528 86.9234 27.2621 85.6488 28.1983C84.7663 28.7487 83.8411 29.1138 82.7924 29.1706C82.6999 29.1759 82.6073 29.179 82.5147 29.1799C82.422 29.1806 82.3293 29.1791 82.2368 29.1753C82.1442 29.1716 82.0518 29.1656 81.9595 29.1574C81.8672 29.1491 81.7752 29.1386 81.6834 29.1258C81.5916 29.1131 81.5001 29.0981 81.4091 29.0808C81.3181 29.0636 81.2275 29.0442 81.1374 29.0225C81.0474 29.0009 80.9579 28.9771 80.8689 28.951C80.78 28.925 80.6918 28.8968 80.6042 28.8665C80.5167 28.8362 80.4299 28.8037 80.3439 28.7691C80.258 28.7344 80.1729 28.6978 80.0887 28.6591C80.0045 28.6203 79.9214 28.5795 79.8393 28.5366C79.7571 28.4939 79.6761 28.4491 79.5961 28.4023C79.5161 28.3555 79.4373 28.3068 79.3597 28.2561C79.282 28.2055 79.2057 28.153 79.1307 28.0986C79.0557 28.0443 78.982 27.9881 78.9097 27.9302C78.8374 27.8722 78.7666 27.8125 78.6973 27.751C77.4725 26.6511 76.8804 25.1698 76.7988 23.5493L78.2682 23.5483Z" fill="#D6E5F4"/>
<path d="M99.4287 23.5266C103.243 23.5217 107.077 23.4428 110.889 23.5504C110.77 25.1777 110.322 26.2535 109.276 27.5054C109.215 27.5688 109.152 27.6307 109.088 27.6911C109.024 27.7516 108.959 27.8105 108.892 27.8678C108.825 27.9252 108.757 27.981 108.688 28.0352C108.618 28.0893 108.547 28.1418 108.476 28.1927C108.404 28.2436 108.331 28.2927 108.257 28.3402C108.182 28.3877 108.107 28.4334 108.031 28.4773C107.954 28.5213 107.877 28.5634 107.799 28.6037C107.721 28.6441 107.641 28.6825 107.561 28.7192C107.481 28.7558 107.4 28.7905 107.319 28.8233C107.237 28.8561 107.154 28.887 107.071 28.9159C106.988 28.9449 106.904 28.9719 106.82 28.9969C106.735 29.022 106.65 29.045 106.565 29.066C106.479 29.0871 106.393 29.1062 106.307 29.1232C106.221 29.1402 106.134 29.1552 106.047 29.1681C105.96 29.1811 105.872 29.1921 105.785 29.2009C105.697 29.2098 105.609 29.2167 105.521 29.2214C105.424 29.2259 105.326 29.228 105.228 29.2277C105.131 29.2275 105.033 29.2248 104.935 29.2197C104.838 29.2145 104.74 29.207 104.643 29.1971C104.546 29.1872 104.449 29.1749 104.352 29.1602C104.256 29.1455 104.16 29.1284 104.064 29.1089C103.968 29.0895 103.873 29.0677 103.778 29.0435C103.684 29.0193 103.59 28.9929 103.496 28.9641C103.403 28.9354 103.31 28.9043 103.218 28.8709C103.127 28.8376 103.035 28.802 102.945 28.7641C102.855 28.7263 102.766 28.6863 102.678 28.644C102.59 28.6018 102.503 28.5574 102.417 28.5108C102.331 28.4644 102.246 28.4157 102.163 28.365C102.079 28.3143 101.997 28.2615 101.916 28.2067C101.835 28.152 101.756 28.0952 101.678 28.0365C101.599 27.9778 101.523 27.9173 101.448 27.8549C101.373 27.7924 101.299 27.7281 101.227 27.662C100.013 26.5483 99.4986 25.1419 99.4287 23.5266Z" fill="#D6E5F4"/>
<path d="M101.721 78.7607C103.205 80.0292 104.157 81.4317 106.286 81.65C107.784 81.8035 107.886 80.9858 108.88 80.244C109.201 80.004 109.563 79.9196 109.958 79.9877C111.51 80.2559 111.194 81.0446 111.83 81.9359C112.129 82.0474 112.489 81.8205 112.803 81.8091C113.128 81.7972 113.403 81.939 113.625 82.1715C113.971 82.5349 114.247 83.1137 114.227 83.6236C114.209 84.0726 113.974 84.4745 113.647 84.7723C113.123 85.2488 112.602 85.3588 111.919 85.3253C111.995 86.7028 112.093 87.8888 111.719 89.2303C111.121 90.5914 110.407 91.5607 109.057 92.2619C107.843 92.8928 106.465 93.1783 105.139 92.727C103.747 92.2531 102.847 91.0439 102.253 89.7581C100.782 86.5744 100.499 82.0458 101.721 78.7607Z" fill="white"/>
<path d="M15.2295 116.465C24.7165 116.529 34.2035 116.537 43.6905 116.489C43.3784 117.741 43.0952 119.002 42.7986 120.258L42.4828 121.228C39.2373 121.275 35.986 121.233 32.7398 121.231L16.3006 121.222C15.8961 119.652 15.5693 118.05 15.2295 116.465Z" fill="#F28A20"/>
<path d="M11.9419 95.3662C13.0149 95.9354 14.4388 96.4862 14.7954 97.7712C15.203 99.2401 13.983 101.231 13.5484 102.632C12.0374 107.503 14.5207 111.29 18.641 113.79C20.6517 115.01 22.9065 115.627 25.1879 116.108C23.9729 116.191 22.742 116.151 21.5244 116.146C19.2883 116.126 17.0522 116.122 14.816 116.135C15.0916 117.929 15.5701 119.75 16.0078 121.514C16.316 121.547 16.6238 121.586 16.9338 121.6C17.631 124.921 18.3637 128.241 19.0112 131.572C18.0482 131.572 13.1777 131.429 12.6607 131.679L12.6202 131.673C12.488 131.201 12.2882 130.739 12.152 130.262C11.7373 128.811 11.4161 127.299 11.1804 125.809C9.90511 117.748 11.1585 109.587 11.7245 101.524C11.8503 99.4735 11.9228 97.4208 11.9419 95.3662Z" fill="#D6E5F4"/>
<path d="M17.3193 121.588L30.3633 121.578C34.0951 121.56 37.8268 121.567 41.5584 121.599C40.7857 124.264 40.3367 127.076 39.7448 129.79L39.316 131.581L19.4362 131.578C19.1062 130.354 18.8826 129.084 18.6143 127.844C18.1643 125.764 17.7006 123.681 17.3193 121.588Z" fill="white"/>
<path d="M46.7822 87.9697L46.8896 87.9875C47.1766 88.6497 47.2281 90.3536 47.389 91.1736C47.9783 94.1763 49.5484 97.3894 48.4939 100.477C47.7295 102.716 46.1843 102.584 44.4851 103.468C41.2842 105.133 44.8778 108.174 43.8585 111.026C43.293 112.608 41.79 113.802 40.3167 114.501C37.335 115.915 33.4333 116.095 30.335 114.979C31.3079 113.635 32.1221 112.164 32.9627 110.734L35.6267 106.286C37.7872 102.664 40.0899 99.1589 42.4141 95.6429C43.2522 94.3749 44.0102 93.0542 44.8895 91.8139L44.9518 91.6948C44.9477 91.5157 44.9308 91.4871 44.836 91.3332L44.7498 91.3334C44.2907 91.8236 43.9725 92.481 43.6105 93.046C43.0623 93.8931 42.5077 94.7359 41.9468 95.5746C39.2585 99.6348 36.6667 103.756 34.1715 107.937C32.8136 110.192 31.5388 112.507 30.1127 114.719C28.6063 112.31 28.1403 109.406 28.1118 106.605C28.0853 104.001 28.3123 100.035 30.291 98.1053C30.672 97.7338 31.1478 97.4856 31.6899 97.5021C32.5939 97.5294 33.1967 98.2159 33.7636 98.8292C34.7377 97.911 35.4528 96.4906 36.2296 95.3925C39.1646 91.2438 42.0823 89.5786 46.7822 87.9697Z" fill="#6375B7"/>
<path d="M121.773 96.1092C122.496 96.0678 122.97 96.2989 123.516 96.7743C125.755 98.7228 127.19 101.978 127.819 104.821C128.558 108.163 128.334 111.622 128.406 115.015L128.735 125.76C128.807 127.724 128.84 129.697 128.978 131.656C123.936 131.709 118.89 131.603 113.847 131.652C113.912 131.583 113.975 131.511 114.036 131.438C114.373 131.027 114.349 130.692 114.292 130.184C114.205 129.995 114.089 129.782 113.943 129.631C113.769 129.451 113.567 129.372 113.325 129.328C112.385 129.159 111.312 129.255 110.355 129.254L104.97 129.253L104.984 124.892C109.81 124.869 114.659 125.017 119.481 124.878C119.656 122.574 119.515 120.171 119.51 117.858L119.49 104.542C119.496 103.326 119.494 102.109 119.485 100.892C119.48 100.133 119.427 99.3313 119.507 98.5779C119.564 98.0513 119.684 97.5424 119.991 97.1012C120.434 96.4652 121.042 96.2332 121.773 96.1092Z" fill="#F28A20"/>
<path d="M12.7539 72.9121C19.5653 75.8172 25.5836 82.0908 28.6484 88.7701C29.3374 88.1441 30.0322 87.5689 30.9851 87.4201C31.889 87.2789 32.7663 87.5818 33.4815 88.1302C35.4725 89.6575 35.973 92.3833 36.2802 94.7172C35.463 95.8942 34.6883 97.1727 33.796 98.2854C33.2607 97.7244 32.6714 97.2039 31.8635 97.1203C31.2802 97.0599 30.7359 97.2763 30.2871 97.6388C28.306 99.2389 27.9955 102.482 27.7801 104.831C27.0442 103.052 26.4775 101.209 25.7207 99.4313C24.5182 96.6214 23.2209 93.8559 21.8289 91.1348C20.4368 88.4137 18.9533 85.7434 17.3783 83.124C17.0298 82.5342 15.7158 80.1881 15.2313 79.9078L15.1172 79.9394L15.1062 80.0138C15.0728 80.2409 16.4565 82.2723 16.6684 82.6176C17.8915 84.6089 19.0548 86.6346 20.1583 88.6946C21.2618 90.7546 22.3035 92.8454 23.2835 94.9669C24.8423 98.2855 26.4357 101.667 27.4983 105.182C27.7919 106.154 27.7422 107.119 27.8034 108.119C27.953 110.557 28.6051 113.213 30.0145 115.231C30.2644 115.312 30.5111 115.417 30.757 115.51C30.678 115.739 30.657 115.918 30.6534 116.161C27.28 116.204 23.7829 115.728 20.6569 114.408C18.71 113.586 16.783 112.281 15.4255 110.648C10.5803 104.821 16.2613 100.429 15.0322 97.3772C14.1945 95.2974 10.1193 94.9967 8.68041 91.3623C8.19168 90.1277 8.11567 88.7226 8.23554 87.4126C8.51708 84.3361 9.69315 81.2288 10.7113 78.3276C11.3474 76.5153 11.982 74.6723 12.7539 72.9121Z" fill="#F6A921"/>
<path d="M114.939 93.8572C117.552 93.819 119.696 94.3978 121.974 95.6931C121.23 95.8592 120.542 95.9999 119.985 96.577C119.935 96.6293 119.887 96.6833 119.841 96.739C119.795 96.7949 119.752 96.8524 119.711 96.9116C119.669 96.9708 119.63 97.0315 119.594 97.0937C119.557 97.1558 119.523 97.2193 119.491 97.2841C119.459 97.3488 119.43 97.4147 119.403 97.4817C119.376 97.5488 119.352 97.6168 119.33 97.6856C119.308 97.7545 119.29 97.824 119.273 97.8944C119.257 97.9647 119.243 98.0355 119.232 98.1069C119.09 99.0419 119.164 100.058 119.163 101.005V106.201L119.159 124.533C114.6 124.592 110.027 124.526 105.466 124.524C103.755 124.523 101.079 124.342 99.5185 124.622C98.4781 124.809 97.5152 125.344 96.5765 125.807L95.6966 126.282L94.5147 119.422C94.2803 118.081 93.944 116.679 93.8478 115.323C93.7857 114.447 94.225 111.537 94.3331 110.49C94.6117 107.789 94.7021 104.78 95.2098 102.147C95.2849 101.757 95.4114 101.453 95.6371 101.122C98.2536 97.2891 101.118 95.1362 105.715 94.2828C105.846 95.3511 105.959 96.3602 106.75 97.1734C107.454 97.8964 108.535 98.3168 109.541 98.3215C109.605 98.3215 109.669 98.3199 109.733 98.3168C109.797 98.3136 109.861 98.3088 109.925 98.3025C109.989 98.296 110.052 98.288 110.116 98.2784C110.179 98.2688 110.242 98.2575 110.305 98.2447C110.368 98.232 110.43 98.2176 110.492 98.2017C110.554 98.1858 110.616 98.1683 110.677 98.1492C110.738 98.1302 110.799 98.1096 110.859 98.0876C110.919 98.0655 110.979 98.0419 111.038 98.0168C111.097 97.9917 111.155 97.9652 111.213 97.9371C111.271 97.9091 111.328 97.8796 111.384 97.8486C111.44 97.8178 111.495 97.7855 111.55 97.7518C111.604 97.7181 111.658 97.6831 111.711 97.6466C111.763 97.6103 111.815 97.5726 111.866 97.5336C111.917 97.4946 111.967 97.4544 112.016 97.4129C112.065 97.3714 112.112 97.3286 112.159 97.2847C112.206 97.2407 112.251 97.1957 112.296 97.1495C113.242 96.1834 113.334 95.1646 113.313 93.8882C113.854 93.8883 114.397 93.8687 114.939 93.8572Z" fill="#F28A20"/>
<path d="M49.1955 98.4052C57.4089 98.2995 65.6306 98.3642 73.8447 98.3658L97.2649 98.3573C96.1227 99.8353 95.0655 101.346 94.009 102.886C93.3585 103.834 92.6727 104.775 92.1008 105.774C92.0451 105.081 92.0272 104.251 91.4562 103.759C91.1221 103.47 90.662 103.375 90.2327 103.353C88.1627 103.249 86.035 103.359 83.9579 103.361L71.1173 103.37L63.043 103.375C61.4778 103.369 59.789 103.237 58.2397 103.421C57.882 103.463 57.597 103.604 57.3749 103.895C57.1543 104.184 57.1842 104.575 57.1996 104.922C57.2356 105.734 57.3958 106.561 57.5105 107.367C57.7125 108.853 57.9378 110.335 58.1866 111.815C58.5745 114.194 58.8799 116.586 59.2783 118.963C59.7166 121.524 60.1289 124.089 60.5152 126.659C60.7033 127.843 60.7924 129.379 61.2131 130.476C61.395 130.951 61.7937 131.279 62.1765 131.591C54.7026 131.451 47.2152 131.571 39.7395 131.554C40.1681 129.497 40.6075 127.441 41.0577 125.389C41.3289 124.129 41.5486 122.831 41.9347 121.601L42.7752 121.485C43.2803 119.901 43.902 117.782 44.0684 116.15L34.937 116.152L35.1055 116.026C37.9609 115.955 41.0209 115.09 43.036 112.965C43.8563 112.1 44.5165 110.858 44.4531 109.632C44.3735 108.092 42.7922 105.677 43.9257 104.369C44.4014 103.82 45.0702 103.623 45.7273 103.384C48.2429 102.471 49.1122 101.022 49.1955 98.4052Z" fill="#D6E5F4"/>
<path d="M58.3691 103.743C60.3049 103.681 62.259 103.736 64.1966 103.734L75.235 103.722L84.7704 103.717C86.5061 103.712 88.2597 103.655 89.9939 103.714C90.3342 103.725 90.7406 103.745 91.0502 103.893C91.3014 104.013 91.4794 104.27 91.5618 104.53C91.831 105.381 91.8858 106.399 92.0371 107.287L93.1095 113.486C93.8808 117.908 94.675 122.319 95.3737 126.753C95.5521 127.885 95.876 129.009 96.0096 130.144C96.0467 130.459 96.0824 130.865 95.9033 131.147C95.7292 131.421 95.4092 131.511 95.118 131.602C88.9625 131.692 82.7904 131.568 76.6329 131.565L68.4446 131.578C66.9083 131.58 65.3547 131.623 63.8201 131.549C63.3582 131.527 62.9293 131.487 62.5098 131.273C61.9193 130.972 61.6404 130.579 61.4364 129.957C61.1907 129.207 61.1333 128.343 61.0193 127.562C60.8135 126.131 60.5998 124.7 60.3783 123.271L58.6776 112.456C58.2899 110.009 57.8167 107.542 57.5599 105.079C57.5282 104.775 57.48 104.374 57.6601 104.108C57.8246 103.865 58.0984 103.793 58.3691 103.743Z" fill="#8A9FCE"/>
<path d="M75.9272 115.081C76.4064 115.055 76.8795 115.141 77.3106 115.357C77.388 115.396 77.4634 115.439 77.5368 115.485C77.61 115.532 77.6808 115.582 77.7492 115.635C77.8176 115.689 77.8833 115.746 77.9461 115.806C78.0089 115.866 78.0687 115.928 78.1254 115.994C78.1821 116.06 78.2355 116.128 78.2855 116.199C78.3355 116.27 78.3819 116.343 78.4248 116.419C78.4676 116.494 78.5067 116.572 78.542 116.651C78.5773 116.73 78.6087 116.811 78.636 116.894C78.8121 117.43 78.7839 118.034 78.5115 118.534C78.1867 119.129 77.6499 119.424 77.0192 119.605C76.4572 119.618 76.0174 119.591 75.5087 119.312C75.4331 119.271 75.3598 119.225 75.2887 119.177C75.2177 119.128 75.1493 119.075 75.0835 119.02C75.0176 118.964 74.9547 118.905 74.8948 118.843C74.8348 118.781 74.7781 118.716 74.7247 118.648C74.6712 118.581 74.6212 118.51 74.5749 118.438C74.5284 118.365 74.4857 118.29 74.4467 118.213C74.4077 118.136 74.3727 118.057 74.3415 117.977C74.3105 117.897 74.2835 117.815 74.2605 117.732C74.1092 117.178 74.1421 116.563 74.4331 116.06C74.7738 115.47 75.3036 115.249 75.9272 115.081Z" fill="#2A2626"/>
<path d="M75.7446 115.513C76.1099 115.487 76.4836 115.459 76.8355 115.58C76.9093 115.605 76.9817 115.634 77.0526 115.666C77.1234 115.699 77.1925 115.734 77.2598 115.774C77.3271 115.813 77.3923 115.855 77.4552 115.901C77.5183 115.947 77.5789 115.996 77.6369 116.048C77.695 116.1 77.7503 116.155 77.8028 116.212C77.8555 116.27 77.905 116.33 77.9515 116.392C77.998 116.455 78.0413 116.519 78.0813 116.586C78.1213 116.653 78.1578 116.722 78.1909 116.792C78.396 117.237 78.4614 117.755 78.2671 118.214C78.0457 118.737 77.6291 118.977 77.1281 119.185C76.7552 119.251 76.4255 119.259 76.0622 119.133C75.9932 119.109 75.9257 119.081 75.8596 119.05C75.7934 119.019 75.7288 118.985 75.6659 118.947C75.603 118.91 75.5421 118.87 75.4833 118.827C75.4244 118.783 75.3677 118.737 75.3132 118.688C75.2588 118.64 75.2069 118.588 75.1575 118.534C75.1081 118.481 75.0614 118.424 75.0174 118.366C74.9735 118.307 74.9325 118.247 74.8945 118.185C74.8565 118.122 74.8215 118.058 74.7898 117.992C74.5688 117.537 74.4983 117.001 74.6745 116.519C74.8707 115.982 75.2454 115.74 75.7446 115.513Z" fill="white"/>
<path d="M88.5467 23.5226L99.0869 23.5088C99.0782 24.9517 99.5807 26.4161 100.535 27.5056C101.597 28.7178 103.229 29.4905 104.832 29.5908C104.932 29.5975 105.031 29.6017 105.131 29.6034C105.231 29.6051 105.33 29.6043 105.43 29.6011C105.53 29.5978 105.629 29.592 105.729 29.5838C105.828 29.5756 105.927 29.5648 106.026 29.5516C106.125 29.5384 106.223 29.5228 106.321 29.5047C106.419 29.4865 106.517 29.466 106.614 29.443C106.711 29.42 106.807 29.3946 106.903 29.3668C106.999 29.339 107.094 29.3088 107.188 29.2763C107.282 29.2437 107.375 29.2088 107.468 29.1716C107.56 29.1344 107.652 29.0949 107.742 29.0531C107.833 29.0113 107.922 28.9672 108.011 28.9209C108.099 28.8748 108.186 28.8263 108.272 28.7756C108.358 28.725 108.442 28.6724 108.526 28.6176C108.609 28.5627 108.691 28.5058 108.771 28.4469C108.852 28.3879 108.93 28.327 109.008 28.2641C109.085 28.2013 109.161 28.1366 109.235 28.0699C110.585 26.8478 111.165 25.3044 111.26 23.518L114.148 23.5135L120.564 23.5107L120.562 39.776L21.6299 39.7885C21.6796 34.3804 21.6826 28.9723 21.639 23.5642L23.0752 23.5472C25.6341 23.5328 28.193 23.5377 30.7518 23.5618C30.9394 25.0151 31.4543 26.3828 32.4385 27.4898C33.5143 28.6998 35.1696 29.4416 36.7802 29.5138C38.4127 29.5869 40.0689 28.9463 41.2589 27.8323C42.4567 26.7108 43.1136 25.1752 43.1629 23.5478C46.6582 23.4984 50.158 23.5284 53.6539 23.5258C53.7369 24.9918 54.1015 26.1944 55.0494 27.3392C56.0873 28.5925 57.5747 29.3244 59.1891 29.4697C60.7649 29.6115 62.5291 29.1235 63.7397 28.0855C65.0906 26.9271 65.7479 25.2962 65.8761 23.5536C69.3934 23.5246 72.9106 23.5222 76.4279 23.5463C76.4292 23.6339 76.4324 23.7214 76.4375 23.8089C76.4425 23.8964 76.4494 23.9838 76.4581 24.071C76.4669 24.1582 76.4775 24.2452 76.4899 24.332C76.5023 24.4187 76.5165 24.5052 76.5327 24.5913C76.5488 24.6774 76.5668 24.7632 76.5866 24.8487C76.6063 24.934 76.6278 25.0189 76.6512 25.1034C76.6746 25.1879 76.6998 25.2718 76.7266 25.3552C76.7536 25.4386 76.7823 25.5214 76.8127 25.6037C76.8432 25.6858 76.8754 25.7673 76.9093 25.8481C76.9432 25.9289 76.9788 26.0089 77.0162 26.0882C77.0535 26.1675 77.0925 26.246 77.1331 26.3236C77.1737 26.4014 77.216 26.4781 77.26 26.5539C77.3039 26.6298 77.3494 26.7047 77.3965 26.7786C77.4436 26.8525 77.4922 26.9254 77.5424 26.9972C77.5926 27.069 77.6443 27.1398 77.6975 27.2094C77.7506 27.2792 77.8053 27.3477 77.8614 27.4149C77.9238 27.4906 77.988 27.5647 78.0541 27.6373C78.1202 27.7098 78.188 27.7806 78.2575 27.8497C78.3271 27.9188 78.3984 27.9862 78.4714 28.0519C78.5443 28.1174 78.6189 28.1811 78.6949 28.2429C78.7711 28.3048 78.8487 28.3647 78.9278 28.4228C79.0069 28.4807 79.0874 28.5366 79.1694 28.5906C79.2513 28.6446 79.3345 28.6965 79.419 28.7463C79.5035 28.7961 79.5892 28.8438 79.6761 28.8893C79.763 28.9349 79.8509 28.9783 79.9399 29.0194C80.029 29.0605 80.119 29.0994 80.21 29.1361C80.3009 29.1728 80.3928 29.2071 80.4856 29.2393C80.5782 29.2714 80.6716 29.3011 80.7658 29.3285C80.86 29.3559 80.9548 29.381 81.0502 29.4038C81.1457 29.4264 81.2416 29.4467 81.3379 29.4645C81.4344 29.4825 81.5313 29.498 81.6286 29.5111C81.7257 29.5242 81.8232 29.5349 81.9209 29.5431C82.0211 29.5517 82.1214 29.5578 82.2218 29.5614C82.3223 29.565 82.4228 29.5662 82.5233 29.5649C82.6239 29.5636 82.7243 29.5599 82.8246 29.5538C82.9249 29.5475 83.025 29.5388 83.1249 29.5277C83.2249 29.5166 83.3245 29.503 83.4237 29.487C83.523 29.471 83.6217 29.4526 83.7201 29.4317C83.8184 29.4109 83.9162 29.3877 84.0133 29.362C84.1106 29.3363 84.2071 29.3083 84.3029 29.2779C84.3987 29.2476 84.4938 29.2149 84.588 29.1799C84.6822 29.1449 84.7755 29.1075 84.8679 29.0679C84.9603 29.0283 85.0517 28.9865 85.142 28.9423C85.2323 28.8983 85.3215 28.852 85.4096 28.8035C85.4977 28.755 85.5845 28.7044 85.6701 28.6517C85.7557 28.599 85.84 28.5442 85.9229 28.4874C86.0057 28.4305 86.0872 28.3717 86.1672 28.3108C86.2472 28.25 86.3257 28.1872 86.4026 28.1225C87.8076 26.927 88.3941 25.3167 88.5467 23.5226Z" fill="#6375B7"/>
<path d="M10.9233 76.6238C10.0952 75.4421 9.15406 74.3596 8.38609 73.1313C5.8278 69.0395 3.96555 64.9987 2.47787 60.4266C2.0919 59.2404 1.68958 58.0537 1.40513 56.8383C1.12019 55.6209 0.939092 54.3711 0.742799 53.1365C0.225811 49.8849 0.0163574 46.7816 0.395518 43.5009C0.423096 43.2566 0.453115 43.0126 0.485574 42.7689C0.518034 42.5252 0.552928 42.2818 0.590257 42.0389C0.627585 41.7958 0.667341 41.5532 0.709523 41.311C0.751707 41.0688 0.796308 40.827 0.843328 40.5857C0.890348 40.3444 0.939776 40.1036 0.991614 39.8633C1.04345 39.6229 1.09769 39.3831 1.15433 39.1439C1.21096 38.9046 1.26998 38.666 1.33139 38.4279C1.39281 38.1899 1.45659 37.9525 1.52275 37.7157C1.58891 37.4789 1.65744 37.2427 1.72833 37.0073C1.79921 36.7719 1.87244 36.5373 1.94803 36.3033C2.0236 36.0693 2.10151 35.8361 2.18176 35.6038C2.262 35.3714 2.34456 35.1398 2.42945 34.909C2.51432 34.6783 2.6015 34.4484 2.69098 34.2195C2.78045 33.9905 2.87221 33.7624 2.96625 33.5353C3.0603 33.3081 3.1566 33.0818 3.25516 32.8566C3.35373 32.6314 3.45454 32.4072 3.5576 32.184C3.66065 31.9607 3.76593 31.7386 3.87342 31.5175C3.98092 31.2964 4.09062 31.0764 4.20252 30.8574C4.31442 30.6385 4.42849 30.4207 4.54475 30.2041C4.66101 29.9875 4.77943 29.7721 4.89999 29.5578C5.02056 29.3436 5.14325 29.1305 5.26808 28.9187C5.39291 28.7069 5.51985 28.4963 5.64889 28.2871C5.77794 28.0778 5.90906 27.8698 6.04226 27.6632C6.17547 27.4565 6.31072 27.2512 6.44802 27.0472C6.58534 26.8433 6.72468 26.6408 6.86603 26.4396C7.0074 26.2385 7.15076 26.0388 7.29613 25.8405C7.44149 25.6422 7.58881 25.4454 7.7381 25.25C7.88739 25.0547 8.03863 24.8609 8.1918 24.6686C8.34499 24.4763 8.50007 24.2855 8.65705 24.0963C8.81405 23.9071 8.97292 23.7195 9.13367 23.5335C9.29441 23.3475 9.457 23.163 9.62143 22.9802C9.78587 22.7975 9.95211 22.6164 10.1202 22.4369C11.7712 20.6706 13.602 19.0925 15.4952 17.5924C19.7046 14.257 24.3125 11.9841 29.3648 10.2367C30.4148 9.87353 31.4673 9.47936 32.5372 9.1789C43.9744 5.96693 57.1696 6.32758 67.5363 12.6067C68.6424 13.2842 69.7209 14.0031 70.7718 14.7635C71.8227 15.5238 72.8428 16.3234 73.8322 17.1623C74.7959 17.9921 75.6708 18.9749 76.6811 19.7417C76.9768 19.966 77.1707 20.0592 77.5414 20.0983C77.5683 20.1012 77.5951 20.1033 77.622 20.1058C76.9854 21.1196 76.6441 21.9799 76.4415 23.1548L65.8687 23.1614C65.8598 23.0633 65.8486 22.9654 65.835 22.8677C65.8213 22.7702 65.8053 22.6729 65.7868 22.5761C65.7685 22.4793 65.7477 22.383 65.7246 22.2872C65.7014 22.1914 65.676 22.0962 65.6482 22.0016C65.6204 21.907 65.5903 21.8132 65.5579 21.7202C65.5255 21.6271 65.4909 21.5349 65.454 21.4435C65.4171 21.352 65.378 21.2616 65.3367 21.1722C65.2953 21.0827 65.2518 20.9943 65.2061 20.9069C65.1604 20.8196 65.1126 20.7334 65.0627 20.6485C65.0128 20.5634 64.9609 20.4797 64.9069 20.3973C64.8529 20.3148 64.7969 20.2338 64.7389 20.1541C64.681 20.0743 64.6211 19.996 64.5593 19.9193C64.4975 19.8425 64.4338 19.7673 64.3683 19.6937C64.3028 19.6201 64.2356 19.548 64.1665 19.4776C64.0975 19.4073 64.0268 19.3387 63.9544 19.2718C63.8821 19.2049 63.8081 19.1398 63.7325 19.0766C63.6554 19.0116 63.5767 18.9486 63.4964 18.8874C63.4161 18.8264 63.3343 18.7674 63.251 18.7105C63.1678 18.6536 63.0832 18.5988 62.9972 18.5461C62.9112 18.4934 62.824 18.4429 62.7354 18.3945C62.6469 18.3462 62.5573 18.3001 62.4665 18.2562C62.3756 18.2124 62.2837 18.1708 62.1908 18.1316C62.0979 18.0924 62.0041 18.0556 61.9094 18.021C61.8145 17.9864 61.7189 17.9543 61.6226 17.9246C61.5263 17.8948 61.4292 17.8675 61.3315 17.8426C61.2337 17.8177 61.1354 17.7953 61.0365 17.7753C60.9376 17.7554 60.8384 17.7379 60.7387 17.7229C60.6389 17.708 60.5388 17.6955 60.4385 17.6855C60.3381 17.6755 60.2375 17.668 60.1368 17.6631C60.0361 17.6582 59.9353 17.6558 59.8344 17.656C59.7335 17.6561 59.6328 17.6587 59.5321 17.6639C59.4313 17.669 59.3308 17.6767 59.2305 17.6869C57.5348 17.8452 56.0865 18.6165 55.0092 19.9341C54.2188 20.9009 53.7707 21.9242 53.6164 23.1588L43.172 23.1611C42.8276 21.3358 42.05 19.8794 40.4888 18.8083C40.4042 18.75 40.3182 18.6938 40.2307 18.6397C40.1433 18.5857 40.0546 18.5339 39.9647 18.4843C39.8747 18.4347 39.7834 18.3874 39.6911 18.3422C39.5988 18.2971 39.5054 18.2544 39.4108 18.2141C39.3163 18.1736 39.2208 18.1355 39.1245 18.0998C39.0281 18.0642 38.9309 18.031 38.833 18.0002C38.7349 17.9693 38.6361 17.941 38.5366 17.9151C38.4372 17.8892 38.3372 17.8658 38.2365 17.8449C38.1359 17.824 38.0348 17.8056 37.9332 17.7897C37.8317 17.7739 37.7298 17.7605 37.6277 17.7497C37.5254 17.739 37.423 17.7307 37.3204 17.7249C37.2178 17.7193 37.1151 17.7162 37.0123 17.7156C36.9096 17.715 36.8069 17.717 36.7042 17.7216C36.6015 17.7262 36.499 17.7332 36.3966 17.7428C36.2944 17.7525 36.1924 17.7647 36.0906 17.7794C35.989 17.7942 35.8877 17.8115 35.7868 17.8313C35.6891 17.8492 35.5918 17.8694 35.4952 17.8921C35.3984 17.9147 35.3022 17.9397 35.2067 17.9671C35.1112 17.9945 35.0164 18.0243 34.9224 18.0563C34.8284 18.0884 34.7352 18.1228 34.6429 18.1594C34.5505 18.1961 34.4591 18.2351 34.3687 18.2762C34.2783 18.3174 34.1889 18.3607 34.1006 18.4062C34.0123 18.4519 33.9252 18.4996 33.8393 18.5495C33.7534 18.5994 33.6687 18.6514 33.5854 18.7054C33.502 18.7595 33.4201 18.8156 33.3395 18.8737C33.2588 18.9317 33.1797 18.9917 33.102 19.0537C33.0244 19.1157 32.9483 19.1796 32.8738 19.2453C32.7994 19.3111 32.7266 19.3787 32.6554 19.448C32.5842 19.5174 32.5148 19.5884 32.4473 19.6612C32.3796 19.7339 32.3138 19.8083 32.2498 19.8843C32.1857 19.9603 32.1236 20.0379 32.0635 20.1169C32.0033 20.196 31.9452 20.2765 31.889 20.3584C31.3195 21.1978 30.9826 22.1644 30.8572 23.1685L21.2897 23.169L21.3108 78.2327C19.1638 76.1658 15.3322 73.4032 12.5251 72.4767C11.9916 73.8579 11.4345 75.2346 10.9233 76.6238Z" fill="#D6E5F4"/>
<path d="M21.605 40.1318L120.576 40.1333L120.565 94.5533C118.004 93.5116 115.969 93.497 113.25 93.5638C112.922 91.5947 112.86 89.5438 112.595 87.5562C113.478 87.1105 114.307 86.246 114.884 85.455C114.966 85.3431 115.045 85.2292 115.121 85.1135C115.197 84.9977 115.27 84.8801 115.34 84.7608C115.41 84.6415 115.478 84.5205 115.542 84.3978C115.606 84.2751 115.668 84.1508 115.726 84.0251C115.784 83.8995 115.839 83.7725 115.891 83.6441C115.943 83.5157 115.992 83.3861 116.037 83.2554C116.083 83.1245 116.125 82.9927 116.164 82.8599C116.203 82.727 116.239 82.5932 116.272 82.4585C116.304 82.3239 116.333 82.1886 116.359 82.0524C116.385 81.9164 116.408 81.7798 116.427 81.6426C116.446 81.5055 116.462 81.3679 116.474 81.2299C116.486 81.092 116.495 80.9539 116.501 80.8154C116.506 80.677 116.509 80.5386 116.507 80.4001C116.506 80.2616 116.501 80.1232 116.493 79.985C116.485 79.8467 116.474 79.7087 116.459 79.571C116.444 79.4333 116.426 79.296 116.404 79.1592C115.959 76.4664 114.282 74.6292 112.141 73.0936C111.384 72.6603 110.605 72.3451 109.783 72.0561C108.123 71.735 106.849 71.7399 105.201 72.1242C104.175 72.5992 103.114 73.1266 102.225 73.8317C101.666 74.275 101.169 74.8101 100.582 75.2169C99.9303 75.6686 99.1819 75.8937 98.5513 76.4015C97.391 77.7126 96.7586 78.9534 96.8688 80.7423C96.9694 82.3756 97.6655 83.7171 98.6193 85.011C99.329 85.6378 100.054 86.2463 100.909 86.667C101.347 88.7812 102.204 91.3866 104.138 92.6093C104.535 92.8596 105.446 93.0675 105.677 93.3999C105.699 93.6158 105.694 93.6323 105.59 93.8233C105.039 94.2218 104.225 94.2697 103.575 94.4456C101.111 95.2584 99.4742 96.2945 97.5645 98.0397C91.9373 97.9221 86.2841 98.0532 80.6547 98.0548L49.1977 98.0545C49.0267 95.7058 48.3079 93.6222 47.7951 91.3519C47.5033 90.0594 47.3701 88.7377 47.2298 87.4221C45.195 88.0759 43.2882 88.8408 41.4 89.8431C41.36 88.6775 41.3808 87.5037 41.3741 86.337C40.3343 86.3251 28.6104 86.2595 28.3201 86.3633C28.2781 86.3784 28.2467 86.4142 28.2101 86.4395C28.3242 86.5362 28.346 86.5459 28.5007 86.5551C29.7945 86.6323 31.1521 86.5303 32.4545 86.5277L41.1637 86.5319C41.165 87.6793 41.1185 88.8539 41.2355 89.9954C39.4132 91.1874 37.9201 92.5984 36.5859 94.3108C36.2206 92.3229 35.8912 90.2471 34.548 88.6442C33.8061 87.759 32.7617 87.1085 31.5891 87.0301C30.4415 86.9535 29.6061 87.4494 28.7757 88.1676C27.0602 84.4507 24.537 81.3496 21.6311 78.5068L21.605 40.1318Z" fill="white"/>
<path d="M109.783 72.0557C110.513 71.9118 111.328 72.0576 112.076 72.0309L112.141 73.0932C111.384 72.6599 110.605 72.3447 109.783 72.0557Z" fill="#8A9FCE"/>
<path d="M98.527 72.1355C100.027 72.1399 101.526 72.1358 103.026 72.1231C103.745 72.1181 104.485 72.0654 105.201 72.1245C104.176 72.5996 103.115 73.1269 102.225 73.8321C101.666 74.2754 101.169 74.8105 100.582 75.2173C99.9304 75.669 99.182 75.894 98.5514 76.4019C98.5029 74.9816 98.5256 73.5567 98.527 72.1355Z" fill="#8A9FCE"/>
<path d="M98.6191 85.0107C99.3289 85.6375 100.054 86.246 100.909 86.6667C101.346 88.781 102.204 91.3863 104.138 92.609C104.534 92.8594 105.446 93.0672 105.677 93.3996C105.699 93.6155 105.694 93.6321 105.59 93.8231C105.039 94.2215 104.225 94.2694 103.575 94.4454C102.866 94.2129 99.6284 94.344 98.6515 94.3411L98.6191 85.0107Z" fill="#8A9FCE"/>
<path d="M49.4231 84.7428L62.8449 84.7393L62.9022 94.3357C58.3956 94.3409 53.8763 94.4317 49.3714 94.3457C49.3521 91.1445 49.3693 87.9436 49.4231 84.7428Z" fill="#D6E5F4"/>
<path d="M49.5091 72.0654L62.8461 72.0698L62.8738 81.7957L49.4609 81.7987L49.5091 72.0654Z" fill="#D6E5F4"/>
<path d="M82.1824 84.6771L95.7262 84.6455C95.6647 87.8989 95.7045 91.1499 95.7176 94.4039C93.5578 94.433 91.3915 94.3882 89.231 94.3825C86.896 94.3765 84.5575 94.4086 82.223 94.3624C82.1178 91.1396 82.1804 87.9017 82.1824 84.6771Z" fill="#D6E5F4"/>
<path d="M82.1854 72.0166C86.6624 71.9499 91.1488 72.0324 95.6269 72.0605C95.6538 75.2737 95.7377 78.5236 95.6211 81.7347C91.1441 81.8252 86.6528 81.7969 82.1743 81.8073L82.1854 72.0166Z" fill="#D6E5F4"/>
<path d="M65.7847 84.6981L79.4524 84.6621L79.3872 94.351L65.7667 94.4042C65.7541 91.1688 65.7601 87.9335 65.7847 84.6981Z" fill="#D6E5F4"/>
<path d="M49.5008 59.4006C53.9724 59.4521 58.4499 59.4055 62.9221 59.3955L62.9082 69.3068C58.4296 69.2425 53.946 69.2784 49.4668 69.2766L49.5008 59.4006Z" fill="#D6E5F4"/>
<path d="M84.9646 59.4358C88.523 59.3621 92.0936 59.4129 95.6531 59.4087L95.649 69.2958L92.739 69.2886L82.1867 69.3243L82.1514 59.4747L84.9646 59.4358Z" fill="#D6E5F4"/>
<path d="M65.7653 71.999C70.3054 72.0727 74.8504 72.0009 79.3926 72.0671C79.3716 75.3146 79.3747 78.5619 79.4019 81.8089L65.8227 81.8208C65.7203 80.6133 65.7701 79.3673 65.7688 78.1559L65.7653 71.999Z" fill="#D6E5F4"/>
<path d="M98.5646 59.4004L112.138 59.4704C112.082 62.7363 112.068 66.0024 112.096 69.2686C111.269 69.4693 109.137 69.3177 108.205 69.3146L98.5894 69.2748C98.5364 65.9859 98.5717 62.69 98.5646 59.4004Z" fill="#D6E5F4"/>
<path d="M65.7864 59.4111L73.4047 59.4425C75.4105 59.4522 77.4273 59.4949 79.432 59.4201L79.4563 69.2873L65.7827 69.2848L65.7864 59.4111Z" fill="#D6E5F4"/>
<path d="M49.5129 46.7148C53.972 46.8167 58.453 46.7271 62.9143 46.7197L62.9133 53.1086C62.9156 54.3479 62.9596 55.601 62.8988 56.8387C60.2447 56.8353 57.5906 56.8457 54.9366 56.87C53.1179 56.8816 51.2821 56.923 49.465 56.8409C49.4131 53.4706 49.493 50.0862 49.5129 46.7148Z" fill="#D6E5F4"/>
<path d="M98.5674 46.7344L112.085 46.7305C112.061 50.0991 112.059 53.4677 112.079 56.8363C107.579 56.895 103.067 56.8329 98.5664 56.815L98.5674 46.7344Z" fill="#D6E5F4"/>
<path d="M82.1821 46.7463L95.6906 46.7354C95.7347 48.0221 95.6878 49.3224 95.6859 50.6104C95.6951 52.6857 95.69 54.761 95.6705 56.8362C91.1735 56.8663 86.6764 56.8737 82.1793 56.8584C82.1311 53.4906 82.1758 50.1147 82.1821 46.7463Z" fill="#D6E5F4"/>
<path d="M65.7734 46.7285C70.3033 46.8388 74.8631 46.7308 79.3956 46.7236L79.4442 56.8731C77.6211 56.9563 75.7703 56.8765 73.9443 56.8608C71.2219 56.8578 68.4996 56.8367 65.7774 56.7975L65.7734 46.7285Z" fill="#D6E5F4"/>
<path d="M41.258 44.0566C41.5921 44.1551 42.5725 45.3243 42.8705 45.6335C42.3352 46.1963 41.835 46.7892 41.2897 47.3436C41.3746 48.4469 41.3403 49.5722 41.3416 50.6785L41.3442 55.846L29.8459 55.8416L27.9648 55.8479L27.9424 44.8764L40.4557 44.8364L41.258 44.0566Z" fill="#F28A20"/>
<path d="M33.3801 45.0808C35.6691 45.0772 37.9582 45.0871 40.2471 45.1104C39.451 46.0456 38.5289 46.8905 37.6636 47.7623C36.6111 48.8229 35.5885 49.9144 34.5401 50.9796C33.5471 49.9782 32.5352 48.9553 31.3722 48.1521C30.8248 48.6347 30.3298 49.1682 29.8277 49.6967C30.3259 50.1215 30.7828 50.614 31.2584 51.066C32.3543 52.1102 33.46 53.1439 34.5755 54.1671C35.7542 53.1023 36.8409 51.8463 37.9724 50.7205L41.0969 47.5231C41.1437 50.2248 41.1521 52.9266 41.1222 55.6284L28.1611 55.5969V45.1057C29.9009 45.1067 31.6405 45.0984 33.3801 45.0808Z" fill="white"/>
<path d="M41.411 72.1602L42.9176 73.6676C42.386 74.1433 41.8777 74.6233 41.3869 75.1418L41.3781 83.5323L29.5533 83.5212C29.0296 83.5268 28.5061 83.5209 27.9828 83.5038C27.9135 79.8025 27.9682 76.0897 27.9692 72.3875C30.9859 72.3122 34.0256 72.3906 37.0443 72.3938C38.2864 72.3953 39.6345 72.4999 40.863 72.3622C41.0696 72.339 41.2332 72.2633 41.411 72.1602Z" fill="#F28A20"/>
<path d="M28.2061 72.6426L40.7022 72.6511C39.8587 73.3332 39.1002 74.1506 38.3292 74.9125L34.3858 78.8248C33.3406 77.922 32.4188 76.8719 31.3351 76.0141L29.7579 77.6663C31.2563 79.1786 32.872 80.5715 34.3779 82.0797L34.9588 81.5906C36.2883 80.338 37.574 79.0229 38.8454 77.7114C39.5987 76.9341 40.3247 76.1268 41.1251 75.3972C41.1508 78.0266 41.1595 80.6561 41.1512 83.2857L28.2065 83.2782L28.2061 72.6426Z" fill="white"/>
<path d="M41.3107 57.8486C41.833 58.1895 42.5329 59.0593 43.0101 59.5234C42.4384 60.061 41.8666 60.5954 41.3244 61.1631C41.4073 64.065 41.3384 66.9799 41.3791 69.8842C37.5631 69.9935 33.7196 69.9062 29.9012 69.8938L27.9458 69.8927L27.9704 58.3149C29.915 58.2679 31.8678 58.2995 33.8129 58.3C36.1338 58.2813 38.4545 58.2963 40.775 58.3449L41.3107 57.8486Z" fill="#F28A20"/>
<path d="M28.2158 58.5559C32.3173 58.5246 36.4187 58.537 40.52 58.5931C38.6044 60.7996 36.4023 62.8312 34.3851 64.9519C33.3795 64.0414 32.3675 63.1382 31.3489 62.2422C30.7795 62.6767 30.2632 63.1804 29.7455 63.6739C31.3113 65.2173 32.9696 66.6603 34.5095 68.2299L35.2416 67.3391C37.115 65.271 39.1505 63.3328 41.1264 61.3618L41.1458 69.6454L28.1611 69.6411C28.1589 65.9521 28.081 62.2419 28.2158 58.5559Z" fill="white"/>
</g>
<defs>
<clipPath id="clip0_183_2627">
<rect width="150" height="150" rx="75" fill="white"/>
</clipPath>
</defs>
</svg>
