<svg width="261" height="262" viewBox="0 0 261 262" fill="none" xmlns="http://www.w3.org/2000/svg">
<path d="M140.49 246.176C139.038 246.746 137.48 246.889 135.964 246.591C134.449 246.293 133.028 245.563 131.838 244.473C128.807 241.631 127.856 236.95 127.084 232.614L124.797 219.791L129.585 223.474C133.028 226.123 136.548 228.857 138.933 232.693C141.318 236.529 142.357 241.767 140.443 245.918" fill="#E6E6E6"/>
<path d="M140.083 261.702C140.567 257.759 141.065 253.765 140.726 249.779C140.424 246.24 139.458 242.782 137.49 239.948C136.445 238.446 135.174 237.159 133.734 236.145C133.358 235.881 133.013 236.547 133.387 236.809C135.879 238.568 137.806 241.167 138.891 244.229C140.09 247.635 140.282 251.348 140.074 254.965C139.949 257.153 139.684 259.326 139.417 261.497C139.396 261.596 139.409 261.699 139.453 261.787C139.498 261.875 139.571 261.941 139.657 261.97C139.745 261.997 139.839 261.983 139.918 261.933C139.998 261.883 140.056 261.799 140.081 261.701L140.083 261.702Z" fill="#F2F2F2"/>
<path d="M101.411 261.544C101.411 261.544 106.439 247.718 91.3564 237.348L101.411 261.544Z" fill="#E6E6E6"/>
<path d="M107.593 261.293C107.593 261.293 109.127 251.438 120.998 251.522L107.593 261.293Z" fill="#E6E6E6"/>
<path d="M260.555 261.998H87.0255C86.9422 261.999 86.8601 261.974 86.7886 261.927C86.7171 261.879 86.6589 261.809 86.6206 261.727C86.5793 261.641 86.5576 261.544 86.5576 261.447C86.5576 261.349 86.5793 261.253 86.6206 261.167C86.6589 261.084 86.7171 261.015 86.7886 260.967C86.8601 260.919 86.9421 260.894 87.0255 260.896H260.555C260.677 260.91 260.79 260.974 260.872 261.076C260.954 261.178 261 261.31 261 261.447C261 261.584 260.954 261.716 260.872 261.818C260.79 261.92 260.677 261.984 260.555 261.998Z" fill="#F2F2F2"/>
<path d="M212.439 118.22L207.153 122.648L204.511 113.791L210.456 111.577L212.439 118.22Z" fill="#FFB9B9"/>
<path d="M209.467 131.873L220.035 193.128L233.907 238.884L211.449 244.052L189.651 152.537L188.99 240.361L160.585 241.099L167.191 188.7L170.494 129.659L209.467 131.873Z" fill="#090814"/>
<path d="M175.779 238.886V250.694L175.119 257.336C175.119 257.336 173.798 263.242 181.724 261.764C189.65 260.287 185.686 253.646 185.686 253.646L183.044 247.741L181.723 238.146L175.779 238.886Z" fill="#090814"/>
<path d="M225.413 238.047L227.318 249.662L229.04 256.062C229.04 256.062 231.292 261.603 223.257 261.748C215.222 261.893 218.049 254.561 218.049 254.561L219.696 248.22L219.447 238.516L225.413 238.047Z" fill="#090814"/>
<path d="M200.508 63.9756C200.508 63.9756 199.187 71.3556 191.26 71.3556C183.333 71.3556 185.315 67.667 185.315 67.667L174.747 73.5723L176.068 107.521L167.722 147.215C167.722 147.215 165.327 152.007 171.931 155.697C178.536 159.387 188.992 153.718 188.992 153.718C188.992 153.718 204.301 147.718 207.603 149.194C210.905 150.67 213.585 150.891 213.585 150.891L206.452 111.946L212.397 88.329L211.076 67.667L200.508 63.9756Z" fill="#76B940"/>
<path d="M163.229 137.777L161.247 147.372C161.247 147.372 153.981 161.394 159.266 162.132C164.55 162.87 165.871 147.372 165.871 147.372L169.174 137.777H163.229Z" fill="#FFB9B9"/>
<path d="M206.165 69.879L209.414 66.9062L211.449 67.6639C211.449 67.6639 214.752 66.9259 218.054 72.83C221.357 78.7341 234.272 97.6856 233.907 100.874C233.542 104.063 216.073 117.111 216.073 117.111C216.073 117.111 216.734 119.325 216.073 120.063C215.413 120.801 211.45 122.277 211.45 121.539C211.45 120.801 206.964 111.397 206.964 111.397C206.964 111.397 210.128 106.777 210.789 107.517C211.628 108.316 212.51 109.056 213.431 109.731L218.717 103.826C219.237 103.152 219.681 102.408 220.038 101.612C220.901 99.8886 220.698 97.1835 208.809 84.6374L206.165 69.879Z" fill="#76B940"/>
<path d="M178.421 73.571L176.643 72.5977C176.643 72.5977 172.477 73.571 171.156 76.5233C169.835 79.4755 166.532 109.734 166.532 109.734L163.89 129.659C163.89 129.659 161.908 129.659 161.908 131.873C161.908 134.087 159.266 139.991 161.248 139.991C163.229 139.991 171.156 139.991 172.477 138.515C173.798 137.04 176.44 131.135 175.779 130.397C175.119 129.659 173.798 129.659 173.798 129.659L177.761 108.995L178.421 73.571Z" fill="#76B940"/>
<path d="M189.878 33.8438C184.051 35.6789 181.632 38.6791 179.908 46.2837C177.914 55.077 180.538 59.0882 178.8 66.0743C177.176 72.5993 170.602 75.9696 170.602 75.9696C170.602 75.9696 176.35 72.6505 179.908 73.7078C185.368 75.3308 186.044 79.6845 191.65 79.645C197.167 79.6062 201.444 77.5784 206.052 73.7078C209.731 70.6174 214.25 67.7706 214.25 67.7706C214.25 67.7706 209.065 67.6638 207.16 62.6816C204.988 57.0024 208.73 52.0033 206.052 45.1528C202.694 36.5629 197.181 31.5435 189.878 33.8438Z" fill="#090814"/>
<path d="M192.953 60.2852C198.425 60.2852 202.861 55.3289 202.861 49.215C202.861 43.1011 200.07 45.1525 197.632 38.3672C194.726 46.5661 183.045 43.1011 183.045 49.215C183.045 55.3289 187.481 60.2852 192.953 60.2852Z" fill="#FFB9B9"/>
<path d="M142.739 142.374L161.449 158.116C161.551 158.202 161.619 158.328 161.64 158.468C161.661 158.609 161.633 158.753 161.562 158.871C161.491 158.989 161.382 159.072 161.257 159.103C161.133 159.135 161.003 159.112 160.893 159.039L141.46 146.033L142.739 142.374Z" fill="#3F3D56"/>
<path d="M135.631 141.32C136.434 140.876 137.281 140.539 138.155 140.316C138.599 140.205 139.049 140.126 139.496 140.058C139.653 140.03 139.812 140.008 139.968 139.984C140.339 139.927 140.711 139.869 141.086 139.813C141.401 139.763 141.721 139.713 142.036 139.667C142.499 139.596 143.011 139.537 143.384 139.855C143.545 140.02 143.671 140.222 143.753 140.448C143.836 140.674 143.873 140.917 143.861 141.16C143.841 141.669 143.759 142.171 143.617 142.655C143.335 143.789 143.049 144.922 142.766 146.056L142.894 146.652C142.17 146.872 141.417 146.949 140.67 146.879C140.363 146.835 140.067 146.722 139.8 146.547C139.533 146.372 139.3 146.138 139.116 145.86C139.038 145.734 138.972 145.599 138.919 145.458C138.691 144.836 138.726 144.108 138.585 143.443C138.554 143.306 138.516 143.17 138.47 143.038C138.339 142.645 138.133 142.289 137.865 141.996C137.597 141.703 137.274 141.479 136.92 141.341C136.501 141.2 136.054 141.193 135.631 141.32Z" fill="#CCCCCC"/>
<path d="M135.631 141.32C136.434 140.876 137.281 140.539 138.154 140.317C138.599 140.206 139.049 140.126 139.496 140.058C139.653 140.031 139.812 140.008 139.968 139.984C140.339 139.927 140.711 139.87 141.085 139.813C141.09 140.027 141.085 140.24 141.07 140.453C140.932 142.437 140.094 144.224 139.117 145.861C139.039 145.735 138.973 145.6 138.92 145.459C138.692 144.837 138.727 144.109 138.585 143.445C138.554 143.307 138.515 143.171 138.469 143.039C138.339 142.646 138.132 142.29 137.864 141.997C137.596 141.704 137.274 141.48 136.92 141.342C136.5 141.201 136.054 141.193 135.631 141.32Z" fill="#76B940"/>
<path d="M97.3166 79.2589C98.5923 82.2868 101.543 83.7343 101.543 83.7343C101.543 83.7343 102.426 80.2715 101.15 77.2436C99.8744 74.2157 96.9236 72.7683 96.9236 72.7683C96.9236 72.7683 96.0409 76.2314 97.3166 79.2589Z" fill="#D6D6E3"/>
<path d="M133.229 136.804L132.806 136.85C132.814 136.779 132.21 115.562 128.355 108.172C124.795 101.346 117.109 93.7255 97.3377 92.4242C82.1753 91.4248 72.2737 86.8141 67.9084 78.7189C64.074 71.6067 64.5388 71.4652 68.2943 78.42C72.6077 86.4055 82.4206 90.957 97.4607 91.9475C106.256 92.5265 113.573 94.5435 119.205 97.9425C123.719 100.667 126.46 103.488 128.749 107.889C132.652 115.392 133.238 136.73 133.229 136.804Z" fill="#D6D6E3"/>
<path d="M100.99 72.7763H2.95082C1.32206 72.7763 0.00251684 71.5864 0 70.1202V2.65617C0.00179775 1.18989 1.3217 0.00160688 2.95082 0H100.99C102.619 0 103.938 1.18989 103.941 2.65617V70.1202C103.939 71.5864 102.619 72.7747 100.99 72.7763ZM2.95082 0.407739C1.57195 0.407739 0.454463 1.41485 0.453024 2.65737V70.1202C0.453024 71.3615 1.57195 72.3674 2.95082 72.3698H100.99C102.369 72.3698 103.486 71.3627 103.488 70.1202V2.65617C103.488 1.41486 102.369 0.408948 100.99 0.406538L2.95082 0.407739Z" fill="#090814"/>
<path d="M53.0515 17.6061C52.5122 16.6082 51.8715 15.5429 50.8694 15.2171C49.7088 14.8399 48.5165 15.5895 47.5055 16.329C44.4813 18.5412 41.5689 20.9386 38.7817 23.5102L38.7846 23.5503L45.2942 23.0486C46.8619 22.9281 48.4838 22.7903 49.8691 21.9615C50.3948 21.647 50.9075 21.2272 51.5029 21.1983C52.2432 21.1617 52.8886 21.7394 53.3956 22.3428C56.3957 25.912 57.264 31.3706 60.6297 34.5064C58.5076 28.658 55.9735 23.0068 53.0515 17.6061Z" fill="#76B940"/>
<path d="M71.4929 47.8797C71.1611 47.4117 71.0255 47.302 70.6983 46.8296C68.0336 42.979 65.5287 38.9983 63.1837 34.8877C61.5914 32.096 60.078 29.2506 58.6434 26.3515C57.9605 24.9734 57.2963 23.5844 56.6507 22.1845C56.1498 21.0991 55.6601 20.0072 55.1816 18.9089C55.0446 18.5951 54.912 18.2798 54.7797 17.964C54.4679 17.2213 54.1619 16.4749 53.8333 15.7421C53.4937 14.8625 52.9739 14.0843 52.3157 13.4704C52.0028 13.2046 51.6287 13.0438 51.237 13.0068C50.6853 13.0103 50.1451 13.1832 49.6755 13.5066C46.1203 15.5947 42.802 18.1514 39.7915 21.122C36.7764 24.0804 34.0813 27.4228 31.7613 31.081C31.6894 31.1943 31.5226 31.0862 31.5941 30.9721C31.8762 30.5265 32.1639 30.0855 32.457 29.6493C36.1036 24.2305 40.5749 19.5706 45.6665 15.8827C46.5232 15.2625 47.3959 14.6713 48.2848 14.1091C48.7328 13.8255 49.1836 13.5467 49.6403 13.2832C50.079 12.9958 50.5712 12.8254 51.0785 12.7855C52.8226 12.7553 53.7258 14.962 54.346 16.4471C54.5409 16.9145 54.7382 17.3803 54.9379 17.8447C55.6924 19.608 56.476 21.3552 57.2886 23.0864C57.79 24.1552 58.3025 25.2177 58.826 26.274C60.456 29.5636 62.1877 32.7864 64.0211 35.9426C66.451 40.1233 68.861 43.8163 71.6288 47.7262C71.7058 47.8347 71.5699 47.9894 71.4929 47.8797Z" fill="#090814"/>
<path d="M39.6199 20.0318C39.5185 19.9057 39.4178 19.7795 39.3157 19.653C38.5114 18.6591 37.6485 17.6769 36.5439 17.1073C36.0173 16.8271 35.4424 16.6782 34.8591 16.671C34.2573 16.6895 33.6639 16.8341 33.1099 17.0973C32.8467 17.215 32.5889 17.3483 32.3354 17.4901C32.0456 17.6532 31.7601 17.8268 31.4775 18.0023C30.9456 18.3312 30.4207 18.6745 29.9027 19.0323C28.872 19.7442 27.8734 20.5104 26.9069 21.331C26.406 21.7565 25.9154 22.196 25.4353 22.6494C24.9887 23.0707 24.551 23.5032 24.1222 23.947C24.0305 24.0414 23.8939 23.8887 23.9852 23.7939C24.0981 23.6762 24.2125 23.5597 24.3268 23.444C24.6495 23.1181 24.9773 22.7983 25.3105 22.4847C25.9179 21.9121 26.5412 21.3616 27.1802 20.8332C28.1737 20.0111 29.2013 19.2447 30.263 18.5342C30.7936 18.1793 31.3315 17.8394 31.8766 17.5142C32.0413 17.4162 32.2078 17.3202 32.3764 17.2294C32.7583 17.014 33.1551 16.8333 33.5629 16.6891C34.1412 16.4801 34.7531 16.413 35.3567 16.4923C35.9392 16.5871 36.5003 16.8041 37.0106 17.1318C38.095 17.8091 38.936 18.8564 39.7547 19.878C39.8396 19.982 39.7033 20.1355 39.6199 20.0318Z" fill="#090814"/>
<path d="M61.8397 30.3301L64.4381 29.2684L65.7282 28.7414C66.1451 28.5539 66.5702 28.3903 67.0021 28.2513C67.3796 28.1308 67.7805 28.1365 68.1552 28.2677C68.4891 28.4059 68.7948 28.6176 69.054 28.8904C69.3189 29.163 69.5654 29.4572 69.7915 29.7705C70.0723 30.1478 70.3491 30.529 70.6271 30.9086C71.7743 32.4764 72.914 34.0509 74.0464 35.632C75.1787 37.2132 76.3034 38.8012 77.4204 40.396C78.5402 41.9946 79.6525 43.5999 80.757 45.2119L81.1626 45.8044C81.2373 45.9137 81.4056 45.8044 81.3297 45.6951C80.2171 44.0668 79.0967 42.4453 77.9687 40.8307C76.8407 39.2161 75.7021 37.6042 74.553 35.9952C73.4065 34.3902 72.2522 32.7922 71.0902 31.2011C70.8006 30.8047 70.5107 30.4088 70.2204 30.0132C69.9756 29.6794 69.7332 29.3423 69.4653 29.0318C69.2365 28.7237 68.9556 28.4691 68.6386 28.2825C68.3216 28.0959 67.9748 27.981 67.618 27.9443C67.1858 27.9612 66.76 28.0657 66.3614 28.2529C65.927 28.4284 65.4934 28.6072 65.0598 28.7847L62.443 29.8541L61.789 30.1213C61.6728 30.1687 61.7232 30.378 61.8404 30.3298L61.8397 30.3301Z" fill="#090814"/>
<path d="M36.2023 18.3587C35.5346 17.9911 34.7914 17.8286 34.0489 17.8879C33.3064 17.9472 32.5914 18.2262 31.9773 18.6962C34.2919 19.1424 36.5813 19.7394 38.8335 20.4842C37.898 19.872 37.1667 18.9123 36.2023 18.3587Z" fill="#76B940"/>
<path d="M31.9644 18.6934L31.7102 18.9244C31.7961 18.844 31.8857 18.7677 31.9773 18.6962L31.9644 18.6934Z" fill="#F2F2F2"/>
<path d="M68.9565 30.3419C68.7291 29.9672 68.412 29.6715 68.0415 29.4883L67.6841 29.5039C70.4032 34.8724 74.0757 39.5634 78.476 43.289L68.9565 30.3419Z" fill="#76B940"/>
<path d="M37.0329 39.3829C36.9887 39.393 36.9444 39.4034 36.9006 39.4147C35.9795 39.6403 35.0835 39.9787 34.2288 40.4238C34.1853 40.4463 34.1425 40.4688 34.1004 40.4917C32.9182 41.1225 31.8305 41.9539 30.876 42.9566C30.8666 42.9655 30.8577 42.975 30.8494 42.9851C30.6272 43.2192 30.4131 43.4637 30.2072 43.7187C29.8098 44.187 29.4808 44.7224 29.2325 45.3051C29.0403 45.7913 28.952 46.3208 28.9743 46.8517C28.9761 46.9043 28.9786 46.9577 28.9826 47.0124C28.9851 47.055 28.988 47.0971 28.9919 47.1405C29.0865 47.7214 29.1174 48.3129 29.084 48.9021C29.0416 49.2011 28.9433 49.4868 28.7957 49.7407C28.648 49.9945 28.4542 50.2109 28.2268 50.3756C28.0456 50.4254 27.8676 50.4756 27.6929 50.5262C27.7267 50.5102 27.7594 50.4925 27.7925 50.474C28.0671 50.3441 28.3115 50.1457 28.5069 49.8941C28.7024 49.6424 28.8438 49.3442 28.9204 49.0222C28.9845 48.4253 28.9631 47.8207 28.8571 47.2313C28.8478 47.1361 28.8409 47.0425 28.8366 46.9501C28.8363 46.946 28.8363 46.9418 28.8366 46.9377C28.8048 46.4249 28.872 45.9104 29.0336 45.4292C29.2545 44.8341 29.5643 44.2853 29.9498 43.8062C30.1896 43.4941 30.4445 43.1952 30.7113 42.9108C30.7472 42.8727 30.7803 42.8361 30.8156 42.8003C32.5215 41.0337 34.6195 39.8095 36.8919 39.2548C36.9354 39.2439 36.9797 39.2335 37.0232 39.2234C37.1102 39.2033 37.1213 39.3624 37.0329 39.3829Z" fill="white"/>
<path d="M30.7516 42.9706C30.4605 42.5806 30.3029 42.0876 30.3072 41.5798C30.3115 41.072 30.4773 40.5825 30.775 40.1987C30.8354 40.1212 30.9458 40.2224 30.8854 40.2999C30.608 40.6566 30.4538 41.1124 30.4507 41.585C30.4476 42.0575 30.5958 42.5157 30.8685 42.877C30.9278 42.9573 30.8106 43.0469 30.7516 42.969V42.9706Z" fill="white"/>
<path d="M28.9289 46.8496C29.8525 46.9522 30.7768 46.6624 31.5177 46.0377C31.5896 45.9759 31.6734 46.1064 31.6 46.1683C30.8277 46.8171 29.8647 47.1166 28.9034 47.0071C28.8132 46.9962 28.838 46.8391 28.9289 46.8496Z" fill="white"/>
<path d="M34.2072 40.3813C34.2916 40.5584 34.414 40.7093 34.5635 40.8204C34.713 40.9316 34.8849 40.9995 35.0636 41.018C35.1553 41.0273 35.1305 41.1844 35.0392 41.1751C34.8418 41.1536 34.6521 41.0783 34.4867 40.956C34.3213 40.8337 34.1852 40.668 34.0903 40.4733C34.08 40.4558 34.076 40.4345 34.0792 40.4138C34.0824 40.3932 34.0926 40.3746 34.1076 40.362C34.1231 40.35 34.1423 40.3452 34.161 40.3488C34.1796 40.3524 34.1962 40.3641 34.2072 40.3813Z" fill="white"/>
<path d="M81.6772 52.4307C81.6728 52.4467 81.664 52.4607 81.6519 52.4706C81.6399 52.4805 81.6253 52.4858 81.6103 52.4857C81.6031 52.4855 81.5959 52.4842 81.5891 52.4817C75.3254 50.2693 68.8812 48.7545 62.3507 47.9595L62.1407 47.9334L61.9056 47.9057L61.4964 47.8587L61.4457 47.8531C61.1101 47.8153 60.7773 47.78 60.4472 47.747C54.9215 47.1899 49.3639 47.1468 43.8318 47.6181C43.3967 47.6558 42.9696 47.696 42.5503 47.7386C42.3896 47.7543 42.23 47.7707 42.0721 47.788C41.9412 47.8014 41.8115 47.8148 41.6827 47.8282L41.6601 47.8306L41.2347 47.8792C40.6595 47.9461 40.1004 48.017 39.5574 48.0917C29.009 49.5379 22.421 52.4492 22.3555 52.4785C22.3392 52.4817 22.3224 52.4786 22.308 52.4696C22.2935 52.4606 22.2822 52.4463 22.2761 52.4291C22.27 52.4119 22.2693 52.3929 22.2743 52.3753C22.2793 52.3576 22.2896 52.3424 22.3034 52.3322C22.3688 52.3033 28.9702 49.3844 39.5348 47.937C40.0636 47.8647 40.5935 47.7968 41.1247 47.7334C41.298 47.7129 41.4706 47.6932 41.6435 47.6735L41.6831 47.6695C41.8294 47.653 41.9754 47.6374 42.1217 47.6213C42.3288 47.5992 42.5352 47.5779 42.742 47.5574C43.2194 47.5095 43.6975 47.4657 44.1762 47.4261C48.9013 47.0346 53.6454 47.0212 58.3723 47.3859C58.9912 47.4338 59.6098 47.4883 60.2283 47.5494C60.6058 47.5855 60.9833 47.6257 61.3605 47.6675L61.4414 47.6767C61.5942 47.6932 61.7463 47.7113 61.8991 47.7293C62.0116 47.7418 62.1238 47.7555 62.2364 47.7695C62.3151 47.7788 62.3942 47.7884 62.4722 47.7984C68.9762 48.6069 75.3937 50.1254 81.6326 52.3322C81.6414 52.3353 81.6496 52.3402 81.6567 52.3468C81.6638 52.3534 81.6697 52.3616 81.6739 52.3707C81.6782 52.3799 81.6808 52.3899 81.6815 52.4002C81.6823 52.4105 81.6811 52.4209 81.6782 52.4307H81.6772Z" fill="#090814"/>
<path d="M65.8449 35.2058C65.6996 34.9287 65.6251 34.6125 65.6293 34.2915C65.6336 33.9705 65.7165 33.6569 65.869 33.3848C66.0347 34.0551 66.407 34.6385 66.9203 35.0318C67.1188 35.1829 67.354 35.3279 67.4219 35.5854C67.4572 35.749 67.4352 35.9214 67.3604 36.0674C67.2853 36.212 67.194 36.3453 67.0886 36.4639L67.0789 36.5041C66.5702 36.2021 66.1438 35.7523 65.8449 35.2021V35.2058Z" fill="#76B940"/>
<path d="M70.1053 17.8558C72.0887 17.8558 73.6965 16.0594 73.6965 13.8434C73.6965 11.6275 72.0887 9.83105 70.1053 9.83105C68.122 9.83105 66.5142 11.6275 66.5142 13.8434C66.5142 16.0594 68.122 17.8558 70.1053 17.8558Z" fill="#FF6584"/>
<path d="M76.5854 10.7655C74.8448 10.5028 72.8579 11.5537 72.4071 13.4502C72.2935 13.1129 72.0868 12.8246 71.817 12.6272C71.5472 12.4297 71.2281 12.3332 70.906 12.3517C70.5838 12.3702 70.2753 12.5026 70.025 12.7299C69.7746 12.9572 69.5955 13.2675 69.5134 13.6161L69.7126 13.7768C73.4422 14.6779 77.3029 14.6585 81.0251 13.7197C79.8149 12.2968 78.326 11.0282 76.5854 10.7655Z" fill="#76B940"/>
<path d="M76.2622 46.6996C76.1764 46.6645 76.0924 46.6243 76.0105 46.5791L75.9983 46.6004L76.2622 46.6996Z" fill="#E6E6E6"/>
<path d="M38.384 15.6941C38.2387 15.417 38.1641 15.1008 38.1684 14.7798C38.1726 14.4587 38.2555 14.1452 38.4081 13.873C38.5737 14.5434 38.9461 15.1268 39.4594 15.5201C39.6579 15.6711 39.893 15.8162 39.961 16.0737C39.9963 16.2372 39.9743 16.4097 39.8995 16.5557C39.8244 16.7003 39.733 16.8336 39.6276 16.9522L39.6179 16.9924C39.1094 16.6904 38.6832 16.2406 38.3843 15.6904L38.384 15.6941Z" fill="#F2F2F2"/>
<path d="M81.6105 63.2626C81.6033 63.2627 81.5962 63.2614 81.5893 63.259C66.8898 58.0535 51.3081 56.7395 36.0758 59.421C34.6488 59.6769 33.2178 59.9722 31.8227 60.2992C31.4664 60.3827 31.0971 60.4719 30.7246 60.5647C30.2795 60.6756 29.8409 60.7893 29.4198 60.9033C29.2379 60.9516 29.0597 61 28.8852 61.0488C28.6206 61.1219 28.352 61.1978 28.0643 61.2814C27.7425 61.3742 27.4172 61.4714 27.0936 61.5702H27.09C26.725 61.6815 26.3619 61.796 26.0113 61.9104C25.8212 61.9718 25.6382 62.0323 25.4623 62.092L25.4076 62.1101L25.3717 62.1229L25.3066 62.1446L25.2494 62.1643L25.0495 62.2322C23.3212 62.8276 22.3712 63.251 22.3619 63.255C22.3456 63.2584 22.3287 63.2554 22.3141 63.2464C22.2995 63.2375 22.2882 63.2232 22.282 63.2059C22.2758 63.1887 22.2752 63.1696 22.2802 63.1519C22.2852 63.1342 22.2955 63.119 22.3094 63.1088C22.3188 63.1048 23.2737 62.6789 25.0082 62.0816L25.2088 62.0133L25.262 61.9948L25.2674 61.9928L25.3321 61.9711L25.3699 61.9583L25.4263 61.9398C25.6007 61.8803 25.7859 61.8193 25.9754 61.7582C26.3266 61.6437 26.6898 61.5292 27.054 61.4175H27.0576C27.3812 61.3183 27.7098 61.2207 28.0323 61.1275C28.32 61.0439 28.5896 60.9668 28.8546 60.8945C29.0301 60.8458 29.2087 60.7972 29.3904 60.7487C29.8117 60.6346 30.2533 60.5205 30.6973 60.4092C31.0705 60.316 31.4405 60.2264 31.7972 60.1433C33.1944 59.8159 34.6275 59.5198 36.0571 59.2639C51.3104 56.5796 66.9134 57.896 81.6328 63.1092C81.6475 63.1162 81.6597 63.1284 81.6675 63.144C81.6752 63.1596 81.6781 63.1777 81.6757 63.1953C81.6733 63.2129 81.6656 63.2292 81.654 63.2414C81.6424 63.2537 81.6275 63.2613 81.6116 63.263L81.6105 63.2626Z" fill="#090814"/>
<path d="M35.8977 53.7891C36.7607 53.3954 40.8523 52.8748 41.7814 52.9519C41.8091 52.9532 41.8362 52.9422 41.8567 52.9214C41.8773 52.9005 41.8897 52.8715 41.8912 52.8405C41.8928 52.8096 41.8834 52.7792 41.8651 52.7559C41.8467 52.7326 41.821 52.7183 41.7933 52.7161C40.8247 52.6358 36.6985 53.17 35.7996 53.5798C35.6741 53.6372 35.7715 53.8481 35.8977 53.7891Z" fill="#090814"/>
<path d="M58.2385 52.7338C59.1585 52.5546 60.1032 52.6155 60.9987 52.9118C61.0258 52.9201 61.0546 52.9161 61.079 52.9006C61.1034 52.8851 61.1213 52.8594 61.1287 52.8292C61.1361 52.799 61.1326 52.7668 61.1187 52.7395C61.1048 52.7123 61.0819 52.6923 61.0548 52.684C60.1224 52.3778 59.1391 52.3168 58.182 52.506C58.0486 52.5326 58.1055 52.7599 58.2385 52.7338Z" fill="#090814"/>
<path d="M74.0107 56.1957C74.9308 56.0165 75.8755 56.0774 76.771 56.3737C76.798 56.382 76.8269 56.378 76.8512 56.3625C76.8756 56.347 76.8935 56.3213 76.9009 56.2911C76.9084 56.2609 76.9048 56.2287 76.8909 56.2014C76.8771 56.1742 76.8541 56.1542 76.8271 56.1459C75.8946 55.8397 74.9113 55.7788 73.9542 55.968C73.8208 55.9949 73.8777 56.2214 74.0107 56.1957Z" fill="#090814"/>
</svg>
