<svg width="150" height="150" viewBox="0 0 150 150" fill="none" xmlns="http://www.w3.org/2000/svg">
<g clip-path="url(#clip0_192_1240)">
<path d="M0 0H150V150H0V0Z" fill="white"/>
<path d="M12.62 131.673L12.6605 131.679L12.7088 131.901C12.7931 131.943 12.8067 131.955 12.9131 131.976C13.3681 132.066 14.0198 131.958 14.4998 131.959L20.5324 131.947L41.892 131.968L122.538 131.999L134.922 131.995C135.842 131.995 138.879 132.126 139.554 131.937C139.631 131.915 139.663 131.896 139.74 131.861C139.679 132.964 139.731 134.098 139.73 135.204L139.716 141.647L12.6006 141.61L12.62 131.673Z" fill="#343D95"/>
<path d="M10.9228 76.6238C10.0947 75.4421 9.15357 74.3596 8.3856 73.1313C5.82731 69.0395 3.96507 64.9987 2.47739 60.4266C2.09141 59.2404 1.68909 58.0537 1.40465 56.8383C1.1197 55.6209 0.938604 54.3711 0.74231 53.1365C0.225323 49.8849 0.0158691 46.7816 0.39503 43.5009C0.422608 43.2566 0.452626 43.0126 0.485085 42.7689C0.517545 42.5252 0.55244 42.2818 0.589769 42.0389C0.627097 41.7958 0.666852 41.5532 0.709035 41.311C0.751219 41.0688 0.79582 40.827 0.84284 40.5857C0.889859 40.3444 0.939288 40.1036 0.991126 39.8633C1.04296 39.6229 1.0972 39.3831 1.15384 39.1439C1.21047 38.9046 1.2695 38.666 1.33091 38.4279C1.39232 38.1899 1.4561 37.9525 1.52226 37.7157C1.58843 37.4789 1.65695 37.2427 1.72784 37.0073C1.79872 36.7719 1.87195 36.5373 1.94754 36.3033C2.02311 36.0693 2.10102 35.8361 2.18127 35.6038C2.26151 35.3714 2.34408 35.1398 2.42896 34.909C2.51383 34.6783 2.60101 34.4484 2.69049 34.2195C2.77996 33.9905 2.87172 33.7624 2.96576 33.5353C3.05981 33.3081 3.15611 33.0818 3.25468 32.8566C3.35324 32.6314 3.45405 32.4072 3.55711 32.184C3.66016 31.9607 3.76544 31.7386 3.87293 31.5175C3.98043 31.2964 4.09013 31.0764 4.20203 30.8574C4.31393 30.6385 4.42801 30.4207 4.54427 30.2041C4.66053 29.9875 4.77894 29.7721 4.8995 29.5578C5.02007 29.3436 5.14277 29.1305 5.26759 28.9187C5.39242 28.7069 5.51936 28.4963 5.64841 28.2871C5.77745 28.0778 5.90857 27.8698 6.04177 27.6632C6.17498 27.4565 6.31023 27.2512 6.44754 27.0472C6.58485 26.8433 6.72419 26.6408 6.86554 26.4396C7.00691 26.2385 7.15028 26.0388 7.29564 25.8405C7.441 25.6422 7.58832 25.4454 7.73761 25.25C7.88691 25.0547 8.03814 24.8609 8.19132 24.6686C8.3445 24.4763 8.49958 24.2855 8.65657 24.0963C8.81356 23.9071 8.97243 23.7195 9.13318 23.5335C9.29392 23.3475 9.45651 23.163 9.62095 22.9802C9.78538 22.7975 9.95162 22.6164 10.1197 22.4369C11.7707 20.6706 13.6015 19.0925 15.4947 17.5924C19.7041 14.257 24.3121 11.9841 29.3643 10.2367C30.4143 9.87353 31.4668 9.47936 32.5367 9.1789C43.9739 5.96693 57.1691 6.32758 67.5358 12.6067C68.6419 13.2842 69.7205 14.0031 70.7713 14.7635C71.8222 15.5238 72.8423 16.3234 73.8317 17.1623C74.7954 17.9921 75.6704 18.9749 76.6807 19.7417C76.9763 19.966 77.1702 20.0592 77.541 20.0983C77.5678 20.1012 77.5946 20.1033 77.6215 20.1058C78.6838 18.7594 80.132 17.9173 81.8498 17.7206C81.9472 17.7098 82.0448 17.7015 82.1426 17.6955C82.2405 17.6895 82.3384 17.686 82.4363 17.685C82.5343 17.6839 82.6322 17.6853 82.7302 17.6891C82.8281 17.6928 82.9259 17.699 83.0234 17.7077C83.1211 17.7163 83.2185 17.7273 83.3155 17.7408C83.4125 17.7541 83.5091 17.77 83.6054 17.7882C83.7017 17.8065 83.7975 17.8271 83.8928 17.8502C83.988 17.8731 84.0826 17.8985 84.1766 17.9262C84.2706 17.954 84.3639 17.984 84.4563 18.0163C84.5488 18.0486 84.6405 18.0832 84.7313 18.12C84.8221 18.1569 84.912 18.196 85.0008 18.2374C85.0896 18.2787 85.1773 18.3222 85.2641 18.3679C85.3508 18.4136 85.4363 18.4614 85.5206 18.5113C85.6049 18.5612 85.688 18.6132 85.7697 18.6673C85.8515 18.7213 85.9318 18.7773 86.0107 18.8353C86.0897 18.8933 86.1672 18.9533 86.2432 19.0152C87.5457 20.0702 88.33 21.502 88.5138 23.1626L99.1065 23.138C99.3783 21.4111 100.153 19.8649 101.589 18.8085C101.671 18.7488 101.755 18.6913 101.84 18.6358C101.925 18.5803 102.012 18.5269 102.1 18.4757C102.187 18.4245 102.276 18.3755 102.366 18.3288C102.456 18.282 102.548 18.2374 102.64 18.1952C102.733 18.1529 102.826 18.1129 102.92 18.0753C103.015 18.0376 103.11 18.0023 103.206 17.9694C103.302 17.9365 103.399 17.906 103.497 17.8779C103.594 17.8498 103.692 17.8242 103.791 17.801C103.89 17.7777 103.99 17.7569 104.09 17.7386C104.19 17.7203 104.29 17.7045 104.391 17.6911C104.491 17.6778 104.592 17.667 104.694 17.6587C104.795 17.6504 104.896 17.6446 104.998 17.6413C105.099 17.638 105.201 17.6372 105.302 17.639C105.404 17.6407 105.505 17.645 105.607 17.6517C105.708 17.6585 105.809 17.6678 105.91 17.6795C106.011 17.6914 106.112 17.7057 106.212 17.7225C106.309 17.7388 106.406 17.7574 106.503 17.7784C106.599 17.7994 106.695 17.8228 106.79 17.8486C106.885 17.8743 106.98 17.9022 107.074 17.9325C107.168 17.9629 107.261 17.9955 107.353 18.0304C107.446 18.0652 107.537 18.1023 107.628 18.1417C107.718 18.1811 107.808 18.2226 107.896 18.2662C107.985 18.31 108.072 18.3558 108.158 18.4038C108.244 18.4517 108.329 18.5018 108.413 18.5539C108.497 18.6061 108.579 18.6602 108.661 18.7164C108.742 18.7725 108.821 18.8306 108.9 18.8907C108.978 18.9506 109.055 19.0125 109.13 19.0764C109.205 19.1402 109.279 19.2058 109.351 19.2731C109.423 19.3405 109.494 19.4097 109.562 19.4806C109.631 19.5514 109.698 19.6238 109.763 19.6979C109.829 19.7721 109.892 19.8477 109.953 19.9249C110.015 20.0021 110.074 20.0808 110.132 20.1608C110.779 21.075 111.075 22.0632 111.207 23.1644C114.41 23.1629 117.674 23.0315 120.872 23.1764C120.952 24.2398 120.92 25.3175 120.92 26.3838L120.92 31.4697L120.922 47.1613L120.926 94.6795C121.741 95.1389 122.572 95.582 123.31 96.1606C125.613 97.9641 127.123 100.917 127.892 103.685C129.056 107.872 128.702 112.414 128.809 116.713C128.932 121.687 129.109 126.66 129.34 131.631L135.875 131.628C136.974 131.626 138.118 131.562 139.213 131.643C139.372 131.655 139.547 131.669 139.67 131.784C139.695 131.808 139.717 131.835 139.74 131.861C139.663 131.896 139.631 131.915 139.554 131.937C138.879 132.126 135.842 131.995 134.922 131.995L122.538 131.999L41.8919 131.968L20.5323 131.947L14.4998 131.959C14.0197 131.958 13.3681 132.066 12.9131 131.976C12.8066 131.955 12.7931 131.943 12.7088 131.901L12.6605 131.679L12.6199 131.673C12.4878 131.201 12.2879 130.739 12.1517 130.262C11.7371 128.811 11.4159 127.299 11.1801 125.809C9.90485 117.748 11.1582 109.587 11.7242 101.524C11.8501 99.4736 11.9226 97.4209 11.9417 95.3663C10.5986 94.4855 9.34494 93.6072 8.63212 92.1159C8.05542 90.9093 7.8126 89.5962 7.83234 88.2633C7.88423 84.7607 9.74146 79.9691 10.9228 76.6238Z" fill="#2A2626"/>
<path d="M30.7569 115.51C32.2074 115.937 33.601 116.046 35.1054 116.026L34.937 116.152C33.509 116.146 32.0812 116.148 30.6533 116.161C30.6568 115.919 30.6779 115.739 30.7569 115.51Z" fill="#F1BB8C"/>
<path d="M94.6849 102.594C94.787 103.05 93.7427 112.765 93.6057 113.987C93.4994 113.538 93.4182 113.084 93.3315 112.632L92.2529 106.372C92.8547 104.995 93.7947 103.796 94.6849 102.594Z" fill="#F28A20"/>
<path d="M96.3048 129.634C99.7039 129.576 103.114 129.634 106.514 129.638C108.6 129.641 110.773 129.522 112.849 129.675C113.178 129.699 113.581 129.758 113.785 130.056C113.899 130.221 113.946 130.398 113.922 130.597C113.871 131.019 113.663 131.252 113.332 131.494C112.331 131.724 109.76 131.585 108.611 131.591L95.9443 131.613L96.4702 131.225C96.4485 130.687 96.3879 130.166 96.3048 129.634Z" fill="#6375B7"/>
<path d="M99.7652 124.895C101.355 124.749 103.026 124.865 104.623 124.883L104.597 129.262L100.642 129.259L96.2252 129.238C96.0252 128.397 95.8714 127.547 95.7637 126.688C97.0643 125.98 98.317 125.257 99.7652 124.895Z" fill="white"/>
<path d="M112.314 88.2305C112.323 88.2557 112.334 88.2806 112.341 88.3063C112.594 89.1476 113.016 94.2456 112.914 95.1485C112.868 95.5578 112.744 95.9353 112.541 96.294C112.114 97.0499 111.367 97.6024 110.533 97.8312C109.42 98.1368 108.417 97.8504 107.45 97.292C107.392 97.2496 107.335 97.2065 107.278 97.1626C106.035 96.1994 106.146 94.6613 105.968 93.2493C107.34 93.2643 108.427 93.0292 109.616 92.3109C111.226 91.3384 111.867 90.0034 112.314 88.2305Z" fill="white"/>
<path d="M82.0734 18.0418C83.4939 17.9098 84.9545 18.4142 86.0458 19.3152C87.2241 20.2881 88.0066 21.6562 88.1486 23.1811L82.8921 23.1964C80.8661 23.2023 78.8162 23.2587 76.793 23.1685C77.0159 22.0408 77.3858 21.0236 78.1146 20.1188C79.0978 18.8983 80.5343 18.2186 82.0734 18.0418Z" fill="white"/>
<path d="M104.58 18.0424C104.604 18.0393 104.628 18.0355 104.653 18.0333C104.744 18.0246 104.836 18.0182 104.928 18.014C105.02 18.0097 105.112 18.0076 105.204 18.0078C105.296 18.008 105.388 18.0105 105.48 18.0151C105.572 18.0197 105.664 18.0266 105.755 18.0357C105.847 18.0446 105.938 18.0559 106.029 18.0693C106.12 18.0828 106.211 18.0985 106.301 18.1164C106.392 18.1341 106.481 18.1541 106.571 18.1763C106.66 18.1985 106.749 18.2229 106.837 18.2492C106.925 18.2757 107.013 18.3043 107.099 18.3349C107.186 18.3656 107.272 18.3984 107.357 18.4332C107.442 18.4681 107.527 18.5049 107.61 18.5438C107.694 18.5827 107.776 18.6235 107.858 18.6664C107.939 18.7093 108.019 18.7541 108.099 18.8009C108.178 18.8476 108.256 18.8962 108.333 18.9468C108.41 18.9973 108.486 19.0496 108.56 19.1038C108.635 19.1579 108.708 19.2138 108.779 19.2715C110.026 20.2805 110.679 21.5861 110.854 23.1657L105.799 23.1648L99.4639 23.1506C99.612 22.094 99.9543 21.1726 100.597 20.3155C101.597 18.9837 102.948 18.2697 104.58 18.0424Z" fill="white"/>
<path d="M36.2322 18.1132C36.2671 18.1088 36.3018 18.1041 36.3367 18.1001C36.4316 18.0894 36.5268 18.081 36.6222 18.0751C36.7175 18.0691 36.8129 18.0656 36.9084 18.0644C37.004 18.0632 37.0995 18.0645 37.1949 18.0682C37.2904 18.0718 37.3858 18.0779 37.481 18.0864C37.5761 18.0948 37.671 18.1055 37.7656 18.1187C37.8603 18.1319 37.9545 18.1475 38.0483 18.1655C38.1422 18.1834 38.2355 18.2037 38.3284 18.2264C38.4212 18.2491 38.5134 18.274 38.605 18.3013C38.6965 18.3285 38.7873 18.358 38.8774 18.3899C38.9675 18.4217 39.0567 18.4558 39.1451 18.4921C39.2334 18.5284 39.3209 18.567 39.4073 18.6077C39.4937 18.6484 39.5791 18.6913 39.6633 18.7363C39.7476 18.7813 39.8307 18.8284 39.9126 18.8777C39.9946 18.9269 40.0752 18.9781 40.1545 19.0313C40.2339 19.0846 40.3118 19.1398 40.3883 19.197C40.4648 19.2541 40.5399 19.3132 40.6136 19.3741C41.8196 20.3555 42.5905 21.6458 42.7503 23.1968C41.1128 23.2397 39.4684 23.217 37.8299 23.2206L31.209 23.2117C31.3978 22.1794 31.7066 21.2592 32.3338 20.4046C33.2971 19.0923 34.6424 18.3653 36.2322 18.1132Z" fill="#D6E5F4"/>
<path d="M59.5293 18.0476C60.8276 18.007 62.0808 18.3019 63.1374 19.079C64.5446 20.114 65.2491 21.5089 65.5158 23.2025L60.2232 23.2072L54.0127 23.2019C54.1816 21.9967 54.5956 20.9925 55.3828 20.0559C56.472 18.7602 57.8701 18.1807 59.5293 18.0476Z" fill="#D6E5F4"/>
<path d="M31.1924 23.5703C35.0521 23.5155 38.9213 23.5787 42.7819 23.5743C42.6886 25.1283 42.1562 26.2886 41.1084 27.4261C41.0475 27.4858 40.9855 27.5441 40.9222 27.6011C40.8589 27.6582 40.7944 27.7138 40.7287 27.7681C40.6629 27.8224 40.5961 27.8753 40.5283 27.9268C40.4603 27.9782 40.3913 28.0282 40.3211 28.0768C40.2511 28.1252 40.1801 28.1722 40.108 28.2177C40.0359 28.2631 39.9629 28.307 39.8889 28.3494C39.8149 28.3918 39.7401 28.4325 39.6645 28.4717C39.5888 28.5109 39.5123 28.5484 39.4351 28.5842C39.3577 28.6201 39.2797 28.6544 39.201 28.6869C39.1222 28.7195 39.0427 28.7504 38.9626 28.7796C38.8827 28.8087 38.8021 28.8362 38.7208 28.8619C38.6396 28.8877 38.5578 28.9117 38.4754 28.9339C38.3932 28.9561 38.3106 28.9766 38.2274 28.9954C38.1442 29.0141 38.0607 29.0311 37.977 29.0462C37.8931 29.0613 37.8089 29.0747 37.7244 29.0863C37.64 29.0979 37.5554 29.1076 37.4706 29.1156C35.9502 29.2491 34.4238 28.7222 33.2596 27.7462C31.9689 26.6642 31.3283 25.2256 31.1924 23.5703Z" fill="#A2B4DC"/>
<path d="M54.0479 23.5591L65.5425 23.562C65.3749 25.0857 64.9138 26.3111 63.8693 27.4519C62.8328 28.4902 61.4081 29.0659 59.9481 29.1366C59.8563 29.1412 59.7645 29.1436 59.6727 29.1437C59.5808 29.1438 59.489 29.1416 59.3972 29.1372C59.3054 29.1327 59.2138 29.126 59.1224 29.1171C59.0309 29.1083 58.9397 29.0971 58.8489 29.0837C58.758 29.0703 58.6674 29.0546 58.5773 29.0369C58.4872 29.019 58.3975 28.9989 58.3083 28.9767C58.2192 28.9545 58.1307 28.9301 58.0428 28.9036C57.9548 28.8769 57.8675 28.8481 57.781 28.8173C57.6945 28.7864 57.6087 28.7535 57.5238 28.7184C57.4389 28.6834 57.3549 28.6462 57.2718 28.6069C57.1887 28.5678 57.1066 28.5266 57.0256 28.4833C56.9444 28.4401 56.8645 28.395 56.7856 28.3478C56.7068 28.3006 56.6292 28.2516 56.5527 28.2006C56.4763 28.1496 56.4011 28.0968 56.3273 28.0421C56.2534 27.9874 56.1809 27.931 56.1099 27.8728C56.0388 27.8146 55.9692 27.7546 55.901 27.693C54.6791 26.5811 54.1359 25.1801 54.0479 23.5591Z" fill="#A2B4DC"/>
<path d="M78.2682 23.5478C81.5658 23.5223 84.8633 23.5164 88.1609 23.5302C88.142 23.8082 88.1263 24.0902 88.0828 24.3656C87.832 25.9523 86.9234 27.2616 85.6488 28.1978C84.7663 28.7483 83.8411 29.1133 82.7924 29.1701C82.6999 29.1754 82.6073 29.1785 82.5147 29.1794C82.422 29.1801 82.3293 29.1786 82.2368 29.1748C82.1442 29.1711 82.0518 29.1652 81.9595 29.157C81.8672 29.1487 81.7752 29.1381 81.6834 29.1253C81.5916 29.1126 81.5001 29.0976 81.4091 29.0803C81.3181 29.0632 81.2275 29.0437 81.1374 29.022C81.0474 29.0005 80.9579 28.9766 80.8689 28.9506C80.78 28.9245 80.6918 28.8963 80.6042 28.866C80.5167 28.8357 80.4299 28.8032 80.3439 28.7686C80.258 28.734 80.1729 28.6973 80.0887 28.6586C80.0045 28.6198 79.9214 28.579 79.8393 28.5362C79.7571 28.4934 79.6761 28.4486 79.5961 28.4018C79.5161 28.355 79.4373 28.3063 79.3597 28.2556C79.282 28.205 79.2057 28.1526 79.1307 28.0982C79.0557 28.0438 78.982 27.9876 78.9097 27.9297C78.8374 27.8717 78.7666 27.812 78.6973 27.7506C77.4725 26.6506 76.8804 25.1694 76.7988 23.5488L78.2682 23.5478Z" fill="#D6E5F4"/>
<path d="M99.4287 23.5271C103.243 23.5222 107.077 23.4433 110.889 23.5509C110.77 25.1782 110.322 26.254 109.276 27.5059C109.215 27.5692 109.152 27.6312 109.088 27.6916C109.024 27.7521 108.959 27.8109 108.892 27.8683C108.825 27.9257 108.757 27.9815 108.688 28.0357C108.618 28.0898 108.547 28.1423 108.476 28.1932C108.404 28.2441 108.331 28.2932 108.257 28.3407C108.182 28.3881 108.107 28.4338 108.031 28.4778C107.954 28.5217 107.877 28.5639 107.799 28.6042C107.721 28.6445 107.641 28.683 107.561 28.7196C107.481 28.7563 107.4 28.791 107.319 28.8238C107.237 28.8566 107.154 28.8875 107.071 28.9164C106.988 28.9454 106.904 28.9724 106.82 28.9974C106.735 29.0225 106.65 29.0455 106.565 29.0665C106.479 29.0876 106.393 29.1067 106.307 29.1236C106.221 29.1407 106.134 29.1557 106.047 29.1686C105.96 29.1816 105.872 29.1925 105.785 29.2014C105.697 29.2103 105.609 29.2171 105.521 29.2219C105.424 29.2264 105.326 29.2285 105.228 29.2282C105.131 29.2279 105.033 29.2253 104.935 29.2202C104.838 29.215 104.74 29.2075 104.643 29.1976C104.546 29.1877 104.449 29.1754 104.352 29.1607C104.256 29.146 104.16 29.1289 104.064 29.1094C103.968 29.09 103.873 29.0682 103.778 29.044C103.684 29.0198 103.59 28.9934 103.496 28.9646C103.403 28.9359 103.31 28.9048 103.218 28.8714C103.127 28.8381 103.035 28.8025 102.945 28.7646C102.855 28.7268 102.766 28.6868 102.678 28.6445C102.59 28.6023 102.503 28.5579 102.417 28.5113C102.331 28.4649 102.246 28.4162 102.163 28.3654C102.079 28.3148 101.997 28.262 101.916 28.2072C101.835 28.1525 101.756 28.0957 101.678 28.037C101.599 27.9783 101.523 27.9178 101.448 27.8554C101.373 27.7929 101.299 27.7286 101.227 27.6625C100.013 26.5487 99.4986 25.1423 99.4287 23.5271Z" fill="#D6E5F4"/>
<path d="M101.721 78.7607C103.205 80.0292 104.157 81.4317 106.286 81.65C107.784 81.8035 107.886 80.9858 108.88 80.244C109.201 80.004 109.563 79.9196 109.958 79.9877C111.51 80.2559 111.194 81.0446 111.83 81.9359C112.129 82.0474 112.489 81.8205 112.803 81.8091C113.128 81.7972 113.403 81.939 113.625 82.1715C113.971 82.5349 114.247 83.1137 114.227 83.6236C114.209 84.0726 113.974 84.4745 113.647 84.7723C113.123 85.2488 112.602 85.3588 111.919 85.3253C111.995 86.7028 112.093 87.8888 111.719 89.2303C111.121 90.5914 110.407 91.5607 109.057 92.2619C107.843 92.8928 106.465 93.1783 105.139 92.727C103.747 92.2531 102.847 91.0439 102.253 89.7581C100.782 86.5744 100.499 82.0458 101.721 78.7607Z" fill="white"/>
<path d="M15.2295 116.465C24.7165 116.529 34.2035 116.537 43.6905 116.489C43.3784 117.742 43.0952 119.002 42.7986 120.258L42.4828 121.228C39.2373 121.276 35.986 121.234 32.7398 121.231L16.3006 121.223C15.8961 119.653 15.5693 118.05 15.2295 116.465Z" fill="#F28A20"/>
<path d="M11.9424 95.3662C13.0153 95.9354 14.4393 96.4862 14.7959 97.7712C15.2035 99.2401 13.9835 101.231 13.5488 102.632C12.0379 107.503 14.5212 111.29 18.6415 113.79C20.6522 115.01 22.907 115.627 25.1883 116.108C23.9734 116.191 22.7425 116.151 21.5249 116.146C19.2888 116.126 17.0526 116.122 14.8165 116.135C15.0921 117.929 15.5706 119.75 16.0083 121.514C16.3165 121.547 16.6243 121.586 16.9342 121.6C17.6315 124.921 18.3642 128.241 19.0117 131.572C18.0487 131.572 13.1782 131.429 12.6612 131.679L12.6207 131.673C12.4885 131.201 12.2887 130.739 12.1525 130.262C11.7378 128.811 11.4166 127.299 11.1809 125.809C9.9056 117.748 11.1589 109.587 11.725 101.524C11.8508 99.4735 11.9233 97.4208 11.9424 95.3662Z" fill="#D6E5F4"/>
<path d="M17.3193 121.588L30.3633 121.578C34.0951 121.561 37.8268 121.568 41.5584 121.6C40.7857 124.265 40.3367 127.076 39.7448 129.791L39.316 131.581L19.4362 131.579C19.1062 130.355 18.8826 129.085 18.6143 127.844C18.1643 125.765 17.7006 123.682 17.3193 121.588Z" fill="white"/>
<path d="M46.7827 87.9702L46.8901 87.9879C47.1771 88.6502 47.2286 90.3541 47.3895 91.1741C47.9788 94.1768 49.5489 97.3899 48.4944 100.478C47.73 102.716 46.1848 102.585 44.4855 103.468C41.2847 105.133 44.8783 108.175 43.859 111.026C43.2935 112.609 41.7905 113.803 40.3172 114.501C37.3355 115.915 33.4337 116.095 30.3354 114.979C31.3084 113.636 32.1226 112.164 32.9632 110.735L35.6272 106.286C37.7877 102.665 40.0904 99.1594 42.4146 95.6434C43.2527 94.3754 44.0106 93.0547 44.89 91.8144L44.9522 91.6953C44.9481 91.5162 44.9313 91.4876 44.8365 91.3336L44.7502 91.3339C44.2912 91.8241 43.973 92.4815 43.611 93.0465C43.0628 93.8936 42.5082 94.7364 41.9473 95.5751C39.259 99.6353 36.6672 103.756 34.172 107.938C32.8141 110.192 31.5393 112.507 30.1132 114.719C28.6068 112.31 28.1408 109.407 28.1123 106.606C28.0857 104.001 28.3128 100.035 30.2915 98.1058C30.6725 97.7343 31.1483 97.4861 31.6904 97.5025C32.5944 97.5299 33.1972 98.2164 33.7641 98.8297C34.7382 97.9115 35.4533 96.4911 36.2301 95.393C39.1651 91.2443 42.0828 89.5791 46.7827 87.9702Z" fill="#6375B7"/>
<path d="M121.773 96.1097C122.497 96.0683 122.971 96.2994 123.517 96.7748C125.755 98.7233 127.191 101.978 127.819 104.822C128.558 108.163 128.334 111.622 128.407 115.015L128.736 125.761C128.808 127.724 128.841 129.697 128.979 131.657C123.936 131.71 118.891 131.603 113.848 131.653C113.913 131.583 113.976 131.512 114.037 131.439C114.373 131.027 114.35 130.692 114.293 130.185C114.206 129.995 114.09 129.782 113.944 129.632C113.769 129.452 113.567 129.373 113.325 129.329C112.386 129.159 111.313 129.256 110.355 129.255L104.971 129.253L104.984 124.892C109.81 124.87 114.659 125.017 119.481 124.878C119.656 122.575 119.516 120.171 119.51 117.859L119.491 104.543C119.496 103.326 119.494 102.109 119.486 100.893C119.481 100.134 119.427 99.3318 119.508 98.5784C119.565 98.0518 119.684 97.5429 119.991 97.1017C120.434 96.4657 121.043 96.2336 121.773 96.1097Z" fill="#F28A20"/>
<path d="M12.7539 72.9121C19.5653 75.8172 25.5836 82.0908 28.6484 88.7701C29.3374 88.1441 30.0322 87.5689 30.9851 87.4201C31.889 87.2789 32.7663 87.5818 33.4815 88.1302C35.4725 89.6575 35.973 92.3833 36.2802 94.7172C35.463 95.8942 34.6883 97.1727 33.796 98.2854C33.2607 97.7244 32.6714 97.2039 31.8635 97.1203C31.2802 97.0599 30.7359 97.2763 30.2871 97.6388C28.306 99.2389 27.9955 102.482 27.7801 104.831C27.0442 103.052 26.4775 101.209 25.7207 99.4313C24.5182 96.6214 23.2209 93.8559 21.8289 91.1348C20.4368 88.4137 18.9533 85.7434 17.3783 83.124C17.0298 82.5342 15.7158 80.1881 15.2313 79.9078L15.1172 79.9394L15.1062 80.0138C15.0728 80.2409 16.4565 82.2723 16.6684 82.6176C17.8915 84.6089 19.0548 86.6346 20.1583 88.6946C21.2618 90.7546 22.3035 92.8454 23.2835 94.9669C24.8423 98.2855 26.4357 101.667 27.4983 105.182C27.7919 106.154 27.7422 107.119 27.8034 108.119C27.953 110.557 28.6051 113.213 30.0145 115.231C30.2644 115.312 30.5111 115.417 30.757 115.51C30.678 115.739 30.6569 115.918 30.6534 116.161C27.28 116.204 23.7829 115.728 20.6569 114.408C18.71 113.586 16.783 112.281 15.4255 110.648C10.5803 104.821 16.2613 100.429 15.0322 97.3772C14.1945 95.2974 10.1193 94.9967 8.68041 91.3623C8.19168 90.1277 8.11567 88.7226 8.23554 87.4126C8.51708 84.3361 9.69315 81.2288 10.7113 78.3276C11.3474 76.5153 11.982 74.6723 12.7539 72.9121Z" fill="#F6A921"/>
<path d="M114.939 93.8568C117.552 93.8185 119.696 94.3973 121.974 95.6926C121.23 95.8588 120.542 95.9994 119.985 96.5765C119.935 96.6288 119.887 96.6828 119.841 96.7385C119.795 96.7944 119.752 96.8519 119.711 96.9111C119.669 96.9703 119.63 97.031 119.594 97.0932C119.557 97.1553 119.523 97.2188 119.491 97.2836C119.459 97.3484 119.43 97.4142 119.403 97.4812C119.376 97.5483 119.352 97.6163 119.33 97.6851C119.308 97.754 119.29 97.8236 119.273 97.8939C119.257 97.9642 119.243 98.035 119.232 98.1064C119.09 99.0414 119.164 100.057 119.163 101.004V106.201L119.159 124.533C114.6 124.592 110.027 124.526 105.466 124.523C103.755 124.522 101.079 124.341 99.5185 124.622C98.4781 124.808 97.5152 125.344 96.5765 125.807L95.6966 126.281L94.5147 119.422C94.2803 118.081 93.944 116.678 93.8478 115.323C93.7857 114.447 94.225 111.536 94.3331 110.489C94.6117 107.789 94.7021 104.78 95.2098 102.146C95.2849 101.756 95.4114 101.452 95.6371 101.121C98.2536 97.2886 101.118 95.1357 105.715 94.2823C105.846 95.3506 105.959 96.3597 106.75 97.1729C107.454 97.8959 108.535 98.3163 109.541 98.321C109.605 98.321 109.669 98.3194 109.733 98.3163C109.797 98.3131 109.861 98.3083 109.925 98.302C109.989 98.2955 110.052 98.2875 110.116 98.2779C110.179 98.2683 110.242 98.2571 110.305 98.2443C110.368 98.2315 110.43 98.2171 110.492 98.2012C110.554 98.1853 110.616 98.1678 110.677 98.1487C110.738 98.1297 110.799 98.1091 110.859 98.0871C110.919 98.065 110.979 98.0414 111.038 98.0163C111.097 97.9912 111.155 97.9647 111.213 97.9366C111.271 97.9086 111.328 97.8791 111.384 97.8482C111.44 97.8173 111.495 97.785 111.55 97.7513C111.604 97.7176 111.658 97.6826 111.711 97.6462C111.764 97.6098 111.815 97.5721 111.866 97.5331C111.917 97.4941 111.967 97.4539 112.016 97.4124C112.065 97.3709 112.112 97.3281 112.159 97.2842C112.206 97.2403 112.251 97.1952 112.296 97.149C113.242 96.1829 113.334 95.1641 113.313 93.8877C113.854 93.8878 114.397 93.8682 114.939 93.8568Z" fill="#F28A20"/>
<path d="M49.195 98.4052C57.4084 98.2995 65.6301 98.3642 73.8442 98.3658L97.2644 98.3573C96.1222 99.8353 95.065 101.346 94.0085 102.886C93.358 103.834 92.6722 104.775 92.1003 105.774C92.0446 105.081 92.0268 104.251 91.4558 103.759C91.1216 103.47 90.6615 103.375 90.2322 103.353C88.1622 103.249 86.0345 103.359 83.9574 103.361L71.1168 103.37L63.0425 103.375C61.4773 103.369 59.7885 103.237 58.2393 103.421C57.8815 103.463 57.5965 103.604 57.3744 103.895C57.1538 104.184 57.1837 104.575 57.1991 104.922C57.2351 105.734 57.3954 106.561 57.5101 107.367C57.712 108.853 57.9374 110.335 58.1861 111.815C58.574 114.194 58.8794 116.586 59.2778 118.963C59.7161 121.524 60.1284 124.089 60.5147 126.659C60.7028 127.843 60.7919 129.379 61.2126 130.476C61.3945 130.951 61.7933 131.279 62.176 131.591C54.7021 131.451 47.2147 131.571 39.739 131.554C40.1676 129.497 40.607 127.441 41.0572 125.389C41.3284 124.129 41.5481 122.831 41.9342 121.601L42.7748 121.485C43.2798 119.901 43.9015 117.782 44.0679 116.15L34.9365 116.152L35.105 116.026C37.9604 115.955 41.0205 115.09 43.0355 112.965C43.8558 112.1 44.516 110.858 44.4526 109.632C44.373 108.092 42.7917 105.677 43.9252 104.369C44.4009 103.82 45.0697 103.623 45.7269 103.384C48.2424 102.471 49.1117 101.022 49.195 98.4052Z" fill="#D6E5F4"/>
<path d="M58.3691 103.743C60.3049 103.681 62.259 103.736 64.1966 103.734L75.235 103.722L84.7704 103.717C86.5061 103.712 88.2597 103.655 89.9939 103.714C90.3342 103.725 90.7406 103.745 91.0502 103.893C91.3014 104.013 91.4794 104.27 91.5618 104.53C91.831 105.381 91.8858 106.399 92.0371 107.287L93.1095 113.486C93.8807 117.908 94.675 122.319 95.3737 126.753C95.5521 127.885 95.876 129.009 96.0096 130.144C96.0467 130.459 96.0824 130.865 95.9033 131.147C95.7292 131.421 95.4092 131.511 95.118 131.602C88.9625 131.692 82.7904 131.568 76.6329 131.565L68.4446 131.578C66.9083 131.58 65.3547 131.623 63.8201 131.549C63.3582 131.527 62.9293 131.487 62.5098 131.273C61.9193 130.972 61.6404 130.579 61.4364 129.957C61.1907 129.207 61.1333 128.343 61.0193 127.562C60.8135 126.131 60.5998 124.7 60.3783 123.271L58.6776 112.456C58.2899 110.009 57.8167 107.542 57.5599 105.079C57.5282 104.775 57.48 104.374 57.6601 104.108C57.8246 103.865 58.0984 103.793 58.3691 103.743Z" fill="#8A9FCE"/>
<path d="M75.9272 115.081C76.4064 115.055 76.8795 115.141 77.3106 115.357C77.388 115.396 77.4634 115.439 77.5368 115.485C77.61 115.532 77.6808 115.582 77.7492 115.635C77.8176 115.689 77.8833 115.746 77.9461 115.806C78.0089 115.866 78.0687 115.928 78.1254 115.994C78.1821 116.06 78.2355 116.128 78.2855 116.199C78.3355 116.27 78.3819 116.343 78.4248 116.419C78.4676 116.494 78.5067 116.572 78.542 116.651C78.5773 116.73 78.6087 116.811 78.636 116.894C78.8121 117.43 78.7839 118.034 78.5115 118.534C78.1867 119.129 77.6499 119.424 77.0192 119.605C76.4572 119.618 76.0174 119.591 75.5087 119.312C75.4331 119.271 75.3598 119.225 75.2887 119.177C75.2177 119.128 75.1493 119.075 75.0835 119.02C75.0176 118.964 74.9547 118.905 74.8948 118.843C74.8348 118.781 74.7781 118.716 74.7247 118.648C74.6712 118.581 74.6212 118.51 74.5749 118.438C74.5284 118.365 74.4857 118.29 74.4467 118.213C74.4077 118.136 74.3727 118.057 74.3415 117.977C74.3105 117.897 74.2835 117.815 74.2605 117.732C74.1092 117.178 74.1421 116.563 74.4331 116.06C74.7738 115.47 75.3036 115.249 75.9272 115.081Z" fill="#2A2626"/>
<path d="M75.7446 115.513C76.1099 115.487 76.4836 115.459 76.8355 115.58C76.9093 115.605 76.9817 115.634 77.0526 115.666C77.1234 115.699 77.1925 115.734 77.2598 115.774C77.3271 115.813 77.3923 115.855 77.4552 115.901C77.5183 115.947 77.5789 115.996 77.6369 116.048C77.695 116.1 77.7503 116.155 77.8028 116.212C77.8555 116.27 77.905 116.33 77.9515 116.392C77.998 116.455 78.0413 116.519 78.0813 116.586C78.1213 116.653 78.1578 116.722 78.1909 116.792C78.396 117.237 78.4614 117.755 78.2671 118.214C78.0457 118.737 77.6291 118.977 77.1281 119.185C76.7552 119.251 76.4255 119.259 76.0622 119.133C75.9932 119.109 75.9257 119.081 75.8596 119.05C75.7934 119.019 75.7288 118.985 75.6659 118.947C75.603 118.91 75.5421 118.87 75.4833 118.827C75.4244 118.783 75.3677 118.737 75.3132 118.688C75.2588 118.64 75.2069 118.588 75.1575 118.534C75.1081 118.481 75.0614 118.424 75.0174 118.366C74.9735 118.307 74.9325 118.247 74.8945 118.185C74.8565 118.122 74.8215 118.058 74.7898 117.992C74.5688 117.537 74.4983 117.001 74.6745 116.519C74.8707 115.982 75.2454 115.74 75.7446 115.513Z" fill="white"/>
<path d="M88.5467 23.5226L99.0869 23.5088C99.0782 24.9517 99.5807 26.4161 100.535 27.5056C101.597 28.7178 103.229 29.4905 104.832 29.5908C104.932 29.5975 105.031 29.6017 105.131 29.6034C105.231 29.6051 105.33 29.6043 105.43 29.6011C105.53 29.5978 105.629 29.592 105.729 29.5838C105.828 29.5756 105.927 29.5648 106.026 29.5516C106.125 29.5384 106.223 29.5228 106.321 29.5047C106.419 29.4865 106.517 29.466 106.614 29.443C106.711 29.42 106.807 29.3946 106.903 29.3668C106.999 29.339 107.094 29.3088 107.188 29.2763C107.282 29.2437 107.375 29.2088 107.468 29.1716C107.56 29.1344 107.652 29.0949 107.742 29.0531C107.833 29.0113 107.922 28.9672 108.011 28.9209C108.099 28.8748 108.186 28.8263 108.272 28.7756C108.358 28.725 108.442 28.6724 108.526 28.6176C108.609 28.5627 108.691 28.5058 108.771 28.4469C108.852 28.3879 108.93 28.327 109.008 28.2641C109.085 28.2013 109.161 28.1366 109.235 28.0699C110.585 26.8478 111.165 25.3044 111.26 23.518L114.148 23.5135L120.564 23.5107L120.562 39.776L21.6299 39.7885C21.6796 34.3804 21.6826 28.9723 21.639 23.5642L23.0752 23.5472C25.6341 23.5328 28.193 23.5377 30.7518 23.5618C30.9394 25.0151 31.4543 26.3828 32.4385 27.4898C33.5143 28.6998 35.1696 29.4416 36.7802 29.5138C38.4127 29.5869 40.0689 28.9463 41.2589 27.8323C42.4567 26.7108 43.1136 25.1752 43.1629 23.5478C46.6582 23.4984 50.158 23.5284 53.6539 23.5258C53.7369 24.9918 54.1015 26.1944 55.0494 27.3392C56.0873 28.5925 57.5747 29.3244 59.1891 29.4697C60.7649 29.6115 62.5291 29.1235 63.7397 28.0855C65.0906 26.9271 65.7479 25.2962 65.8761 23.5536C69.3934 23.5246 72.9106 23.5222 76.4279 23.5463C76.4292 23.6339 76.4324 23.7214 76.4375 23.8089C76.4425 23.8964 76.4494 23.9838 76.4581 24.071C76.4669 24.1582 76.4775 24.2452 76.4899 24.332C76.5023 24.4187 76.5165 24.5052 76.5327 24.5913C76.5488 24.6774 76.5667 24.7632 76.5866 24.8487C76.6063 24.934 76.6278 25.0189 76.6512 25.1034C76.6746 25.1879 76.6998 25.2718 76.7266 25.3552C76.7536 25.4386 76.7823 25.5214 76.8127 25.6037C76.8432 25.6858 76.8754 25.7673 76.9093 25.8481C76.9432 25.9289 76.9788 26.0089 77.0162 26.0882C77.0535 26.1675 77.0925 26.246 77.1331 26.3236C77.1737 26.4014 77.216 26.4781 77.26 26.5539C77.3039 26.6298 77.3494 26.7047 77.3965 26.7786C77.4436 26.8525 77.4922 26.9254 77.5424 26.9972C77.5926 27.069 77.6443 27.1398 77.6975 27.2094C77.7506 27.2792 77.8053 27.3477 77.8614 27.4149C77.9238 27.4906 77.988 27.5647 78.0541 27.6373C78.1202 27.7098 78.188 27.7806 78.2575 27.8497C78.3271 27.9188 78.3984 27.9862 78.4714 28.0519C78.5443 28.1174 78.6189 28.1811 78.6949 28.2429C78.7711 28.3048 78.8487 28.3647 78.9278 28.4228C79.0069 28.4807 79.0874 28.5366 79.1694 28.5906C79.2513 28.6446 79.3345 28.6965 79.419 28.7463C79.5035 28.7961 79.5892 28.8438 79.6761 28.8893C79.763 28.9349 79.8509 28.9783 79.9399 29.0194C80.029 29.0605 80.119 29.0994 80.21 29.1361C80.3009 29.1728 80.3928 29.2071 80.4855 29.2393C80.5782 29.2714 80.6716 29.3011 80.7658 29.3285C80.86 29.3559 80.9548 29.381 81.0502 29.4038C81.1457 29.4264 81.2416 29.4467 81.3379 29.4645C81.4344 29.4825 81.5313 29.498 81.6286 29.5111C81.7257 29.5242 81.8232 29.5349 81.9209 29.5431C82.0211 29.5517 82.1214 29.5578 82.2218 29.5614C82.3223 29.565 82.4228 29.5662 82.5233 29.5649C82.6239 29.5636 82.7243 29.5599 82.8246 29.5538C82.9249 29.5475 83.025 29.5388 83.1249 29.5277C83.2249 29.5166 83.3245 29.503 83.4237 29.487C83.5229 29.471 83.6217 29.4526 83.7201 29.4317C83.8184 29.4109 83.9162 29.3877 84.0133 29.362C84.1106 29.3363 84.2071 29.3083 84.3029 29.2779C84.3987 29.2476 84.4938 29.2149 84.588 29.1799C84.6822 29.1449 84.7755 29.1075 84.8679 29.0679C84.9603 29.0283 85.0517 28.9865 85.142 28.9423C85.2323 28.8983 85.3215 28.852 85.4096 28.8035C85.4977 28.755 85.5845 28.7044 85.6701 28.6517C85.7557 28.599 85.84 28.5442 85.9229 28.4874C86.0057 28.4305 86.0872 28.3717 86.1672 28.3108C86.2472 28.25 86.3257 28.1872 86.4026 28.1225C87.8076 26.927 88.3941 25.3167 88.5467 23.5226Z" fill="#6375B7"/>
<path d="M10.9228 76.6238C10.0947 75.4421 9.15357 74.3596 8.3856 73.1313C5.82731 69.0395 3.96507 64.9987 2.47739 60.4266C2.09141 59.2404 1.68909 58.0537 1.40465 56.8383C1.1197 55.6209 0.938604 54.3711 0.74231 53.1365C0.225323 49.8849 0.0158691 46.7816 0.39503 43.5009C0.422608 43.2566 0.452626 43.0126 0.485085 42.7689C0.517545 42.5252 0.55244 42.2818 0.589769 42.0389C0.627097 41.7958 0.666852 41.5532 0.709035 41.311C0.751219 41.0688 0.79582 40.827 0.84284 40.5857C0.889859 40.3444 0.939288 40.1036 0.991126 39.8633C1.04296 39.6229 1.0972 39.3831 1.15384 39.1439C1.21047 38.9046 1.2695 38.666 1.33091 38.4279C1.39232 38.1899 1.4561 37.9525 1.52226 37.7157C1.58843 37.4789 1.65695 37.2427 1.72784 37.0073C1.79872 36.7719 1.87195 36.5373 1.94754 36.3033C2.02311 36.0693 2.10102 35.8361 2.18127 35.6038C2.26151 35.3714 2.34408 35.1398 2.42896 34.909C2.51383 34.6783 2.60101 34.4484 2.69049 34.2195C2.77996 33.9905 2.87172 33.7624 2.96576 33.5353C3.05981 33.3081 3.15611 33.0818 3.25468 32.8566C3.35324 32.6314 3.45405 32.4072 3.55711 32.184C3.66016 31.9607 3.76544 31.7386 3.87293 31.5175C3.98043 31.2964 4.09013 31.0764 4.20203 30.8574C4.31393 30.6385 4.42801 30.4207 4.54427 30.2041C4.66053 29.9875 4.77894 29.7721 4.8995 29.5578C5.02007 29.3436 5.14277 29.1305 5.26759 28.9187C5.39242 28.7069 5.51936 28.4963 5.64841 28.2871C5.77745 28.0778 5.90857 27.8698 6.04177 27.6632C6.17498 27.4565 6.31023 27.2512 6.44754 27.0472C6.58485 26.8433 6.72419 26.6408 6.86554 26.4396C7.00691 26.2385 7.15028 26.0388 7.29564 25.8405C7.441 25.6422 7.58832 25.4454 7.73761 25.25C7.88691 25.0547 8.03814 24.8609 8.19132 24.6686C8.3445 24.4763 8.49958 24.2855 8.65657 24.0963C8.81356 23.9071 8.97243 23.7195 9.13318 23.5335C9.29392 23.3475 9.45651 23.163 9.62095 22.9802C9.78538 22.7975 9.95162 22.6164 10.1197 22.4369C11.7707 20.6706 13.6015 19.0925 15.4947 17.5924C19.7041 14.257 24.3121 11.9841 29.3643 10.2367C30.4143 9.87353 31.4668 9.47936 32.5367 9.1789C43.9739 5.96693 57.1691 6.32758 67.5358 12.6067C68.6419 13.2842 69.7205 14.0031 70.7713 14.7635C71.8222 15.5238 72.8423 16.3234 73.8317 17.1623C74.7954 17.9921 75.6704 18.9749 76.6807 19.7417C76.9763 19.966 77.1702 20.0592 77.541 20.0983C77.5678 20.1012 77.5946 20.1033 77.6215 20.1058C76.9849 21.1196 76.6436 21.9799 76.441 23.1548L65.8682 23.1614C65.8593 23.0633 65.8481 22.9654 65.8345 22.8677C65.8208 22.7702 65.8048 22.6729 65.7863 22.5761C65.768 22.4793 65.7472 22.383 65.7241 22.2872C65.7009 22.1914 65.6755 22.0962 65.6477 22.0016C65.6199 21.907 65.5898 21.8132 65.5574 21.7202C65.525 21.6271 65.4904 21.5349 65.4535 21.4435C65.4166 21.352 65.3775 21.2616 65.3362 21.1722C65.2948 21.0827 65.2513 20.9943 65.2057 20.9069C65.16 20.8196 65.1122 20.7334 65.0622 20.6485C65.0124 20.5634 64.9604 20.4797 64.9064 20.3973C64.8524 20.3148 64.7964 20.2338 64.7384 20.1541C64.6805 20.0743 64.6206 19.996 64.5588 19.9193C64.497 19.8425 64.4333 19.7673 64.3678 19.6937C64.3023 19.6201 64.2351 19.548 64.1661 19.4776C64.097 19.4073 64.0263 19.3387 63.9539 19.2718C63.8816 19.2049 63.8076 19.1398 63.732 19.0766C63.6549 19.0116 63.5762 18.9486 63.4959 18.8874C63.4156 18.8264 63.3338 18.7674 63.2505 18.7105C63.1673 18.6536 63.0827 18.5988 62.9967 18.5461C62.9107 18.4934 62.8235 18.4429 62.7349 18.3945C62.6464 18.3462 62.5568 18.3001 62.466 18.2562C62.3751 18.2124 62.2832 18.1708 62.1903 18.1316C62.0974 18.0924 62.0036 18.0556 61.9089 18.021C61.8141 17.9864 61.7185 17.9543 61.6221 17.9246C61.5258 17.8948 61.4288 17.8675 61.331 17.8426C61.2332 17.8177 61.1349 17.7953 61.036 17.7753C60.9371 17.7554 60.8379 17.7379 60.7382 17.7229C60.6384 17.708 60.5383 17.6955 60.438 17.6855C60.3376 17.6755 60.2371 17.668 60.1363 17.6631C60.0356 17.6582 59.9348 17.6558 59.8339 17.656C59.7331 17.6561 59.6323 17.6587 59.5316 17.6639C59.4308 17.669 59.3303 17.6767 59.23 17.6869C57.5343 17.8452 56.086 18.6165 55.0087 19.9341C54.2183 20.9009 53.7702 21.9242 53.616 23.1588L43.1715 23.1611C42.8271 21.3358 42.0496 19.8794 40.4883 18.8083C40.4038 18.75 40.3177 18.6938 40.2302 18.6397C40.1428 18.5857 40.0541 18.5339 39.9642 18.4843C39.8742 18.4347 39.783 18.3874 39.6906 18.3422C39.5983 18.2971 39.5049 18.2544 39.4103 18.2141C39.3158 18.1736 39.2204 18.1355 39.124 18.0998C39.0276 18.0642 38.9304 18.031 38.8325 18.0002C38.7344 17.9693 38.6356 17.941 38.5361 17.9151C38.4367 17.8892 38.3367 17.8658 38.236 17.8449C38.1354 17.824 38.0343 17.8056 37.9328 17.7897C37.8312 17.7739 37.7293 17.7605 37.6272 17.7497C37.5249 17.739 37.4225 17.7307 37.3199 17.7249C37.2173 17.7193 37.1146 17.7162 37.0118 17.7156C36.9091 17.715 36.8064 17.717 36.7038 17.7216C36.601 17.7262 36.4985 17.7332 36.3961 17.7428C36.2939 17.7525 36.1919 17.7647 36.0901 17.7794C35.9885 17.7942 35.8872 17.8115 35.7863 17.8313C35.6886 17.8492 35.5914 17.8694 35.4947 17.8921C35.3979 17.9147 35.3018 17.9397 35.2062 17.9671C35.1107 17.9945 35.016 18.0243 34.9219 18.0563C34.8279 18.0884 34.7347 18.1228 34.6424 18.1594C34.55 18.1961 34.4586 18.2351 34.3682 18.2762C34.2778 18.3174 34.1884 18.3607 34.1001 18.4062C34.0119 18.4519 33.9247 18.4996 33.8388 18.5495C33.7529 18.5994 33.6683 18.6514 33.585 18.7054C33.5016 18.7595 33.4196 18.8156 33.339 18.8737C33.2583 18.9317 33.1792 18.9917 33.1016 19.0537C33.0239 19.1157 32.9478 19.1796 32.8733 19.2453C32.7989 19.3111 32.7261 19.3787 32.6549 19.448C32.5837 19.5174 32.5143 19.5884 32.4468 19.6612C32.3791 19.7339 32.3133 19.8083 32.2493 19.8843C32.1852 19.9603 32.1231 20.0379 32.063 20.1169C32.0028 20.196 31.9447 20.2765 31.8885 20.3584C31.319 21.1978 30.9821 22.1644 30.8567 23.1685L21.2892 23.169L21.3103 78.2327C19.1633 76.1658 15.3317 73.4032 12.5247 72.4767C11.9911 73.8579 11.434 75.2346 10.9228 76.6238Z" fill="#D6E5F4"/>
<path d="M21.6055 40.1318L120.577 40.1333L120.566 94.5533C118.004 93.5116 115.97 93.497 113.251 93.5638C112.922 91.5947 112.86 89.5438 112.596 87.5562C113.479 87.1105 114.308 86.246 114.885 85.455C114.966 85.3431 115.045 85.2292 115.121 85.1135C115.197 84.9977 115.27 84.8801 115.341 84.7608C115.411 84.6415 115.478 84.5205 115.543 84.3978C115.607 84.2751 115.668 84.1508 115.726 84.0252C115.784 83.8995 115.84 83.7725 115.891 83.6441C115.943 83.5157 115.992 83.3861 116.038 83.2554C116.083 83.1245 116.126 82.9927 116.165 82.8599C116.204 82.727 116.24 82.5932 116.272 82.4585C116.305 82.3239 116.334 82.1886 116.36 82.0524C116.385 81.9164 116.408 81.7798 116.427 81.6426C116.446 81.5055 116.462 81.3679 116.474 81.2299C116.487 81.092 116.496 80.9539 116.501 80.8154C116.507 80.677 116.509 80.5386 116.508 80.4001C116.507 80.2616 116.502 80.1232 116.494 79.985C116.486 79.8467 116.474 79.7087 116.46 79.571C116.445 79.4333 116.426 79.296 116.405 79.1592C115.96 76.4664 114.282 74.6292 112.141 73.0936C111.384 72.6603 110.605 72.3451 109.784 72.0561C108.124 71.735 106.849 71.7399 105.202 72.1242C104.176 72.5992 103.115 73.1266 102.226 73.8317C101.667 74.275 101.17 74.8101 100.583 75.2169C99.9308 75.6686 99.1824 75.8937 98.5518 76.4015C97.3915 77.7126 96.7591 78.9534 96.8693 80.7423C96.9699 82.3756 97.666 83.7171 98.6198 85.011C99.3295 85.6378 100.055 86.2463 100.91 86.667C101.347 88.7812 102.205 91.3866 104.139 92.6093C104.535 92.8596 105.446 93.0675 105.678 93.3999C105.7 93.6158 105.695 93.6323 105.591 93.8233C105.039 94.2218 104.226 94.2697 103.576 94.4456C101.111 95.2584 99.4747 96.2945 97.5649 98.0397C91.9377 97.9221 86.2846 98.0532 80.6552 98.0548L49.1981 98.0545C49.0272 95.7058 48.3084 93.6222 47.7956 91.3519C47.5038 90.0594 47.3706 88.7377 47.2303 87.4221C45.1955 88.0759 43.2887 88.8408 41.4005 89.8431C41.3605 88.6775 41.3813 87.5037 41.3746 86.337C40.3348 86.3251 28.6109 86.2595 28.3206 86.3633C28.2786 86.3784 28.2472 86.4142 28.2106 86.4395C28.3247 86.5362 28.3465 86.5459 28.5012 86.5551C29.795 86.6323 31.1526 86.5303 32.455 86.5277L41.1642 86.5319C41.1655 87.6793 41.1189 88.8539 41.236 89.9954C39.4137 91.1874 37.9206 92.5984 36.5864 94.3108C36.2211 92.3229 35.8917 90.2471 34.5485 88.6442C33.8066 87.759 32.7622 87.1085 31.5895 87.0301C30.442 86.9535 29.6066 87.4494 28.7762 88.1676C27.0607 84.4507 24.5375 81.3496 21.6315 78.5068L21.6055 40.1318Z" fill="white"/>
<path d="M109.783 72.0562C110.513 71.9123 111.328 72.0581 112.076 72.0314L112.141 73.0937C111.384 72.6604 110.605 72.3452 109.783 72.0562Z" fill="#8A9FCE"/>
<path d="M98.527 72.135C100.027 72.1394 101.526 72.1353 103.026 72.1226C103.745 72.1176 104.485 72.0649 105.201 72.124C104.176 72.5991 103.115 73.1264 102.225 73.8316C101.666 74.2749 101.169 74.81 100.582 75.2168C99.9304 75.6685 99.182 75.8935 98.5514 76.4014C98.5029 74.9811 98.5256 73.5562 98.527 72.135Z" fill="#8A9FCE"/>
<path d="M98.6191 85.0107C99.3289 85.6375 100.054 86.246 100.909 86.6667C101.346 88.781 102.204 91.3863 104.138 92.609C104.534 92.8594 105.446 93.0672 105.677 93.3996C105.699 93.6155 105.694 93.6321 105.59 93.8231C105.039 94.2215 104.225 94.2694 103.575 94.4454C102.866 94.2129 99.6284 94.344 98.6515 94.3411L98.6191 85.0107Z" fill="#8A9FCE"/>
<path d="M49.4236 84.7428L62.8454 84.7393L62.9027 94.3357C58.3961 94.3409 53.8768 94.4317 49.3719 94.3457C49.3526 91.1445 49.3698 87.9436 49.4236 84.7428Z" fill="#D6E5F4"/>
<path d="M49.5091 72.0654L62.8461 72.0698L62.8738 81.7957L49.4609 81.7987L49.5091 72.0654Z" fill="#D6E5F4"/>
<path d="M82.1824 84.6767L95.7262 84.645C95.6647 87.8984 95.7045 91.1494 95.7176 94.4034C93.5578 94.4325 91.3915 94.3877 89.231 94.382C86.896 94.376 84.5575 94.4081 82.223 94.3619C82.1178 91.1391 82.1804 87.9012 82.1824 84.6767Z" fill="#D6E5F4"/>
<path d="M82.185 72.0171C86.662 71.9504 91.1483 72.0329 95.6264 72.061C95.6533 75.2742 95.7373 78.5241 95.6207 81.7351C91.1437 81.8257 86.6523 81.7974 82.1738 81.8078L82.185 72.0171Z" fill="#D6E5F4"/>
<path d="M65.7842 84.6981L79.4519 84.6621L79.3867 94.351L65.7662 94.4042C65.7536 91.1688 65.7596 87.9335 65.7842 84.6981Z" fill="#D6E5F4"/>
<path d="M49.5008 59.4006C53.9724 59.4521 58.4499 59.4055 62.9221 59.3955L62.9082 69.3068C58.4296 69.2425 53.946 69.2784 49.4668 69.2766L49.5008 59.4006Z" fill="#D6E5F4"/>
<path d="M84.9646 59.4363C88.523 59.3626 92.0936 59.4134 95.6531 59.4092L95.649 69.2963L92.739 69.2891L82.1867 69.3248L82.1514 59.4752L84.9646 59.4363Z" fill="#D6E5F4"/>
<path d="M65.7653 71.9995C70.3054 72.0732 74.8504 72.0014 79.3926 72.0676C79.3716 75.3151 79.3747 78.5624 79.4019 81.8094L65.8227 81.8213C65.7203 80.6138 65.7701 79.3678 65.7688 78.1564L65.7653 71.9995Z" fill="#D6E5F4"/>
<path d="M98.5646 59.4004L112.138 59.4704C112.082 62.7363 112.068 66.0024 112.096 69.2686C111.269 69.4693 109.137 69.3177 108.205 69.3146L98.5894 69.2748C98.5364 65.9859 98.5717 62.69 98.5646 59.4004Z" fill="#D6E5F4"/>
<path d="M65.7869 59.4111L73.4052 59.4425C75.411 59.4522 77.4278 59.4949 79.4325 59.4201L79.4568 69.2873L65.7832 69.2848L65.7869 59.4111Z" fill="#D6E5F4"/>
<path d="M49.5124 46.7148C53.9715 46.8167 58.4525 46.7271 62.9138 46.7197L62.9128 53.1086C62.9151 54.3479 62.9591 55.601 62.8983 56.8387C60.2442 56.8353 57.5901 56.8457 54.9361 56.87C53.1174 56.8816 51.2816 56.923 49.4645 56.8409C49.4126 53.4706 49.4925 50.0862 49.5124 46.7148Z" fill="#D6E5F4"/>
<path d="M98.5674 46.7339L112.085 46.73C112.061 50.0986 112.059 53.4672 112.079 56.8358C107.579 56.8945 103.067 56.8324 98.5664 56.8146L98.5674 46.7339Z" fill="#D6E5F4"/>
<path d="M82.1821 46.7463L95.6906 46.7354C95.7347 48.0221 95.6878 49.3224 95.6859 50.6104C95.6951 52.6857 95.69 54.761 95.6705 56.8362C91.1735 56.8663 86.6764 56.8737 82.1793 56.8584C82.1311 53.4906 82.1758 50.1147 82.1821 46.7463Z" fill="#D6E5F4"/>
<path d="M65.7734 46.728C70.3033 46.8383 74.8631 46.7303 79.3956 46.7231L79.4442 56.8726C77.6211 56.9558 75.7703 56.876 73.9443 56.8603C71.2219 56.8573 68.4996 56.8362 65.7774 56.797L65.7734 46.728Z" fill="#D6E5F4"/>
<path d="M41.258 44.0571C41.5921 44.1556 42.5725 45.3248 42.8705 45.634C42.3352 46.1968 41.835 46.7896 41.2897 47.3441C41.3746 48.4474 41.3403 49.5727 41.3416 50.679L41.3442 55.8465L29.8459 55.8421L27.9648 55.8484L27.9424 44.8769L40.4557 44.8369L41.258 44.0571Z" fill="#F28A20"/>
<path d="M33.3801 45.0808C35.6691 45.0772 37.9582 45.0871 40.2471 45.1104C39.451 46.0456 38.5289 46.8905 37.6636 47.7623C36.6111 48.8229 35.5885 49.9144 34.5401 50.9796C33.5471 49.9782 32.5352 48.9553 31.3722 48.1521C30.8248 48.6347 30.3298 49.1682 29.8277 49.6967C30.3259 50.1215 30.7828 50.614 31.2584 51.066C32.3543 52.1102 33.46 53.1439 34.5755 54.1671C35.7542 53.1023 36.8409 51.8463 37.9724 50.7205L41.0969 47.5231C41.1437 50.2248 41.1521 52.9266 41.1222 55.6284L28.1611 55.5969V45.1057C29.9009 45.1067 31.6405 45.0984 33.3801 45.0808Z" fill="white"/>
<path d="M41.4105 72.1597L42.9171 73.6671C42.3855 74.1428 41.8772 74.6228 41.3864 75.1414L41.3776 83.5318L29.5528 83.5207C29.0291 83.5263 28.5057 83.5205 27.9823 83.5033C27.913 79.8021 27.9677 76.0893 27.9687 72.387C30.9854 72.3117 34.0251 72.3901 37.0438 72.3933C38.2859 72.3948 39.634 72.4994 40.8625 72.3617C41.0691 72.3385 41.2327 72.2628 41.4105 72.1597Z" fill="#F28A20"/>
<path d="M28.2061 72.6426L40.7022 72.6511C39.8587 73.3332 39.1002 74.1506 38.3292 74.9125L34.3858 78.8248C33.3406 77.922 32.4188 76.8719 31.3351 76.0141L29.7579 77.6663C31.2563 79.1786 32.872 80.5715 34.3779 82.0797L34.9588 81.5906C36.2883 80.338 37.574 79.0229 38.8454 77.7114C39.5987 76.9341 40.3247 76.1268 41.1251 75.3972C41.1508 78.0266 41.1595 80.6561 41.1512 83.2857L28.2065 83.2782L28.2061 72.6426Z" fill="white"/>
<path d="M41.3103 57.8486C41.8325 58.1895 42.5324 59.0593 43.0096 59.5234C42.4379 60.061 41.8662 60.5954 41.3239 61.1631C41.4068 64.065 41.3379 66.9799 41.3787 69.8842C37.5626 69.9935 33.7191 69.9062 29.9007 69.8938L27.9453 69.8927L27.9699 58.3149C29.9145 58.2679 31.8673 58.2995 33.8125 58.3C36.1333 58.2813 38.4541 58.2963 40.7746 58.3449L41.3103 57.8486Z" fill="#F28A20"/>
<path d="M28.2158 58.5564C32.3173 58.525 36.4187 58.5375 40.52 58.5936C38.6044 60.8001 36.4023 62.8317 34.3851 64.9523C33.3795 64.0419 32.3675 63.1387 31.3489 62.2427C30.7795 62.6771 30.2632 63.1809 29.7455 63.6744C31.3113 65.2178 32.9696 66.6608 34.5095 68.2304L35.2416 67.3396C37.115 65.2715 39.1505 63.3333 41.1264 61.3623L41.1458 69.6459L28.1611 69.6416C28.1589 65.9525 28.081 62.2424 28.2158 58.5564Z" fill="white"/>
</g>
<defs>
<clipPath id="clip0_192_1240">
<rect width="150" height="150" rx="75" fill="white"/>
</clipPath>
</defs>
</svg>
