<svg width="200" height="200" viewBox="0 0 200 200" fill="none" xmlns="http://www.w3.org/2000/svg">
<g clip-path="url(#clip0_1_2236)">
<path d="M0 0H200V200H0V0Z" fill="white"/>
<path d="M16.8271 175.564L16.8811 175.572L16.9456 175.868C17.058 175.924 17.0761 175.94 17.218 175.968C17.8246 176.088 18.6935 175.945 19.3336 175.945L27.377 175.929L55.8564 175.957L163.384 175.999L179.897 175.993C181.123 175.993 185.173 176.168 186.072 175.915C186.175 175.887 186.218 175.861 186.321 175.815C186.239 177.285 186.308 178.797 186.307 180.272L186.288 188.863L16.8012 188.813L16.8271 175.564Z" fill="#343D95"/>
<path d="M14.5643 102.165C13.4601 100.59 12.2053 99.1462 11.1813 97.5085C7.77028 92.0526 5.28729 86.6649 3.30372 80.5688C2.78909 78.9872 2.25267 77.4049 1.8734 75.7844C1.49348 74.1612 1.25201 72.4948 0.990286 70.8487C0.30097 66.5131 0.021698 62.3755 0.527245 58.0012C0.564016 57.6755 0.604041 57.3501 0.64732 57.0253C0.6906 56.7003 0.737126 56.3758 0.786898 56.0518C0.836669 55.7277 0.889676 55.4042 0.945919 55.0813C1.00216 54.7584 1.06163 54.4361 1.12433 54.1143C1.18702 53.7926 1.25292 53.4715 1.32204 53.151C1.39116 52.8306 1.46348 52.5109 1.53899 52.1919C1.6145 51.8728 1.6932 51.5546 1.77508 51.2372C1.85696 50.9199 1.94201 50.6033 2.03022 50.2876C2.11844 49.9718 2.20981 49.657 2.30433 49.343C2.39883 49.0292 2.49647 48.7163 2.59726 48.4044C2.69802 48.0924 2.8019 47.7815 2.9089 47.4717C3.01589 47.1618 3.12597 46.8531 3.23915 46.5454C3.35231 46.2377 3.46855 45.9312 3.58786 45.626C3.70716 45.3207 3.8295 45.0166 3.95489 44.7137C4.08028 44.4107 4.20869 44.1091 4.34011 43.8088C4.47153 43.5086 4.60594 43.2096 4.74335 42.912C4.88076 42.6143 5.02112 42.3181 5.16444 42.0233C5.30778 41.7285 5.45405 41.4352 5.60325 41.1432C5.75244 40.8513 5.90455 40.5609 6.05956 40.2721C6.21457 39.9833 6.37246 39.6961 6.53321 39.4104C6.69397 39.1247 6.85756 38.8407 7.02399 38.5583C7.19044 38.2758 7.35969 37.9951 7.53175 37.7161C7.7038 37.437 7.87863 37.1598 8.05624 36.8842C8.23384 36.6087 8.41418 36.335 8.59725 36.063C8.78034 35.7911 8.96612 35.521 9.1546 35.2528C9.34309 34.9847 9.53424 34.7184 9.72806 34.454C9.92187 34.1896 10.1183 33.9272 10.3174 33.6667C10.5164 33.4062 10.7181 33.1478 10.9223 32.8915C11.1265 32.6351 11.3333 32.3807 11.5426 32.1284C11.7519 31.8762 11.9638 31.626 12.1781 31.378C12.3924 31.1299 12.6092 30.884 12.8285 30.6403C13.0477 30.3967 13.2694 30.1552 13.4934 29.9159C15.6948 27.5608 18.1359 25.4567 20.6602 23.4565C26.2727 19.0094 32.4166 15.9789 39.1529 13.6489C40.5529 13.1647 41.9563 12.6391 43.3828 12.2385C58.6324 7.9559 76.226 8.43678 90.0483 16.809C91.5231 17.7122 92.9611 18.6708 94.3623 19.6846C95.7635 20.6984 97.1236 21.7646 98.4428 22.8831C99.7277 23.9895 100.894 25.2999 102.241 26.3223C102.636 26.6214 102.894 26.7456 103.388 26.7977C103.424 26.8016 103.46 26.8044 103.496 26.8077C104.912 25.0126 106.843 23.8897 109.134 23.6274C109.263 23.6131 109.394 23.6019 109.524 23.594C109.655 23.5861 109.785 23.5814 109.916 23.5799C110.046 23.5785 110.177 23.5803 110.307 23.5854C110.438 23.5904 110.568 23.5986 110.698 23.6102C110.829 23.6217 110.958 23.6364 111.088 23.6544C111.217 23.6722 111.346 23.6933 111.474 23.7176C111.603 23.742 111.731 23.7695 111.858 23.8003C111.985 23.8309 112.111 23.8646 112.236 23.9016C112.361 23.9386 112.486 23.9786 112.609 24.0217C112.732 24.0648 112.854 24.1109 112.976 24.16C113.097 24.2092 113.216 24.2614 113.335 24.3165C113.453 24.3715 113.57 24.4296 113.686 24.4905C113.802 24.5514 113.916 24.6152 114.028 24.6817C114.14 24.7482 114.251 24.8176 114.36 24.8897C114.469 24.9617 114.576 25.0364 114.681 25.1137C114.787 25.1911 114.89 25.271 114.991 25.3536C116.728 26.7602 117.774 28.6694 118.019 30.8835L132.143 30.8506C132.505 28.5481 133.538 26.4866 135.453 25.078C135.562 24.9984 135.674 24.9217 135.788 24.8477C135.901 24.7738 136.016 24.7026 136.133 24.6342C136.25 24.566 136.369 24.5007 136.489 24.4383C136.609 24.376 136.731 24.3166 136.854 24.2602C136.977 24.2038 137.102 24.1506 137.228 24.1005C137.353 24.0502 137.48 24.0031 137.609 23.9592C137.737 23.9154 137.866 23.8747 137.996 23.8372C138.126 23.7998 138.257 23.7656 138.389 23.7346C138.521 23.7036 138.654 23.6759 138.787 23.6514C138.92 23.6271 139.054 23.606 139.188 23.5881C139.322 23.5704 139.457 23.5561 139.592 23.545C139.727 23.5339 139.862 23.5262 139.997 23.5217C140.133 23.5173 140.268 23.5163 140.404 23.5186C140.539 23.521 140.674 23.5266 140.81 23.5356C140.945 23.5447 141.08 23.5571 141.214 23.5727C141.349 23.5885 141.483 23.6075 141.616 23.6299C141.746 23.6517 141.875 23.6766 142.004 23.7046C142.132 23.7325 142.26 23.7637 142.387 23.7981C142.514 23.8324 142.641 23.8697 142.766 23.91C142.891 23.9505 143.015 23.994 143.138 24.0405C143.261 24.087 143.383 24.1365 143.504 24.1889C143.625 24.2414 143.744 24.2967 143.862 24.3549C143.98 24.4133 144.096 24.4744 144.211 24.5383C144.326 24.6023 144.44 24.669 144.551 24.7385C144.663 24.8081 144.773 24.8803 144.881 24.9551C144.989 25.03 145.096 25.1075 145.2 25.1876C145.305 25.2675 145.407 25.3501 145.507 25.4352C145.608 25.5202 145.706 25.6077 145.802 25.6975C145.898 25.7874 145.992 25.8796 146.084 25.9741C146.175 26.0685 146.265 26.1651 146.352 26.2639C146.439 26.3628 146.523 26.4636 146.605 26.5665C146.687 26.6695 146.766 26.7743 146.843 26.8811C147.706 28.1001 148.1 29.4176 148.277 30.8858C152.548 30.8838 156.9 30.7087 161.163 30.9018C161.269 32.3198 161.228 33.7567 161.228 35.1784L161.227 41.9596L161.23 62.8817L161.235 126.239C162.322 126.852 163.429 127.443 164.414 128.214C167.485 130.619 169.498 134.556 170.524 138.247C172.075 143.83 171.603 149.885 171.746 155.617C171.91 162.25 172.146 168.88 172.454 175.507L181.167 175.503C182.632 175.501 184.158 175.415 185.618 175.524C185.83 175.54 186.063 175.559 186.227 175.712C186.261 175.744 186.289 175.781 186.321 175.815C186.218 175.861 186.175 175.887 186.072 175.915C185.173 176.168 181.123 175.993 179.897 175.993L163.384 175.999L55.8565 175.957L27.377 175.929L19.3336 175.945C18.6935 175.945 17.8246 176.089 17.218 175.968C17.0761 175.94 17.058 175.924 16.9456 175.868L16.8811 175.572L16.8271 175.565C16.6509 174.934 16.3844 174.318 16.2029 173.683C15.65 171.748 15.2217 169.732 14.9074 167.745C13.207 156.997 14.8781 146.117 15.6328 135.366C15.8006 132.632 15.8973 129.895 15.9228 127.155C14.132 125.981 12.4605 124.81 11.51 122.821C10.7411 121.212 10.4173 119.462 10.4437 117.684C10.5128 113.014 12.9892 106.625 14.5643 102.165Z" fill="#2A2626"/>
<path d="M41.0092 154.013C42.9432 154.582 44.8014 154.728 46.8072 154.701L46.5826 154.87C44.6787 154.861 42.7749 154.864 40.8711 154.881C40.8758 154.558 40.9039 154.319 41.0092 154.013Z" fill="#F1BB8C"/>
<path d="M126.247 136.792C126.383 137.401 124.99 150.353 124.808 151.982C124.666 151.384 124.558 150.779 124.442 150.176L123.004 141.83C123.806 139.994 125.06 138.394 126.247 136.792Z" fill="#F28A20"/>
<path d="M128.407 172.846C132.939 172.769 137.486 172.845 142.02 172.851C144.801 172.855 147.698 172.696 150.465 172.9C150.905 172.933 151.442 173.011 151.714 173.408C151.866 173.628 151.929 173.864 151.896 174.129C151.828 174.691 151.551 175.003 151.11 175.326C149.775 175.633 146.347 175.447 144.815 175.455L127.926 175.484L128.628 174.967C128.599 174.25 128.518 173.555 128.407 172.846Z" fill="#6375B7"/>
<path d="M133.02 166.526C135.139 166.332 137.367 166.486 139.496 166.511L139.462 172.35L134.188 172.345L128.3 172.318C128.033 171.196 127.828 170.062 127.684 168.918C129.419 167.974 131.089 167.009 133.02 166.526Z" fill="white"/>
<path d="M149.752 117.641C149.764 117.674 149.779 117.708 149.789 117.742C150.125 118.864 150.687 125.661 150.552 126.865C150.491 127.411 150.325 127.914 150.055 128.392C149.485 129.4 148.489 130.137 147.378 130.442C145.893 130.849 144.557 130.467 143.267 129.723C143.19 129.666 143.113 129.609 143.037 129.55C141.38 128.266 141.528 126.215 141.29 124.333C143.121 124.353 144.569 124.039 146.154 123.081C148.301 121.785 149.156 120.005 149.752 117.641Z" fill="white"/>
<path d="M109.431 24.0561C111.325 23.8801 113.272 24.5525 114.727 25.7539C116.298 27.0512 117.342 28.8752 117.531 30.9084L110.522 30.9289C107.821 30.9367 105.088 31.0119 102.39 30.8916C102.687 29.3881 103.181 28.0318 104.152 26.8254C105.463 25.1981 107.379 24.2918 109.431 24.0561Z" fill="white"/>
<path d="M139.44 24.0566C139.472 24.0525 139.504 24.0474 139.537 24.0445C139.659 24.0329 139.781 24.0243 139.904 24.0187C140.026 24.013 140.149 24.0103 140.272 24.0105C140.394 24.0108 140.517 24.014 140.64 24.0203C140.762 24.0264 140.885 24.0355 141.007 24.0476C141.129 24.0596 141.251 24.0746 141.372 24.0925C141.493 24.1105 141.614 24.1314 141.735 24.1552C141.855 24.1789 141.975 24.2056 142.094 24.2351C142.213 24.2648 142.331 24.2972 142.449 24.3324C142.566 24.3677 142.683 24.4058 142.799 24.4466C142.914 24.4875 143.029 24.5312 143.143 24.5777C143.256 24.6242 143.369 24.6733 143.48 24.7252C143.591 24.777 143.701 24.8315 143.81 24.8886C143.918 24.9458 144.026 25.0056 144.131 25.0679C144.237 25.1302 144.341 25.195 144.444 25.2625C144.546 25.3298 144.647 25.3996 144.746 25.4718C144.846 25.544 144.943 25.6185 145.039 25.6955C146.701 27.0408 147.571 28.7816 147.805 30.8877L141.064 30.8865L132.618 30.8675C132.816 29.4588 133.272 28.2302 134.129 27.0875C135.462 25.3117 137.264 24.3597 139.44 24.0566Z" fill="white"/>
<path d="M48.3092 24.1511C48.3557 24.1452 48.4019 24.1389 48.4484 24.1337C48.575 24.1193 48.7019 24.1082 48.8291 24.1003C48.9562 24.0923 49.0834 24.0876 49.2107 24.086C49.3382 24.0844 49.4655 24.0861 49.5928 24.0911C49.7201 24.0959 49.8473 24.104 49.9742 24.1153C50.101 24.1265 50.2275 24.1409 50.3537 24.1585C50.4799 24.1761 50.6055 24.1968 50.7307 24.2208C50.8558 24.2447 50.9803 24.2718 51.1041 24.302C51.2278 24.3322 51.3507 24.3655 51.4728 24.4018C51.5948 24.4382 51.7159 24.4775 51.8361 24.52C51.9562 24.5624 52.0751 24.6079 52.193 24.6563C52.3108 24.7048 52.4273 24.7561 52.5426 24.8104C52.6578 24.8647 52.7716 24.9219 52.884 24.9819C52.9963 25.0419 53.1071 25.1048 53.2164 25.1704C53.3256 25.236 53.4331 25.3043 53.5389 25.3753C53.6447 25.4462 53.7486 25.5199 53.8506 25.5962C53.9527 25.6723 54.0528 25.751 54.151 25.8323C55.759 27.1409 56.7869 28.8612 57 30.9292C54.8166 30.9864 52.624 30.9561 50.4394 30.961L41.6115 30.9491C41.8633 29.5727 42.275 28.3458 43.1113 27.2063C44.3957 25.4565 46.1894 24.4872 48.3092 24.1511Z" fill="#D6E5F4"/>
<path d="M79.3727 24.0635C81.1037 24.0094 82.7746 24.4025 84.1834 25.4387C86.0598 26.8187 86.999 28.6785 87.3547 30.9367L80.2978 30.943L72.0172 30.9359C72.2424 29.3289 72.7943 27.99 73.8439 26.7412C75.2963 25.0137 77.1603 24.241 79.3727 24.0635Z" fill="#D6E5F4"/>
<path d="M41.59 31.4274C46.7363 31.3544 51.8953 31.4386 57.0428 31.4327C56.9183 33.5048 56.2084 35.0518 54.8113 36.5685C54.7302 36.648 54.6475 36.7258 54.5631 36.8019C54.4787 36.8779 54.3927 36.9521 54.3051 37.0245C54.2174 37.0969 54.1284 37.1674 54.0379 37.236C53.9473 37.3046 53.8552 37.3713 53.7617 37.436C53.6684 37.5006 53.5736 37.5632 53.4775 37.6239C53.3814 37.6845 53.284 37.743 53.1853 37.7995C53.0868 37.856 52.987 37.9104 52.8861 37.9626C52.7852 38.0148 52.6833 38.0648 52.5803 38.1126C52.4771 38.1605 52.3731 38.2061 52.2682 38.2495C52.1631 38.293 52.0571 38.3342 51.9504 38.3731C51.8437 38.4119 51.7362 38.4485 51.6279 38.4829C51.5196 38.5173 51.4105 38.5492 51.3008 38.5788C51.1911 38.6085 51.0809 38.6358 50.9701 38.6608C50.8592 38.6858 50.7478 38.7084 50.6361 38.7286C50.5243 38.7488 50.412 38.7666 50.2994 38.7821C50.1869 38.7975 50.0741 38.8105 49.9609 38.8212C47.9338 38.9991 45.8986 38.2966 44.3463 36.9952C42.6254 35.5526 41.7713 33.6345 41.59 31.4274Z" fill="#A2B4DC"/>
<path d="M72.0639 31.4119L87.39 31.4158C87.1666 33.4474 86.5518 35.0812 85.1592 36.6023C83.7772 37.9867 81.8775 38.7542 79.9309 38.8486C79.8085 38.8547 79.6861 38.8578 79.5637 38.858C79.4411 38.8581 79.3187 38.8552 79.1963 38.8494C79.0739 38.8434 78.9518 38.8345 78.8299 38.8226C78.7079 38.8108 78.5863 38.7959 78.4652 38.7781C78.344 38.7601 78.2233 38.7393 78.1031 38.7156C77.9829 38.6917 77.8634 38.665 77.7445 38.6353C77.6257 38.6057 77.5076 38.5733 77.3904 38.5378C77.2731 38.5023 77.1568 38.464 77.0414 38.4228C76.926 38.3817 76.8117 38.3377 76.6984 38.291C76.5853 38.2442 76.4733 38.1947 76.3625 38.1423C76.2517 38.0901 76.1423 38.0352 76.0342 37.9775C75.926 37.9199 75.8193 37.8597 75.7143 37.7968C75.6092 37.7339 75.5057 37.6685 75.4037 37.6005C75.3018 37.5326 75.2016 37.4621 75.1031 37.3892C75.0046 37.3163 74.9079 37.241 74.8133 37.1634C74.7185 37.0858 74.6257 37.0059 74.5348 36.9238C72.9055 35.4412 72.1813 33.5732 72.0639 31.4119Z" fill="#A2B4DC"/>
<path d="M104.357 31.3974C108.754 31.3634 113.151 31.3556 117.548 31.3739C117.522 31.7446 117.502 32.1206 117.444 32.4878C117.109 34.6034 115.898 36.3491 114.198 37.5974C113.021 38.3313 111.788 38.8181 110.39 38.8938C110.266 38.9009 110.143 38.905 110.019 38.9061C109.896 38.9072 109.772 38.9052 109.649 38.9001C109.525 38.8951 109.402 38.8872 109.279 38.8763C109.156 38.8652 109.033 38.8511 108.911 38.8341C108.789 38.8171 108.667 38.7972 108.545 38.7741C108.424 38.7512 108.303 38.7253 108.183 38.6964C108.063 38.6676 107.944 38.6358 107.825 38.6011C107.707 38.5663 107.589 38.5287 107.472 38.4884C107.355 38.4479 107.24 38.4046 107.125 38.3585C107.01 38.3123 106.897 38.2634 106.785 38.2118C106.673 38.1601 106.562 38.1057 106.452 38.0485C106.343 37.9915 106.235 37.9318 106.128 37.8694C106.021 37.8071 105.916 37.7421 105.813 37.6745C105.709 37.6071 105.607 37.5371 105.507 37.4645C105.407 37.392 105.309 37.3171 105.213 37.2399C105.116 37.1626 105.022 37.083 104.93 37.0011C103.297 35.5345 102.507 33.5595 102.398 31.3987L104.357 31.3974Z" fill="#D6E5F4"/>
<path d="M132.572 31.3694C137.657 31.363 142.77 31.2577 147.852 31.4013C147.693 33.571 147.096 35.0054 145.701 36.6745C145.62 36.759 145.536 36.8415 145.451 36.9221C145.366 37.0027 145.278 37.0813 145.189 37.1577C145.1 37.2343 145.009 37.3087 144.917 37.3809C144.824 37.4531 144.73 37.5231 144.634 37.5909C144.538 37.6587 144.441 37.7243 144.342 37.7876C144.243 37.8509 144.143 37.9118 144.041 37.9704C143.939 38.029 143.836 38.0852 143.732 38.1389C143.628 38.1927 143.522 38.244 143.415 38.2929C143.308 38.3417 143.2 38.388 143.092 38.4317C142.983 38.4755 142.873 38.5166 142.762 38.5552C142.651 38.5938 142.539 38.6298 142.427 38.6632C142.314 38.6966 142.201 38.7274 142.087 38.7554C141.973 38.7835 141.858 38.8089 141.743 38.8315C141.628 38.8543 141.512 38.8743 141.396 38.8915C141.28 38.9088 141.163 38.9234 141.046 38.9352C140.93 38.9471 140.812 38.9562 140.695 38.9626C140.565 38.9686 140.435 38.9714 140.305 38.971C140.174 38.9706 140.044 38.967 139.914 38.9602C139.784 38.9533 139.654 38.9433 139.524 38.9302C139.395 38.9169 139.266 38.9005 139.137 38.8809C139.008 38.8613 138.88 38.8385 138.752 38.8126C138.624 38.7867 138.497 38.7576 138.371 38.7253C138.245 38.6931 138.12 38.6578 137.995 38.6194C137.87 38.5811 137.747 38.5397 137.625 38.4952C137.502 38.4508 137.381 38.4033 137.261 38.3528C137.14 38.3024 137.022 38.249 136.904 38.1927C136.787 38.1364 136.671 38.0772 136.556 38.0151C136.441 37.9531 136.329 37.8883 136.217 37.8206C136.106 37.753 135.996 37.6827 135.888 37.6096C135.78 37.5366 135.674 37.461 135.57 37.3827C135.466 37.3044 135.364 37.2237 135.264 37.1405C135.163 37.0572 135.065 36.9714 134.969 36.8833C133.351 35.3983 132.665 33.5231 132.572 31.3694Z" fill="#D6E5F4"/>
<path d="M135.628 105.014C137.607 106.705 138.875 108.575 141.714 108.867C143.712 109.071 143.848 107.981 145.173 106.992C145.602 106.672 146.084 106.559 146.611 106.65C148.68 107.008 148.259 108.059 149.107 109.248C149.506 109.396 149.985 109.094 150.404 109.079C150.837 109.063 151.204 109.252 151.499 109.562C151.961 110.046 152.329 110.818 152.303 111.498C152.279 112.097 151.965 112.633 151.529 113.03C150.831 113.665 150.136 113.812 149.225 113.767C149.327 115.604 149.457 117.185 148.959 118.974C148.161 120.788 147.209 122.081 145.409 123.016C143.79 123.857 141.953 124.238 140.185 123.636C138.33 123.004 137.129 121.392 136.337 119.677C134.376 115.432 133.998 109.394 135.628 105.014Z" fill="white"/>
<path d="M20.3062 155.287C32.9556 155.372 45.6049 155.383 58.2543 155.319C57.8381 156.989 57.4605 158.67 57.065 160.345L56.6439 161.638C52.3166 161.701 47.9816 161.645 43.6533 161.642L21.7344 161.63C21.1951 159.537 20.7594 157.401 20.3062 155.287Z" fill="#F28A20"/>
<path d="M15.9228 127.155C17.3533 127.914 19.252 128.648 19.7273 130.362C20.2709 132.32 18.6442 134.975 18.0647 136.843C16.0501 143.337 19.3612 148.387 24.8549 151.72C27.5357 153.347 30.5422 154.169 33.584 154.811C31.9641 154.921 30.3229 154.868 28.6994 154.861C25.7179 154.835 22.7364 154.83 19.7549 154.846C20.1223 157.239 20.7604 159.667 21.3439 162.018C21.7549 162.063 22.1652 162.114 22.5785 162.133C23.5082 166.562 24.4852 170.988 25.3484 175.43C24.0645 175.43 17.5705 175.238 16.8811 175.572L16.8271 175.564C16.6509 174.934 16.3844 174.318 16.2029 173.683C15.65 171.748 15.2217 169.732 14.9074 167.745C13.207 156.997 14.8781 146.117 15.6328 135.366C15.8006 132.631 15.8973 129.894 15.9228 127.155Z" fill="#D6E5F4"/>
<path d="M23.0926 162.118L40.4846 162.104C45.4602 162.081 50.4358 162.091 55.4113 162.133C54.3811 165.686 53.7824 169.435 52.9932 173.054L52.4215 175.442L25.9151 175.439C25.475 173.806 25.177 172.113 24.8192 170.459C24.2192 167.687 23.601 164.909 23.0926 162.118Z" fill="white"/>
<path d="M62.3766 117.293L62.5197 117.317C62.9023 118.2 62.9711 120.472 63.1855 121.565C63.9713 125.569 66.0648 129.853 64.6588 133.97C63.6396 136.955 61.5793 136.779 59.3137 137.958C55.0459 140.178 59.8373 144.233 58.4783 148.035C57.7242 150.145 55.7203 151.737 53.7559 152.668C49.7803 154.554 44.5779 154.794 40.4469 153.306C41.7441 151.514 42.8297 149.552 43.9506 147.646L47.5025 141.715C50.3832 136.886 53.4535 132.212 56.5523 127.524C57.6699 125.834 58.6805 124.073 59.8529 122.419L59.9359 122.26C59.9305 122.021 59.908 121.983 59.7816 121.778L59.6666 121.778C59.0545 122.432 58.6303 123.308 58.1476 124.062C57.4167 125.191 56.6772 126.315 55.9293 127.433C52.3449 132.847 48.8893 138.341 45.5623 143.917C43.7518 146.923 42.0519 150.009 40.1506 152.958C38.142 149.747 37.5207 145.875 37.4826 142.141C37.4473 138.668 37.75 133.38 40.3883 130.808C40.8963 130.312 41.5307 129.981 42.2535 130.003C43.4588 130.04 44.2625 130.955 45.0184 131.773C46.3172 130.549 47.2707 128.655 48.3064 127.191C52.2197 121.659 56.11 119.439 62.3766 117.293Z" fill="#6375B7"/>
<path d="M162.364 128.146C163.328 128.091 163.96 128.399 164.688 129.033C167.673 131.631 169.587 135.971 170.425 139.762C171.411 144.218 171.112 148.83 171.208 153.353L171.647 167.681C171.743 170.299 171.787 172.93 171.971 175.542C165.248 175.613 158.52 175.471 151.796 175.536C151.883 175.444 151.967 175.349 152.048 175.251C152.497 174.702 152.465 174.256 152.389 173.58C152.274 173.327 152.119 173.042 151.924 172.842C151.692 172.602 151.422 172.496 151.099 172.438C149.847 172.212 148.417 172.341 147.14 172.34L139.96 172.337L139.979 166.522C146.413 166.492 152.878 166.689 159.308 166.504C159.541 163.433 159.354 160.228 159.346 157.145L159.32 139.39C159.327 137.768 159.325 136.146 159.313 134.523C159.307 133.511 159.236 132.442 159.343 131.438C159.419 130.735 159.578 130.057 159.988 129.469C160.578 128.621 161.389 128.311 162.364 128.146Z" fill="#F28A20"/>
<path d="M17.005 97.2163C26.0869 101.09 34.1113 109.455 38.1977 118.36C39.1164 117.526 40.0428 116.759 41.3133 116.56C42.5186 116.372 43.6883 116.776 44.6418 117.507C47.2965 119.543 47.9639 123.178 48.3734 126.29C47.2838 127.859 46.251 129.564 45.0611 131.047C44.3475 130.299 43.5617 129.605 42.4846 129.494C41.7068 129.413 40.9811 129.702 40.3826 130.185C37.7412 132.319 37.3272 136.643 37.04 139.775C36.0588 137.403 35.3031 134.945 34.2941 132.575C32.6908 128.829 30.9611 125.141 29.1051 121.513C27.249 117.885 25.2709 114.325 23.1709 110.832C22.7063 110.046 20.9543 106.918 20.3082 106.544L20.1561 106.586L20.1414 106.685C20.0969 106.988 21.9418 109.697 22.2244 110.157C23.8551 112.812 25.4062 115.513 26.8775 118.26C28.3489 121.006 29.7379 123.794 31.0445 126.623C33.1229 131.048 35.2475 135.556 36.6643 140.243C37.0557 141.538 36.9895 142.826 37.0711 144.159C37.2705 147.409 38.14 150.951 40.0191 153.642C40.3523 153.75 40.6813 153.889 41.0092 154.013C40.9039 154.319 40.8758 154.558 40.8711 154.881C36.3732 154.939 31.7104 154.304 27.5424 152.544C24.9465 151.448 22.3772 149.708 20.5672 147.531C14.1069 139.761 21.6816 133.906 20.0428 129.836C18.9259 127.063 13.4922 126.662 11.5737 121.817C10.9221 120.17 10.8207 118.297 10.9806 116.55C11.356 112.448 12.924 108.305 14.2816 104.437C15.1297 102.021 15.9759 99.5632 17.005 97.2163Z" fill="#F6A921"/>
<path d="M153.252 125.143C156.736 125.092 159.595 125.863 162.632 127.59C161.64 127.812 160.723 127.999 159.979 128.769C159.913 128.839 159.849 128.911 159.788 128.985C159.727 129.059 159.669 129.136 159.614 129.215C159.559 129.294 159.507 129.375 159.458 129.458C159.409 129.541 159.364 129.625 159.321 129.712C159.279 129.798 159.24 129.886 159.204 129.975C159.168 130.065 159.136 130.155 159.107 130.247C159.078 130.339 159.053 130.432 159.031 130.525C159.009 130.619 158.991 130.714 158.977 130.809C158.787 132.055 158.885 133.41 158.884 134.673V141.601L158.879 166.044C152.8 166.123 146.703 166.035 140.621 166.031C138.339 166.03 134.772 165.789 132.691 166.162C131.304 166.411 130.02 167.125 128.769 167.743L127.596 168.375L126.02 159.229C125.707 157.441 125.259 155.571 125.13 153.764C125.048 152.596 125.633 148.715 125.778 147.319C126.149 143.719 126.27 139.707 126.946 136.195C127.047 135.675 127.215 135.27 127.516 134.829C131.005 129.718 134.824 126.848 140.953 125.71C141.128 127.134 141.278 128.48 142.333 129.564C143.272 130.528 144.713 131.089 146.055 131.095C146.14 131.095 146.226 131.093 146.311 131.089C146.396 131.084 146.482 131.078 146.567 131.069C146.652 131.061 146.736 131.05 146.821 131.037C146.905 131.025 146.99 131.01 147.073 130.993C147.157 130.975 147.24 130.956 147.323 130.935C147.406 130.914 147.488 130.891 147.57 130.865C147.651 130.84 147.732 130.812 147.812 130.783C147.893 130.753 147.972 130.722 148.051 130.689C148.129 130.655 148.207 130.62 148.284 130.582C148.361 130.545 148.437 130.506 148.512 130.464C148.587 130.423 148.66 130.38 148.733 130.335C148.806 130.29 148.877 130.244 148.948 130.195C149.018 130.147 149.087 130.096 149.155 130.044C149.223 129.992 149.289 129.939 149.354 129.883C149.42 129.828 149.483 129.771 149.546 129.712C149.608 129.654 149.668 129.594 149.728 129.532C150.99 128.244 151.112 126.886 151.084 125.184C151.806 125.184 152.53 125.158 153.252 125.143Z" fill="#F28A20"/>
<path d="M65.5939 131.207C76.5451 131.066 87.5074 131.152 98.4596 131.154L129.687 131.143C128.163 133.113 126.754 135.127 125.345 137.18C124.478 138.445 123.563 139.7 122.801 141.031C122.727 140.107 122.703 139.002 121.942 138.345C121.496 137.96 120.883 137.833 120.31 137.804C117.55 137.665 114.713 137.812 111.944 137.814L94.823 137.826L84.0572 137.834C81.9703 137.825 79.7185 137.649 77.6529 137.894C77.176 137.951 76.7959 138.139 76.4998 138.526C76.2057 138.911 76.2455 139.433 76.266 139.895C76.3141 140.978 76.5277 142.08 76.6807 143.155C76.9499 145.137 77.2504 147.114 77.582 149.086C78.0992 152.258 78.5064 155.447 79.0377 158.617C79.6221 162.032 80.1718 165.452 80.6869 168.878C80.9377 170.458 81.0564 172.504 81.6174 173.968C81.86 174.601 82.3916 175.038 82.9019 175.454C72.9367 175.268 62.9535 175.428 52.9859 175.405C53.5574 172.662 54.1433 169.922 54.7435 167.184C55.1051 165.505 55.398 163.774 55.9129 162.134L57.0336 161.98C57.707 159.868 58.5359 157.042 58.7578 154.867L46.5826 154.87L46.8072 154.701C50.6144 154.606 54.6945 153.453 57.3812 150.62C58.475 149.467 59.3553 147.81 59.2707 146.176C59.1646 144.123 57.0562 140.903 58.5676 139.159C59.2017 138.427 60.0935 138.163 60.9697 137.845C64.3238 136.628 65.4828 134.696 65.5939 131.207Z" fill="#D6E5F4"/>
<path d="M77.8258 138.325C80.4068 138.241 83.0123 138.315 85.5957 138.312L100.314 138.296L113.028 138.289C115.342 138.283 117.68 138.207 119.992 138.285C120.446 138.301 120.988 138.327 121.401 138.524C121.736 138.685 121.973 139.027 122.083 139.374C122.442 140.508 122.515 141.866 122.716 143.05L124.146 151.315C125.175 157.211 126.234 163.092 127.165 169.004C127.403 170.514 127.835 172.012 128.013 173.526C128.062 173.946 128.11 174.486 127.871 174.863C127.639 175.228 127.212 175.348 126.824 175.47C118.617 175.589 110.387 175.424 102.178 175.42L91.2597 175.437C89.2113 175.441 87.1398 175.498 85.0937 175.4C84.4779 175.37 83.906 175.316 83.3467 175.031C82.5594 174.63 82.1875 174.106 81.9154 173.276C81.5879 172.277 81.5113 171.125 81.3594 170.083C81.0849 168.175 80.8 166.267 80.5047 164.362L78.2371 149.941C77.7201 146.679 77.0892 143.389 76.7469 140.106C76.7045 139.701 76.6402 139.166 76.8805 138.811C77.0998 138.486 77.4648 138.392 77.8258 138.325Z" fill="#8A9FCE"/>
<path d="M101.236 153.441C101.875 153.406 102.506 153.521 103.081 153.809C103.184 153.861 103.285 153.918 103.382 153.98C103.48 154.042 103.574 154.109 103.666 154.181C103.757 154.252 103.844 154.328 103.928 154.407C104.012 154.487 104.092 154.571 104.167 154.659C104.243 154.746 104.314 154.838 104.381 154.932C104.447 155.027 104.509 155.124 104.566 155.225C104.624 155.326 104.676 155.429 104.723 155.535C104.77 155.641 104.812 155.748 104.848 155.858C105.083 156.573 105.045 157.379 104.682 158.045C104.249 158.838 103.533 159.232 102.692 159.474C101.943 159.491 101.357 159.454 100.678 159.083C100.578 159.028 100.48 158.967 100.385 158.902C100.29 158.837 100.199 158.767 100.111 158.693C100.024 158.618 99.9397 158.54 99.8598 158.457C99.7798 158.374 99.7042 158.288 99.633 158.198C99.5616 158.107 99.495 158.014 99.4332 157.917C99.3712 157.82 99.3142 157.72 99.2623 157.617C99.2103 157.515 99.1636 157.41 99.1221 157.303C99.0807 157.195 99.0446 157.086 99.014 156.975C98.8123 156.237 98.8562 155.418 99.2441 154.746C99.6984 153.959 100.405 153.665 101.236 153.441Z" fill="#2A2626"/>
<path d="M100.993 154.017C101.48 153.983 101.978 153.945 102.447 154.107C102.546 154.141 102.642 154.179 102.737 154.222C102.831 154.265 102.924 154.313 103.013 154.365C103.103 154.417 103.19 154.474 103.274 154.535C103.358 154.596 103.439 154.661 103.516 154.731C103.593 154.8 103.667 154.873 103.737 154.95C103.807 155.026 103.874 155.106 103.936 155.19C103.998 155.273 104.055 155.359 104.109 155.448C104.162 155.538 104.211 155.629 104.255 155.723C104.528 156.316 104.615 157.006 104.356 157.619C104.061 158.317 103.506 158.636 102.838 158.913C102.34 159.002 101.901 159.012 101.416 158.844C101.324 158.812 101.234 158.775 101.146 158.733C101.058 158.692 100.972 158.647 100.888 158.597C100.804 158.547 100.723 158.493 100.645 158.436C100.566 158.378 100.49 158.316 100.418 158.251C100.345 158.186 100.276 158.118 100.21 158.046C100.144 157.974 100.082 157.899 100.023 157.821C99.9648 157.743 99.9102 157.663 99.8596 157.58C99.8088 157.496 99.7622 157.411 99.7199 157.323C99.4252 156.716 99.3313 156.001 99.5662 155.358C99.8277 154.643 100.327 154.32 100.993 154.017Z" fill="white"/>
<path d="M118.062 31.3636L132.116 31.3452C132.104 33.269 132.774 35.2216 134.047 36.6743C135.462 38.2905 137.639 39.3208 139.776 39.4546C139.909 39.4634 140.042 39.469 140.175 39.4714C140.308 39.4736 140.44 39.4726 140.573 39.4683C140.706 39.4638 140.839 39.4562 140.971 39.4452C141.104 39.4343 141.236 39.42 141.368 39.4022C141.499 39.3847 141.631 39.3638 141.761 39.3397C141.892 39.3155 142.022 39.2881 142.151 39.2575C142.281 39.2268 142.409 39.1929 142.537 39.156C142.665 39.1188 142.791 39.0786 142.917 39.0353C143.043 38.9918 143.167 38.9452 143.29 38.8956C143.414 38.846 143.536 38.7933 143.656 38.7376C143.777 38.6819 143.896 38.6231 144.014 38.5614C144.132 38.4998 144.248 38.4353 144.363 38.3677C144.477 38.3002 144.59 38.23 144.701 38.1569C144.812 38.0838 144.921 38.0079 145.028 37.9294C145.135 37.8507 145.24 37.7695 145.344 37.6856C145.447 37.6019 145.548 37.5156 145.647 37.4267C147.446 35.7972 148.22 33.7394 148.347 31.3575L152.197 31.3515L160.752 31.3478L160.749 53.0349L28.8397 53.0515C28.9059 45.8407 28.91 38.6298 28.8518 31.419L30.7668 31.3964C34.1787 31.3772 37.5904 31.3838 41.0022 31.4159C41.2524 33.3536 41.9389 35.1772 43.2512 36.6532C44.6856 38.2665 46.8926 39.2556 49.0401 39.3519C51.2168 39.4493 53.425 38.5952 55.0117 37.1099C56.6088 35.6146 57.4846 33.5671 57.5504 31.3972C62.2108 31.3313 66.8772 31.3714 71.5383 31.3679C71.649 33.3226 72.1352 34.9261 73.399 36.4524C74.7828 38.1235 76.766 39.0993 78.9186 39.2931C81.0197 39.4821 83.3719 38.8315 84.9861 37.4476C86.7873 35.903 87.6637 33.7284 87.8346 31.405C92.5243 31.3663 97.214 31.3631 101.904 31.3952C101.905 31.512 101.91 31.6287 101.916 31.7454C101.923 31.8621 101.932 31.9785 101.944 32.0948C101.956 32.2111 101.97 32.3271 101.986 32.4429C102.003 32.5585 102.022 32.6737 102.043 32.7886C102.065 32.9034 102.089 33.0178 102.115 33.1317C102.142 33.2455 102.17 33.3588 102.201 33.4714C102.233 33.584 102.266 33.6959 102.302 33.8071C102.338 33.9183 102.376 34.0287 102.417 34.1384C102.457 34.2479 102.5 34.3565 102.546 34.4644C102.591 34.572 102.638 34.6787 102.688 34.7845C102.738 34.8902 102.79 34.9948 102.844 35.0983C102.898 35.202 102.955 35.3043 103.013 35.4054C103.072 35.5065 103.132 35.6064 103.195 35.705C103.258 35.8035 103.323 35.9007 103.39 35.9964C103.457 36.0922 103.526 36.1866 103.596 36.2794C103.667 36.3724 103.74 36.4637 103.815 36.5534C103.898 36.6543 103.984 36.7532 104.072 36.8499C104.16 36.9465 104.25 37.0409 104.343 37.1331C104.436 37.2253 104.531 37.3151 104.628 37.4026C104.726 37.49 104.825 37.5749 104.926 37.6573C105.028 37.7399 105.131 37.8198 105.237 37.8972C105.342 37.9744 105.45 38.049 105.559 38.121C105.668 38.193 105.779 38.2622 105.892 38.3286C106.004 38.395 106.119 38.4586 106.235 38.5192C106.35 38.58 106.468 38.6379 106.586 38.6927C106.705 38.7475 106.825 38.7994 106.946 38.8483C107.068 38.8972 107.19 38.943 107.314 38.9858C107.437 39.0287 107.562 39.0683 107.688 39.1048C107.813 39.1414 107.94 39.1748 108.067 39.2052C108.194 39.2354 108.322 39.2624 108.45 39.2862C108.579 39.3102 108.708 39.3309 108.838 39.3483C108.967 39.3658 109.097 39.38 109.228 39.3909C109.361 39.4024 109.495 39.4105 109.629 39.4153C109.763 39.4201 109.897 39.4217 110.031 39.42C110.165 39.4183 110.299 39.4134 110.433 39.4052C110.566 39.3968 110.7 39.3853 110.833 39.3704C110.966 39.3556 111.099 39.3375 111.231 39.3161C111.364 39.2949 111.495 39.2703 111.627 39.2425C111.758 39.2147 111.888 39.1838 112.018 39.1495C112.147 39.1153 112.276 39.0779 112.404 39.0374C112.531 38.9969 112.658 38.9534 112.784 38.9067C112.909 38.86 113.034 38.8102 113.157 38.7573C113.28 38.7046 113.402 38.6488 113.522 38.5899C113.643 38.5312 113.762 38.4695 113.879 38.4048C113.997 38.3402 114.113 38.2728 114.227 38.2024C114.341 38.1321 114.453 38.0591 114.564 37.9833C114.674 37.9075 114.783 37.8291 114.889 37.7479C114.996 37.6668 115.101 37.5831 115.203 37.4968C117.077 35.9028 117.859 33.7558 118.062 31.3636Z" fill="#6375B7"/>
<path d="M14.5643 102.165C13.4601 100.59 12.2053 99.1462 11.1813 97.5085C7.77028 92.0526 5.28729 86.6649 3.30372 80.5688C2.78909 78.9872 2.25267 77.4049 1.8734 75.7844C1.49348 74.1612 1.25201 72.4948 0.990286 70.8487C0.30097 66.5131 0.021698 62.3755 0.527245 58.0012C0.564016 57.6755 0.604041 57.3501 0.64732 57.0253C0.6906 56.7003 0.737126 56.3758 0.786898 56.0518C0.836669 55.7277 0.889676 55.4042 0.945919 55.0813C1.00216 54.7584 1.06163 54.4361 1.12433 54.1143C1.18702 53.7926 1.25292 53.4715 1.32204 53.151C1.39116 52.8306 1.46348 52.5109 1.53899 52.1919C1.6145 51.8728 1.6932 51.5546 1.77508 51.2372C1.85696 50.9199 1.94201 50.6033 2.03022 50.2876C2.11844 49.9718 2.20981 49.657 2.30433 49.343C2.39883 49.0292 2.49647 48.7163 2.59726 48.4044C2.69802 48.0924 2.8019 47.7815 2.9089 47.4717C3.01589 47.1618 3.12597 46.8531 3.23915 46.5454C3.35231 46.2377 3.46855 45.9312 3.58786 45.626C3.70716 45.3207 3.8295 45.0166 3.95489 44.7137C4.08028 44.4107 4.20869 44.1091 4.34011 43.8088C4.47153 43.5086 4.60594 43.2096 4.74335 42.912C4.88076 42.6143 5.02112 42.3181 5.16444 42.0233C5.30778 41.7285 5.45405 41.4352 5.60325 41.1432C5.75244 40.8513 5.90455 40.5609 6.05956 40.2721C6.21457 39.9833 6.37246 39.6961 6.53321 39.4104C6.69397 39.1247 6.85756 38.8407 7.02399 38.5583C7.19044 38.2758 7.35969 37.9951 7.53175 37.7161C7.7038 37.437 7.87863 37.1598 8.05624 36.8842C8.23384 36.6087 8.41418 36.335 8.59725 36.063C8.78034 35.7911 8.96612 35.521 9.1546 35.2528C9.34309 34.9847 9.53424 34.7184 9.72806 34.454C9.92187 34.1896 10.1183 33.9272 10.3174 33.6667C10.5164 33.4062 10.7181 33.1478 10.9223 32.8915C11.1265 32.6351 11.3333 32.3807 11.5426 32.1284C11.7519 31.8762 11.9638 31.626 12.1781 31.378C12.3924 31.1299 12.6092 30.884 12.8285 30.6403C13.0477 30.3967 13.2694 30.1552 13.4934 29.9159C15.6948 27.5608 18.1359 25.4567 20.6602 23.4565C26.2727 19.0094 32.4166 15.9789 39.1529 13.6489C40.5529 13.1647 41.9563 12.6391 43.3828 12.2385C58.6324 7.9559 76.226 8.43678 90.0483 16.809C91.5231 17.7122 92.9611 18.6708 94.3623 19.6846C95.7635 20.6984 97.1236 21.7646 98.4428 22.8831C99.7277 23.9895 100.894 25.2999 102.241 26.3223C102.636 26.6214 102.894 26.7456 103.388 26.7977C103.424 26.8016 103.46 26.8044 103.496 26.8077C102.647 28.1594 102.192 29.3065 101.922 30.8731L87.8248 30.8819C87.813 30.751 87.798 30.6205 87.7799 30.4903C87.7617 30.3602 87.7402 30.2306 87.7156 30.1014C87.6912 29.9724 87.6635 29.844 87.6326 29.7163C87.6018 29.5885 87.5678 29.4616 87.5309 29.3354C87.4938 29.2094 87.4536 29.0843 87.4104 28.9602C87.3673 28.8361 87.3211 28.7131 87.2719 28.5913C87.2227 28.4694 87.1705 28.3488 87.1154 28.2296C87.0602 28.1103 87.0022 27.9924 86.9414 27.8758C86.8805 27.7594 86.8167 27.6446 86.7502 27.5313C86.6837 27.4179 86.6144 27.3062 86.5424 27.1963C86.4704 27.0865 86.3957 26.9784 86.3184 26.8721C86.2412 26.7658 86.1613 26.6614 86.0789 26.559C85.9965 26.4567 85.9116 26.3564 85.8242 26.2583C85.737 26.1601 85.6473 26.0641 85.5553 25.9702C85.4632 25.8764 85.369 25.785 85.2725 25.6958C85.176 25.6066 85.0774 25.5198 84.9766 25.4354C84.8737 25.3488 84.7688 25.2648 84.6617 25.1833C84.5547 25.1019 84.4456 25.0232 84.3346 24.9473C84.2236 24.8714 84.1108 24.7984 83.9961 24.7282C83.8815 24.6579 83.7652 24.5905 83.6471 24.526C83.5291 24.4616 83.4096 24.4001 83.2885 24.3417C83.1674 24.2832 83.0449 24.2278 82.9209 24.1755C82.7971 24.1232 82.672 24.0741 82.5457 24.028C82.4193 23.9819 82.2918 23.9391 82.1633 23.8995C82.0349 23.8598 81.9055 23.8233 81.7752 23.7901C81.6449 23.7569 81.5137 23.727 81.3818 23.7005C81.2501 23.6739 81.1177 23.6506 80.9848 23.6305C80.8517 23.6106 80.7183 23.594 80.5846 23.5807C80.4507 23.5673 80.3166 23.5574 80.1822 23.5508C80.048 23.5442 79.9136 23.541 79.7791 23.5413C79.6446 23.5414 79.5102 23.5449 79.376 23.5518C79.2416 23.5587 79.1076 23.5689 78.9738 23.5825C76.7129 23.7936 74.7818 24.8219 73.3455 26.5788C72.2916 27.8678 71.6942 29.2323 71.4885 30.8784L57.5625 30.8815C57.1033 28.4477 56.0666 26.5059 53.985 25.0778C53.8722 25.0001 53.7575 24.9251 53.6408 24.853C53.5243 24.781 53.4061 24.7119 53.2861 24.6458C53.1661 24.5796 53.0445 24.5165 52.9213 24.4563C52.7983 24.3962 52.6737 24.3392 52.5477 24.2854C52.4216 24.2315 52.2943 24.1807 52.1658 24.1331C52.0373 24.0855 51.9078 24.0413 51.7772 24.0003C51.6464 23.9591 51.5147 23.9213 51.382 23.8868C51.2495 23.8523 51.1161 23.8211 50.9818 23.7932C50.8477 23.7654 50.713 23.7408 50.5775 23.7196C50.4421 23.6985 50.3063 23.6807 50.1701 23.6663C50.0338 23.6519 49.8972 23.6409 49.7604 23.6333C49.6236 23.6257 49.4867 23.6215 49.3496 23.6208C49.2126 23.62 49.0757 23.6227 48.9389 23.6288C48.8019 23.6349 48.6652 23.6443 48.5287 23.6571C48.3924 23.67 48.2564 23.6863 48.1207 23.7059C47.9852 23.7256 47.8501 23.7486 47.7156 23.7751C47.5853 23.7989 47.4557 23.8259 47.3268 23.8561C47.1977 23.8863 47.0695 23.9197 46.9422 23.9561C46.8148 23.9927 46.6885 24.0324 46.5631 24.0751C46.4377 24.1179 46.3135 24.1637 46.1904 24.2126C46.0673 24.2615 45.9454 24.3134 45.8248 24.3682C45.7042 24.4232 45.5851 24.481 45.4674 24.5417C45.3497 24.6025 45.2335 24.6661 45.119 24.7327C45.0044 24.7992 44.8915 24.8685 44.7805 24.9405C44.6693 25.0126 44.56 25.0874 44.4525 25.1649C44.345 25.2422 44.2395 25.3223 44.1359 25.4049C44.0324 25.4876 43.931 25.5728 43.8316 25.6604C43.7324 25.7482 43.6354 25.8383 43.5404 25.9307C43.4455 26.0232 43.353 26.1179 43.2629 26.2149C43.1727 26.3119 43.0849 26.4111 42.9996 26.5124C42.9142 26.6138 42.8314 26.7172 42.7512 26.8225C42.671 26.928 42.5934 27.0353 42.5186 27.1446C41.7592 28.2637 41.31 29.5526 41.1428 30.8913L28.3861 30.8921L28.4143 104.31C25.5516 101.554 20.4428 97.871 16.7001 96.6356C15.9887 98.4772 15.2459 100.313 14.5643 102.165Z" fill="#D6E5F4"/>
<path d="M28.8066 53.509L160.768 53.511L160.754 126.071C157.338 124.682 154.626 124.663 151.001 124.752C150.562 122.126 150.48 119.392 150.127 116.741C151.304 116.147 152.409 114.995 153.179 113.94C153.288 113.791 153.393 113.639 153.494 113.485C153.596 113.33 153.693 113.173 153.787 113.014C153.881 112.855 153.97 112.694 154.056 112.53C154.142 112.367 154.224 112.201 154.301 112.033C154.379 111.866 154.452 111.697 154.521 111.525C154.591 111.354 154.656 111.181 154.716 111.007C154.777 110.833 154.833 110.657 154.886 110.48C154.938 110.303 154.985 110.124 155.029 109.945C155.072 109.765 155.111 109.585 155.146 109.403C155.18 109.222 155.21 109.04 155.236 108.857C155.261 108.674 155.282 108.49 155.298 108.306C155.315 108.123 155.327 107.938 155.334 107.754C155.342 107.569 155.345 107.385 155.343 107.2C155.341 107.015 155.335 106.831 155.324 106.647C155.314 106.462 155.299 106.278 155.279 106.095C155.259 105.911 155.235 105.728 155.206 105.546C154.613 101.955 152.376 99.5055 149.521 97.4581C148.512 96.8803 147.473 96.46 146.377 96.0747C144.164 95.6465 142.465 95.6532 140.268 96.1655C138.901 96.7989 137.486 97.502 136.3 98.4422C135.555 99.0332 134.892 99.7467 134.11 100.289C133.24 100.891 132.243 101.191 131.402 101.869C129.855 103.617 129.012 105.271 129.158 107.656C129.293 109.834 130.221 111.623 131.492 113.348C132.439 114.184 133.406 114.995 134.546 115.556C135.129 118.375 136.272 121.849 138.851 123.479C139.38 123.813 140.595 124.09 140.903 124.533C140.932 124.821 140.925 124.843 140.787 125.098C140.052 125.629 138.967 125.693 138.1 125.927C134.814 127.011 132.632 128.393 130.086 130.72C122.583 130.563 115.046 130.738 107.54 130.74L65.5969 130.739C65.3689 127.608 64.4105 124.83 63.7268 121.802C63.3377 120.079 63.1602 118.317 62.973 116.563C60.26 117.434 57.7176 118.454 55.2 119.791C55.1467 118.237 55.1744 116.672 55.1654 115.116C53.7791 115.1 38.1473 115.013 37.7602 115.151C37.7041 115.171 37.6623 115.219 37.6135 115.253C37.7656 115.381 37.7947 115.394 38.001 115.407C39.726 115.51 41.5361 115.374 43.2727 115.37L54.885 115.376C54.8867 116.906 54.8246 118.472 54.9807 119.994C52.551 121.583 50.5602 123.465 48.7812 125.748C48.2941 123.097 47.8549 120.329 46.0641 118.192C45.0748 117.012 43.6822 116.145 42.1187 116.04C40.5887 115.938 39.4748 116.599 38.3676 117.557C36.0803 112.601 32.716 108.466 28.8414 104.676L28.8066 53.509Z" fill="white"/>
<path d="M146.377 96.0747C147.35 95.8829 148.437 96.0772 149.434 96.0417L149.521 97.4581C148.512 96.8804 147.473 96.4601 146.377 96.0747Z" fill="#8A9FCE"/>
<path d="M131.369 96.18C133.369 96.1858 135.368 96.1803 137.368 96.1634C138.327 96.1567 139.313 96.0864 140.268 96.1653C138.901 96.7987 137.486 97.5018 136.3 98.4421C135.555 99.0331 134.892 99.7466 134.11 100.289C133.24 100.891 132.243 101.191 131.402 101.868C131.337 99.9747 131.367 98.0749 131.369 96.18Z" fill="#8A9FCE"/>
<path d="M131.492 113.348C132.439 114.184 133.406 114.995 134.546 115.556C135.129 118.375 136.272 121.849 138.851 123.479C139.379 123.813 140.595 124.09 140.903 124.533C140.932 124.821 140.925 124.843 140.787 125.098C140.052 125.629 138.967 125.693 138.1 125.927C137.155 125.617 132.838 125.792 131.536 125.788L131.492 113.348Z" fill="#8A9FCE"/>
<path d="M65.8976 112.99L83.7934 112.986L83.8697 125.781C77.8609 125.788 71.8351 125.909 65.8287 125.794C65.8029 121.526 65.8259 117.258 65.8976 112.99Z" fill="#D6E5F4"/>
<path d="M66.0119 96.0872L83.7945 96.093L83.8315 109.061L65.9477 109.065L66.0119 96.0872Z" fill="#D6E5F4"/>
<path d="M109.577 112.903L127.635 112.86C127.553 117.198 127.606 121.533 127.624 125.871C124.744 125.91 121.855 125.851 118.975 125.843C115.862 125.835 112.744 125.878 109.631 125.816C109.491 121.519 109.574 117.202 109.577 112.903Z" fill="#D6E5F4"/>
<path d="M109.58 96.0224C115.55 95.9335 121.532 96.0435 127.502 96.081C127.538 100.365 127.65 104.698 127.495 108.98C121.525 109.1 115.537 109.063 109.566 109.077L109.58 96.0224Z" fill="#D6E5F4"/>
<path d="M87.7129 112.931L105.937 112.883L105.85 125.802L87.6889 125.873C87.6721 121.559 87.6801 117.245 87.7129 112.931Z" fill="#D6E5F4"/>
<path d="M66.0014 79.2007C71.9635 79.2692 77.9336 79.2071 83.8965 79.1938L83.8779 92.4089C77.9064 92.3231 71.9283 92.371 65.9561 92.3687L66.0014 79.2007Z" fill="#D6E5F4"/>
<path d="M113.286 79.248C118.031 79.1498 122.792 79.2176 127.538 79.2119L127.532 92.3947L123.652 92.3851L109.582 92.4328L109.535 79.3L113.286 79.248Z" fill="#D6E5F4"/>
<path d="M87.6869 95.9993C93.7404 96.0975 99.8004 96.0018 105.857 96.0901C105.829 100.42 105.833 104.75 105.869 109.079L87.7635 109.095C87.6269 107.485 87.6933 105.824 87.6916 104.208L87.6869 95.9993Z" fill="#D6E5F4"/>
<path d="M131.42 79.2007L149.517 79.294C149.443 83.6486 149.424 88.0034 149.462 92.3583C148.359 92.6259 145.516 92.4237 144.273 92.4196L131.453 92.3665C131.382 87.9813 131.429 83.5868 131.42 79.2007Z" fill="#D6E5F4"/>
<path d="M87.7154 79.2148L97.8732 79.2566C100.548 79.2695 103.237 79.3266 105.91 79.2268L105.942 92.383L87.7105 92.3797L87.7154 79.2148Z" fill="#D6E5F4"/>
<path d="M66.017 62.2861C71.9625 62.4219 77.9371 62.3025 83.8855 62.2926L83.8842 70.8111C83.8873 72.4635 83.9459 74.1344 83.8648 75.7846C80.326 75.78 76.7873 75.7939 73.2486 75.8264C70.8236 75.8418 68.376 75.8971 65.9531 75.7875C65.884 71.2938 65.9904 66.7812 66.017 62.2861Z" fill="#D6E5F4"/>
<path d="M131.423 62.3122L149.446 62.3069C149.414 66.7984 149.412 71.2899 149.438 75.7813C143.438 75.8596 137.423 75.7768 131.422 75.753L131.423 62.3122Z" fill="#D6E5F4"/>
<path d="M109.576 62.3281L127.587 62.3135C127.646 64.0291 127.584 65.7629 127.581 67.4803C127.593 70.2473 127.586 73.0143 127.561 75.7812C121.564 75.8214 115.568 75.8312 109.572 75.8109C109.508 71.3205 109.568 66.8193 109.576 62.3281Z" fill="#D6E5F4"/>
<path d="M87.6981 62.3041C93.7379 62.4511 99.8176 62.3072 105.861 62.2976L105.926 75.8302C103.495 75.9412 101.027 75.8347 98.5926 75.8138C94.9626 75.8098 91.3329 75.7817 87.7033 75.7294L87.6981 62.3041Z" fill="#D6E5F4"/>
<path d="M55.0109 58.7427C55.4564 58.8739 56.7637 60.4329 57.1609 60.8452C56.4473 61.5956 55.7803 62.386 55.0533 63.1253C55.1664 64.5964 55.1207 66.0968 55.1225 67.5718L55.126 74.4618L39.7949 74.456L37.2867 74.4644L37.2568 59.8356L53.9412 59.7823L55.0109 58.7427Z" fill="#F28A20"/>
<path d="M44.5064 60.1074C47.5585 60.1026 50.6106 60.1157 53.6625 60.1469C52.601 61.3937 51.3715 62.5203 50.2178 63.6828C48.8145 65.0969 47.451 66.5521 46.0531 67.9725C44.7291 66.6373 43.3799 65.2734 41.8293 64.2025C41.0994 64.8459 40.4395 65.5572 39.7699 66.2619C40.4342 66.8283 41.0434 67.485 41.6775 68.0877C43.1387 69.48 44.613 70.8583 46.1004 72.2225C47.6719 70.8027 49.1209 69.1281 50.6295 67.6269L54.7955 63.3639C54.8579 66.9661 54.8691 70.5684 54.8293 74.1709L37.5479 74.1289V60.1406C39.8675 60.1419 42.187 60.1309 44.5064 60.1074Z" fill="white"/>
<path d="M55.2146 96.2131L57.2234 98.2231C56.5146 98.8573 55.8369 99.4973 55.1824 100.189L55.1707 111.376L39.4043 111.361C38.7061 111.369 38.0081 111.361 37.3103 111.338C37.218 106.403 37.2908 101.453 37.2922 96.5163C41.3144 96.4159 45.3674 96.5204 49.3924 96.5247C51.0484 96.5266 52.8459 96.6661 54.484 96.4825C54.7594 96.4516 54.9775 96.3506 55.2146 96.2131Z" fill="#F28A20"/>
<path d="M37.6082 96.8569L54.2697 96.8683C53.1451 97.7778 52.1338 98.8677 51.1057 99.8835L45.8479 105.1C44.4543 103.896 43.2252 102.496 41.7803 101.352L39.6774 103.555C41.6752 105.572 43.8295 107.429 45.8373 109.44L46.6119 108.788C48.3846 107.117 50.0988 105.364 51.794 103.615C52.7984 102.579 53.7664 101.503 54.8336 100.53C54.8678 104.036 54.8794 107.542 54.8684 111.048L37.6088 111.038L37.6082 96.8569Z" fill="white"/>
<path d="M55.0808 77.1313C55.7771 77.5858 56.7103 78.7456 57.3467 79.3644C56.5844 80.0812 55.8221 80.7937 55.099 81.5507C55.2096 85.4198 55.1178 89.3064 55.1721 93.1788C50.084 93.3245 44.9594 93.2081 39.8682 93.1915L37.2609 93.1901L37.2937 77.753C39.8865 77.6903 42.4902 77.7325 45.0838 77.7331C48.1783 77.7082 51.2726 77.7282 54.3666 77.7931L55.0808 77.1313Z" fill="#F28A20"/>
<path d="M37.6207 78.0752C43.0894 78.0334 48.558 78.0499 54.0264 78.1248C51.4723 81.0668 48.5361 83.7756 45.8465 86.6031C44.5057 85.3892 43.1563 84.1849 41.7982 82.9902C41.0391 83.5695 40.3506 84.2412 39.6603 84.8992C41.748 86.957 43.9592 88.8811 46.0123 90.9738L46.9885 89.7861C49.4863 87.0287 52.2004 84.4443 54.835 81.8164L54.8607 92.8611L37.5478 92.8555C37.5449 87.9367 37.441 82.9898 37.6207 78.0752Z" fill="white"/>
</g>
<defs>
<clipPath id="clip0_1_2236">
<rect width="200" height="200" rx="100" fill="white"/>
</clipPath>
</defs>
</svg>
