<svg width="60" height="60" viewBox="0 0 60 60" fill="none" xmlns="http://www.w3.org/2000/svg">
<path d="M8 3.52941H40C41.0609 3.52941 42.0783 3.90126 42.8284 4.56315C43.5786 5.22505 44 6.12277 44 7.05882V24.7835C45.376 24.8941 46.7093 25.1118 48 25.4365V7.05882C48 5.18671 47.1571 3.39127 45.6569 2.06748C44.1566 0.743695 42.1217 0 40 0H8C5.87827 0 3.84344 0.743695 2.34315 2.06748C0.842854 3.39127 0 5.18671 0 7.05882V49.4118C0 51.2839 0.842854 53.0793 2.34315 54.4031C3.84344 55.7269 5.87827 56.4706 8 56.4706H25.028C24.0091 55.3819 23.1279 54.1985 22.4 52.9412H8C6.93913 52.9412 5.92172 52.5693 5.17157 51.9074C4.42143 51.2455 4 50.3478 4 49.4118H20.828C20.4583 48.258 20.2106 47.0765 20.088 45.8824H4V7.05882C4 6.12277 4.42143 5.22505 5.17157 4.56315C5.92172 3.90126 6.93913 3.52941 8 3.52941ZM12 7.05882C10.9391 7.05882 9.92172 7.43067 9.17157 8.09257C8.42143 8.75446 8 9.65218 8 10.5882V14.1176C8 15.0537 8.42143 15.9514 9.17157 16.6133C9.92172 17.2752 10.9391 17.6471 12 17.6471H36C37.0609 17.6471 38.0783 17.2752 38.8284 16.6133C39.5786 15.9514 40 15.0537 40 14.1176V10.5882C40 9.65218 39.5786 8.75446 38.8284 8.09257C38.0783 7.43067 37.0609 7.05882 36 7.05882H12ZM36 10.5882V14.1176H12V10.5882H36ZM60 44.1176C60 48.3299 58.1036 52.3696 54.7279 55.3482C51.3523 58.3267 46.7739 60 42 60C37.2261 60 32.6477 58.3267 29.2721 55.3482C25.8964 52.3696 24 48.3299 24 44.1176C24 39.9054 25.8964 35.8656 29.2721 32.8871C32.6477 29.9086 37.2261 28.2353 42 28.2353C46.7739 28.2353 51.3523 29.9086 54.7279 32.8871C58.1036 35.8656 60 39.9054 60 44.1176ZM40.08 37.1788C39.8209 37.021 39.5195 36.9259 39.2058 36.903C38.892 36.8801 38.5769 36.9301 38.292 37.0482C38.0598 37.1394 37.8493 37.2687 37.672 37.4294C37.4857 37.5951 37.3385 37.7919 37.2389 38.0081C37.1394 38.2244 37.0894 38.456 37.092 38.6894V49.5424C37.0889 49.7764 37.1386 50.0086 37.2381 50.2255C37.3377 50.4425 37.4852 50.6397 37.672 50.8059C37.8564 50.9642 38.0684 51.0952 38.3 51.1941C38.7058 51.3582 39.1663 51.3834 39.592 51.2647C39.7768 51.2121 39.952 51.136 40.112 51.0388L49.296 45.5082C49.5753 45.3457 49.8004 45.1203 49.948 44.8553C50.0987 44.588 50.1762 44.2932 50.1741 43.9946C50.172 43.6961 50.0904 43.4021 49.936 43.1365C49.7777 42.8764 49.548 42.6556 49.268 42.4941L40.08 37.1788Z" fill="#042637"/>
</svg>
