<svg width="33" height="30" viewBox="0 0 33 30" fill="none" xmlns="http://www.w3.org/2000/svg">
<path d="M29.5 15C29.5 11.8754 28.1304 8.87881 25.6924 6.6694C23.2544 4.45999 19.9478 3.21875 16.5 3.21875C13.0522 3.21875 9.74558 4.45999 7.30761 6.6694C4.86964 8.87881 3.5 11.8754 3.5 15C3.5 18.1246 4.86964 21.1212 7.30761 23.3306C9.74558 25.54 13.0522 26.7812 16.5 26.7812C19.9478 26.7812 23.2544 25.54 25.6924 23.3306C28.1304 21.1212 29.5 18.1246 29.5 15ZM0.5 15C0.5 11.1544 2.18571 7.46623 5.18629 4.74695C8.18687 2.02767 12.2565 0.5 16.5 0.5C20.7435 0.5 24.8131 2.02767 27.8137 4.74695C30.8143 7.46623 32.5 11.1544 32.5 15C32.5 18.8456 30.8143 22.5338 27.8137 25.253C24.8131 27.9723 20.7435 29.5 16.5 29.5C12.2565 29.5 8.18687 27.9723 5.18629 25.253C2.18571 22.5338 0.5 18.8456 0.5 15ZM12.2688 8.83184C12.7438 8.59395 13.3188 8.59961 13.7875 8.86016L22.7875 13.8445C23.2313 14.0938 23.5063 14.5299 23.5063 15.0057C23.5063 15.4814 23.2313 15.9176 22.7875 16.1668L13.7875 21.1512C13.325 21.4061 12.7438 21.4174 12.2688 21.1795C11.7937 20.9416 11.5 20.4885 11.5 19.9957V10.027C11.5 9.53418 11.7937 9.08105 12.2688 8.84316V8.83184Z" fill="#042637"/>
</svg>
