<svg width="60" height="60" viewBox="0 0 60 60" fill="none" xmlns="http://www.w3.org/2000/svg">
<path fill-rule="evenodd" clip-rule="evenodd" d="M49.5 25.45C48.7251 17.5 44.025 5 29.5001 5C14.9751 5 10.275 17.5 9.50006 25.45C6.78131 26.4819 4.98799 29.0921 5.00006 32V35.5C5.00006 39.3661 8.13412 42.5 12 42.5C15.866 42.5 19.0001 39.3659 19.0001 35.5V32C18.9874 29.1548 17.2601 26.5982 14.625 25.525C15.1251 20.925 17.5751 10 29.5001 10C41.4251 10 43.8501 20.925 44.3501 25.525C41.7204 26.6006 40.0017 29.1589 40.0001 32V35.5C40.0055 36.8172 40.381 38.1063 41.0839 39.2203C41.7867 40.3342 42.7886 41.2281 43.9751 41.8C42.9251 43.775 40.2501 46.45 33.675 47.25C32.3608 45.2543 29.8179 44.4675 27.6061 45.3723C25.3944 46.277 24.132 48.6204 24.5932 50.965C25.0545 53.3097 27.1104 55 29.5001 55C30.426 54.9949 31.3324 54.7327 32.1181 54.2427C32.9038 53.7528 33.538 53.0542 33.9501 52.225C44.6751 51 48.1001 45.475 49.1751 42.225C52.0833 41.2829 54.0393 38.5569 54 35.5V32C54.0121 29.0921 52.2188 26.4819 49.5 25.45ZM14.0001 35.5C14.0001 36.6045 13.1046 37.5 12 37.5C10.8954 37.5 10.0001 36.6047 10.0001 35.5V32C9.99808 31.7361 10.0483 31.4744 10.1479 31.2299C10.2475 30.9855 10.3945 30.7632 10.5804 30.5759C10.7664 30.3885 10.9875 30.2398 11.2312 30.1384C11.4748 30.0369 11.7361 29.9847 12.0001 29.9847C12.264 29.9847 12.5253 30.0369 12.769 30.1384C13.0126 30.2398 13.2338 30.3885 13.4197 30.5759C13.6056 30.7632 13.7526 30.9855 13.8522 31.2299C13.9518 31.4744 14.0021 31.7361 14.0001 32V35.5ZM45 32C45 30.8954 45.8954 30 47.0001 30C48.1047 30 49.0001 30.8954 49.0001 32V35.5C49.0001 36.6045 48.1047 37.5 47.0001 37.5C45.8954 37.5 45 36.6047 45 35.5V32Z" fill="#182527"/>
</svg>
