<svg width="67" height="63" viewBox="0 0 67 63" fill="none" xmlns="http://www.w3.org/2000/svg">
<path d="M33.125 31.7083C39.8138 31.7083 45.8969 33.6457 50.3719 36.376C52.6053 37.7383 54.5148 39.3463 55.8938 41.0939C57.2506 42.8108 58.25 44.8655 58.25 47.0625C58.25 49.4215 57.1026 51.2807 55.45 52.6067C53.8866 53.863 51.8236 54.6949 49.6321 55.2756C45.2269 56.4397 39.3476 56.8333 33.125 56.8333C26.9024 56.8333 21.0231 56.4425 16.6179 55.2756C14.4264 54.6949 12.3634 53.863 10.8 52.6067C9.14458 51.2779 8 49.4215 8 47.0625C8 44.8655 8.99942 42.8108 10.3562 41.0911C11.7353 39.3463 13.642 37.7411 15.8781 36.3732C20.3531 33.6485 26.439 31.7083 33.125 31.7083ZM33.125 1C36.827 1 40.3773 2.47061 42.995 5.0883C45.6127 7.706 47.0833 11.2564 47.0833 14.9583C47.0833 18.6603 45.6127 22.2107 42.995 24.8284C40.3773 27.4461 36.827 28.9167 33.125 28.9167C29.423 28.9167 25.8727 27.4461 23.255 24.8284C20.6373 22.2107 19.1667 18.6603 19.1667 14.9583C19.1667 11.2564 20.6373 7.706 23.255 5.0883C25.8727 2.47061 29.423 1 33.125 1Z" fill="#182527"/>
</svg>
