<svg width="60" height="60" viewBox="0 0 60 60" fill="none" xmlns="http://www.w3.org/2000/svg">
<path fill-rule="evenodd" clip-rule="evenodd" d="M13.2686 2.47271L38.5972 2.45985V12.3299L13.2686 12.3427C12.1246 12.344 11.0102 11.9791 10.0886 11.3013L5.98288 8.27128C5.84818 8.17165 5.73871 8.04182 5.66328 7.89221C5.58785 7.74261 5.54856 7.5774 5.54856 7.40985C5.54856 7.24231 5.58785 7.07709 5.66328 6.92749C5.73871 6.77788 5.84818 6.64805 5.98288 6.54842L10.0929 3.51414C11.0116 2.83657 12.1228 2.47019 13.2643 2.46842L13.2686 2.47271ZM49.0243 12.3213L43.9543 12.3256V2.45557H49.0415C51.7586 2.49842 53.8372 4.91128 53.8372 7.38414C53.8372 9.86128 51.7586 12.2784 49.0415 12.3213H49.0243ZM23.6057 22.2213C25.0415 22.7956 26.2629 23.4256 27.3215 24.0513V59.9999C25.6875 58.7738 23.9011 57.7653 22.0072 56.9999C18.8572 55.7399 14.3143 54.6984 7.38431 54.6984C6.81599 54.6984 6.27095 54.4727 5.86908 54.0708C5.46722 53.6689 5.24146 53.1239 5.24146 52.5556V21.7499C5.24146 21.1815 5.46722 20.6365 5.86908 20.2346C6.27095 19.8328 6.81599 19.607 7.38431 19.607C14.7557 19.607 19.8557 20.717 23.6057 22.2213ZM37.9886 56.9999C35.6743 57.9299 34.05 58.997 32.6743 59.9956V24.0513C33.7329 23.4256 34.9586 22.7956 36.3943 22.2213C40.1443 20.717 45.2443 19.607 52.6157 19.607C53.1841 19.607 53.7291 19.8328 54.131 20.2346C54.5328 20.6365 54.7586 21.1815 54.7586 21.7499V52.5556C54.7586 53.1239 54.5328 53.6689 54.131 54.0708C53.7291 54.4727 53.1841 54.6984 52.6157 54.6984C45.6857 54.6984 41.1429 55.7356 37.9886 56.9999Z" fill="#182527"/>
</svg>
