<svg width="61" height="74" viewBox="0 0 61 74" fill="none" xmlns="http://www.w3.org/2000/svg">
<path d="M0.833496 62.6663V57.1663H8.25016V29.2997C8.25016 24.1663 9.77985 19.5677 12.8392 15.5038C15.8986 11.44 19.9314 8.88856 24.9377 7.84967V5.83301C24.9377 4.30523 25.4785 3.00662 26.5601 1.93717C27.6417 0.86773 28.955 0.333008 30.5002 0.333008C32.0453 0.333008 33.3587 0.86773 34.4403 1.93717C35.5219 3.00662 36.0627 4.30523 36.0627 5.83301V7.84967C41.0689 8.88856 45.1017 11.44 48.1611 15.5038C51.2205 19.5677 52.7502 24.1663 52.7502 29.2997V57.1663H60.1668V62.6663H0.833496ZM30.5002 73.6663C28.4606 73.6663 26.7146 72.9483 25.2621 71.5122C23.8097 70.0761 23.0835 68.3497 23.0835 66.333H37.9168C37.9168 68.3497 37.1906 70.0761 35.7382 71.5122C34.2858 72.9483 32.5397 73.6663 30.5002 73.6663ZM13.8127 57.1663H47.1877V29.2997C47.1877 24.7163 45.5653 20.8205 42.3205 17.6122C39.0757 14.4038 35.1356 12.7997 30.5002 12.7997C25.8647 12.7997 21.9246 14.4038 18.6798 17.6122C15.4351 20.8205 13.8127 24.7163 13.8127 29.2997V57.1663Z" fill="#9F9E98"/>
</svg>
