<svg width="48" height="48" viewBox="0 0 48 48" fill="none" xmlns="http://www.w3.org/2000/svg">
<path d="M9 38.9998H11.2L34.8 15.4498L32.6 13.2498L9 36.7998V38.9998ZM6 41.9998V35.5998L34.75 6.8998C35.0167 6.63314 35.3333 6.4248 35.7 6.2748C36.0667 6.1248 36.45 6.0498 36.85 6.0498C37.2167 6.0498 37.5833 6.1248 37.95 6.2748C38.3167 6.4248 38.65 6.63314 38.95 6.8998L41.15 9.0998C41.45 9.3998 41.6667 9.73314 41.8 10.0998C41.9333 10.4665 42 10.8331 42 11.1998C42 11.5665 41.925 11.9415 41.775 12.3248C41.625 12.7081 41.4167 13.0331 41.15 13.2998L12.4 41.9998H6ZM33.7 14.3498L32.6 13.2498L34.8 15.4498L33.7 14.3498Z" fill="#23AE6D"/>
</svg>
